<svg width="28" height="29" viewBox="0 0 28 29" fill="none" xmlns="http://www.w3.org/2000/svg">
<path d="M25.8804 13.8116L15.3148 3.25144L14.6066 2.54323C14.4452 2.38293 14.227 2.29297 13.9995 2.29297C13.7721 2.29297 13.5539 2.38293 13.3925 2.54323L2.11867 13.8116C1.95332 13.9763 1.82265 14.1724 1.73436 14.3885C1.64607 14.6045 1.60195 14.836 1.60461 15.0694C1.61554 16.0319 2.41671 16.8003 3.37922 16.8003H4.54132V25.7061H23.4577V16.8003H24.6445C25.112 16.8003 25.5523 16.6171 25.8831 16.2862C26.046 16.1238 26.1751 15.9307 26.2629 15.7181C26.3507 15.5055 26.3954 15.2776 26.3945 15.0475C26.3945 14.5827 26.2112 14.1425 25.8804 13.8116ZM15.5308 23.7374H12.4683V18.1592H15.5308V23.7374ZM21.489 14.8315V23.7374H17.2808V17.503C17.2808 16.8987 16.7913 16.4092 16.187 16.4092H11.812C11.2077 16.4092 10.7183 16.8987 10.7183 17.503V23.7374H6.51008V14.8315H3.88507L14.0023 4.72253L14.6339 5.35417L24.1167 14.8315H21.489Z" fill="white"/>
</svg>
