<svg width="28" height="29" viewBox="0 0 28 29" fill="none" xmlns="http://www.w3.org/2000/svg">
<path d="M25.8809 13.8116L15.3153 3.25144L14.607 2.54323C14.4457 2.38293 14.2275 2.29297 14 2.29297C13.7726 2.29297 13.5543 2.38293 13.393 2.54323L2.11916 13.8116C1.95381 13.9763 1.82314 14.1724 1.73485 14.3885C1.64655 14.6045 1.60244 14.836 1.60509 15.0694C1.61603 16.0319 2.4172 16.8003 3.3797 16.8003H4.54181V25.7061H23.4582V16.8003H24.6449C25.1125 16.8003 25.5528 16.6171 25.8836 16.2862C26.0465 16.1238 26.1756 15.9307 26.2634 15.7181C26.3511 15.5055 26.3959 15.2776 26.3949 15.0475C26.3949 14.5827 26.2117 14.1425 25.8809 13.8116ZM15.5313 23.7374H12.4688V18.1592H15.5313V23.7374ZM21.4895 14.8315V23.7374H17.2813V17.503C17.2813 16.8987 16.7918 16.4092 16.1875 16.4092H11.8125C11.2082 16.4092 10.7188 16.8987 10.7188 17.503V23.7374H6.51056V14.8315H3.88556L14.0028 4.72253L14.6344 5.35417L24.1172 14.8315H21.4895Z" fill="#B9B9B9"/>
</svg>
