<svg width="31" height="30" viewBox="0 0 31 30" fill="none" xmlns="http://www.w3.org/2000/svg">
<g clip-path="url(#clip0_204_1219)">
<path d="M10.1673 2.33061C10.2969 2.11728 10.5071 1.96345 10.7516 1.90297C10.9962 1.84249 11.2551 1.88031 11.4714 2.00811C11.6877 2.13591 11.8437 2.34323 11.905 2.58445C11.9663 2.82567 11.928 3.08103 11.7984 3.29436L6.95824 11.25H24.5129L19.6708 3.29436C19.5413 3.08103 19.5029 2.82567 19.5642 2.58445C19.6256 2.34323 19.7815 2.13591 19.9978 2.00811C20.2141 1.88031 20.473 1.84249 20.7176 1.90297C20.9622 1.96345 21.1724 2.11728 21.302 2.33061L26.7296 11.25H29.9938C30.2459 11.25 30.4876 11.3488 30.6659 11.5246C30.8442 11.7004 30.9443 11.9388 30.9443 12.1875V15.9375C30.9443 16.1861 30.8442 16.4246 30.6659 16.6004C30.4876 16.7762 30.2459 16.875 29.9938 16.875H29.0432V26.25C29.0432 27.2446 28.6426 28.1984 27.9296 28.9016C27.2165 29.6049 26.2494 30 25.241 30H6.23013C5.22172 30 4.25463 29.6049 3.54158 28.9016C2.82853 28.1984 2.42795 27.2446 2.42795 26.25V16.875H1.4774C1.2253 16.875 0.983525 16.7762 0.805264 16.6004C0.627002 16.4246 0.526855 16.1861 0.526855 15.9375V12.1875C0.526855 11.9388 0.627002 11.7004 0.805264 11.5246C0.983525 11.3488 1.2253 11.25 1.4774 11.25H4.74157L10.1673 2.33061ZM7.18067 19.6875C7.18067 19.4388 7.08052 19.2004 6.90226 19.0246C6.724 18.8488 6.48223 18.75 6.23013 18.75C5.97803 18.75 5.73625 18.8488 5.55799 19.0246C5.37973 19.2004 5.27958 19.4388 5.27958 19.6875V25.3125C5.27958 25.5611 5.37973 25.7996 5.55799 25.9754C5.73625 26.1512 5.97803 26.25 6.23013 26.25C6.48223 26.25 6.724 26.1512 6.90226 25.9754C7.08052 25.7996 7.18067 25.5611 7.18067 25.3125V19.6875ZM11.9334 19.6875C11.9334 19.4388 11.8333 19.2004 11.655 19.0246C11.4767 18.8488 11.235 18.75 10.9829 18.75C10.7308 18.75 10.489 18.8488 10.3107 19.0246C10.1325 19.2004 10.0323 19.4388 10.0323 19.6875V25.3125C10.0323 25.5611 10.1325 25.7996 10.3107 25.9754C10.489 26.1512 10.7308 26.25 10.9829 26.25C11.235 26.25 11.4767 26.1512 11.655 25.9754C11.8333 25.7996 11.9334 25.5611 11.9334 25.3125V19.6875ZM16.6861 19.6875C16.6861 19.4388 16.586 19.2004 16.4077 19.0246C16.2295 18.8488 15.9877 18.75 15.7356 18.75C15.4835 18.75 15.2417 18.8488 15.0634 19.0246C14.8852 19.2004 14.785 19.4388 14.785 19.6875V25.3125C14.785 25.5611 14.8852 25.7996 15.0634 25.9754C15.2417 26.1512 15.4835 26.25 15.7356 26.25C15.9877 26.25 16.2295 26.1512 16.4077 25.9754C16.586 25.7996 16.6861 25.5611 16.6861 25.3125V19.6875ZM21.4388 19.6875C21.4388 19.4388 21.3387 19.2004 21.1604 19.0246C20.9822 18.8488 20.7404 18.75 20.4883 18.75C20.2362 18.75 19.9944 18.8488 19.8162 19.0246C19.6379 19.2004 19.5378 19.4388 19.5378 19.6875V25.3125C19.5378 25.5611 19.6379 25.7996 19.8162 25.9754C19.9944 26.1512 20.2362 26.25 20.4883 26.25C20.7404 26.25 20.9822 26.1512 21.1604 25.9754C21.3387 25.7996 21.4388 25.5611 21.4388 25.3125V19.6875ZM26.1916 19.6875C26.1916 19.4388 26.0914 19.2004 25.9132 19.0246C25.7349 18.8488 25.4931 18.75 25.241 18.75C24.9889 18.75 24.7472 18.8488 24.5689 19.0246C24.3906 19.2004 24.2905 19.4388 24.2905 19.6875V25.3125C24.2905 25.5611 24.3906 25.7996 24.5689 25.9754C24.7472 26.1512 24.9889 26.25 25.241 26.25C25.4931 26.25 25.7349 26.1512 25.9132 25.9754C26.0914 25.7996 26.1916 25.5611 26.1916 25.3125V19.6875Z" fill="black"/>
</g>
<defs>
<clipPath id="clip0_204_1219">
<rect width="30.4174" height="30" fill="white" transform="translate(0.526855)"/>
</clipPath>
</defs>
</svg>
