<svg width="26" height="27" viewBox="0 0 26 27" fill="none" xmlns="http://www.w3.org/2000/svg">
<path d="M13 20.1469L8.05185 13.1594C7.24193 12.2031 6.72036 11.0364 6.54788 9.79519C6.37539 8.55396 6.55909 7.28927 7.07759 6.14841C7.59608 5.00756 8.42803 4.03748 9.47654 3.35117C10.525 2.66486 11.747 2.29055 13 2.27185C14.7369 2.28901 16.3962 2.99383 17.6145 4.23194C18.8328 5.47004 19.5108 7.14051 19.5 8.87748C19.5006 10.3927 18.9848 11.863 18.0375 13.0456L13 20.1469ZM13 3.89685C11.6934 3.91185 10.4461 4.44478 9.53207 5.37861C8.61805 6.31244 8.11197 7.57084 8.12498 8.87748C8.13042 10.0701 8.55949 11.2219 9.3356 12.1275L13 17.3194L16.7619 12.0219C17.4769 11.1293 17.8692 10.0211 17.875 8.87748C17.888 7.57084 17.3819 6.31244 16.4679 5.37861C15.5539 4.44478 14.3066 3.91185 13 3.89685Z" fill="#B9B9B9"/>
<path d="M13 9.58435C13.8975 9.58435 14.625 8.85681 14.625 7.95935C14.625 7.06189 13.8975 6.33435 13 6.33435C12.1025 6.33435 11.375 7.06189 11.375 7.95935C11.375 8.85681 12.1025 9.58435 13 9.58435Z" fill="#B9B9B9"/>
<path d="M22.75 10.3969H21.125V12.0219H22.75V23.3969H3.25V12.0219H4.875V10.3969H3.25C2.81902 10.3969 2.4057 10.5681 2.10095 10.8728C1.7962 11.1775 1.625 11.5909 1.625 12.0219V23.3969C1.625 23.8278 1.7962 24.2412 2.10095 24.5459C2.4057 24.8506 2.81902 25.0219 3.25 25.0219H22.75C23.181 25.0219 23.5943 24.8506 23.899 24.5459C24.2038 24.2412 24.375 23.8278 24.375 23.3969V12.0219C24.375 11.5909 24.2038 11.1775 23.899 10.8728C23.5943 10.5681 23.181 10.3969 22.75 10.3969Z" fill="#B9B9B9"/>
</svg>
