<svg width="26" height="27" viewBox="0 0 26 27" fill="none" xmlns="http://www.w3.org/2000/svg">
<path d="M12.9999 20.147L8.05179 13.1595C7.24187 12.2032 6.7203 11.0365 6.54782 9.79531C6.37533 8.55408 6.55903 7.28939 7.07753 6.14854C7.59602 5.00768 8.42797 4.0376 9.47648 3.35129C10.525 2.66498 11.7469 2.29067 12.9999 2.27197C14.7368 2.28914 16.3962 2.99396 17.6145 4.23206C18.8328 5.47016 19.5107 7.14063 19.4999 8.8776C19.5006 10.3929 18.9847 11.8631 18.0374 13.0457L12.9999 20.147ZM12.9999 3.89697C11.6933 3.91198 10.446 4.4449 9.53201 5.37873C8.61799 6.31256 8.11191 7.57096 8.12492 8.8776C8.13036 10.0702 8.55943 11.2221 9.33554 12.1276L12.9999 17.3195L16.7618 12.022C17.4769 11.1294 17.8691 10.0213 17.8749 8.8776C17.8879 7.57096 17.3818 6.31256 16.4678 5.37873C15.5538 4.4449 14.3065 3.91198 12.9999 3.89697Z" fill="white"/>
<path d="M13 9.58447C13.8975 9.58447 14.625 8.85694 14.625 7.95947C14.625 7.06201 13.8975 6.33447 13 6.33447C12.1025 6.33447 11.375 7.06201 11.375 7.95947C11.375 8.85694 12.1025 9.58447 13 9.58447Z" fill="white"/>
<path d="M22.75 10.397H21.125V12.022H22.75V23.397H3.25V12.022H4.875V10.397H3.25C2.81902 10.397 2.4057 10.5682 2.10095 10.8729C1.7962 11.1777 1.625 11.591 1.625 12.022V23.397C1.625 23.8279 1.7962 24.2413 2.10095 24.546C2.4057 24.8508 2.81902 25.022 3.25 25.022H22.75C23.181 25.022 23.5943 24.8508 23.899 24.546C24.2038 24.2413 24.375 23.8279 24.375 23.397V12.022C24.375 11.591 24.2038 11.1777 23.899 10.8729C23.5943 10.5682 23.181 10.397 22.75 10.397Z" fill="white"/>
</svg>
