<svg width="24" height="24" viewBox="0 0 24 24" fill="none" xmlns="http://www.w3.org/2000/svg">
<path d="M15.0003 9.99988L11.0003 13.9999L9.00034 11.9999M13.2463 3.45888L14.4673 4.49888C14.7753 4.76088 15.1573 4.91888 15.5593 4.95188L17.1593 5.07988C17.6141 5.11619 18.0411 5.31326 18.3638 5.63576C18.6865 5.95826 18.8838 6.38513 18.9203 6.83988L19.0473 8.43988C19.0803 8.84288 19.2393 9.22588 19.5013 9.53288L20.5413 10.7529C20.8377 11.1004 21.0006 11.5421 21.0006 11.9989C21.0006 12.4556 20.8377 12.8974 20.5413 13.2449L19.5013 14.4659C19.2393 14.7739 19.0803 15.1559 19.0483 15.5589L18.9203 17.1589C18.884 17.6137 18.687 18.0406 18.3645 18.3633C18.042 18.686 17.6151 18.8833 17.1603 18.9199L15.5603 19.0479C15.1575 19.0798 14.775 19.238 14.4673 19.4999L13.2463 20.5399C12.8988 20.8361 12.457 20.9988 12.0003 20.9988C11.5437 20.9988 11.1019 20.8361 10.7543 20.5399L9.53434 19.4999C9.22638 19.2378 8.84351 19.0796 8.44034 19.0479L6.84034 18.9199C6.38543 18.8833 5.95844 18.6858 5.63592 18.3629C5.31339 18.04 5.11643 17.6128 5.08034 17.1579L4.95234 15.5589C4.91996 15.1563 4.76144 14.7742 4.49934 14.4669L3.45934 13.2449C3.16347 12.8975 3.00098 12.4562 3.00098 11.9999C3.00098 11.5436 3.16347 11.1022 3.45934 10.7549L4.49934 9.53288C4.76234 9.22488 4.91934 8.84288 4.95134 8.43988L5.07934 6.84088C5.11614 6.38578 5.31376 5.95864 5.6368 5.63597C5.95984 5.3133 6.3872 5.11617 6.84234 5.07988L8.44034 4.95288C8.84328 4.9207 9.22578 4.76217 9.53334 4.49988L10.7543 3.45988C11.1019 3.16367 11.5437 3.00098 12.0003 3.00098C12.457 3.00098 12.8988 3.16267 13.2463 3.45888Z" stroke="#218061" stroke-width="2" stroke-linecap="round" stroke-linejoin="round"/>
</svg>
