<svg width="30" height="31" viewBox="0 0 30 31" fill="none" xmlns="http://www.w3.org/2000/svg">
<g clip-path="url(#clip0_50_1994)">
<path d="M23.3333 25.6469H13.3333V18.9802H11.6667V25.6469H6.66667V18.9802H5V25.6469C5 26.0889 5.17559 26.5128 5.48816 26.8254C5.80072 27.138 6.22464 27.3136 6.66667 27.3136H23.3333C23.7754 27.3136 24.1993 27.138 24.5118 26.8254C24.8244 26.5128 25 26.0889 25 25.6469V18.9802H23.3333V25.6469Z" fill="#B9B9B9"/>
<path d="M28.1582 11.7052L24.7582 4.90522C24.6202 4.62755 24.4075 4.39387 24.144 4.23046C23.8805 4.06705 23.5766 3.98039 23.2665 3.98022H6.73318C6.42311 3.98039 6.11924 4.06705 5.85572 4.23046C5.5922 4.39387 5.3795 4.62755 5.24152 4.90522L1.84152 11.7052C1.72543 11.9381 1.6655 12.195 1.66652 12.4552V15.0219C1.66576 15.4113 1.80138 15.7887 2.04985 16.0886C2.41707 16.5095 2.8706 16.8465 3.37963 17.0765C3.88866 17.3066 4.44125 17.4244 4.99985 17.4219C5.91132 17.4233 6.795 17.1081 7.49985 16.5302C8.20469 17.1085 9.08818 17.4245 9.99985 17.4245C10.9115 17.4245 11.795 17.1085 12.4998 16.5302C13.2047 17.1085 14.0882 17.4245 14.9998 17.4245C15.9115 17.4245 16.795 17.1085 17.4998 16.5302C18.2047 17.1085 19.0882 17.4245 19.9998 17.4245C20.9115 17.4245 21.795 17.1085 22.4998 16.5302C23.2866 17.1762 24.2933 17.492 25.3081 17.4112C26.3229 17.3304 27.2669 16.8593 27.9415 16.0969C28.193 15.7982 28.3316 15.4207 28.3332 15.0302V12.4552C28.3342 12.195 28.2743 11.9381 28.1582 11.7052ZM24.9998 15.7552C24.6439 15.7544 24.2933 15.6685 23.9773 15.5047C23.6613 15.3409 23.389 15.1039 23.1832 14.8136L22.4998 13.8802L21.8249 14.8136C21.6151 15.0995 21.3409 15.332 21.0246 15.4922C20.7083 15.6525 20.3586 15.736 20.004 15.736C19.6494 15.736 19.2998 15.6525 18.9834 15.4922C18.6671 15.332 18.393 15.0995 18.1832 14.8136L17.4998 13.8802L16.8249 14.8136C16.6151 15.0995 16.3409 15.332 16.0246 15.4922C15.7083 15.6525 15.3586 15.736 15.004 15.736C14.6494 15.736 14.2998 15.6525 13.9834 15.4922C13.6671 15.332 13.393 15.0995 13.1832 14.8136L12.4998 13.8802L11.8248 14.8136C11.6151 15.0995 11.3409 15.332 11.0246 15.4922C10.7083 15.6525 10.3586 15.736 10.004 15.736C9.6494 15.736 9.29977 15.6525 8.98344 15.4922C8.6671 15.332 8.39295 15.0995 8.18318 14.8136L7.49985 13.8802L6.81652 14.8136C6.61066 15.1039 6.33838 15.3409 6.02237 15.5047C5.70637 15.6685 5.35579 15.7544 4.99985 15.7552C4.6858 15.759 4.37457 15.6956 4.08709 15.5691C3.79961 15.4426 3.54254 15.256 3.33318 15.0219V12.4552L6.73318 5.64689H23.2665L26.6665 12.4469V14.9969C26.4584 15.2343 26.2022 15.4247 25.9148 15.5555C25.6274 15.6862 25.3156 15.7543 24.9998 15.7552Z" fill="#B9B9B9"/>
</g>
<defs>
<clipPath id="clip0_50_1994">
<rect width="30" height="30" fill="white" transform="translate(0 0.646973)"/>
</clipPath>
</defs>
</svg>
