<svg width="30" height="31" viewBox="0 0 30 31" fill="none" xmlns="http://www.w3.org/2000/svg">
<g clip-path="url(#clip0_204_1234)">
<path d="M23.3333 25.647H13.3333V18.9803H11.6667V25.647H6.66667V18.9803H5V25.647C5 26.089 5.17559 26.5129 5.48816 26.8255C5.80072 27.138 6.22464 27.3136 6.66667 27.3136H23.3333C23.7754 27.3136 24.1993 27.138 24.5118 26.8255C24.8244 26.5129 25 26.089 25 25.647V18.9803H23.3333V25.647Z" fill="#B9B9B9"/>
<path d="M28.1582 11.7053L24.7582 4.9053C24.6202 4.62762 24.4075 4.39394 24.144 4.23053C23.8805 4.06712 23.5766 3.98047 23.2665 3.9803H6.73318C6.42311 3.98047 6.11924 4.06712 5.85572 4.23053C5.5922 4.39394 5.3795 4.62762 5.24152 4.9053L1.84152 11.7053C1.72543 11.9382 1.6655 12.1951 1.66652 12.4553V15.022C1.66576 15.4114 1.80138 15.7888 2.04985 16.0886C2.41707 16.5096 2.8706 16.8465 3.37963 17.0766C3.88866 17.3067 4.44125 17.4245 4.99985 17.422C5.91132 17.4234 6.795 17.1082 7.49985 16.5303C8.20469 17.1085 9.08818 17.4246 9.99985 17.4246C10.9115 17.4246 11.795 17.1085 12.4998 16.5303C13.2047 17.1085 14.0882 17.4246 14.9998 17.4246C15.9115 17.4246 16.795 17.1085 17.4998 16.5303C18.2047 17.1085 19.0882 17.4246 19.9998 17.4246C20.9115 17.4246 21.795 17.1085 22.4998 16.5303C23.2866 17.1763 24.2933 17.4921 25.3081 17.4113C26.3229 17.3305 27.2669 16.8594 27.9415 16.097C28.193 15.7983 28.3316 15.4208 28.3332 15.0303V12.4553C28.3342 12.1951 28.2743 11.9382 28.1582 11.7053ZM24.9998 15.7553C24.6439 15.7545 24.2933 15.6686 23.9773 15.5048C23.6613 15.341 23.389 15.104 23.1832 14.8136L22.4998 13.8803L21.8249 14.8136C21.6151 15.0995 21.3409 15.332 21.0246 15.4923C20.7083 15.6526 20.3586 15.7361 20.004 15.7361C19.6494 15.7361 19.2998 15.6526 18.9834 15.4923C18.6671 15.332 18.393 15.0995 18.1832 14.8136L17.4998 13.8803L16.8249 14.8136C16.6151 15.0995 16.3409 15.332 16.0246 15.4923C15.7083 15.6526 15.3586 15.7361 15.004 15.7361C14.6494 15.7361 14.2998 15.6526 13.9834 15.4923C13.6671 15.332 13.393 15.0995 13.1832 14.8136L12.4998 13.8803L11.8248 14.8136C11.6151 15.0995 11.3409 15.332 11.0246 15.4923C10.7083 15.6526 10.3586 15.7361 10.004 15.7361C9.6494 15.7361 9.29977 15.6526 8.98344 15.4923C8.6671 15.332 8.39295 15.0995 8.18318 14.8136L7.49985 13.8803L6.81652 14.8136C6.61066 15.104 6.33838 15.341 6.02237 15.5048C5.70637 15.6686 5.35579 15.7545 4.99985 15.7553C4.6858 15.7591 4.37457 15.6956 4.08709 15.5692C3.79961 15.4427 3.54254 15.2561 3.33318 15.022V12.4553L6.73318 5.64697H23.2665L26.6665 12.447V14.997C26.4584 15.2344 26.2022 15.4248 25.9148 15.5555C25.6274 15.6863 25.3156 15.7544 24.9998 15.7553Z" fill="#B9B9B9"/>
</g>
<defs>
<clipPath id="clip0_204_1234">
<rect width="30" height="30" fill="white" transform="translate(0 0.646973)"/>
</clipPath>
</defs>
</svg>
