<svg width="30" height="31" viewBox="0 0 30 31" fill="none" xmlns="http://www.w3.org/2000/svg">
<g clip-path="url(#clip0_204_807)">
<path d="M23.3333 25.6469H13.3333V18.9802H11.6667V25.6469H6.66667V18.9802H5V25.6469C5 26.0889 5.17559 26.5128 5.48816 26.8254C5.80072 27.138 6.22464 27.3136 6.66667 27.3136H23.3333C23.7754 27.3136 24.1993 27.138 24.5118 26.8254C24.8244 26.5128 25 26.0889 25 25.6469V18.9802H23.3333V25.6469Z" fill="#B9B9B9"/>
<path d="M28.1584 11.7052L24.7584 4.90522C24.6204 4.62755 24.4077 4.39387 24.1442 4.23046C23.8807 4.06705 23.5768 3.98039 23.2668 3.98022H6.73343C6.42336 3.98039 6.11948 4.06705 5.85596 4.23046C5.59245 4.39387 5.37974 4.62755 5.24176 4.90522L1.84176 11.7052C1.72567 11.9381 1.66574 12.195 1.66676 12.4552V15.0219C1.666 15.4113 1.80163 15.7887 2.05009 16.0886C2.41731 16.5095 2.87084 16.8465 3.37987 17.0765C3.8889 17.3066 4.44149 17.4244 5.00009 17.4219C5.91157 17.4233 6.79525 17.1081 7.50009 16.5302C8.20493 17.1085 9.08842 17.4245 10.0001 17.4245C10.9118 17.4245 11.7953 17.1085 12.5001 16.5302C13.2049 17.1085 14.0884 17.4245 15.0001 17.4245C15.9118 17.4245 16.7953 17.1085 17.5001 16.5302C18.2049 17.1085 19.0884 17.4245 20.0001 17.4245C20.9118 17.4245 21.7953 17.1085 22.5001 16.5302C23.2869 17.1762 24.2935 17.492 25.3083 17.4112C26.3232 17.3304 27.2671 16.8593 27.9418 16.0969C28.1932 15.7982 28.3319 15.4207 28.3334 15.0302V12.4552C28.3344 12.195 28.2745 11.9381 28.1584 11.7052ZM25.0001 15.7552C24.6442 15.7544 24.2936 15.6685 23.9776 15.5047C23.6616 15.3409 23.3893 15.1039 23.1834 14.8136L22.5001 13.8802L21.8251 14.8136C21.6153 15.0995 21.3412 15.332 21.0248 15.4922C20.7085 15.6525 20.3589 15.736 20.0043 15.736C19.6496 15.736 19.3 15.6525 18.9837 15.4922C18.6673 15.332 18.3932 15.0995 18.1834 14.8136L17.5001 13.8802L16.8251 14.8136C16.6153 15.0995 16.3412 15.332 16.0248 15.4922C15.7085 15.6525 15.3589 15.736 15.0043 15.736C14.6496 15.736 14.3 15.6525 13.9837 15.4922C13.6673 15.332 13.3932 15.0995 13.1834 14.8136L12.5001 13.8802L11.8251 14.8136C11.6153 15.0995 11.3412 15.332 11.0248 15.4922C10.7085 15.6525 10.3589 15.736 10.0043 15.736C9.64965 15.736 9.30002 15.6525 8.98368 15.4922C8.66735 15.332 8.3932 15.0995 8.18343 14.8136L7.50009 13.8802L6.81676 14.8136C6.6109 15.1039 6.33862 15.3409 6.02262 15.5047C5.70661 15.6685 5.35603 15.7544 5.00009 15.7552C4.68604 15.759 4.37481 15.6956 4.08733 15.5691C3.79985 15.4426 3.54279 15.256 3.33343 15.0219V12.4552L6.73343 5.64689H23.2668L26.6668 12.4469V14.9969C26.4587 15.2343 26.2024 15.4247 25.9151 15.5555C25.6277 15.6862 25.3158 15.7543 25.0001 15.7552Z" fill="#B9B9B9"/>
</g>
<defs>
<clipPath id="clip0_204_807">
<rect width="30" height="30" fill="white" transform="translate(0 0.646973)"/>
</clipPath>
</defs>
</svg>
