<svg width="30" height="31" viewBox="0 0 30 31" fill="none" xmlns="http://www.w3.org/2000/svg">
<g clip-path="url(#clip0_204_1561)">
<path d="M23.3333 25.6469H13.3333V18.9802H11.6667V25.6469H6.66667V18.9802H5V25.6469C5 26.0889 5.17559 26.5128 5.48816 26.8254C5.80072 27.138 6.22464 27.3136 6.66667 27.3136H23.3333C23.7754 27.3136 24.1993 27.138 24.5118 26.8254C24.8244 26.5128 25 26.0889 25 25.6469V18.9802H23.3333V25.6469Z" fill="#B9B9B9"/>
<path d="M28.1583 11.7052L24.7583 4.90522C24.6203 4.62755 24.4076 4.39387 24.1441 4.23046C23.8806 4.06705 23.5767 3.98039 23.2666 3.98022H6.7333C6.42323 3.98039 6.11936 4.06705 5.85584 4.23046C5.59233 4.39387 5.37962 4.62755 5.24164 4.90522L1.84164 11.7052C1.72555 11.9381 1.66562 12.195 1.66664 12.4552V15.0219C1.66588 15.4113 1.8015 15.7887 2.04997 16.0886C2.41719 16.5095 2.87072 16.8465 3.37975 17.0765C3.88878 17.3066 4.44137 17.4244 4.99997 17.4219C5.91145 17.4233 6.79512 17.1081 7.49997 16.5302C8.20481 17.1085 9.0883 17.4245 9.99997 17.4245C10.9116 17.4245 11.7951 17.1085 12.5 16.5302C13.2048 17.1085 14.0883 17.4245 15 17.4245C15.9116 17.4245 16.7951 17.1085 17.5 16.5302C18.2048 17.1085 19.0883 17.4245 20 17.4245C20.9116 17.4245 21.7951 17.1085 22.5 16.5302C23.2868 17.1762 24.2934 17.492 25.3082 17.4112C26.323 17.3304 27.267 16.8593 27.9416 16.0969C28.1931 15.7982 28.3317 15.4207 28.3333 15.0302V12.4552C28.3343 12.195 28.2744 11.9381 28.1583 11.7052ZM25 15.7552C24.644 15.7544 24.2935 15.6685 23.9774 15.5047C23.6614 15.3409 23.3892 15.1039 23.1833 14.8136L22.5 13.8802L21.825 14.8136C21.6152 15.0995 21.3411 15.332 21.0247 15.4922C20.7084 15.6525 20.3587 15.736 20.0041 15.736C19.6495 15.736 19.2999 15.6525 18.9836 15.4922C18.6672 15.332 18.3931 15.0995 18.1833 14.8136L17.5 13.8802L16.825 14.8136C16.6152 15.0995 16.3411 15.332 16.0247 15.4922C15.7084 15.6525 15.3588 15.736 15.0041 15.736C14.6495 15.736 14.2999 15.6525 13.9836 15.4922C13.6672 15.332 13.3931 15.0995 13.1833 14.8136L12.5 13.8802L11.825 14.8136C11.6152 15.0995 11.3411 15.332 11.0247 15.4922C10.7084 15.6525 10.3588 15.736 10.0041 15.736C9.64953 15.736 9.2999 15.6525 8.98356 15.4922C8.66722 15.332 8.39307 15.0995 8.1833 14.8136L7.49997 13.8802L6.81664 14.8136C6.61078 15.1039 6.3385 15.3409 6.0225 15.5047C5.70649 15.6685 5.35591 15.7544 4.99997 15.7552C4.68592 15.759 4.37469 15.6956 4.08721 15.5691C3.79973 15.4426 3.54267 15.256 3.33331 15.0219V12.4552L6.7333 5.64689H23.2666L26.6666 12.4469V14.9969C26.4585 15.2343 26.2023 15.4247 25.9149 15.5555C25.6276 15.6862 25.3157 15.7543 25 15.7552Z" fill="#B9B9B9"/>
</g>
<defs>
<clipPath id="clip0_204_1561">
<rect width="30" height="30" fill="white" transform="translate(0 0.646851)"/>
</clipPath>
</defs>
</svg>
