<svg width="46" height="46" viewBox="0 0 46 46" fill="none" xmlns="http://www.w3.org/2000/svg">
<path d="M39.4838 21.0989C33.4657 14.9708 38.801 11.0537 38.801 11.0537C38.801 11.0537 33.2508 11.0601 31.7263 15.6048C32.0491 15.5782 32.3711 15.6522 32.6442 15.8714C34.7005 17.5246 32.0347 19.9324 30.7927 18.86C29.302 17.5763 30.2536 16.008 31.4 15.6673C31.0888 15.3755 30.7797 15.0851 30.4736 14.8048C30.401 15.911 28.9714 16.818 28.1822 16.1374C26.836 14.9773 27.7459 13.5506 28.7881 13.2954C28.4891 13.0331 28.1922 12.7758 27.8976 12.5249C27.6697 13.5276 26.3724 14.2773 25.6356 13.6419C24.4217 12.5954 25.0441 11.334 25.9426 10.9085C25.7169 10.7281 25.4897 10.5462 25.2676 10.373C25.2463 10.5103 25.1969 10.6417 25.1225 10.759C23.8733 12.6457 21.4475 10.2084 22.2669 9.06847C22.4358 8.83344 22.6198 8.66453 22.8117 8.55097C22.6651 8.44891 22.5184 8.34397 22.374 8.24406C22.3423 8.28863 22.3143 8.33247 22.2705 8.37703C20.493 10.1631 19.3221 7.1336 19.8964 6.65419C19.8979 6.65275 19.8993 6.65275 19.9007 6.6506C19.7915 6.58614 19.6821 6.52217 19.5723 6.45869C19.5358 6.54366 19.4836 6.62096 19.4185 6.68653C18.0155 8.096 17.0847 5.79672 17.4757 5.32953C17.3707 5.27778 17.268 5.22891 17.1645 5.18003C17.1548 5.21291 17.1408 5.24434 17.1228 5.27347C16.5169 6.21144 15.4754 4.86091 15.5631 4.49363C15.4524 4.4505 15.3403 4.40738 15.231 4.36784C14.8062 5.35469 13.4219 4.17881 13.57 3.87263L13.5714 3.87047C13.4564 3.84388 13.3414 3.81584 13.2293 3.79213C12.9447 4.37647 12.2238 3.95528 11.9521 3.60884C11.8411 3.60065 11.7299 3.59562 11.6186 3.59375C11.8486 3.87478 11.9521 4.24134 11.7681 4.46919C11.1198 5.27131 10.1416 4.31538 10.2817 3.68934C9.95955 3.74912 9.64498 3.84433 9.34375 3.97325C9.50834 4.00775 9.66575 4.07172 9.8059 4.18241C11.7271 5.70041 9.09147 8.0996 7.93212 7.11275C7.55334 6.79003 7.35425 6.44072 7.28094 6.09572C7.16709 6.37601 7.08115 6.66683 7.02434 6.96397C7.63672 6.75194 8.65231 7.78766 7.84228 8.46616C7.6015 8.66741 7.20403 8.53156 6.92228 8.25988C6.92372 8.37272 6.92947 8.48916 6.93665 8.60703C7.29531 8.84638 7.82072 9.70169 7.11706 9.98344C7.14078 10.1035 7.16665 10.2257 7.19469 10.3486C7.21409 10.3313 7.2335 10.3126 7.2565 10.3018C7.56556 10.1473 8.77234 11.6294 7.68056 12.0225C7.72081 12.1383 7.7589 12.2525 7.80203 12.3704C7.80778 12.3639 7.81137 12.3553 7.81784 12.3503C8.08019 12.1253 9.60394 13.2681 8.63362 13.9172C8.58326 13.951 8.5246 13.9704 8.464 13.9732C8.51934 14.0954 8.57397 14.2169 8.6329 14.3405C8.64081 14.3283 8.64584 14.3146 8.65447 14.3031C9.03397 13.8316 11.4375 14.794 10.0208 16.2545C9.93984 16.3421 9.8372 16.4068 9.72325 16.4421C9.7944 16.5686 9.86556 16.6966 9.93959 16.8245C9.95612 16.7972 9.96834 16.7663 9.98775 16.7426C10.4578 16.1582 13.4349 17.3492 11.6797 19.1597C11.6164 19.2244 11.5517 19.2747 11.4871 19.315C11.5927 19.4753 11.7027 19.6363 11.8127 19.798C11.9219 19.5723 12.0937 19.3531 12.3582 19.1554C13.4787 18.3202 15.8714 20.7906 14.0185 22.0635C13.9818 22.0894 13.9416 22.103 13.9028 22.1224C6.78069 20.9358 1.4375 21.7156 1.4375 21.7156C1.4375 21.7156 17.4362 27.6568 23.345 36.9186C26.5794 41.988 32.5436 44.3742 37.1364 40.4462L37.1277 40.4843C37.8034 41.1973 38.8987 41.1973 39.5736 40.4836L42.591 37.3017C43.12 36.744 43.2285 35.916 42.9288 35.241C45.3165 32.0203 45.7815 27.513 39.4838 21.0989ZM42.1144 30.3938C41.1951 30.4894 39.8956 27.6273 41.1412 27.3427C43.1904 26.8755 42.734 30.3305 42.1144 30.3938ZM38.2986 35.76C37.6901 35.0228 37.0538 34.3091 36.391 33.6203C36.9445 32.9784 37.8645 32.6449 38.4625 33.1107C39.5391 33.9502 39.082 35.1189 38.2986 35.76ZM17.9874 22.926C17.0638 21.6991 19.3293 19.1374 20.8409 20.994C21.4317 21.7199 20.6641 23.0805 19.6664 23.465C19.1358 23.3038 18.6021 23.1526 18.0658 23.0115C18.0406 22.9813 18.0133 22.9598 17.9874 22.926ZM17.0674 11.3656C18.9082 12.8009 16.279 15.2066 15.1699 14.2708C13.3472 12.7319 15.8628 10.4255 17.0674 11.3656ZM12.7535 11.8795C10.93 10.3414 13.4457 8.03419 14.651 8.97503C16.4903 10.4097 13.8618 12.816 12.7535 11.8795ZM19.4846 13.7554C21.3253 15.1908 18.6954 17.5972 17.5871 16.6621C15.7636 15.1218 18.28 12.816 19.4846 13.7554ZM24.7501 24.0106C22.9267 22.4724 25.4423 20.1645 26.6469 21.1054C28.4876 22.54 25.8585 24.9471 24.7501 24.0106ZM28.8758 23.3745C30.7165 24.8091 28.0866 27.2155 26.9776 26.2797C25.1548 24.7415 27.6704 22.4358 28.8758 23.3745ZM22.3826 21.6768C20.5591 20.1379 23.0747 17.8315 24.2801 18.7716C26.1194 20.2069 23.4909 22.6126 22.3826 21.6768ZM20.0366 19.085C18.2131 17.5447 20.7287 15.2389 21.9341 16.1784C23.7734 17.6137 21.1449 20.0201 20.0366 19.085ZM18.336 18.4424C19.2546 19.5716 16.8921 22.2489 15.4826 20.3751C14.559 19.1482 16.8245 16.5866 18.336 18.4424ZM20.6418 23.7806C21.2297 22.931 22.4286 22.4178 23.3507 23.5506C23.6231 23.8855 23.6023 24.3563 23.4082 24.8034C22.4983 24.4302 21.5756 24.0891 20.6418 23.7806ZM31.2987 25.7428C32.591 26.7505 31.6789 28.2325 30.6381 28.704C30.0276 28.2847 29.4046 27.8837 28.7701 27.5015C28.6831 26.2143 30.3736 25.0219 31.2987 25.7428ZM36.0302 33.2494C35.367 32.5677 34.6777 31.912 33.9638 31.2836C34.5014 30.5677 35.4911 30.1624 36.1229 30.6569C37.1687 31.4719 36.7712 32.5982 36.0302 33.2494ZM36.6368 30.5009C34.8148 28.9613 37.3304 26.6556 38.535 27.595C40.375 29.0296 37.7459 31.4353 36.6368 30.5009ZM34.1801 27.9975C32.3567 26.4579 34.8723 24.1514 36.0769 25.0916C37.9169 26.5262 35.2877 28.9326 34.1801 27.9975ZM33.5397 28.2807C34.5783 29.0914 34.1924 30.2112 33.46 30.8639C32.7401 30.2577 31.9976 29.6789 31.234 29.1288C31.7163 28.2792 32.844 27.7373 33.5397 28.2807ZM41.0758 30.1825C42.9158 31.6178 40.2866 34.0235 39.1783 33.0877C37.3556 31.5495 39.8712 29.2431 41.0758 30.1825ZM40.5964 24.8515C42.0914 27.0329 39.7045 28.1815 38.8089 26.7986C37.334 24.5259 39.6189 23.4234 40.5964 24.8515ZM38.0362 21.5834C40.0926 23.2358 37.4267 25.6436 36.1833 24.5712C34.1377 22.8095 36.6886 20.5009 38.0362 21.5834ZM35.425 18.704C37.4814 20.3564 34.8155 22.7643 33.5735 21.6919C31.528 19.9302 34.0788 17.6223 35.425 18.704ZM33.5131 22.4818C35.3539 23.9157 32.724 26.3228 31.6164 25.387C29.7929 23.8489 32.3085 21.5424 33.5131 22.4818ZM31.0083 19.9302C32.8483 21.3649 30.2198 23.7719 29.1108 22.8354C27.2873 21.2973 29.8037 18.9901 31.0083 19.9302ZM28.479 17.3549C30.319 18.7903 27.6891 21.1967 26.5808 20.2609C24.7573 18.7213 27.273 16.4148 28.479 17.3549ZM25.9691 14.7998C27.8091 16.2344 25.18 18.6408 24.0716 17.705C22.2482 16.1661 24.7638 13.8597 25.9691 14.7998ZM23.4636 12.2489C25.3043 13.6828 22.6744 16.0899 21.5661 15.1534C19.7433 13.6153 22.259 11.3081 23.4636 12.2489ZM21.0723 9.81382C22.913 11.2492 20.2838 13.6555 19.1748 12.719C17.3521 11.1809 19.8684 8.87369 21.0723 9.81382ZM18.5315 7.5246C20.3722 8.95994 17.7423 11.3656 16.634 10.4298C14.8106 8.89094 17.3262 6.58519 18.5315 7.5246ZM16.0274 5.63572C17.6963 6.93881 15.3122 9.12094 14.306 8.2721C12.6529 6.87485 14.9349 4.78328 16.0274 5.63572ZM13.3946 4.52309C14.7567 5.66519 13.2595 6.98122 12.4322 6.24594C11.0716 5.03772 12.5027 3.77559 13.3946 4.52309ZM12.2072 6.55788C14.2399 8.18944 11.5949 10.5793 10.3665 9.52057C8.34469 7.77975 10.8754 5.48909 12.2072 6.55788ZM7.89547 10.1222C7.16162 9.21438 8.40147 7.75675 9.58812 9.14322C10.3097 9.98632 9.01672 11.5093 7.89547 10.1222ZM8.98797 12.8038C8.1499 11.6905 10.2055 9.36675 11.5769 11.0508C12.4107 12.0757 10.2673 14.5037 8.98797 12.8038ZM10.8431 15.3532C9.92019 14.1263 12.185 11.5647 13.6965 13.4212C14.6151 14.5504 12.2525 17.227 10.8431 15.3532ZM13.0913 17.9414C12.1684 16.7145 14.4332 14.1529 15.9447 16.0094C16.8633 17.1379 14.5008 19.8145 13.0913 17.9414ZM16.8511 22.586C16.8877 22.6313 16.9043 22.6823 16.9316 22.7305C16.1778 22.5529 15.4195 22.3952 14.6575 22.2575C15.2317 21.7803 16.0971 21.6789 16.8511 22.586ZM39.5873 37.421C39.2627 36.9839 38.9289 36.5538 38.5861 36.1309C39.1575 35.433 40.0466 34.8781 40.4512 35.1361C41.1829 35.604 40.4182 36.7612 39.5873 37.421ZM41.5646 34.6474C39.8468 35.6141 42.0469 30.705 42.7857 31.9959C43.1487 32.6284 42.1942 34.293 41.5646 34.6474Z" fill="#AEAEAE"/>
</svg>
