<svg width="30" height="25" viewBox="0 0 30 25" fill="none" xmlns="http://www.w3.org/2000/svg">
<g clip-path="url(#clip0_113_804)">
<path d="M5.25 0.646973C4.00781 0.646973 3 1.65479 3 2.89697V5.14697H0.75C0.3375 5.14697 0 5.48447 0 5.89697C0 6.30947 0.3375 6.64697 0.75 6.64697H12.75C13.1625 6.64697 13.5 6.98447 13.5 7.39697C13.5 7.80947 13.1625 8.14697 12.75 8.14697H2.25C1.8375 8.14697 1.5 8.48447 1.5 8.89697C1.5 9.30947 1.8375 9.64697 2.25 9.64697H11.25C11.6625 9.64697 12 9.98447 12 10.397C12 10.8095 11.6625 11.147 11.25 11.147H0.75C0.3375 11.147 0 11.4845 0 11.897C0 12.3095 0.3375 12.647 0.75 12.647H9.75C10.1625 12.647 10.5 12.9845 10.5 13.397C10.5 13.8095 10.1625 14.147 9.75 14.147H3V20.147C3 22.6313 5.01562 24.647 7.5 24.647C9.98438 24.647 12 22.6313 12 20.147H18C18 22.6313 20.0156 24.647 22.5 24.647C24.9844 24.647 27 22.6313 27 20.147H28.5C29.3297 20.147 30 19.4767 30 18.647C30 17.8173 29.3297 17.147 28.5 17.147V11.7704C28.5 10.9735 28.1859 10.2095 27.6234 9.64697L24 6.02353C23.4375 5.46103 22.6734 5.14697 21.8766 5.14697H19.5V2.89697C19.5 1.65479 18.4922 0.646973 17.25 0.646973H5.25ZM25.5 11.7704V12.647H19.5V8.14697H21.8766L25.5 11.7704ZM7.5 17.897C8.09674 17.897 8.66903 18.134 9.09099 18.556C9.51295 18.9779 9.75 19.5502 9.75 20.147C9.75 20.7437 9.51295 21.316 9.09099 21.738C8.66903 22.1599 8.09674 22.397 7.5 22.397C6.90326 22.397 6.33097 22.1599 5.90901 21.738C5.48705 21.316 5.25 20.7437 5.25 20.147C5.25 19.5502 5.48705 18.9779 5.90901 18.556C6.33097 18.134 6.90326 17.897 7.5 17.897ZM20.25 20.147C20.25 19.5502 20.4871 18.9779 20.909 18.556C21.331 18.134 21.9033 17.897 22.5 17.897C23.0967 17.897 23.669 18.134 24.091 18.556C24.5129 18.9779 24.75 19.5502 24.75 20.147C24.75 20.7437 24.5129 21.316 24.091 21.738C23.669 22.1599 23.0967 22.397 22.5 22.397C21.9033 22.397 21.331 22.1599 20.909 21.738C20.4871 21.316 20.25 20.7437 20.25 20.147Z" fill="#B9B9B9"/>
</g>
<defs>
<clipPath id="clip0_113_804">
<rect width="30" height="24" fill="white" transform="translate(0 0.646973)"/>
</clipPath>
</defs>
</svg>
