<svg width="54" height="54" viewBox="0 0 54 54" fill="none" xmlns="http://www.w3.org/2000/svg">
<path d="M16.875 30.375H15.1875C11.4592 30.375 8.4375 33.402 8.4375 37.1377V43.8623C8.4375 47.597 11.4592 50.625 15.1875 50.625H16.875C18.7386 50.625 20.25 49.1105 20.25 47.2437V33.7563C20.25 31.8885 18.7386 30.375 16.875 30.375ZM38.8125 30.375H37.125C35.2614 30.375 33.75 31.8885 33.75 33.7563V47.2437C33.75 49.1105 35.2614 50.625 37.125 50.625H38.8125C42.5408 50.625 45.5625 47.597 45.5625 43.8623V37.1377C45.5625 33.403 42.5408 30.375 38.8125 30.375ZM27 3.375C11.9085 3.375 0.481992 15.9395 0 30.375V42.1875C0 43.1198 0.755156 43.875 1.6875 43.875H3.375C4.30734 43.875 5.0625 43.1198 5.0625 42.1875V30.375C5.0625 18.2809 14.9059 8.45859 27 8.45648C39.0941 8.45859 48.9375 18.2809 48.9375 30.375V42.1875C48.9375 43.1198 49.6927 43.875 50.625 43.875H52.3125C53.2448 43.875 54 43.1198 54 42.1875V30.375C53.518 15.9395 42.0915 3.375 27 3.375Z" fill="#A8B324"/>
</svg>
