<svg width="25" height="25" viewBox="0 0 25 25" fill="none" xmlns="http://www.w3.org/2000/svg">
<path d="M24.2896 10.1664C23.9692 9.73563 23.5521 9.38614 23.0718 9.14609C22.5916 8.90604 22.0617 8.78214 21.5248 8.78437C21.2998 8.78437 21.0756 8.80625 20.8545 8.84922C20.5634 8.46736 20.188 8.15796 19.7576 7.94519C19.3272 7.73242 18.8534 7.62203 18.3732 7.62265C17.7771 7.62265 17.1936 7.79453 16.692 8.11562C16.8467 7.59772 16.8783 7.05083 16.7841 6.51857C16.69 5.98631 16.4728 5.48341 16.1498 5.05L16.0936 4.97969C15.78 4.55763 15.3717 4.21519 14.9015 3.98C14.4312 3.74482 13.9123 3.62348 13.3865 3.62578C12.596 3.62629 11.8304 3.90258 11.2217 4.40703H8.78418C7.29206 4.40873 5.84964 4.94347 4.71699 5.91484C1.59199 8.72109 0.0185547 10.8195 0.0185547 14.5687C0.0185547 18.6562 3.62715 20.7953 7.19121 20.7953H14.66C16.1771 20.7951 17.6425 20.2431 18.7826 19.2422L23.8045 14.8359C24.4557 14.2599 24.8669 13.4604 24.9568 12.5957C25.0466 11.7309 24.8085 10.864 24.2896 10.1664ZM7.1959 19.2289C6.81627 19.2265 6.43735 19.1956 6.0623 19.1367C5.11865 18.9889 4.21781 18.6398 3.4209 18.1133C3.28857 18.0224 3.16154 17.9241 3.04043 17.8187C2.97168 17.7594 2.90918 17.6937 2.84434 17.6312C2.77949 17.5672 2.71543 17.5094 2.65684 17.4437C2.62793 17.4125 2.60293 17.3773 2.57871 17.3453C2.4884 17.2411 2.4034 17.1323 2.32402 17.0195C2.12982 16.7356 1.97133 16.4289 1.85215 16.1062C1.84355 16.0836 1.8373 16.0594 1.82949 16.0367C1.78253 15.9045 1.74238 15.7699 1.70918 15.6336C1.6873 15.5406 1.67246 15.4437 1.65605 15.3469C1.64355 15.2727 1.62715 15.1984 1.61855 15.1234C1.6084 15.0344 1.60762 14.9391 1.60215 14.8469C1.59668 14.7547 1.58887 14.6594 1.59043 14.5656C1.59199 14.4719 1.5998 14.3937 1.5998 14.3078C1.60762 13.6859 1.68262 13.0656 1.82402 12.4602C1.99512 11.7966 2.25807 11.1603 2.60527 10.5695C3.01937 9.94969 3.47648 9.35969 3.97324 8.8039C4.50963 8.23771 5.07004 7.69476 5.65293 7.17656C5.6834 7.15078 5.71074 7.12265 5.74121 7.09844C6.58987 6.37119 7.67045 5.9711 8.78809 5.97031H11.3529C11.4787 5.98828 11.6076 5.9789 11.7295 5.94297C11.742 5.94297 11.7514 5.9289 11.7639 5.92422C11.868 5.89876 11.9636 5.84651 12.0412 5.77265C12.0475 5.76797 12.0561 5.76719 12.0615 5.76172C12.1264 5.69592 12.1961 5.63507 12.2701 5.57969C12.2967 5.55859 12.3186 5.53359 12.3482 5.51484C12.4092 5.47578 12.4717 5.44062 12.5365 5.40859C12.5865 5.38203 12.6342 5.35156 12.6857 5.33047C12.7506 5.30547 12.8178 5.28437 12.885 5.26797C12.9404 5.25234 12.9951 5.23203 13.0521 5.22109C13.124 5.20937 13.1967 5.20234 13.2693 5.19922C13.3225 5.19922 13.3756 5.18984 13.4256 5.1914C13.52 5.19467 13.6141 5.20538 13.7068 5.22344C13.7498 5.23125 13.7943 5.23437 13.8365 5.24531C13.9264 5.27031 14.0139 5.30156 14.099 5.33984C14.1397 5.35781 14.1826 5.36953 14.2225 5.38984C14.31 5.43828 14.3943 5.49297 14.4732 5.5539C14.5029 5.57578 14.5357 5.59297 14.5646 5.6164C14.6686 5.70625 14.7615 5.80625 14.8436 5.9164L14.8975 5.9875C15.1677 6.35322 15.2979 6.80367 15.2645 7.25717C15.2311 7.71066 15.0363 8.13718 14.7154 8.45937L14.235 8.9375C13.9379 9.23552 13.5847 9.47179 13.1958 9.63269C12.807 9.79359 12.3902 9.87594 11.9693 9.875H11.5389C11.342 9.87851 11.1466 9.90954 10.9584 9.96719C10.9467 9.96719 10.9357 9.97578 10.924 9.97969C10.8041 10.0127 10.6872 10.0561 10.5748 10.1094C10.5295 10.1328 10.492 10.1672 10.4482 10.1937C10.4342 10.2023 10.4178 10.2047 10.4045 10.2133C10.3912 10.2219 10.3709 10.2453 10.3514 10.2586C10.2261 10.3441 10.1101 10.4426 10.0053 10.5523C9.97637 10.5836 9.94668 10.6125 9.91934 10.6461C9.89199 10.6781 9.84902 10.7125 9.82012 10.7523L9.7873 10.7367L9.62559 11.0781L9.61934 11.0898L9.60215 11.1258V11.1336L9.45527 11.4461L9.48106 11.4578C9.47637 11.4734 9.48106 11.4906 9.47402 11.5062C9.42092 11.6905 9.39281 11.881 9.39043 12.0727V12.2289C9.39199 12.3773 9.4084 12.5258 9.43809 12.6719C9.43809 12.6836 9.44355 12.6953 9.4459 12.7062C9.47402 12.8422 9.51465 12.975 9.56621 13.1047L9.57793 13.1328C9.74646 13.5596 10.0449 13.9225 10.4311 14.1703L10.4428 14.1781C10.5795 14.2719 10.7256 14.35 10.8787 14.4125V14.4023C11.1521 14.5117 11.4436 14.568 11.7381 14.5695H15.7865C16.1952 14.5714 16.5881 14.4122 16.8803 14.1266L20.21 10.8859C20.3881 10.7094 20.6006 10.5711 20.835 10.4797C21.2497 10.3152 21.7093 10.3026 22.1324 10.4443C22.5556 10.586 22.9149 10.8728 23.147 11.2539C23.379 11.635 23.4688 12.0859 23.4004 12.5269C23.332 12.9678 23.1098 13.3704 22.7732 13.6633L18.9225 17.0422L18.2615 17.6227L17.7467 18.0742C16.8916 18.8245 15.7929 19.2382 14.6553 19.2383L7.1959 19.2289ZM16.4732 11.807L16.8639 10.3437V10.3383C16.9058 10.1931 16.9684 10.0547 17.0498 9.92734L17.0975 9.84922C17.1811 9.7289 17.2818 9.62109 17.3967 9.52969C17.4186 9.5125 17.442 9.49844 17.4646 9.48125C17.5873 9.39062 17.7225 9.31797 17.8654 9.2664H17.8787C18.0217 9.22109 18.1701 9.19609 18.3201 9.19375C18.349 9.19375 18.3779 9.18984 18.4068 9.18984C18.5318 9.19218 18.6553 9.20859 18.7756 9.23906L18.7928 9.24531C18.8967 9.275 18.9975 9.31562 19.0928 9.3664C19.1311 9.38594 19.1654 9.41094 19.2022 9.43437C19.2615 9.47109 19.3186 9.51172 19.3725 9.55547C19.4927 9.65892 19.5976 9.77886 19.6842 9.91172C19.7209 9.97109 19.7529 10.0328 19.7818 10.0961C19.7951 10.1242 19.8092 10.1523 19.8201 10.182C19.7639 10.2289 19.7084 10.2766 19.6561 10.3281L16.3303 13.5687C16.2226 13.6736 16.087 13.7453 15.9396 13.775L16.3998 12.0562L16.4732 11.807ZM15.1326 13.7898H13.2811V11.4148C13.2818 11.3187 13.292 11.2234 13.31 11.1297C13.3256 11.0609 13.3467 10.993 13.3717 10.9266C13.3818 10.8969 13.3873 10.8664 13.399 10.8375C13.4318 10.7641 13.4709 10.693 13.5154 10.625C13.5264 10.607 13.5342 10.5867 13.5459 10.5687C13.6026 10.4844 13.6675 10.4059 13.7396 10.3344C13.8107 10.2617 13.8896 10.1969 13.974 10.1398C13.9834 10.1336 13.9943 10.1297 14.0037 10.1242C14.0795 10.075 14.16 10.032 14.2428 9.99609L14.2756 9.98593C14.36 9.95234 14.4467 9.92656 14.535 9.90781C14.5561 9.90781 14.5787 9.90781 14.5998 9.90156C14.6798 9.88743 14.7608 9.8796 14.842 9.87812C14.8545 9.87812 14.867 9.88125 14.8803 9.88125C14.9764 9.88281 15.0717 9.89375 15.1654 9.91328C15.2107 9.92265 15.2537 9.93984 15.2975 9.95312C15.3568 9.96953 15.4146 9.98984 15.4709 10.0133C15.5154 10.0344 15.5592 10.0578 15.6014 10.0836C15.6521 10.1102 15.7014 10.1398 15.7482 10.1727C15.7881 10.2016 15.8264 10.2328 15.8631 10.2664C15.9068 10.3039 15.949 10.3437 15.9881 10.3852C16.0029 10.4016 16.0154 10.4195 16.0303 10.4367L15.1326 13.7898ZM10.5811 13.2727C10.5276 13.0224 10.5367 12.7629 10.6074 12.517C10.6781 12.2711 10.8083 12.0464 10.9865 11.8628C11.1646 11.6791 11.3853 11.5422 11.6289 11.4641C11.8725 11.386 12.1317 11.369 12.3834 11.4148C12.4248 11.4227 12.4615 11.4469 12.4998 11.457V13.7898H11.735C11.3206 13.7898 10.9232 13.6251 10.6303 13.332C10.6115 13.3141 10.5982 13.2914 10.5811 13.2727Z" fill="white"/>
</svg>
