<svg width="35" height="35" viewBox="0 0 35 35" fill="none" xmlns="http://www.w3.org/2000/svg">
<path d="M15.0583 22.4327C14.9943 22.4495 14.9342 22.4788 14.8816 22.5189C14.8289 22.5589 14.7847 22.609 14.7514 22.6662C14.7182 22.7235 14.6966 22.7867 14.6879 22.8523C14.6792 22.9179 14.6835 22.9846 14.7007 23.0485C14.8373 23.5425 14.8071 24.0678 14.6146 24.5428C14.4222 25.0178 14.0784 25.4161 13.6365 25.6757C13.5417 25.7303 13.4685 25.8156 13.4287 25.9174C13.3902 26.0152 13.3831 26.1226 13.4084 26.2246C13.4337 26.3266 13.4901 26.4182 13.5698 26.4867C13.6495 26.5552 13.7485 26.5972 13.8532 26.6069C13.9578 26.6166 14.0629 26.5935 14.1538 26.5409C14.7823 26.1682 15.2711 25.5995 15.5451 24.9221C15.8217 24.2448 15.8671 23.4951 15.6741 22.7893C15.6394 22.661 15.5553 22.5516 15.4401 22.4852C15.3832 22.4509 15.3199 22.4286 15.2541 22.4196C15.1882 22.4105 15.1224 22.415 15.0583 22.4327Z" fill="#AEAEAE"/>
<path d="M11.4821 33.2794C12.4092 33.7456 13.447 33.947 14.4812 33.8613C15.8427 33.7565 17.1479 33.2733 18.2494 32.4662C19.351 31.6592 20.2052 30.5604 20.7156 29.2938L22.7499 24.2746C23.2664 23.0123 23.4197 21.6308 23.1924 20.286C22.9651 18.9412 22.3663 17.6867 21.4637 16.6643C20.8334 15.942 20.0294 15.3923 19.1277 15.067C18.226 14.7416 17.2562 14.6514 16.3099 14.8049C15.3783 14.9479 14.4982 15.325 13.7521 15.901C13.006 16.477 12.4184 17.2331 12.0443 18.0982L11.9863 18.2262C11.4925 19.4316 11.4091 20.7661 11.749 22.0237C11.8122 22.2535 11.798 22.4977 11.7087 22.7187C11.6193 22.9397 11.4598 23.1251 11.2546 23.2465C10.1396 23.904 9.27298 24.9114 8.78931 26.1121L8.73243 26.2499C8.39307 27.1328 8.28428 28.0875 8.41633 29.0241C8.54837 29.9607 8.9169 30.8481 9.48712 31.6027C10.0121 32.3098 10.6953 32.884 11.4821 33.2794ZM13.7309 23.5363C13.9991 22.8743 14.0452 22.1431 13.8621 21.4527L13.8479 21.456C13.6355 20.6732 13.6815 19.8426 13.9792 19.088L14.0317 18.9787C14.2549 18.4466 14.6119 17.9813 15.068 17.6279C15.5241 17.2745 16.0638 17.0451 16.6348 16.9618C17.2169 16.866 17.8138 16.9205 18.3689 17.1202C18.924 17.3198 19.4189 17.658 19.8067 18.1026C20.4411 18.8213 20.8619 19.7031 21.0215 20.6485C21.1812 21.5938 21.0733 22.5649 20.7101 23.4521L18.6757 28.4702C18.3176 29.3595 17.7183 30.1312 16.9454 30.6984C16.1724 31.2655 15.2565 31.6056 14.3007 31.6804C13.7143 31.7277 13.1255 31.625 12.5898 31.382C12.054 31.139 11.5889 30.7637 11.2382 30.2913C10.8919 29.8451 10.6651 29.318 10.5792 28.7597C10.4933 28.2015 10.5511 27.6306 10.7471 27.1009L10.8073 26.9565C11.1135 26.1898 11.6648 25.5455 12.3757 25.1244C12.9882 24.7559 13.4629 24.1991 13.732 23.5363H13.7309ZM27.1851 8.90304C27.1524 8.83163 27.1033 8.769 27.0417 8.72031C26.98 8.67163 26.9077 8.63829 26.8307 8.62304C26.7002 8.59752 26.5649 8.6238 26.4534 8.69632C26.3979 8.73237 26.3501 8.77905 26.3127 8.83368C26.2753 8.88831 26.2492 8.9498 26.2357 9.0146C26.0826 9.73976 26.1701 10.4715 26.4807 11.1365C26.79 11.7996 27.3099 12.3418 27.9595 12.6787C28.0179 12.7095 28.0819 12.7285 28.1477 12.7346C28.2135 12.7407 28.2798 12.7337 28.343 12.7142C28.4061 12.6946 28.4647 12.6628 28.5156 12.6206C28.5664 12.5784 28.6084 12.5266 28.6392 12.4681C28.67 12.4097 28.689 12.3457 28.6951 12.2799C28.7012 12.2141 28.6943 12.1478 28.6747 12.0846C28.6552 12.0215 28.6234 11.9629 28.5812 11.912C28.539 11.8612 28.4871 11.8192 28.4287 11.7884C27.9743 11.5517 27.6102 11.1723 27.3926 10.7084C27.175 10.2446 27.1159 9.72205 27.2245 9.22132C27.245 9.11372 27.2312 9.00239 27.1851 8.90304Z" fill="#AEAEAE"/>
<path d="M28.0948 20.0561H28.2337C29.1683 20.0575 30.0886 19.8269 30.9122 19.385C31.7357 18.9431 32.4366 18.3036 32.9521 17.524C33.4791 16.7394 33.7978 15.8335 33.8782 14.8917C33.9585 13.9499 33.7979 13.0032 33.4115 12.1406L33.359 12.0312C32.8109 10.8509 31.888 9.88498 30.734 9.28371C30.5221 9.17305 30.3524 8.99603 30.2506 8.77975C30.1489 8.56346 30.1208 8.31981 30.1707 8.08605C30.4408 6.81204 30.2843 5.48458 29.7255 4.30824L29.6709 4.19886C29.2519 3.35099 28.6238 2.62381 27.8459 2.08589C27.068 1.54797 26.166 1.21705 25.2248 1.12433C24.2721 1.02316 23.3094 1.16617 22.4272 1.53987C21.5451 1.91358 20.7726 2.50569 20.1826 3.26043C19.337 4.33208 18.8075 5.61862 18.6539 6.97504C18.5003 8.33146 18.7286 9.70383 19.313 10.9375L21.6219 15.8375C22.1999 17.0742 23.1123 18.1246 24.2559 18.8701C25.3995 19.6156 26.7299 20.0264 28.0948 20.0561ZM23.116 3.63011C23.5897 3.39985 24.1096 3.28053 24.6363 3.28121C25.2825 3.27962 25.9161 3.4602 26.4643 3.80222C27.0126 4.14425 27.4533 4.63388 27.736 5.21496L27.748 5.24121C28.1027 5.98616 28.2026 6.82702 28.0324 7.63433C27.8811 8.3339 27.9643 9.06382 28.2691 9.71141C28.5739 10.359 29.0834 10.8882 29.719 11.2175C30.4716 11.6152 31.0693 12.2536 31.4165 13.0309C31.6559 13.5559 31.7557 14.1337 31.7063 14.7086C31.6568 15.2834 31.4598 15.8358 31.1343 16.3121C30.8075 16.8015 30.3625 17.2006 29.8406 17.4724C29.3187 17.7443 28.7367 17.8801 28.1484 17.8675C27.1894 17.8471 26.2552 17.5588 25.4515 17.0351C24.6478 16.5115 24.0067 15.7735 23.6005 14.9045L21.2927 10.0056C20.8816 9.13897 20.7207 8.1747 20.8284 7.22155C20.936 6.2684 21.3078 5.36429 21.9019 4.61121C22.2268 4.19558 22.6413 3.8609 23.116 3.63011ZM10.0424 7.67371C10.0979 7.61891 10.1652 7.57751 10.2391 7.55268C10.313 7.52785 10.3917 7.52024 10.469 7.53043C10.6024 7.54793 10.7216 7.61793 10.7949 7.72949C10.835 7.78193 10.8644 7.84178 10.8813 7.9056C10.8981 7.96942 10.9023 8.03595 10.8934 8.10136C10.7951 8.82553 10.4616 9.49732 9.94398 10.0132C9.42801 10.5308 8.75625 10.8643 8.0321 10.9626C7.96547 10.9739 7.89724 10.9718 7.83147 10.9562C7.7657 10.9406 7.70373 10.912 7.64924 10.872C7.59475 10.832 7.54886 10.7815 7.51429 10.7234C7.47973 10.6653 7.45719 10.6009 7.44802 10.5339C7.43885 10.467 7.44324 10.3988 7.46092 10.3336C7.47861 10.2684 7.50923 10.2074 7.55096 10.1542C7.59269 10.101 7.64469 10.0568 7.70386 10.0241C7.76303 9.99146 7.82816 9.97102 7.89538 9.96402C8.40321 9.89678 8.87472 9.66405 9.23694 9.30183C9.59916 8.93961 9.8319 8.4681 9.89913 7.96027C9.915 7.85188 9.96522 7.75144 10.0424 7.67371Z" fill="#AEAEAE"/>
<path d="M4.97964 18.1703C6.2744 18.6062 7.66548 18.6701 8.99475 18.3547C10.324 18.0394 11.5382 17.3574 12.4992 16.3864L16.3273 12.5583C17.2965 11.5963 17.9772 10.3823 18.2922 9.05362C18.6073 7.72491 18.5442 6.33455 18.1101 5.03984C17.8086 4.12895 17.2804 3.30972 16.5752 2.65918C15.8699 2.00863 15.0108 1.54817 14.0785 1.32109C13.1581 1.09122 12.1943 1.09942 11.278 1.34492C10.3616 1.59043 9.5228 2.06515 8.84057 2.72437L8.74214 2.82609C7.83554 3.74061 7.25023 4.92466 7.07417 6.20031C7.04186 6.43658 6.93323 6.65582 6.7648 6.82464C6.59638 6.99346 6.37739 7.10261 6.1412 7.13547C4.85393 7.30852 3.65996 7.90224 2.7451 8.82421L2.65104 8.92156C1.99506 9.60272 1.52333 10.4397 1.2803 11.3536C1.03728 12.2675 1.03098 13.2283 1.26198 14.1453C1.48891 15.0768 1.94941 15.9352 2.60005 16.6394C3.2507 17.3437 4.06893 17.8705 4.97964 18.1703ZM9.23979 6.50546C9.35354 5.68625 9.73198 4.92828 10.3171 4.34421L10.3718 4.28625C10.7853 3.88421 11.2954 3.59559 11.8529 3.44825C12.4105 3.30092 12.9966 3.29985 13.5546 3.44515C14.1272 3.58593 14.6545 3.86985 15.0873 4.27027C15.52 4.67068 15.844 5.17447 16.0287 5.73437C16.3333 6.64376 16.3775 7.62024 16.1562 8.55342C15.9349 9.48659 15.4569 10.3392 14.7764 11.015L10.9482 14.8431C10.2728 15.5238 9.42029 16.0018 8.48721 16.223C7.55413 16.4441 6.57777 16.3996 5.6687 16.0944C5.1091 15.9099 4.6057 15.586 4.20595 15.1532C3.8062 14.7203 3.52328 14.1928 3.38385 13.6203C3.23876 13.0481 3.24559 12.4479 3.40366 11.8791C3.56173 11.3103 3.86557 10.7927 4.2851 10.3773C4.86546 9.78979 5.62451 9.41162 6.44307 9.30218C7.15144 9.20727 7.80895 8.88208 8.31432 8.37671C8.81969 7.87135 9.14488 7.21383 9.23979 6.50546Z" fill="#AEAEAE"/>
</svg>
