<svg width="43" height="42" viewBox="0 0 43 42" fill="none" xmlns="http://www.w3.org/2000/svg">
<g clip-path="url(#clip0_50_4507)">
<path d="M33.6044 8.87988C32.1068 8.39981 30.0646 8.21399 27.8792 7.96784C25.7 7.72361 23.3947 7.42912 21.474 6.81195C19.5594 6.1967 18.0761 5.28216 17.363 3.84882L16.3278 4.36641C17.5501 6.57495 19.8086 7.55852 21.9316 8.15523C21.3864 8.0846 20.8237 7.98351 20.2644 7.85035C17.958 7.30025 15.687 6.2419 14.8226 5.25963L13.9521 6.02594C15.1677 7.40512 17.5477 8.39561 19.9927 8.9776C22.4187 9.55565 24.8613 9.75668 26.3934 8.96101C26.8548 9.01892 27.3106 9.07306 27.7545 9.12213C29.9466 9.36836 31.9691 9.5737 33.2457 9.98325C33.8897 10.1915 34.3162 10.4472 34.5049 10.6859C34.6169 10.8242 34.6841 10.9547 34.6889 11.1338L35.8146 11.486C35.8792 10.9126 35.7386 10.3689 35.4141 9.96002C34.9855 9.43019 34.3532 9.12022 33.6044 8.87988ZM35.8974 12.7106C33.1401 11.8317 27.4919 10.652 22.4547 10.4766C22.5245 10.491 22.5933 10.5085 22.6609 10.5297C23.7743 10.878 24.4035 12.0832 24.0551 13.1966C23.7068 14.3099 22.5035 14.9397 21.3901 14.5913C20.2767 14.243 19.647 13.0397 19.9953 11.9263C20.2455 11.1266 20.9366 10.5797 21.7174 10.4587C19.8413 10.4329 18.0802 10.5572 16.621 10.9043C19.2757 13.5786 20.1695 16.2692 20.8934 18.8121C25.801 18.97 29.0863 18.4851 33.4976 16.2793C31.9016 16.1784 31.2011 15.9997 29.9309 15.5483C31.8615 15.4432 36.7297 14.756 38.3083 14.3943C36.456 13.9687 33.4874 13.7219 31.7468 13.5866C32.9218 13.0473 35.4494 12.8258 36.3257 12.8527C36.1922 12.8043 36.0508 12.76 35.8974 12.7106ZM22.3139 11.6387C21.7972 11.4771 21.2642 11.756 21.1025 12.2727C20.9409 12.7894 21.2198 13.3224 21.7365 13.4841C22.2532 13.6458 22.7862 13.3668 22.9479 12.8501C23.1096 12.3334 22.8306 11.8004 22.3139 11.6387ZM14.5129 10.5621C12.9157 11.8723 11.5736 13.1745 10.4972 14.4518C11.383 17.0386 12.7957 19.4391 16.0589 21.615C17.0108 20.7309 18.245 19.8947 19.7548 19.084C18.9472 16.2042 18.0216 13.4428 14.5129 10.5621ZM9.65544 15.5256C8.23412 17.4716 7.42447 19.3793 7.22949 21.2566C8.76713 23.3247 10.1316 24.7377 13.8357 25.0727C14.0533 24.1615 14.5223 23.2885 15.2427 22.4536C12.1871 20.3698 10.6144 17.9732 9.65544 15.5256ZM20.2712 20.11C19.9059 20.3063 19.5609 20.5023 19.2344 20.704C20.8375 22.401 21.8543 24.1374 22.6574 26.5565L23.7595 26.1855C22.9437 23.7421 21.8693 21.8661 20.2712 20.11ZM17.8972 21.5891C17.5634 21.8358 17.2561 22.0841 16.9814 22.3358C17.4412 22.7228 18.1103 23.4117 18.6949 24.1551C19.4174 25.0835 20.0222 26.1507 20.1343 26.8071L21.2801 26.5983C21.0875 25.552 20.3862 24.4479 19.6114 23.4491C19.0391 22.7095 18.438 22.0622 17.8972 21.5891ZM15.9775 23.3859C15.7044 23.7192 15.4905 24.0574 15.3193 24.3888C15.5892 24.5408 16.0358 24.8832 16.4236 25.3489C16.9452 25.9916 17.4132 26.8269 17.5821 27.474L18.7019 27.1761C18.4654 26.2916 17.9366 25.3698 17.3213 24.6168C16.9001 24.1068 16.4758 23.6498 15.9775 23.3859ZM7.24152 23.1175C7.52481 25.5361 8.86284 27.9875 11.375 30.4552C12.1077 30.6169 12.701 30.7282 13.2539 30.6446C13.7438 30.5683 14.2453 30.347 14.8803 29.742C14.1044 28.574 13.6953 27.3992 13.6999 26.2188C10.4734 25.9116 8.66567 24.7045 7.24152 23.1175ZM28.61 34.7064C27.9722 34.5001 25.878 34.1353 23.7356 33.9242C22.1939 33.7795 20.5863 33.7155 19.397 33.7823C20.1764 33.8168 21.0668 34.0144 22.028 34.2881C22.407 34.3932 22.8007 34.5164 23.1925 34.6457C24.3658 35.0398 25.5614 35.5355 26.6063 36.038C27.3263 36.3916 27.9706 36.7283 28.505 37.071C29.0891 36.6933 29.618 36.1902 29.7623 35.8369C30.0029 35.176 28.9525 34.8204 28.61 34.7064ZM15.5743 30.675C14.7044 31.3618 13.9241 31.8268 12.909 31.8333C14.0437 32.7827 15.3476 33.7309 16.8391 34.6838C17.4901 34.3945 18.1543 33.9338 18.2518 33.2552C17.184 32.3943 16.2834 31.5385 15.5743 30.675ZM18.4884 35.0243L17.7628 35.3578C18.5039 35.8598 19.7302 36.5812 21.2465 37.0016C23.5044 37.6203 26.3897 38.7594 28.5102 38.5652C25.7451 36.8694 21.2662 34.4347 18.4884 35.0243Z" fill="#AEAEAE"/>
</g>
<defs>
<clipPath id="clip0_50_4507">
<rect width="33" height="33" fill="white" transform="translate(10.8193 0.458252) rotate(17.3742)"/>
</clipPath>
</defs>
</svg>
