<svg width="123" height="25" viewBox="0 0 123 25" fill="none" xmlns="http://www.w3.org/2000/svg">
<path d="M4.89102 24.1551L6.93945 15.4681L0.0693359 9.62532L9.14545 8.85246L12.6751 0.660156L16.2047 8.85246L25.2808 9.62532L18.4107 15.4681L20.4591 24.1551L12.6751 19.5488L4.89102 24.1551Z" fill="#F9C645"/>
<path d="M29.0941 24.1551L31.1426 15.4681L24.2725 9.62532L33.3486 8.85246L36.8782 0.660156L40.4078 8.85246L49.4839 9.62532L42.6138 15.4681L44.6622 24.1551L36.8782 19.5488L29.0941 24.1551Z" fill="#F9C645"/>
<path d="M53.2973 24.1551L55.3457 15.4681L48.4756 9.62532L57.5517 8.85246L61.0813 0.660156L64.6109 8.85246L73.687 9.62532L66.8169 15.4681L68.8653 24.1551L61.0813 19.5488L53.2973 24.1551Z" fill="#F9C645"/>
<path d="M77.4994 24.1551L79.5479 15.4681L72.6777 9.62532L81.7539 8.85246L85.2835 0.660156L88.8131 8.85246L97.8892 9.62532L91.0191 15.4681L93.0675 24.1551L85.2835 19.5488L77.4994 24.1551Z" fill="#F9C645"/>
<path d="M101.703 24.1551L103.751 15.4681L96.8809 9.62532L105.957 8.85246L109.487 0.660156L113.016 8.85246L122.092 9.62532L115.222 15.4681L117.271 24.1551L109.487 19.5488L101.703 24.1551Z" fill="#D9D9D9"/>
</svg>
