<svg width="123" height="25" viewBox="0 0 123 25" fill="none" xmlns="http://www.w3.org/2000/svg">
<path d="M4.89102 24.1553L6.93945 15.4684L0.0693359 9.62556L9.14545 8.8527L12.6751 0.6604L16.2047 8.8527L25.2808 9.62556L18.4107 15.4684L20.4591 24.1553L12.6751 19.5491L4.89102 24.1553Z" fill="#F9C645"/>
<path d="M29.0941 24.1553L31.1426 15.4684L24.2725 9.62556L33.3486 8.8527L36.8782 0.6604L40.4078 8.8527L49.4839 9.62556L42.6138 15.4684L44.6622 24.1553L36.8782 19.5491L29.0941 24.1553Z" fill="#F9C645"/>
<path d="M53.2973 24.1553L55.3457 15.4684L48.4756 9.62556L57.5517 8.8527L61.0813 0.6604L64.6109 8.8527L73.687 9.62556L66.8169 15.4684L68.8653 24.1553L61.0813 19.5491L53.2973 24.1553Z" fill="#F9C645"/>
<path d="M77.4994 24.1553L79.5479 15.4684L72.6777 9.62556L81.7539 8.8527L85.2835 0.6604L88.8131 8.8527L97.8892 9.62556L91.0191 15.4684L93.0675 24.1553L85.2835 19.5491L77.4994 24.1553Z" fill="#F9C645"/>
<path d="M101.703 24.1553L103.751 15.4684L96.8809 9.62556L105.957 8.8527L109.487 0.6604L113.016 8.8527L122.092 9.62556L115.222 15.4684L117.271 24.1553L109.487 19.5491L101.703 24.1553Z" fill="#D9D9D9"/>
</svg>
