<svg width="70" height="18" viewBox="0 0 70 18" fill="none" xmlns="http://www.w3.org/2000/svg">
<path d="M3.99756 15.098L5.11275 10.277L1.37256 7.03432L6.31373 6.6054L8.2353 2.05884L10.1569 6.6054L15.098 7.03432L11.3578 10.277L12.473 15.098L8.2353 12.5417L3.99756 15.098Z" fill="#F9C645"/>
<path d="M17.0366 15.098L18.1518 10.277L14.4116 7.03432L19.3528 6.6054L21.2744 2.05884L23.1959 6.6054L28.1371 7.03432L24.3969 10.277L25.5121 15.098L21.2744 12.5417L17.0366 15.098Z" fill="#F9C645"/>
<path d="M30.0757 15.098L31.1909 10.277L27.4507 7.03432L32.3919 6.6054L34.3134 2.05884L36.235 6.6054L41.1762 7.03432L37.436 10.277L38.5512 15.098L34.3134 12.5417L30.0757 15.098Z" fill="#F9C645"/>
<path d="M43.1152 15.098L44.2304 10.277L40.4902 7.03432L45.4314 6.6054L47.353 2.05884L49.2745 6.6054L54.2157 7.03432L50.4755 10.277L51.5907 15.098L47.353 12.5417L43.1152 15.098Z" fill="#F9C645"/>
<path d="M68.5698 7.02746L63.4299 6.60197L61.4212 2.05884L59.4124 6.60883L54.2725 7.02746L58.1756 10.2735L57.0033 15.098L61.4212 12.5382L65.839 15.098L64.6738 10.2735L68.5698 7.02746ZM61.4212 11.2549V4.87256L62.6436 7.64511L65.7747 7.90589L63.4013 9.88236L64.1162 12.8196L61.4212 11.2549Z" fill="#F9C645"/>
</svg>
