<svg width="63" height="13" viewBox="0 0 63 13" fill="none" xmlns="http://www.w3.org/2000/svg">
<path d="M2.46458 12.2118L3.51162 7.69664L0 4.65976L4.63921 4.25806L6.44334 0L8.24748 4.25806L12.8867 4.65976L9.37506 7.69664L10.4221 12.2118L6.44334 9.81763L2.46458 12.2118Z" fill="#F9C645"/>
<path d="M14.8357 12.2118L15.8827 7.69664L12.3711 4.65976L17.0103 4.25806L18.8144 0L20.6186 4.25806L25.2578 4.65976L21.7462 7.69664L22.7932 12.2118L18.8144 9.81763L14.8357 12.2118Z" fill="#F9C645"/>
<path d="M27.2068 12.2118L28.2538 7.69664L24.7422 4.65976L29.3814 4.25806L31.1855 0L32.9897 4.25806L37.6289 4.65976L34.1173 7.69664L35.1643 12.2118L31.1855 9.81763L27.2068 12.2118Z" fill="#F9C645"/>
<path d="M39.5779 12.2118L40.6249 7.69664L37.1133 4.65976L41.7525 4.25806L43.5566 0L45.3608 4.25806L50 4.65976L46.4883 7.69664L47.5354 12.2118L43.5566 9.81763L39.5779 12.2118Z" fill="#F9C645"/>
<path d="M52.4862 12.3192L53.5425 7.76431L50 4.70073L54.68 4.2955L56.5 0L58.32 4.2955L63 4.70073L59.4575 7.76431L60.5137 12.3192L56.5 9.90396L52.4862 12.3192Z" fill="#D9D9D9"/>
</svg>
