<svg width="38" height="39" viewBox="0 0 38 39" fill="none" xmlns="http://www.w3.org/2000/svg">
<path fill-rule="evenodd" clip-rule="evenodd" d="M14.9466 6.63672C15.1565 6.63672 15.3579 6.72013 15.5064 6.86859C15.6548 7.01706 15.7382 7.21842 15.7382 7.42839V12.6534C15.7382 12.8633 15.6548 13.0647 15.5064 13.2132C15.3579 13.3616 15.1565 13.4451 14.9466 13.4451C14.7366 13.4451 14.5352 13.3616 14.3868 13.2132C14.2383 13.0647 14.1549 12.8633 14.1549 12.6534V7.42839C14.1549 7.21842 14.2383 7.01706 14.3868 6.86859C14.5352 6.72013 14.7366 6.63672 14.9466 6.63672Z" fill="#B9B9B9"/>
<path fill-rule="evenodd" clip-rule="evenodd" d="M9.32578 11.655C10.2204 11.4413 11.1332 11.6036 12.0808 12.0928C12.8527 12.4926 13.4005 12.6755 13.8272 12.7634C14.2531 12.852 14.5919 12.8536 15.0012 12.8536V14.4369H14.9854C14.5769 14.4369 14.0987 14.4369 13.5066 14.3142C12.9073 14.1899 12.2225 13.9485 11.3532 13.4988C10.6582 13.1402 10.1341 13.0895 9.69391 13.1948C9.23157 13.3057 8.74312 13.6144 8.18024 14.1955C6.88824 15.5318 6.48687 16.9077 6.34674 17.9654C6.26757 19.2669 6.5027 21.8367 7.66724 24.3486C8.06307 25.2036 8.62516 26.3832 9.31074 27.3071C9.65274 27.7678 9.99632 28.1225 10.3264 28.341C10.6471 28.5524 10.9131 28.6102 11.1545 28.569C13.6269 28.1431 14.0916 28.1328 14.5737 28.1328H15.3947V29.7161H14.5508C14.2167 29.7161 13.8224 29.7161 11.4237 30.1294C10.6795 30.2576 10.009 30.0288 9.45403 29.6623C8.90857 29.3021 8.43753 28.7867 8.03932 28.2507C7.2437 27.1796 6.62145 25.8567 6.23116 25.0144C4.93441 22.2182 4.66999 19.3643 4.76816 17.8387L4.77053 17.8134L4.7737 17.7881C4.94153 16.4866 5.44187 14.7489 7.04262 13.0951C7.71157 12.4032 8.45416 11.8632 9.32657 11.6542L9.32578 11.655Z" fill="#B9B9B9"/>
<path fill-rule="evenodd" clip-rule="evenodd" d="M11.59 9.67985C12.7743 10.8127 13.4164 12.1863 13.4164 13.2503C13.4164 13.4602 13.4998 13.6616 13.6482 13.8101C13.7967 13.9585 13.9981 14.0419 14.208 14.0419C14.418 14.0419 14.6193 13.9585 14.7678 13.8101C14.9163 13.6616 14.9997 13.4602 14.9997 13.2503C14.9997 11.6273 14.075 9.86589 12.6841 8.5351C11.2765 7.18927 9.29652 6.1886 7.04264 6.1886C6.83268 6.1886 6.63132 6.27201 6.48285 6.42047C6.33438 6.56894 6.25098 6.7703 6.25098 6.98027C6.25098 7.19023 6.33438 7.39159 6.48285 7.54006C6.63132 7.68852 6.83268 7.77193 7.04264 7.77193C8.81914 7.77193 10.4215 8.56281 11.5892 9.67985H11.59Z" fill="#B9B9B9"/>
<path fill-rule="evenodd" clip-rule="evenodd" d="M6.78774 6.19566C6.99601 6.16969 7.20607 6.22748 7.37175 6.35634C7.53742 6.4852 7.64515 6.67457 7.67124 6.88283C8.06074 9.99408 10.7944 11.6328 13.0023 12.5155C13.1973 12.5935 13.3533 12.7458 13.4359 12.9388C13.5186 13.1318 13.5213 13.3498 13.4433 13.5447C13.3653 13.7397 13.213 13.8956 13.02 13.9783C12.827 14.061 12.6091 14.0637 12.4141 13.9857C10.1428 13.0776 6.60724 11.1325 6.10057 7.07916C6.0746 6.87089 6.13239 6.66083 6.26125 6.49515C6.39011 6.32948 6.57948 6.22176 6.78774 6.19566ZM20.3949 11.6534C19.4829 11.4444 18.5472 11.6012 17.5687 12.0872C16.7612 12.4878 16.1856 12.6731 15.7344 12.7625C15.2831 12.852 14.9253 12.8536 14.4994 12.8536C14.2894 12.8536 14.088 12.937 13.9396 13.0855C13.7911 13.2339 13.7077 13.4353 13.7077 13.6452C13.7077 13.8552 13.7911 14.0566 13.9396 14.205C14.088 14.3535 14.2894 14.4369 14.4994 14.4369H14.5144C14.9395 14.4369 15.4327 14.4369 16.0423 14.3158C16.6606 14.1931 17.3692 13.9532 18.2717 13.5051C19.0032 13.1425 19.5637 13.0871 20.0418 13.1964C20.5374 13.3104 21.0528 13.6255 21.6386 14.2073C22.9971 15.5555 23.408 16.9402 23.5497 17.9947C23.5805 18.2003 23.6909 18.3855 23.8571 18.5104C24.0233 18.6353 24.2319 18.6898 24.4379 18.6621C24.644 18.6345 24.8309 18.5269 24.9583 18.3626C25.0856 18.1983 25.1433 17.9905 25.1188 17.7841C24.943 16.4755 24.4189 14.7362 22.7541 13.0832C22.0566 12.3912 21.2895 11.8577 20.3949 11.6534ZM21.143 27.7852C21.0681 27.7131 20.9798 27.6565 20.883 27.6185C20.7862 27.5806 20.6828 27.5621 20.5789 27.564C20.4749 27.566 20.3724 27.5885 20.2771 27.6301C20.1819 27.6717 20.0957 27.7317 20.0236 27.8066C19.4243 28.4288 18.9208 28.6378 18.4949 28.5682C15.9204 28.1422 15.4391 28.1327 14.9443 28.1327C14.7343 28.1327 14.533 28.2162 14.3845 28.3646C14.236 28.5131 14.1526 28.7145 14.1526 28.9244C14.1526 29.1344 14.236 29.3357 14.3845 29.4842C14.533 29.6327 14.7343 29.7161 14.9443 29.7161H14.9664C15.3203 29.7161 15.732 29.7161 18.236 30.1301C19.4409 30.3296 20.4408 29.6559 21.1644 28.9046C21.2366 28.8297 21.2934 28.7413 21.3314 28.6444C21.3694 28.5475 21.3879 28.4441 21.386 28.3401C21.384 28.236 21.3615 28.1334 21.3198 28.0381C21.2781 27.9427 21.2181 27.8573 21.143 27.7852Z" fill="#B9B9B9"/>
<path fill-rule="evenodd" clip-rule="evenodd" d="M25.8479 13.3952C25.0539 14.8281 24.848 16.3315 25.1639 17.3472C25.1948 17.4465 25.2058 17.5509 25.1963 17.6544C25.1869 17.7579 25.1571 17.8586 25.1087 17.9507C25.0604 18.0427 24.9943 18.1243 24.9144 18.1908C24.8345 18.2573 24.7423 18.3075 24.643 18.3383C24.5437 18.3692 24.4393 18.3802 24.3358 18.3708C24.2322 18.3613 24.1316 18.3315 24.0395 18.2832C23.9475 18.2348 23.8659 18.1688 23.7994 18.0889C23.7328 18.0089 23.6827 17.9167 23.6518 17.8174C23.1697 16.2666 23.5307 14.3103 24.4633 12.6273C25.4077 10.9236 27.0014 9.38064 29.1539 8.71089C29.2532 8.68001 29.3576 8.66899 29.4611 8.67846C29.5647 8.68793 29.6653 8.7177 29.7574 8.76607C29.8494 8.81444 29.931 8.88047 29.9976 8.96038C30.0641 9.04029 30.1142 9.13252 30.1451 9.23181C30.176 9.33109 30.187 9.43549 30.1775 9.53903C30.168 9.64257 30.1383 9.74324 30.0899 9.83527C30.0415 9.92731 29.9755 10.0089 29.8956 10.0754C29.8157 10.142 29.7235 10.1921 29.6242 10.223C27.9276 10.7502 26.6317 11.9821 25.8479 13.3952Z" fill="#B9B9B9"/>
<path fill-rule="evenodd" clip-rule="evenodd" d="M27.4858 14.4053C26.5612 15.7591 25.3103 16.6165 24.2614 16.7906C24.1575 16.8061 24.0578 16.8421 23.9679 16.8965C23.8781 16.9509 23.8 17.0226 23.7382 17.1075C23.6764 17.1924 23.632 17.2887 23.6078 17.3909C23.5836 17.4931 23.5799 17.5991 23.597 17.7027C23.6141 17.8063 23.6517 17.9055 23.7075 17.9944C23.7633 18.0834 23.8363 18.1603 23.9221 18.2208C24.008 18.2813 24.105 18.3241 24.2076 18.3467C24.3101 18.3693 24.4161 18.3713 24.5195 18.3526C26.121 18.0874 27.7075 16.8872 28.7929 15.2983C29.8917 13.6897 30.5559 11.5727 30.1878 9.34895C30.1708 9.24634 30.1338 9.14807 30.0789 9.05976C30.024 8.97144 29.9522 8.89481 29.8677 8.83423C29.7831 8.77366 29.6875 8.73033 29.5862 8.70672C29.4849 8.6831 29.38 8.67967 29.2774 8.69662C29.1748 8.71356 29.0765 8.75056 28.9882 8.80548C28.8999 8.8604 28.8232 8.93218 28.7627 9.01672C28.7021 9.10126 28.6587 9.19691 28.6351 9.29819C28.6115 9.39948 28.6081 9.50442 28.625 9.60704C28.9156 11.3598 28.397 13.0706 27.485 14.4045L27.4858 14.4053Z" fill="#B9B9B9"/>
<path fill-rule="evenodd" clip-rule="evenodd" d="M25.1591 18.8553C24.6342 18.8553 24.1307 19.0638 23.7596 19.435C23.3884 19.8062 23.1799 20.3096 23.1799 20.8345C23.1799 21.3594 23.3884 21.8628 23.7596 22.234C24.1307 22.6051 24.6342 22.8136 25.1591 22.8136C25.684 22.8136 26.1874 22.6051 26.5585 22.234C26.9297 21.8628 27.1382 21.3594 27.1382 20.8345C27.1382 20.3096 26.9297 19.8062 26.5585 19.435C26.1874 19.0638 25.684 18.8553 25.1591 18.8553ZM21.5966 20.8345C21.5966 20.3666 21.6887 19.9034 21.8677 19.4712C22.0468 19.0389 22.3092 18.6462 22.64 18.3154C22.9708 17.9846 23.3635 17.7222 23.7957 17.5432C24.228 17.3641 24.6912 17.272 25.1591 17.272C25.6269 17.272 26.0901 17.3641 26.5224 17.5432C26.9546 17.7222 27.3473 17.9846 27.6781 18.3154C28.0089 18.6462 28.2713 19.0389 28.4504 19.4712C28.6294 19.9034 28.7216 20.3666 28.7216 20.8345C28.7216 21.7793 28.3462 22.6854 27.6781 23.3535C27.01 24.0216 26.1039 24.397 25.1591 24.397C24.2142 24.397 23.3081 24.0216 22.64 23.3535C21.9719 22.6854 21.5966 21.7793 21.5966 20.8345Z" fill="#B9B9B9"/>
<path fill-rule="evenodd" clip-rule="evenodd" d="M29.9605 14.9682C30.8498 15.2873 31.5759 15.9465 31.9791 16.8009C32.3824 17.6554 32.4297 18.635 32.1107 19.5243C32.0756 19.6221 32.0216 19.7121 31.9517 19.7891C31.8818 19.8662 31.7975 19.9286 31.7034 19.973C31.6094 20.0174 31.5076 20.0429 31.4037 20.0479C31.2999 20.053 31.196 20.0375 31.0981 20.0024C31.0003 19.9673 30.9102 19.9133 30.8332 19.8434C30.7562 19.7736 30.6938 19.6892 30.6494 19.5952C30.605 19.5012 30.5795 19.3993 30.5745 19.2955C30.5694 19.1916 30.5849 19.0878 30.62 18.9899C30.7974 18.4958 30.7713 17.9515 30.5474 17.4768C30.3235 17.002 29.9202 16.6355 29.4261 16.4581C28.9321 16.2807 28.3878 16.3068 27.913 16.5307C27.4382 16.7546 27.0718 17.1579 26.8944 17.652C26.8199 17.8446 26.673 18.0005 26.4851 18.0864C26.2972 18.1722 26.0832 18.1813 25.8888 18.1115C25.6943 18.0418 25.5349 17.8988 25.4444 17.7131C25.3539 17.5274 25.3396 17.3137 25.4045 17.1176C25.7237 16.2285 26.383 15.5025 27.2374 15.0995C28.0918 14.6964 29.0713 14.6492 29.9605 14.9682Z" fill="#B9B9B9"/>
<path fill-rule="evenodd" clip-rule="evenodd" d="M28.7002 18.9946C29.5107 18.7621 30.3774 18.8246 31.1461 19.1708C31.9149 19.5171 32.536 20.1248 32.8989 20.8859C33.2619 21.6469 33.3432 22.512 33.1284 23.3273C32.9137 24.1427 32.4167 24.8555 31.726 25.339C31.6408 25.401 31.5442 25.4454 31.4417 25.4696C31.3392 25.4937 31.2329 25.4972 31.129 25.4798C31.0251 25.4624 30.9258 25.4244 30.8368 25.3681C30.7477 25.3118 30.6709 25.2384 30.6106 25.152C30.5503 25.0656 30.5079 24.9681 30.4858 24.8651C30.4637 24.7621 30.4624 24.6557 30.482 24.5522C30.5015 24.4488 30.5415 24.3502 30.5996 24.2623C30.6577 24.1745 30.7327 24.0991 30.8203 24.0406C31.0382 23.8883 31.2231 23.6936 31.3641 23.4682C31.505 23.2428 31.5991 22.9913 31.6408 22.7287C31.6824 22.4661 31.6707 22.1979 31.6064 21.9399C31.5421 21.682 31.4265 21.4396 31.2664 21.2273C31.1064 21.015 30.9052 20.8372 30.6749 20.7043C30.4446 20.5715 30.1899 20.4864 29.926 20.4542C29.6622 20.422 29.3945 20.4432 29.139 20.5167C28.8835 20.5902 28.6454 20.7144 28.439 20.8819C28.3583 20.9475 28.2655 20.9966 28.1659 21.0263C28.0662 21.056 27.9617 21.0658 27.8583 21.0552C27.7548 21.0445 27.6545 21.0136 27.563 20.9642C27.4715 20.9147 27.3907 20.8478 27.3251 20.7671C27.2595 20.6864 27.2104 20.5936 27.1807 20.494C27.151 20.3943 27.1411 20.2898 27.1518 20.1864C27.1625 20.083 27.1934 19.9826 27.2428 19.8912C27.2923 19.7997 27.3592 19.7188 27.4399 19.6532C27.8115 19.3512 28.2401 19.1272 28.7002 18.9946ZM21.9924 23.6052C21.4675 23.6052 20.9641 23.8137 20.5929 24.1849C20.2218 24.5561 20.0133 25.0595 20.0133 25.5844C20.0133 26.1093 20.2218 26.6127 20.5929 26.9839C20.9641 27.355 21.4675 27.5636 21.9924 27.5636C22.5173 27.5636 23.0207 27.355 23.3919 26.9839C23.7631 26.6127 23.9716 26.1093 23.9716 25.5844C23.9716 25.0595 23.7631 24.5561 23.3919 24.1849C23.0207 23.8137 22.5173 23.6052 21.9924 23.6052ZM18.4299 25.5844C18.4299 24.6396 18.8053 23.7334 19.4734 23.0653C20.1415 22.3972 21.0476 22.0219 21.9924 22.0219C22.9373 22.0219 23.8434 22.3972 24.5115 23.0653C25.1796 23.7334 25.5549 24.6396 25.5549 25.5844C25.5549 26.5292 25.1796 27.4354 24.5115 28.1035C23.8434 28.7716 22.9373 29.1469 21.9924 29.1469C21.0476 29.1469 20.1415 28.7716 19.4734 28.1035C18.8053 27.4354 18.4299 26.5292 18.4299 25.5844Z" fill="#B9B9B9"/>
<path fill-rule="evenodd" clip-rule="evenodd" d="M28.3258 23.6053C27.8009 23.6053 27.2975 23.8138 26.9263 24.185C26.5552 24.5562 26.3466 25.0596 26.3466 25.5845C26.3466 26.1094 26.5552 26.6128 26.9263 26.984C27.2975 27.3551 27.8009 27.5636 28.3258 27.5636C28.8507 27.5636 29.3541 27.3551 29.7253 26.984C30.0965 26.6128 30.305 26.1094 30.305 25.5845C30.305 25.0596 30.0965 24.5562 29.7253 24.185C29.3541 23.8138 28.8507 23.6053 28.3258 23.6053ZM24.7633 25.5845C24.7633 24.6396 25.1386 23.7335 25.8067 23.0654C26.4748 22.3973 27.381 22.022 28.3258 22.022C29.2706 22.022 30.1768 22.3973 30.8449 23.0654C31.513 23.7335 31.8883 24.6396 31.8883 25.5845C31.8883 26.5293 31.513 27.4354 30.8449 28.1035C30.1768 28.7716 29.2706 29.147 28.3258 29.147C27.381 29.147 26.4748 28.7716 25.8067 28.1035C25.1386 27.4354 24.7633 26.5293 24.7633 25.5845Z" fill="#B9B9B9"/>
<path fill-rule="evenodd" clip-rule="evenodd" d="M25.1591 28.3553C24.6342 28.3553 24.1307 28.5638 23.7596 28.935C23.3884 29.3062 23.1799 29.8096 23.1799 30.3345C23.1799 30.8594 23.3884 31.3628 23.7596 31.734C24.1307 32.1051 24.6342 32.3136 25.1591 32.3136C25.684 32.3136 26.1874 32.1051 26.5585 31.734C26.9297 31.3628 27.1382 30.8594 27.1382 30.3345C27.1382 29.8096 26.9297 29.3062 26.5585 28.935C26.1874 28.5638 25.684 28.3553 25.1591 28.3553ZM21.5966 30.3345C21.5966 29.8666 21.6887 29.4034 21.8677 28.9712C22.0468 28.5389 22.3092 28.1462 22.64 27.8154C22.9708 27.4846 23.3635 27.2222 23.7957 27.0432C24.228 26.8641 24.6912 26.772 25.1591 26.772C25.6269 26.772 26.0901 26.8641 26.5224 27.0432C26.9546 27.2222 27.3473 27.4846 27.6781 27.8154C28.0089 28.1462 28.2713 28.5389 28.4504 28.9712C28.6294 29.4034 28.7216 29.8666 28.7216 30.3345C28.7216 31.2793 28.3462 32.1854 27.6781 32.8535C27.01 33.5216 26.1039 33.897 25.1591 33.897C24.2142 33.897 23.3081 33.5216 22.64 32.8535C21.9719 32.1854 21.5966 31.2793 21.5966 30.3345Z" fill="#B9B9B9"/>
<path fill-rule="evenodd" clip-rule="evenodd" d="M29.9519 27.5367C29.9868 27.4387 30.0407 27.3486 30.1104 27.2715C30.1802 27.1944 30.2644 27.1318 30.3584 27.0872C30.4523 27.0427 30.5541 27.0171 30.658 27.0119C30.7618 27.0067 30.8657 27.022 30.9636 27.0569C31.4658 27.2362 31.9214 27.526 32.2967 27.9049C32.672 28.2838 32.9574 28.7421 33.132 29.246C33.3065 29.75 33.3657 30.2866 33.3051 30.8165C33.2445 31.3463 33.0658 31.8558 32.7821 32.3074C32.4983 32.7589 32.1169 33.141 31.6658 33.4254C31.2147 33.7099 30.7054 33.8894 30.1757 33.9508C29.646 34.0122 29.1092 33.9538 28.605 33.7801C28.1008 33.6063 27.642 33.3216 27.2626 32.9469C27.1866 32.8743 27.1259 32.7874 27.0839 32.6911C27.0419 32.5948 27.0195 32.4911 27.018 32.3861C27.0165 32.2811 27.0359 32.1768 27.0751 32.0793C27.1143 31.9819 27.1725 31.8932 27.2463 31.8184C27.3201 31.7437 27.408 31.6844 27.505 31.6439C27.6019 31.6035 27.7059 31.5828 27.811 31.583C27.916 31.5832 28.02 31.6042 28.1168 31.645C28.2136 31.6858 28.3013 31.7454 28.3749 31.8204C28.5857 32.0285 28.8405 32.1867 29.1206 32.2833C29.4007 32.3798 29.6988 32.4122 29.9931 32.3782C30.2874 32.3441 30.5703 32.2444 30.8209 32.0864C31.0715 31.9285 31.2835 31.7162 31.4411 31.4654C31.5988 31.2146 31.6982 30.9316 31.7319 30.6373C31.7656 30.3429 31.7327 30.0448 31.6359 29.7648C31.539 29.4849 31.3805 29.2302 31.172 29.0197C30.9636 28.8092 30.7106 28.6481 30.4316 28.5484C30.3337 28.5135 30.2436 28.4596 30.1665 28.3899C30.0893 28.3201 30.0267 28.2359 29.9822 28.1419C29.9376 28.048 29.912 27.9462 29.9068 27.8423C29.9016 27.7384 29.9169 27.6346 29.9519 27.5367Z" fill="#B9B9B9"/>
</svg>
