<svg width="38" height="39" viewBox="0 0 38 39" fill="none" xmlns="http://www.w3.org/2000/svg">
<path fill-rule="evenodd" clip-rule="evenodd" d="M14.9465 6.63672C15.1564 6.63672 15.3578 6.72013 15.5062 6.86859C15.6547 7.01706 15.7381 7.21842 15.7381 7.42839V12.6534C15.7381 12.8633 15.6547 13.0647 15.5062 13.2132C15.3578 13.3616 15.1564 13.4451 14.9465 13.4451C14.7365 13.4451 14.5351 13.3616 14.3867 13.2132C14.2382 13.0647 14.1548 12.8633 14.1548 12.6534V7.42839C14.1548 7.21842 14.2382 7.01706 14.3867 6.86859C14.5351 6.72013 14.7365 6.63672 14.9465 6.63672Z" fill="#B9B9B9"/>
<path fill-rule="evenodd" clip-rule="evenodd" d="M9.32566 11.6551C10.2202 11.4413 11.133 11.6036 12.0807 12.0929C12.8525 12.4927 13.4004 12.6756 13.8271 12.7634C14.253 12.8521 14.5918 12.8537 15.0011 12.8537V14.437H14.9853C14.5768 14.437 14.0986 14.437 13.5065 14.3143C12.9072 14.19 12.2224 13.9486 11.3531 13.4989C10.658 13.1403 10.134 13.0896 9.69378 13.1949C9.23145 13.3057 8.74299 13.6145 8.18012 14.1956C6.88812 15.5319 6.48674 16.9078 6.34662 17.9655C6.26745 19.267 6.50258 21.8367 7.66712 24.3487C8.06295 25.2037 8.62503 26.3833 9.31062 27.3071C9.65262 27.7679 9.9962 28.1226 10.3263 28.3411C10.647 28.5524 10.913 28.6102 11.1544 28.5691C13.6268 28.1431 14.0915 28.1328 14.5736 28.1328H15.3946V29.7162H14.5507C14.2166 29.7162 13.8223 29.7162 11.4236 30.1294C10.6794 30.2577 10.0089 30.0289 9.45391 29.6623C8.90845 29.3021 8.43741 28.7868 8.0392 28.2508C7.24358 27.1797 6.62133 25.8568 6.23103 25.0145C4.93428 22.2183 4.66987 19.3643 4.76803 17.8388L4.77041 17.8135L4.77358 17.7881C4.94141 16.4866 5.44174 14.7489 7.04249 13.0951C7.71145 12.4032 8.45404 11.8633 9.32645 11.6543L9.32566 11.6551Z" fill="#B9B9B9"/>
<path fill-rule="evenodd" clip-rule="evenodd" d="M11.59 9.67989C12.7743 10.8128 13.4164 12.1863 13.4164 13.2503C13.4164 13.4603 13.4998 13.6616 13.6482 13.8101C13.7967 13.9586 13.9981 14.042 14.208 14.042C14.418 14.042 14.6193 13.9586 14.7678 13.8101C14.9163 13.6616 14.9997 13.4603 14.9997 13.2503C14.9997 11.6274 14.075 9.86593 12.6841 8.53514C11.2765 7.1893 9.29652 6.18864 7.04264 6.18864C6.83268 6.18864 6.63132 6.27204 6.48285 6.42051C6.33438 6.56898 6.25098 6.77034 6.25098 6.9803C6.25098 7.19027 6.33438 7.39163 6.48285 7.5401C6.63132 7.68856 6.83268 7.77197 7.04264 7.77197C8.81914 7.77197 10.4215 8.56284 11.5892 9.67989H11.59Z" fill="#B9B9B9"/>
<path fill-rule="evenodd" clip-rule="evenodd" d="M6.78749 6.19576C6.99577 6.16979 7.20583 6.22758 7.3715 6.35644C7.53718 6.4853 7.6449 6.67467 7.67099 6.88293C8.06049 9.99418 10.7941 11.6329 13.0021 12.5156C13.197 12.5936 13.353 12.7459 13.4357 12.9389C13.5184 13.1319 13.521 13.3499 13.443 13.5448C13.365 13.7398 13.2128 13.8957 13.0198 13.9784C12.8268 14.0611 12.6088 14.0638 12.4139 13.9858C10.1426 13.0777 6.60699 11.1326 6.10033 7.07926C6.07435 6.87099 6.13215 6.66093 6.261 6.49525C6.38986 6.32958 6.57924 6.22185 6.78749 6.19576ZM20.3947 11.6535C19.4827 11.4445 18.5469 11.6013 17.5684 12.0873C16.7609 12.4879 16.1854 12.6732 15.7341 12.7626C15.2829 12.8521 14.925 12.8537 14.4991 12.8537C14.2892 12.8537 14.0878 12.9371 13.9393 13.0856C13.7909 13.234 13.7075 13.4354 13.7075 13.6453C13.7075 13.8553 13.7909 14.0567 13.9393 14.2051C14.0878 14.3536 14.2892 14.437 14.4991 14.437H14.5142C14.9393 14.437 15.4325 14.437 16.0421 14.3159C16.6604 14.1932 17.3689 13.9533 18.2714 13.5052C19.0029 13.1426 19.5634 13.0872 20.0416 13.1965C20.5372 13.3105 21.0525 13.6256 21.6384 14.2074C22.9969 15.5556 23.4077 16.9403 23.5495 17.9948C23.5802 18.2004 23.6906 18.3856 23.8568 18.5105C24.023 18.6354 24.2317 18.6899 24.4377 18.6622C24.6437 18.6346 24.8306 18.527 24.958 18.3627C25.0854 18.1984 25.1431 17.9906 25.1185 17.7842C24.9428 16.4756 24.4187 14.7363 22.7538 13.0833C22.0564 12.3913 21.2892 11.8578 20.3947 11.6535ZM21.1428 27.7853C21.0679 27.7132 20.9795 27.6566 20.8827 27.6186C20.7859 27.5807 20.6826 27.5622 20.5786 27.5641C20.4747 27.5661 20.3722 27.5886 20.2769 27.6302C20.1816 27.6718 20.0955 27.7318 20.0234 27.8067C19.4241 28.4289 18.9206 28.6379 18.4947 28.5683C15.9202 28.1423 15.4388 28.1328 14.944 28.1328C14.7341 28.1328 14.5327 28.2163 14.3842 28.3647C14.2358 28.5132 14.1524 28.7146 14.1524 28.9245C14.1524 29.1345 14.2358 29.3358 14.3842 29.4843C14.5327 29.6328 14.7341 29.7162 14.944 29.7162H14.9662C15.3201 29.7162 15.7317 29.7162 18.2358 30.1302C19.4407 30.3297 20.4406 29.656 21.1642 28.9047C21.2364 28.8298 21.2931 28.7414 21.3311 28.6445C21.3692 28.5476 21.3877 28.4442 21.3857 28.3402C21.3837 28.2361 21.3613 28.1335 21.3196 28.0382C21.2779 27.9428 21.2178 27.8574 21.1428 27.7853Z" fill="#B9B9B9"/>
<path fill-rule="evenodd" clip-rule="evenodd" d="M25.8477 13.3952C25.0536 14.8281 24.8478 16.3315 25.1637 17.3472C25.1945 17.4465 25.2056 17.5509 25.1961 17.6544C25.1866 17.7579 25.1569 17.8586 25.1085 17.9507C25.0601 18.0427 24.9941 18.1243 24.9142 18.1908C24.8343 18.2573 24.742 18.3075 24.6428 18.3383C24.5435 18.3692 24.4391 18.3802 24.3355 18.3708C24.232 18.3613 24.1313 18.3315 24.0393 18.2832C23.9472 18.2348 23.8656 18.1688 23.7991 18.0889C23.7326 18.0089 23.6825 17.9167 23.6516 17.8174C23.1695 16.2666 23.5305 14.3103 24.463 12.6273C25.4075 10.9236 27.0011 9.38064 29.1537 8.71089C29.253 8.68001 29.3574 8.66899 29.4609 8.67846C29.5644 8.68793 29.6651 8.7177 29.7571 8.76607C29.8492 8.81444 29.9308 8.88047 29.9973 8.96038C30.0638 9.04029 30.114 9.13252 30.1448 9.23181C30.1757 9.33109 30.1867 9.43549 30.1773 9.53903C30.1678 9.64257 30.138 9.74324 30.0897 9.83527C30.0413 9.92731 29.9753 10.0089 29.8954 10.0754C29.8154 10.142 29.7232 10.1921 29.6239 10.223C27.9274 10.7502 26.6314 11.9821 25.8477 13.3952Z" fill="#B9B9B9"/>
<path fill-rule="evenodd" clip-rule="evenodd" d="M27.4858 14.4053C26.5612 15.7591 25.3103 16.6165 24.2614 16.7906C24.1575 16.8061 24.0578 16.8421 23.9679 16.8965C23.8781 16.9509 23.8 17.0227 23.7382 17.1075C23.6764 17.1924 23.632 17.2888 23.6078 17.3909C23.5836 17.4931 23.5799 17.5991 23.597 17.7027C23.6141 17.8063 23.6517 17.9055 23.7075 17.9944C23.7633 18.0834 23.8363 18.1603 23.9221 18.2208C24.008 18.2813 24.105 18.3241 24.2076 18.3467C24.3101 18.3694 24.4161 18.3713 24.5195 18.3526C26.121 18.0874 27.7075 16.8872 28.7929 15.2983C29.8917 13.6897 30.5559 11.5728 30.1878 9.34897C30.1708 9.24636 30.1338 9.14809 30.0789 9.05977C30.024 8.97146 29.9522 8.89482 29.8677 8.83425C29.7831 8.77367 29.6875 8.73034 29.5862 8.70673C29.4849 8.68312 29.38 8.67969 29.2774 8.69663C29.1748 8.71358 29.0765 8.75057 28.9882 8.80549C28.8999 8.86042 28.8232 8.9322 28.7627 9.01674C28.7021 9.10128 28.6587 9.19692 28.6351 9.29821C28.6115 9.39949 28.6081 9.50444 28.625 9.60705C28.9156 11.3598 28.397 13.0706 27.485 14.4046L27.4858 14.4053Z" fill="#B9B9B9"/>
<path fill-rule="evenodd" clip-rule="evenodd" d="M25.1592 18.8553C24.6343 18.8553 24.1309 19.0638 23.7597 19.435C23.3885 19.8062 23.18 20.3096 23.18 20.8345C23.18 21.3594 23.3885 21.8628 23.7597 22.234C24.1309 22.6051 24.6343 22.8136 25.1592 22.8136C25.6841 22.8136 26.1875 22.6051 26.5587 22.234C26.9298 21.8628 27.1383 21.3594 27.1383 20.8345C27.1383 20.3096 26.9298 19.8062 26.5587 19.435C26.1875 19.0638 25.6841 18.8553 25.1592 18.8553ZM21.5967 20.8345C21.5967 20.3666 21.6888 19.9034 21.8679 19.4712C22.0469 19.0389 22.3093 18.6462 22.6401 18.3154C22.9709 17.9846 23.3636 17.7222 23.7959 17.5432C24.2281 17.3641 24.6913 17.272 25.1592 17.272C25.627 17.272 26.0903 17.3641 26.5225 17.5432C26.9547 17.7222 27.3474 17.9846 27.6782 18.3154C28.0091 18.6462 28.2715 19.0389 28.4505 19.4712C28.6295 19.9034 28.7217 20.3666 28.7217 20.8345C28.7217 21.7793 28.3463 22.6854 27.6782 23.3535C27.0101 24.0216 26.104 24.397 25.1592 24.397C24.2143 24.397 23.3082 24.0216 22.6401 23.3535C21.972 22.6854 21.5967 21.7793 21.5967 20.8345Z" fill="#B9B9B9"/>
<path fill-rule="evenodd" clip-rule="evenodd" d="M29.9604 14.9682C30.8497 15.2873 31.5758 15.9465 31.979 16.801C32.3822 17.6554 32.4296 18.635 32.1106 19.5243C32.0755 19.6221 32.0214 19.7122 31.9516 19.7892C31.8817 19.8662 31.7973 19.9286 31.7033 19.973C31.6093 20.0175 31.5074 20.0429 31.4036 20.0479C31.2997 20.053 31.1959 20.0375 31.098 20.0024C31.0001 19.9673 30.9101 19.9133 30.8331 19.8434C30.7561 19.7736 30.6936 19.6892 30.6492 19.5952C30.6048 19.5012 30.5794 19.3993 30.5743 19.2955C30.5693 19.1916 30.5848 19.0878 30.6199 18.9899C30.7973 18.4958 30.7712 17.9516 30.5473 17.4768C30.3234 17.002 29.9201 16.6356 29.426 16.4581C28.932 16.2807 28.3877 16.3068 27.9129 16.5307C27.4381 16.7546 27.0717 17.1579 26.8943 17.652C26.8197 17.8446 26.6729 18.0005 26.485 18.0864C26.2971 18.1722 26.0831 18.1813 25.8887 18.1115C25.6942 18.0418 25.5347 17.8988 25.4442 17.7131C25.3538 17.5274 25.3394 17.3137 25.4044 17.1176C25.7236 16.2285 26.3829 15.5025 27.2373 15.0995C28.0917 14.6964 29.0712 14.6492 29.9604 14.9682Z" fill="#B9B9B9"/>
<path fill-rule="evenodd" clip-rule="evenodd" d="M28.7 18.9946C29.5105 18.7622 30.3771 18.8246 31.1459 19.1709C31.9147 19.5172 32.5357 20.1249 32.8987 20.8859C33.2616 21.647 33.343 22.5121 33.1282 23.3274C32.9134 24.1428 32.4165 24.8556 31.7257 25.3391C31.6406 25.4011 31.5439 25.4455 31.4414 25.4696C31.3389 25.4938 31.2326 25.4973 31.1288 25.4799C31.0249 25.4625 30.9255 25.4245 30.8365 25.3682C30.7475 25.3119 30.6706 25.2384 30.6103 25.1521C30.5501 25.0657 30.5077 24.9681 30.4856 24.8652C30.4635 24.7622 30.4622 24.6558 30.4817 24.5523C30.5012 24.4488 30.5412 24.3503 30.5993 24.2624C30.6574 24.1746 30.7325 24.0992 30.8201 24.0407C31.0379 23.8884 31.2229 23.6937 31.3638 23.4683C31.5048 23.2429 31.5989 22.9914 31.6405 22.7288C31.6822 22.4662 31.6705 22.198 31.6062 21.94C31.5418 21.682 31.4262 21.4397 31.2662 21.2274C31.1061 21.0151 30.905 20.8372 30.6747 20.7044C30.4444 20.5716 30.1897 20.4865 29.9258 20.4543C29.6619 20.422 29.3942 20.4433 29.1387 20.5168C28.8832 20.5903 28.6452 20.7145 28.4387 20.882C28.3581 20.9476 28.2652 20.9966 28.1656 21.0264C28.066 21.0561 27.9614 21.0659 27.858 21.0553C27.7546 21.0446 27.6543 21.0137 27.5628 20.9642C27.4713 20.9148 27.3905 20.8479 27.3249 20.7672C27.2593 20.6865 27.2102 20.5937 27.1805 20.4941C27.1507 20.3944 27.1409 20.2899 27.1516 20.1865C27.1622 20.083 27.1931 19.9827 27.2426 19.8912C27.292 19.7998 27.359 19.7189 27.4396 19.6533C27.8112 19.3513 28.2399 19.1273 28.7 18.9946ZM21.9922 23.6053C21.4673 23.6053 20.9639 23.8138 20.5927 24.185C20.2215 24.5562 20.013 25.0596 20.013 25.5845C20.013 26.1094 20.2215 26.6128 20.5927 26.984C20.9639 27.3551 21.4673 27.5636 21.9922 27.5636C22.5171 27.5636 23.0205 27.3551 23.3917 26.984C23.7628 26.6128 23.9714 26.1094 23.9714 25.5845C23.9714 25.0596 23.7628 24.5562 23.3917 24.185C23.0205 23.8138 22.5171 23.6053 21.9922 23.6053ZM18.4297 25.5845C18.4297 24.6396 18.805 23.7335 19.4731 23.0654C20.1412 22.3973 21.0474 22.022 21.9922 22.022C22.937 22.022 23.8432 22.3973 24.5113 23.0654C25.1794 23.7335 25.5547 24.6396 25.5547 25.5845C25.5547 26.5293 25.1794 27.4354 24.5113 28.1035C23.8432 28.7716 22.937 29.147 21.9922 29.147C21.0474 29.147 20.1412 28.7716 19.4731 28.1035C18.805 27.4354 18.4297 26.5293 18.4297 25.5845Z" fill="#B9B9B9"/>
<path fill-rule="evenodd" clip-rule="evenodd" d="M28.3257 23.6053C27.8008 23.6053 27.2974 23.8138 26.9262 24.185C26.555 24.5562 26.3465 25.0596 26.3465 25.5845C26.3465 26.1094 26.555 26.6128 26.9262 26.984C27.2974 27.3551 27.8008 27.5636 28.3257 27.5636C28.8506 27.5636 29.354 27.3551 29.7252 26.984C30.0963 26.6128 30.3048 26.1094 30.3048 25.5845C30.3048 25.0596 30.0963 24.5562 29.7252 24.185C29.354 23.8138 28.8506 23.6053 28.3257 23.6053ZM24.7632 25.5845C24.7632 24.6396 25.1385 23.7335 25.8066 23.0654C26.4747 22.3973 27.3808 22.022 28.3257 22.022C29.2705 22.022 30.1767 22.3973 30.8447 23.0654C31.5128 23.7335 31.8882 24.6396 31.8882 25.5845C31.8882 26.5293 31.5128 27.4354 30.8447 28.1035C30.1767 28.7716 29.2705 29.147 28.3257 29.147C27.3808 29.147 26.4747 28.7716 25.8066 28.1035C25.1385 27.4354 24.7632 26.5293 24.7632 25.5845Z" fill="#B9B9B9"/>
<path fill-rule="evenodd" clip-rule="evenodd" d="M25.1592 28.3553C24.6343 28.3553 24.1309 28.5638 23.7597 28.935C23.3885 29.3062 23.18 29.8096 23.18 30.3345C23.18 30.8594 23.3885 31.3628 23.7597 31.734C24.1309 32.1051 24.6343 32.3136 25.1592 32.3136C25.6841 32.3136 26.1875 32.1051 26.5587 31.734C26.9298 31.3628 27.1383 30.8594 27.1383 30.3345C27.1383 29.8096 26.9298 29.3062 26.5587 28.935C26.1875 28.5638 25.6841 28.3553 25.1592 28.3553ZM21.5967 30.3345C21.5967 29.8666 21.6888 29.4034 21.8679 28.9712C22.0469 28.5389 22.3093 28.1462 22.6401 27.8154C22.9709 27.4846 23.3636 27.2222 23.7959 27.0432C24.2281 26.8641 24.6913 26.772 25.1592 26.772C25.627 26.772 26.0903 26.8641 26.5225 27.0432C26.9547 27.2222 27.3474 27.4846 27.6782 27.8154C28.0091 28.1462 28.2715 28.5389 28.4505 28.9712C28.6295 29.4034 28.7217 29.8666 28.7217 30.3345C28.7217 31.2793 28.3463 32.1854 27.6782 32.8535C27.0101 33.5216 26.104 33.897 25.1592 33.897C24.2143 33.897 23.3082 33.5216 22.6401 32.8535C21.972 32.1854 21.5967 31.2793 21.5967 30.3345Z" fill="#B9B9B9"/>
<path fill-rule="evenodd" clip-rule="evenodd" d="M29.9515 27.5367C29.9864 27.4388 30.0403 27.3487 30.11 27.2716C30.1798 27.1944 30.264 27.1318 30.358 27.0873C30.452 27.0427 30.5538 27.0171 30.6576 27.0119C30.7615 27.0067 30.8653 27.022 30.9632 27.057C31.4655 27.2363 31.921 27.5261 32.2963 27.905C32.6716 28.2839 32.9571 28.7422 33.1316 29.2461C33.3061 29.75 33.3653 30.2867 33.3047 30.8165C33.2442 31.3464 33.0654 31.8559 32.7817 32.3074C32.498 32.759 32.1165 33.141 31.6654 33.4255C31.2143 33.7099 30.7051 33.8895 30.1753 33.9508C29.6456 34.0122 29.1088 33.9539 28.6046 33.7801C28.1004 33.6064 27.6417 33.3217 27.2622 32.947C27.1863 32.8744 27.1256 32.7874 27.0836 32.6911C27.0416 32.5949 27.0192 32.4912 27.0177 32.3861C27.0161 32.2811 27.0355 32.1768 27.0747 32.0794C27.1139 31.9819 27.1721 31.8932 27.2459 31.8185C27.3197 31.7437 27.4076 31.6844 27.5046 31.644C27.6015 31.6036 27.7056 31.5829 27.8106 31.583C27.9156 31.5832 28.0196 31.6043 28.1164 31.6451C28.2132 31.6858 28.301 31.7454 28.3745 31.8204C28.5853 32.0286 28.8401 32.1868 29.1202 32.2833C29.4003 32.3799 29.6985 32.4123 29.9928 32.3782C30.287 32.3442 30.5699 32.2445 30.8205 32.0865C31.0712 31.9285 31.2831 31.7163 31.4408 31.4655C31.5984 31.2147 31.6978 30.9317 31.7315 30.6373C31.7652 30.343 31.7324 30.0449 31.6355 29.7649C31.5386 29.4849 31.3801 29.2303 31.1717 29.0198C30.9632 28.8092 30.7102 28.6482 30.4312 28.5485C30.3333 28.5136 30.2432 28.4597 30.1661 28.3899C30.089 28.3202 30.0263 28.2359 29.9818 28.142C29.9372 28.048 29.9116 27.9462 29.9064 27.8424C29.9012 27.7385 29.9166 27.6347 29.9515 27.5367Z" fill="#B9B9B9"/>
</svg>
