<svg width="38" height="39" viewBox="0 0 38 39" fill="none" xmlns="http://www.w3.org/2000/svg">
<path fill-rule="evenodd" clip-rule="evenodd" d="M14.9467 6.63672C15.1567 6.63672 15.358 6.72013 15.5065 6.86859C15.655 7.01706 15.7384 7.21842 15.7384 7.42839V12.6534C15.7384 12.8633 15.655 13.0647 15.5065 13.2132C15.358 13.3616 15.1567 13.4451 14.9467 13.4451C14.7367 13.4451 14.5354 13.3616 14.3869 13.2132C14.2384 13.0647 14.155 12.8633 14.155 12.6534V7.42839C14.155 7.21842 14.2384 7.01706 14.3869 6.86859C14.5354 6.72013 14.7367 6.63672 14.9467 6.63672Z" fill="#B9B9B9"/>
<path fill-rule="evenodd" clip-rule="evenodd" d="M9.32584 11.6553C10.2204 11.4415 11.1332 11.6038 12.0808 12.0931C12.8527 12.4929 13.4006 12.6757 13.8273 12.7636C14.2532 12.8523 14.592 12.8539 15.0013 12.8539V14.4372H14.9855C14.577 14.4372 14.0988 14.4372 13.5066 14.3145C12.9073 14.1902 12.2226 13.9487 11.3533 13.4991C10.6582 13.1404 10.1341 13.0898 9.69397 13.1951C9.23163 13.3059 8.74318 13.6146 8.1803 14.1957C6.8883 15.5321 6.48693 16.908 6.3468 17.9656C6.26763 19.2671 6.50276 21.8369 7.6673 24.3489C8.06314 25.2039 8.62522 26.3834 9.3108 27.3073C9.6528 27.7681 9.99638 28.1227 10.3265 28.3412C10.6471 28.5526 10.9131 28.6104 11.1546 28.5692C13.627 28.1433 14.0917 28.133 14.5738 28.133H15.3948V29.7164H14.5508C14.2168 29.7164 13.8225 29.7164 11.4238 30.1296C10.6796 30.2579 10.0091 30.0291 9.45409 29.6625C8.90864 29.3023 8.43759 28.7869 8.03938 28.251C7.24376 27.1799 6.62151 25.857 6.23122 25.0146C4.93447 22.2185 4.67005 19.3645 4.76822 17.839L4.77059 17.8136L4.77376 17.7883C4.94159 16.4868 5.44193 14.7491 7.04268 13.0953C7.71163 12.4034 8.45422 11.8635 9.32663 11.6545L9.32584 11.6553Z" fill="#B9B9B9"/>
<path fill-rule="evenodd" clip-rule="evenodd" d="M11.59 9.67997C12.7744 10.8128 13.4164 12.1864 13.4164 13.2504C13.4164 13.4604 13.4998 13.6617 13.6483 13.8102C13.7968 13.9586 13.9981 14.0421 14.2081 14.0421C14.418 14.0421 14.6194 13.9586 14.7679 13.8102C14.9163 13.6617 14.9997 13.4604 14.9997 13.2504C14.9997 11.6275 14.0751 9.86601 12.6841 8.53522C11.2765 7.18939 9.29658 6.18872 7.0427 6.18872C6.83274 6.18872 6.63138 6.27213 6.48291 6.42059C6.33445 6.56906 6.25104 6.77042 6.25104 6.98039C6.25104 7.19035 6.33445 7.39171 6.48291 7.54018C6.63138 7.68865 6.83274 7.77205 7.0427 7.77205C8.8192 7.77205 10.4215 8.56293 11.5892 9.67997H11.59Z" fill="#B9B9B9"/>
<path fill-rule="evenodd" clip-rule="evenodd" d="M6.78774 6.19579C6.99601 6.16981 7.20607 6.22761 7.37175 6.35646C7.53742 6.48532 7.64515 6.67469 7.67124 6.88295C8.06074 9.9942 10.7944 11.633 13.0023 12.5157C13.1973 12.5937 13.3533 12.7459 13.4359 12.9389C13.5186 13.1319 13.5213 13.3499 13.4433 13.5448C13.3653 13.7398 13.213 13.8958 13.02 13.9785C12.827 14.0612 12.6091 14.0638 12.4141 13.9858C10.1428 13.0777 6.60724 11.1326 6.10057 7.07929C6.0746 6.87101 6.13239 6.66095 6.26125 6.49528C6.39011 6.3296 6.57948 6.22188 6.78774 6.19579ZM20.3949 11.6535C19.4829 11.4445 18.5472 11.6013 17.5687 12.0874C16.7612 12.488 16.1856 12.6732 15.7344 12.7627C15.2831 12.8521 14.9253 12.8537 14.4994 12.8537C14.2894 12.8537 14.088 12.9371 13.9396 13.0856C13.7911 13.234 13.7077 13.4354 13.7077 13.6454C13.7077 13.8553 13.7911 14.0567 13.9396 14.2052C14.088 14.3536 14.2894 14.437 14.4994 14.437H14.5144C14.9395 14.437 15.4327 14.437 16.0423 14.3159C16.6606 14.1932 17.3692 13.9533 18.2717 13.5052C19.0032 13.1427 19.5637 13.0872 20.0418 13.1965C20.5374 13.3105 21.0528 13.6256 21.6386 14.2075C22.9971 15.5557 23.408 16.9403 23.5497 17.9948C23.5805 18.2004 23.6909 18.3856 23.8571 18.5105C24.0233 18.6354 24.2319 18.6899 24.4379 18.6622C24.644 18.6346 24.8309 18.527 24.9583 18.3627C25.0856 18.1984 25.1433 17.9906 25.1188 17.7842C24.943 16.4756 24.4189 14.7363 22.7541 13.0833C22.0566 12.3914 21.2895 11.8578 20.3949 11.6535ZM21.143 27.7853C21.0681 27.7132 20.9798 27.6566 20.883 27.6186C20.7862 27.5807 20.6828 27.5622 20.5789 27.5642C20.4749 27.5661 20.3724 27.5886 20.2771 27.6302C20.1819 27.6718 20.0957 27.7318 20.0236 27.8067C19.4243 28.429 18.9208 28.638 18.4949 28.5683C15.9204 28.1424 15.4391 28.1329 14.9443 28.1329C14.7343 28.1329 14.533 28.2163 14.3845 28.3647C14.236 28.5132 14.1526 28.7146 14.1526 28.9245C14.1526 29.1345 14.236 29.3359 14.3845 29.4843C14.533 29.6328 14.7343 29.7162 14.9443 29.7162H14.9664C15.3203 29.7162 15.732 29.7162 18.236 30.1302C19.4409 30.3297 20.4408 29.656 21.1644 28.9047C21.2366 28.8298 21.2934 28.7414 21.3314 28.6445C21.3694 28.5477 21.3879 28.4443 21.386 28.3402C21.384 28.2362 21.3615 28.1335 21.3198 28.0382C21.2781 27.9428 21.2181 27.8574 21.143 27.7853Z" fill="#B9B9B9"/>
<path fill-rule="evenodd" clip-rule="evenodd" d="M25.8479 13.3953C25.0539 14.8282 24.848 16.3316 25.1639 17.3473C25.1948 17.4466 25.2058 17.551 25.1963 17.6545C25.1869 17.7581 25.1571 17.8587 25.1087 17.9508C25.0604 18.0428 24.9943 18.1244 24.9144 18.1909C24.8345 18.2575 24.7423 18.3076 24.643 18.3385C24.5437 18.3693 24.4393 18.3804 24.3358 18.3709C24.2322 18.3614 24.1316 18.3317 24.0395 18.2833C23.9475 18.2349 23.8659 18.1689 23.7994 18.089C23.7328 18.0091 23.6827 17.9168 23.6518 17.8176C23.1697 16.2667 23.5307 14.3105 24.4633 12.6274C25.4077 10.9237 27.0014 9.38076 29.1539 8.71101C29.2532 8.68013 29.3576 8.66911 29.4611 8.67858C29.5647 8.68805 29.6653 8.71782 29.7574 8.76619C29.8494 8.81456 29.931 8.88059 29.9976 8.9605C30.0641 9.04041 30.1142 9.13264 30.1451 9.23193C30.176 9.33121 30.187 9.43561 30.1775 9.53915C30.168 9.64269 30.1383 9.74336 30.0899 9.8354C30.0415 9.92743 29.9755 10.009 29.8956 10.0756C29.8157 10.1421 29.7235 10.1922 29.6242 10.2231C27.9276 10.7503 26.6317 11.9822 25.8479 13.3953Z" fill="#B9B9B9"/>
<path fill-rule="evenodd" clip-rule="evenodd" d="M27.4859 14.4053C26.5612 15.7591 25.3104 16.6165 24.2614 16.7906C24.1576 16.8061 24.0578 16.8421 23.968 16.8965C23.8782 16.9509 23.8001 17.0226 23.7382 17.1075C23.6764 17.1924 23.6321 17.2887 23.6079 17.3909C23.5836 17.4931 23.58 17.5991 23.5971 17.7027C23.6142 17.8063 23.6518 17.9055 23.7076 17.9944C23.7634 18.0834 23.8363 18.1603 23.9222 18.2208C24.008 18.2813 24.1051 18.3241 24.2076 18.3467C24.3102 18.3693 24.4162 18.3713 24.5195 18.3526C26.1211 18.0874 27.7076 16.8872 28.7929 15.2983C29.8918 13.6897 30.556 11.5727 30.1878 9.34895C30.1709 9.24634 30.1339 9.14807 30.079 9.05976C30.0241 8.97144 29.9523 8.89481 29.8677 8.83423C29.7832 8.77366 29.6876 8.73033 29.5863 8.70672C29.485 8.6831 29.38 8.67967 29.2774 8.69662C29.1748 8.71356 29.0766 8.75056 28.9882 8.80548C28.8999 8.8604 28.8233 8.93218 28.7627 9.01672C28.7021 9.10126 28.6588 9.19691 28.6352 9.29819C28.6116 9.39948 28.6082 9.50442 28.6251 9.60704C28.9156 11.3598 28.3971 13.0706 27.4851 14.4045L27.4859 14.4053Z" fill="#B9B9B9"/>
<path fill-rule="evenodd" clip-rule="evenodd" d="M25.1592 18.8553C24.6343 18.8553 24.1309 19.0638 23.7597 19.435C23.3885 19.8062 23.18 20.3096 23.18 20.8345C23.18 21.3594 23.3885 21.8628 23.7597 22.234C24.1309 22.6051 24.6343 22.8136 25.1592 22.8136C25.6841 22.8136 26.1875 22.6051 26.5587 22.234C26.9298 21.8628 27.1383 21.3594 27.1383 20.8345C27.1383 20.3096 26.9298 19.8062 26.5587 19.435C26.1875 19.0638 25.6841 18.8553 25.1592 18.8553ZM21.5967 20.8345C21.5967 20.3666 21.6888 19.9034 21.8679 19.4712C22.0469 19.0389 22.3093 18.6462 22.6401 18.3154C22.9709 17.9846 23.3636 17.7222 23.7959 17.5432C24.2281 17.3641 24.6913 17.272 25.1592 17.272C25.627 17.272 26.0903 17.3641 26.5225 17.5432C26.9547 17.7222 27.3474 17.9846 27.6782 18.3154C28.0091 18.6462 28.2715 19.0389 28.4505 19.4712C28.6295 19.9034 28.7217 20.3666 28.7217 20.8345C28.7217 21.7793 28.3463 22.6854 27.6782 23.3535C27.0101 24.0216 26.104 24.397 25.1592 24.397C24.2143 24.397 23.3082 24.0216 22.6401 23.3535C21.972 22.6854 21.5967 21.7793 21.5967 20.8345Z" fill="#B9B9B9"/>
<path fill-rule="evenodd" clip-rule="evenodd" d="M29.9606 14.9683C30.8499 15.2874 31.576 15.9467 31.9793 16.8011C32.3825 17.6555 32.4298 18.6351 32.1108 19.5244C32.0757 19.6223 32.0217 19.7123 31.9518 19.7893C31.8819 19.8663 31.7976 19.9288 31.7036 19.9732C31.6095 20.0176 31.5077 20.043 31.4038 20.0481C31.3 20.0531 31.1961 20.0376 31.0983 20.0025C31.0004 19.9675 30.9104 19.9134 30.8334 19.8436C30.7564 19.7737 30.6939 19.6893 30.6495 19.5953C30.6051 19.5013 30.5796 19.3994 30.5746 19.2956C30.5695 19.1917 30.585 19.0879 30.6201 18.99C30.7975 18.496 30.7714 17.9517 30.5475 17.4769C30.3236 17.0021 29.9203 16.6357 29.4263 16.4583C28.9322 16.2808 28.3879 16.3069 27.9131 16.5308C27.4383 16.7547 27.0719 17.158 26.8945 17.6521C26.82 17.8447 26.6731 18.0006 26.4852 18.0865C26.2973 18.1724 26.0833 18.1814 25.8889 18.1116C25.6945 18.0419 25.535 17.8989 25.4445 17.7132C25.354 17.5275 25.3397 17.3138 25.4046 17.1177C25.7238 16.2286 26.3831 15.5027 27.2375 15.0996C28.0919 14.6965 29.0714 14.6493 29.9606 14.9683Z" fill="#B9B9B9"/>
<path fill-rule="evenodd" clip-rule="evenodd" d="M28.7003 18.9948C29.5108 18.7623 30.3774 18.8248 31.1462 19.1711C31.915 19.5174 32.536 20.1251 32.899 20.8861C33.2619 21.6471 33.3433 22.5122 33.1285 23.3276C32.9137 24.1429 32.4168 24.8557 31.726 25.3392C31.6409 25.4012 31.5442 25.4456 31.4417 25.4698C31.3392 25.494 31.2329 25.4975 31.1291 25.4801C31.0252 25.4626 30.9258 25.4247 30.8368 25.3684C30.7478 25.3121 30.6709 25.2386 30.6107 25.1522C30.5504 25.0658 30.508 24.9683 30.4859 24.8653C30.4638 24.7623 30.4625 24.656 30.482 24.5525C30.5015 24.449 30.5415 24.3504 30.5996 24.2626C30.6577 24.1747 30.7328 24.0994 30.8204 24.0409C31.0382 23.8885 31.2232 23.6938 31.3641 23.4684C31.5051 23.243 31.5992 22.9915 31.6408 22.729C31.6825 22.4664 31.6708 22.1981 31.6065 21.9402C31.5421 21.6822 31.4265 21.4399 31.2665 21.2276C31.1064 21.0153 30.9053 20.8374 30.675 20.7046C30.4447 20.5718 30.19 20.4867 29.9261 20.4544C29.6622 20.4222 29.3945 20.4435 29.139 20.5169C28.8835 20.5904 28.6455 20.7146 28.439 20.8821C28.3584 20.9477 28.2656 20.9968 28.1659 21.0265C28.0663 21.0563 27.9618 21.0661 27.8583 21.0554C27.7549 21.0448 27.6546 21.0138 27.5631 20.9644C27.4716 20.915 27.3908 20.848 27.3252 20.7673C27.2596 20.6867 27.2105 20.5939 27.1808 20.4942C27.151 20.3946 27.1412 20.2901 27.1519 20.1866C27.1625 20.0832 27.1935 19.9829 27.2429 19.8914C27.2923 19.7999 27.3593 19.7191 27.4399 19.6535C27.8115 19.3515 28.2402 19.1274 28.7003 18.9948ZM21.9925 23.6055C21.4676 23.6055 20.9642 23.814 20.593 24.1852C20.2218 24.5563 20.0133 25.0597 20.0133 25.5846C20.0133 26.1095 20.2218 26.613 20.593 26.9841C20.9642 27.3553 21.4676 27.5638 21.9925 27.5638C22.5174 27.5638 23.0208 27.3553 23.392 26.9841C23.7631 26.613 23.9717 26.1095 23.9717 25.5846C23.9717 25.0597 23.7631 24.5563 23.392 24.1852C23.0208 23.814 22.5174 23.6055 21.9925 23.6055ZM18.43 25.5846C18.43 24.6398 18.8053 23.7337 19.4734 23.0656C20.1415 22.3975 21.0477 22.0221 21.9925 22.0221C22.9373 22.0221 23.8435 22.3975 24.5116 23.0656C25.1797 23.7337 25.555 24.6398 25.555 25.5846C25.555 26.5295 25.1797 27.4356 24.5116 28.1037C23.8435 28.7718 22.9373 29.1471 21.9925 29.1471C21.0477 29.1471 20.1415 28.7718 19.4734 28.1037C18.8053 27.4356 18.43 26.5295 18.43 25.5846Z" fill="#B9B9B9"/>
<path fill-rule="evenodd" clip-rule="evenodd" d="M28.3259 23.6053C27.801 23.6053 27.2976 23.8138 26.9264 24.185C26.5552 24.5562 26.3467 25.0596 26.3467 25.5845C26.3467 26.1094 26.5552 26.6128 26.9264 26.984C27.2976 27.3551 27.801 27.5636 28.3259 27.5636C28.8508 27.5636 29.3542 27.3551 29.7253 26.984C30.0965 26.6128 30.305 26.1094 30.305 25.5845C30.305 25.0596 30.0965 24.5562 29.7253 24.185C29.3542 23.8138 28.8508 23.6053 28.3259 23.6053ZM24.7634 25.5845C24.7634 24.6396 25.1387 23.7335 25.8068 23.0654C26.4749 22.3973 27.381 22.022 28.3259 22.022C29.2707 22.022 30.1768 22.3973 30.8449 23.0654C31.513 23.7335 31.8884 24.6396 31.8884 25.5845C31.8884 26.5293 31.513 27.4354 30.8449 28.1035C30.1768 28.7716 29.2707 29.147 28.3259 29.147C27.381 29.147 26.4749 28.7716 25.8068 28.1035C25.1387 27.4354 24.7634 26.5293 24.7634 25.5845Z" fill="#B9B9B9"/>
<path fill-rule="evenodd" clip-rule="evenodd" d="M25.1592 28.3553C24.6343 28.3553 24.1309 28.5638 23.7597 28.935C23.3885 29.3062 23.18 29.8096 23.18 30.3345C23.18 30.8594 23.3885 31.3628 23.7597 31.734C24.1309 32.1051 24.6343 32.3136 25.1592 32.3136C25.6841 32.3136 26.1875 32.1051 26.5587 31.734C26.9298 31.3628 27.1383 30.8594 27.1383 30.3345C27.1383 29.8096 26.9298 29.3062 26.5587 28.935C26.1875 28.5638 25.6841 28.3553 25.1592 28.3553ZM21.5967 30.3345C21.5967 29.8666 21.6888 29.4034 21.8679 28.9712C22.0469 28.5389 22.3093 28.1462 22.6401 27.8154C22.9709 27.4846 23.3636 27.2222 23.7959 27.0432C24.2281 26.8641 24.6913 26.772 25.1592 26.772C25.627 26.772 26.0903 26.8641 26.5225 27.0432C26.9547 27.2222 27.3474 27.4846 27.6782 27.8154C28.0091 28.1462 28.2715 28.5389 28.4505 28.9712C28.6295 29.4034 28.7217 29.8666 28.7217 30.3345C28.7217 31.2793 28.3463 32.1854 27.6782 32.8535C27.0101 33.5216 26.104 33.897 25.1592 33.897C24.2143 33.897 23.3082 33.5216 22.6401 32.8535C21.972 32.1854 21.5967 31.2793 21.5967 30.3345Z" fill="#B9B9B9"/>
<path fill-rule="evenodd" clip-rule="evenodd" d="M29.9519 27.5368C29.9868 27.4388 30.0407 27.3487 30.1105 27.2716C30.1802 27.1945 30.2645 27.1319 30.3584 27.0873C30.4524 27.0428 30.5542 27.0172 30.658 27.012C30.7619 27.0068 30.8657 27.0221 30.9637 27.057C31.4659 27.2364 31.9215 27.5262 32.2968 27.9051C32.6721 28.2839 32.9575 28.7422 33.132 29.2462C33.3066 29.7501 33.3657 30.2868 33.3052 30.8166C33.2446 31.3464 33.0659 31.8559 32.7821 32.3075C32.4984 32.759 32.1169 33.1411 31.6658 33.4255C31.2147 33.71 30.7055 33.8895 30.1758 33.9509C29.646 34.0123 29.1092 33.9539 28.6051 33.7802C28.1009 33.6065 27.6421 33.3217 27.2626 32.947C27.1867 32.8745 27.126 32.7875 27.084 32.6912C27.042 32.5949 27.0196 32.4912 27.0181 32.3862C27.0166 32.2812 27.036 32.1769 27.0752 32.0794C27.1143 31.982 27.1725 31.8933 27.2463 31.8185C27.3201 31.7438 27.4081 31.6845 27.505 31.6441C27.602 31.6036 27.706 31.5829 27.811 31.5831C27.9161 31.5833 28.02 31.6044 28.1168 31.6451C28.2137 31.6859 28.3014 31.7455 28.3749 31.8205C28.5857 32.0287 28.8406 32.1868 29.1206 32.2834C29.4007 32.3799 29.6989 32.4124 29.9932 32.3783C30.2875 32.3442 30.5704 32.2445 30.821 32.0865C31.0716 31.9286 31.2835 31.7164 31.4412 31.4655C31.5989 31.2147 31.6982 30.9317 31.7319 30.6374C31.7656 30.3431 31.7328 30.0449 31.6359 29.765C31.539 29.485 31.3805 29.2304 31.1721 29.0198C30.9637 28.8093 30.7106 28.6482 30.4317 28.5485C30.3337 28.5136 30.2436 28.4597 30.1665 28.39C30.0894 28.3202 30.0268 28.236 29.9822 28.142C29.9377 28.0481 29.9121 27.9463 29.9069 27.8424C29.9017 27.7386 29.917 27.6347 29.9519 27.5368Z" fill="#B9B9B9"/>
</svg>
