<svg width="38" height="39" viewBox="0 0 38 39" fill="none" xmlns="http://www.w3.org/2000/svg">
<path fill-rule="evenodd" clip-rule="evenodd" d="M14.9465 6.63661C15.1564 6.63661 15.3578 6.72002 15.5062 6.86849C15.6547 7.01695 15.7381 7.21832 15.7381 7.42828V12.6533C15.7381 12.8632 15.6547 13.0646 15.5062 13.2131C15.3578 13.3615 15.1564 13.4449 14.9465 13.4449C14.7365 13.4449 14.5351 13.3615 14.3867 13.2131C14.2382 13.0646 14.1548 12.8632 14.1548 12.6533V7.42828C14.1548 7.21832 14.2382 7.01695 14.3867 6.86849C14.5351 6.72002 14.7365 6.63661 14.9465 6.63661Z" fill="#B9B9B9"/>
<path fill-rule="evenodd" clip-rule="evenodd" d="M9.32566 11.655C10.2202 11.4412 11.133 11.6035 12.0807 12.0928C12.8525 12.4926 13.4004 12.6754 13.8271 12.7633C14.253 12.852 14.5918 12.8536 15.0011 12.8536V14.4369H14.9853C14.5768 14.4369 14.0986 14.4369 13.5065 14.3142C12.9072 14.1899 12.2224 13.9484 11.3531 13.4988C10.658 13.1401 10.134 13.0895 9.69378 13.1948C9.23145 13.3056 8.74299 13.6144 8.18012 14.1954C6.88812 15.5318 6.48674 16.9077 6.34662 17.9654C6.26745 19.2669 6.50258 21.8366 7.66712 24.3486C8.06295 25.2036 8.62503 26.3831 9.31062 27.307C9.65262 27.7678 9.9962 28.1224 10.3263 28.3409C10.647 28.5523 10.913 28.6101 11.1544 28.5689C13.6268 28.143 14.0915 28.1327 14.5736 28.1327H15.3946V29.7161H14.5507C14.2166 29.7161 13.8223 29.7161 11.4236 30.1293C10.6794 30.2576 10.0089 30.0288 9.45391 29.6622C8.90845 29.302 8.43741 28.7866 8.0392 28.2507C7.24358 27.1796 6.62133 25.8567 6.23103 25.0144C4.93428 22.2182 4.66987 19.3642 4.76803 17.8387L4.77041 17.8134L4.77358 17.788C4.94141 16.4865 5.44174 14.7488 7.04249 13.095C7.71145 12.4031 8.45404 11.8632 9.32645 11.6542L9.32566 11.655Z" fill="#B9B9B9"/>
<path fill-rule="evenodd" clip-rule="evenodd" d="M11.59 9.67977C12.7743 10.8126 13.4164 12.1862 13.4164 13.2502C13.4164 13.4602 13.4998 13.6615 13.6482 13.81C13.7967 13.9584 13.9981 14.0419 14.208 14.0419C14.418 14.0419 14.6193 13.9584 14.7678 13.81C14.9163 13.6615 14.9997 13.4602 14.9997 13.2502C14.9997 11.6273 14.075 9.86581 12.6841 8.53502C11.2765 7.18919 9.29652 6.18852 7.04264 6.18852C6.83268 6.18852 6.63132 6.27193 6.48285 6.4204C6.33438 6.56886 6.25098 6.77023 6.25098 6.98019C6.25098 7.19015 6.33438 7.39152 6.48285 7.53998C6.63132 7.68845 6.83268 7.77186 7.04264 7.77186C8.81914 7.77186 10.4215 8.56273 11.5892 9.67977H11.59Z" fill="#B9B9B9"/>
<path fill-rule="evenodd" clip-rule="evenodd" d="M6.78749 6.19565C6.99577 6.16967 7.20583 6.22747 7.3715 6.35633C7.53718 6.48518 7.6449 6.67456 7.67099 6.88282C8.06049 9.99407 10.7941 11.6328 13.0021 12.5155C13.197 12.5935 13.353 12.7458 13.4357 12.9388C13.5184 13.1318 13.521 13.3497 13.443 13.5447C13.365 13.7396 13.2128 13.8956 13.0198 13.9783C12.8268 14.061 12.6088 14.0637 12.4139 13.9856C10.1426 13.0776 6.60699 11.1325 6.10033 7.07915C6.07435 6.87088 6.13215 6.66081 6.261 6.49514C6.38986 6.32946 6.57924 6.22174 6.78749 6.19565ZM20.3947 11.6534C19.4827 11.4444 18.5469 11.6011 17.5684 12.0872C16.7609 12.4878 16.1854 12.6731 15.7341 12.7625C15.2829 12.852 14.925 12.8536 14.4991 12.8536C14.2892 12.8536 14.0878 12.937 13.9393 13.0854C13.7909 13.2339 13.7075 13.4353 13.7075 13.6452C13.7075 13.8552 13.7909 14.0566 13.9393 14.205C14.0878 14.3535 14.2892 14.4369 14.4991 14.4369H14.5142C14.9393 14.4369 15.4325 14.4369 16.0421 14.3158C16.6604 14.1931 17.3689 13.9532 18.2714 13.5051C19.0029 13.1425 19.5634 13.0871 20.0416 13.1964C20.5372 13.3104 21.0525 13.6254 21.6384 14.2073C22.9969 15.5555 23.4077 16.9401 23.5495 17.9946C23.5802 18.2002 23.6906 18.3855 23.8568 18.5104C24.023 18.6352 24.2317 18.6897 24.4377 18.6621C24.6437 18.6344 24.8306 18.5269 24.958 18.3626C25.0854 18.1983 25.1431 17.9905 25.1185 17.7841C24.9428 16.4754 24.4187 14.7361 22.7538 13.0831C22.0564 12.3912 21.2892 11.8576 20.3947 11.6534ZM21.1428 27.7852C21.0679 27.7131 20.9795 27.6564 20.8827 27.6185C20.7859 27.5806 20.6826 27.562 20.5786 27.564C20.4747 27.566 20.3722 27.5885 20.2769 27.6301C20.1816 27.6717 20.0955 27.7317 20.0234 27.8066C19.4241 28.4288 18.9206 28.6378 18.4947 28.5681C15.9202 28.1422 15.4388 28.1327 14.944 28.1327C14.7341 28.1327 14.5327 28.2161 14.3842 28.3646C14.2358 28.5131 14.1524 28.7144 14.1524 28.9244C14.1524 29.1344 14.2358 29.3357 14.3842 29.4842C14.5327 29.6327 14.7341 29.7161 14.944 29.7161H14.9662C15.3201 29.7161 15.7317 29.7161 18.2358 30.1301C19.4407 30.3296 20.4406 29.6559 21.1642 28.9046C21.2364 28.8297 21.2931 28.7413 21.3311 28.6444C21.3692 28.5475 21.3877 28.4441 21.3857 28.3401C21.3837 28.236 21.3613 28.1334 21.3196 28.0381C21.2779 27.9427 21.2178 27.8573 21.1428 27.7852Z" fill="#B9B9B9"/>
<path fill-rule="evenodd" clip-rule="evenodd" d="M25.8477 13.3951C25.0536 14.828 24.8478 16.3313 25.1637 17.3471C25.1945 17.4463 25.2056 17.5507 25.1961 17.6543C25.1866 17.7578 25.1569 17.8585 25.1085 17.9505C25.0601 18.0426 24.9941 18.1242 24.9142 18.1907C24.8343 18.2572 24.742 18.3073 24.6428 18.3382C24.5435 18.3691 24.4391 18.3801 24.3355 18.3707C24.232 18.3612 24.1313 18.3314 24.0393 18.283C23.9472 18.2347 23.8656 18.1686 23.7991 18.0887C23.7326 18.0088 23.6825 17.9166 23.6516 17.8173C23.1695 16.2664 23.5305 14.3102 24.463 12.6271C25.4075 10.9235 27.0011 9.38052 29.1537 8.71077C29.253 8.67989 29.3574 8.66887 29.4609 8.67834C29.5644 8.68781 29.6651 8.71758 29.7571 8.76595C29.8492 8.81432 29.9308 8.88035 29.9973 8.96026C30.0638 9.04017 30.114 9.1324 30.1448 9.23168C30.1757 9.33097 30.1867 9.43536 30.1773 9.53891C30.1678 9.64245 30.138 9.74311 30.0897 9.83515C30.0413 9.92719 29.9753 10.0088 29.8954 10.0753C29.8154 10.1418 29.7232 10.192 29.6239 10.2228C27.9274 10.7501 26.6314 11.9819 25.8477 13.3951Z" fill="#B9B9B9"/>
<path fill-rule="evenodd" clip-rule="evenodd" d="M27.4858 14.4052C26.5612 15.759 25.3103 16.6164 24.2614 16.7905C24.1575 16.806 24.0578 16.842 23.9679 16.8964C23.8781 16.9508 23.8 17.0226 23.7382 17.1074C23.6764 17.1923 23.632 17.2887 23.6078 17.3908C23.5836 17.493 23.5799 17.599 23.597 17.7026C23.6141 17.8062 23.6517 17.9054 23.7075 17.9943C23.7633 18.0833 23.8363 18.1602 23.9221 18.2207C24.008 18.2812 24.105 18.324 24.2076 18.3466C24.3101 18.3692 24.4161 18.3712 24.5195 18.3525C26.121 18.0873 27.7075 16.8871 28.7929 15.2982C29.8917 13.6896 30.5559 11.5727 30.1878 9.34886C30.1708 9.24625 30.1338 9.14798 30.0789 9.05966C30.024 8.97135 29.9522 8.89472 29.8677 8.83414C29.7831 8.77357 29.6875 8.73024 29.5862 8.70662C29.4849 8.68301 29.38 8.67958 29.2774 8.69653C29.1748 8.71347 29.0765 8.75046 28.9882 8.80539C28.8999 8.86031 28.8232 8.93209 28.7627 9.01663C28.7021 9.10117 28.6587 9.19682 28.6351 9.2981C28.6115 9.39939 28.6081 9.50433 28.625 9.60694C28.9156 11.3597 28.397 13.0705 27.485 14.4044L27.4858 14.4052Z" fill="#B9B9B9"/>
<path fill-rule="evenodd" clip-rule="evenodd" d="M25.1592 18.8552C24.6343 18.8552 24.1309 19.0637 23.7597 19.4349C23.3885 19.806 23.18 20.3094 23.18 20.8344C23.18 21.3593 23.3885 21.8627 23.7597 22.2338C24.1309 22.605 24.6343 22.8135 25.1592 22.8135C25.6841 22.8135 26.1875 22.605 26.5587 22.2338C26.9298 21.8627 27.1383 21.3593 27.1383 20.8344C27.1383 20.3094 26.9298 19.806 26.5587 19.4349C26.1875 19.0637 25.6841 18.8552 25.1592 18.8552ZM21.5967 20.8344C21.5967 20.3665 21.6888 19.9033 21.8679 19.471C22.0469 19.0388 22.3093 18.6461 22.6401 18.3153C22.9709 17.9845 23.3636 17.7221 23.7959 17.543C24.2281 17.364 24.6913 17.2719 25.1592 17.2719C25.627 17.2719 26.0903 17.364 26.5225 17.543C26.9547 17.7221 27.3474 17.9845 27.6782 18.3153C28.0091 18.6461 28.2715 19.0388 28.4505 19.471C28.6295 19.9033 28.7217 20.3665 28.7217 20.8344C28.7217 21.7792 28.3463 22.6853 27.6782 23.3534C27.0101 24.0215 26.104 24.3969 25.1592 24.3969C24.2143 24.3969 23.3082 24.0215 22.6401 23.3534C21.972 22.6853 21.5967 21.7792 21.5967 20.8344Z" fill="#B9B9B9"/>
<path fill-rule="evenodd" clip-rule="evenodd" d="M29.9604 14.9681C30.8497 15.2872 31.5758 15.9464 31.979 16.8008C32.3822 17.6553 32.4296 18.6348 32.1106 19.5241C32.0755 19.622 32.0214 19.712 31.9516 19.789C31.8817 19.866 31.7973 19.9285 31.7033 19.9729C31.6093 20.0173 31.5074 20.0428 31.4036 20.0478C31.2997 20.0529 31.1959 20.0374 31.098 20.0023C31.0001 19.9672 30.9101 19.9132 30.8331 19.8433C30.7561 19.7735 30.6936 19.6891 30.6492 19.5951C30.6048 19.5011 30.5794 19.3992 30.5743 19.2953C30.5693 19.1915 30.5848 19.0877 30.6199 18.9898C30.7973 18.4957 30.7712 17.9514 30.5473 17.4766C30.3234 17.0018 29.9201 16.6354 29.426 16.458C28.932 16.2806 28.3877 16.3067 27.9129 16.5306C27.4381 16.7545 27.0717 17.1578 26.8943 17.6519C26.8197 17.8445 26.6729 18.0004 26.485 18.0863C26.2971 18.1721 26.0831 18.1811 25.8887 18.1114C25.6942 18.0417 25.5347 17.8987 25.4442 17.713C25.3538 17.5273 25.3394 17.3136 25.4044 17.1175C25.7236 16.2284 26.3829 15.5024 27.2373 15.0993C28.0917 14.6963 29.0712 14.6491 29.9604 14.9681Z" fill="#B9B9B9"/>
<path fill-rule="evenodd" clip-rule="evenodd" d="M28.7 18.9945C29.5105 18.7621 30.3771 18.8245 31.1459 19.1708C31.9147 19.5171 32.5357 20.1248 32.8987 20.8858C33.2616 21.6469 33.343 22.512 33.1282 23.3273C32.9134 24.1427 32.4165 24.8555 31.7257 25.3389C31.6406 25.401 31.5439 25.4453 31.4414 25.4695C31.3389 25.4937 31.2326 25.4972 31.1288 25.4798C31.0249 25.4624 30.9255 25.4244 30.8365 25.3681C30.7475 25.3118 30.6706 25.2383 30.6103 25.1519C30.5501 25.0656 30.5077 24.968 30.4856 24.865C30.4635 24.7621 30.4622 24.6557 30.4817 24.5522C30.5012 24.4487 30.5412 24.3502 30.5993 24.2623C30.6574 24.1745 30.7325 24.0991 30.8201 24.0406C31.0379 23.8883 31.2229 23.6936 31.3638 23.4682C31.5048 23.2428 31.5989 22.9913 31.6405 22.7287C31.6822 22.4661 31.6705 22.1978 31.6062 21.9399C31.5418 21.6819 31.4262 21.4396 31.2662 21.2273C31.1061 21.015 30.905 20.8371 30.6747 20.7043C30.4444 20.5715 30.1897 20.4864 29.9258 20.4542C29.6619 20.4219 29.3942 20.4432 29.1387 20.5167C28.8832 20.5901 28.6452 20.7143 28.4387 20.8819C28.3581 20.9475 28.2652 20.9965 28.1656 21.0263C28.066 21.056 27.9614 21.0658 27.858 21.0552C27.7546 21.0445 27.6543 21.0136 27.5628 20.9641C27.4713 20.9147 27.3905 20.8477 27.3249 20.7671C27.2593 20.6864 27.2102 20.5936 27.1805 20.494C27.1507 20.3943 27.1409 20.2898 27.1516 20.1864C27.1622 20.0829 27.1931 19.9826 27.2426 19.8911C27.292 19.7996 27.359 19.7188 27.4396 19.6532C27.8112 19.3512 28.2399 19.1272 28.7 18.9945ZM21.9922 23.6052C21.4673 23.6052 20.9639 23.8137 20.5927 24.1849C20.2215 24.556 20.013 25.0595 20.013 25.5844C20.013 26.1093 20.2215 26.6127 20.5927 26.9838C20.9639 27.355 21.4673 27.5635 21.9922 27.5635C22.5171 27.5635 23.0205 27.355 23.3917 26.9838C23.7628 26.6127 23.9714 26.1093 23.9714 25.5844C23.9714 25.0595 23.7628 24.556 23.3917 24.1849C23.0205 23.8137 22.5171 23.6052 21.9922 23.6052ZM18.4297 25.5844C18.4297 24.6395 18.805 23.7334 19.4731 23.0653C20.1412 22.3972 21.0474 22.0219 21.9922 22.0219C22.937 22.0219 23.8432 22.3972 24.5113 23.0653C25.1794 23.7334 25.5547 24.6395 25.5547 25.5844C25.5547 26.5292 25.1794 27.4353 24.5113 28.1034C23.8432 28.7715 22.937 29.1469 21.9922 29.1469C21.0474 29.1469 20.1412 28.7715 19.4731 28.1034C18.805 27.4353 18.4297 26.5292 18.4297 25.5844Z" fill="#B9B9B9"/>
<path fill-rule="evenodd" clip-rule="evenodd" d="M28.3257 23.6052C27.8008 23.6052 27.2974 23.8137 26.9262 24.1849C26.555 24.556 26.3465 25.0594 26.3465 25.5844C26.3465 26.1093 26.555 26.6127 26.9262 26.9838C27.2974 27.355 27.8008 27.5635 28.3257 27.5635C28.8506 27.5635 29.354 27.355 29.7252 26.9838C30.0963 26.6127 30.3048 26.1093 30.3048 25.5844C30.3048 25.0594 30.0963 24.556 29.7252 24.1849C29.354 23.8137 28.8506 23.6052 28.3257 23.6052ZM24.7632 25.5844C24.7632 24.6395 25.1385 23.7334 25.8066 23.0653C26.4747 22.3972 27.3808 22.0219 28.3257 22.0219C29.2705 22.0219 30.1767 22.3972 30.8447 23.0653C31.5128 23.7334 31.8882 24.6395 31.8882 25.5844C31.8882 26.5292 31.5128 27.4353 30.8447 28.1034C30.1767 28.7715 29.2705 29.1469 28.3257 29.1469C27.3808 29.1469 26.4747 28.7715 25.8066 28.1034C25.1385 27.4353 24.7632 26.5292 24.7632 25.5844Z" fill="#B9B9B9"/>
<path fill-rule="evenodd" clip-rule="evenodd" d="M25.1592 28.3552C24.6343 28.3552 24.1309 28.5637 23.7597 28.9349C23.3885 29.306 23.18 29.8094 23.18 30.3344C23.18 30.8593 23.3885 31.3627 23.7597 31.7338C24.1309 32.105 24.6343 32.3135 25.1592 32.3135C25.6841 32.3135 26.1875 32.105 26.5587 31.7338C26.9298 31.3627 27.1383 30.8593 27.1383 30.3344C27.1383 29.8094 26.9298 29.306 26.5587 28.9349C26.1875 28.5637 25.6841 28.3552 25.1592 28.3552ZM21.5967 30.3344C21.5967 29.8665 21.6888 29.4033 21.8679 28.971C22.0469 28.5388 22.3093 28.1461 22.6401 27.8153C22.9709 27.4845 23.3636 27.2221 23.7959 27.043C24.2281 26.864 24.6913 26.7719 25.1592 26.7719C25.627 26.7719 26.0903 26.864 26.5225 27.043C26.9547 27.2221 27.3474 27.4845 27.6782 27.8153C28.0091 28.1461 28.2715 28.5388 28.4505 28.971C28.6295 29.4033 28.7217 29.8665 28.7217 30.3344C28.7217 31.2792 28.3463 32.1853 27.6782 32.8534C27.0101 33.5215 26.104 33.8969 25.1592 33.8969C24.2143 33.8969 23.3082 33.5215 22.6401 32.8534C21.972 32.1853 21.5967 31.2792 21.5967 30.3344Z" fill="#B9B9B9"/>
<path fill-rule="evenodd" clip-rule="evenodd" d="M29.9515 27.5366C29.9864 27.4387 30.0403 27.3486 30.11 27.2714C30.1798 27.1943 30.264 27.1317 30.358 27.0871C30.452 27.0426 30.5538 27.017 30.6576 27.0118C30.7615 27.0066 30.8653 27.0219 30.9632 27.0569C31.4655 27.2362 31.921 27.526 32.2963 27.9049C32.6716 28.2838 32.9571 28.7421 33.1316 29.246C33.3061 29.7499 33.3653 30.2866 33.3047 30.8164C33.2442 31.3463 33.0654 31.8557 32.7817 32.3073C32.498 32.7588 32.1165 33.1409 31.6654 33.4254C31.2143 33.7098 30.7051 33.8893 30.1753 33.9507C29.6456 34.0121 29.1088 33.9538 28.6046 33.78C28.1004 33.6063 27.6417 33.3215 27.2622 32.9468C27.1863 32.8743 27.1256 32.7873 27.0836 32.691C27.0416 32.5947 27.0192 32.4911 27.0177 32.386C27.0161 32.281 27.0355 32.1767 27.0747 32.0793C27.1139 31.9818 27.1721 31.8931 27.2459 31.8184C27.3197 31.7436 27.4076 31.6843 27.5046 31.6439C27.6015 31.6035 27.7056 31.5827 27.8106 31.5829C27.9156 31.5831 28.0196 31.6042 28.1164 31.6449C28.2132 31.6857 28.301 31.7453 28.3745 31.8203C28.5853 32.0285 28.8401 32.1867 29.1202 32.2832C29.4003 32.3797 29.6985 32.4122 29.9928 32.3781C30.287 32.344 30.5699 32.2443 30.8205 32.0864C31.0712 31.9284 31.2831 31.7162 31.4408 31.4654C31.5984 31.2145 31.6978 30.9315 31.7315 30.6372C31.7652 30.3429 31.7324 30.0447 31.6355 29.7648C31.5386 29.4848 31.3801 29.2302 31.1717 29.0196C30.9632 28.8091 30.7102 28.6481 30.4312 28.5484C30.3333 28.5134 30.2432 28.4596 30.1661 28.3898C30.089 28.3201 30.0263 28.2358 29.9818 28.1419C29.9372 28.0479 29.9116 27.9461 29.9064 27.8422C29.9012 27.7384 29.9166 27.6345 29.9515 27.5366Z" fill="#B9B9B9"/>
</svg>
