<svg width="31" height="31" viewBox="0 0 31 31" fill="none" xmlns="http://www.w3.org/2000/svg">
<path d="M15.5 2.58333C15.2417 2.58333 14.9833 2.7125 14.725 2.84167L4.52083 8.525C4.13333 8.78333 3.875 9.17083 3.875 9.6875V21.3125C3.875 21.8292 4.13333 22.2167 4.52083 22.475L14.725 28.1583C14.9833 28.2875 15.2417 28.4167 15.5 28.4167C15.7583 28.4167 16.0167 28.2875 16.275 28.1583L17.4375 27.5125C17.05 26.7375 16.9208 25.8333 16.7917 24.9292V16.275L24.5417 11.8833V16.7917C25.4458 16.7917 26.35 16.9208 27.125 17.1792V9.6875C27.125 9.17083 26.8667 8.78333 26.4792 8.525L16.275 2.84167C16.0167 2.7125 15.7583 2.58333 15.5 2.58333ZM15.5 5.425L23.25 9.6875L20.6667 11.1083L13.0458 6.71667L15.5 5.425ZM10.4625 8.1375L18.0833 12.6583L15.5 14.0792L7.75 9.6875L10.4625 8.1375ZM6.45833 11.8833L14.2083 16.275V24.9292L6.45833 20.5375V11.8833ZM27.5125 20.4083L22.8625 25.0583L20.7958 22.9917L19.375 24.5417L22.9917 28.4167L29.1917 22.2167L27.5125 20.4083Z" fill="#838383"/>
</svg>
