<svg width="30" height="31" viewBox="0 0 30 31" fill="none" xmlns="http://www.w3.org/2000/svg">
<path d="M10.625 3.14685C12.624 3.14685 14.5529 3.88381 16.0427 5.21676C17.5325 6.54972 18.4786 8.3851 18.7 10.3719L27.5 15.6469V18.1469L25 16.6469V28.1469H22.5V15.1469L18.75 12.8969V28.1469H16.25V11.8969H5V28.1469H2.5V11.2719C2.5 9.11697 3.35602 7.05034 4.87976 5.52661C6.40349 4.00287 8.47012 3.14685 10.625 3.14685ZM10.625 5.64685C8.175 5.64685 6.0875 7.20935 5.325 9.39685H15.925C15.1625 7.20935 13.075 5.64685 10.625 5.64685ZM7.5 14.3969H13.75V16.8969H7.5V14.3969ZM7.5 19.3969H13.75V21.8969H7.5V19.3969ZM7.5 24.3969H13.75V26.8969H7.5V24.3969Z" fill="#B9B9B9"/>
</svg>
