<svg width="30" height="30" viewBox="0 0 30 30" fill="none" xmlns="http://www.w3.org/2000/svg">
<path d="M17.8312 2.03366C17.8312 6.46491 20.1675 8.69241 22.18 10.8099C24.105 12.8349 25.9375 14.7637 25.9375 18.4374C25.9375 24.4524 21.2462 28.7499 15.2312 28.7499C9.215 28.7499 4.0625 24.4737 4.0625 18.4374C4.0625 15.8887 5.265 13.4237 7.19875 12.3137C7.58 12.0949 8.03875 12.3224 8.2025 12.7312C9.45375 15.8549 10.9962 15.7999 11.7962 14.9999C12.2812 14.5162 12.3837 13.6049 11.7912 12.4224C8.785 6.40741 14.12 2.07366 17.0412 1.35491C17.4612 1.25241 17.81 1.60241 17.8312 2.03366ZM15.2312 26.8749C20.305 26.8749 24.0625 23.3249 24.0625 18.4374C24.0625 15.5162 22.6962 14.0762 20.715 11.9899L20.6887 11.9612C18.8887 10.0649 16.765 7.77241 16.1275 3.76491C15.1836 4.31971 14.3692 5.06979 13.7387 5.96491C12.755 7.39491 12.305 9.25616 13.4687 11.5837C14.2225 13.0899 14.44 15.0087 13.1225 16.3262C12.3012 17.1474 10.92 17.7012 9.4275 17.0587C8.4875 16.6537 7.73625 15.8649 7.13 14.8212C6.42125 15.7037 5.9375 16.9962 5.9375 18.4374C5.9375 23.2462 10.0475 26.8749 15.2312 26.8749Z" fill="black"/>
</svg>
