<svg width="40" height="40" viewBox="0 0 40 40" fill="none" xmlns="http://www.w3.org/2000/svg">
<path d="M36.2499 10.3125H31.0124L35.6624 5.6625C35.7545 5.57667 35.8284 5.47317 35.8796 5.35817C35.9308 5.24317 35.9584 5.11903 35.9606 4.99315C35.9628 4.86727 35.9397 4.74224 35.8925 4.6255C35.8454 4.50877 35.7752 4.40273 35.6862 4.3137C35.5972 4.22468 35.4911 4.1545 35.3744 4.10735C35.2576 4.0602 35.1326 4.03704 35.0067 4.03926C34.8808 4.04148 34.7567 4.06903 34.6417 4.12027C34.5267 4.17151 34.4232 4.24539 34.3374 4.3375L29.6874 8.9875V3.75C29.6874 3.50136 29.5886 3.2629 29.4128 3.08709C29.237 2.91127 28.9985 2.8125 28.7499 2.8125C28.5012 2.8125 28.2628 2.91127 28.087 3.08709C27.9112 3.2629 27.8124 3.50136 27.8124 3.75V9.39844C25.9509 8.17876 23.7261 7.63722 21.5123 7.86486C19.2985 8.09251 17.2305 9.07546 15.6561 10.6484C9.40145 16.7813 4.6952 31.4766 4.27801 32.8125C4.08277 33.2208 4.01896 33.6796 4.09538 34.1256C4.17179 34.5717 4.38467 34.983 4.70467 35.303C5.02467 35.623 5.43605 35.8359 5.8821 35.9123C6.32815 35.9887 6.78693 35.9249 7.1952 35.7297C8.52332 35.3125 23.2296 30.6031 29.3499 24.3594C30.9244 22.7846 31.9083 20.7155 32.136 18.5002C32.3637 16.285 31.8212 14.059 30.5999 12.1969H36.2499C36.4985 12.1969 36.737 12.0981 36.9128 11.9223C37.0886 11.7465 37.1874 11.508 37.1874 11.2594C37.1874 11.0107 37.0886 10.7723 36.9128 10.5965C36.737 10.4206 36.4985 10.3219 36.2499 10.3219V10.3125ZM28.0171 23.0328C26.5624 24.5313 24.5311 25.9375 22.2952 27.225L18.1608 23.0891C17.9849 22.9132 17.7463 22.8143 17.4975 22.8143C17.2488 22.8143 17.0102 22.9132 16.8343 23.0891C16.6583 23.265 16.5595 23.5036 16.5595 23.7523C16.5595 24.0011 16.6583 24.2397 16.8343 24.4156L20.5843 28.1656C14.0702 31.6031 6.67801 33.9188 6.56395 33.9469C6.50684 33.9649 6.45142 33.9879 6.39832 34.0156C6.33932 34.0466 6.27199 34.0578 6.20613 34.0478C6.14027 34.0378 6.07935 34.0069 6.03224 33.9598C5.98514 33.9127 5.95432 33.8518 5.94428 33.7859C5.93425 33.7201 5.94552 33.6528 5.97645 33.5938C6.0042 33.5437 6.02772 33.4915 6.04676 33.4375C6.09364 33.2813 10.5546 19.0188 16.3249 12.6563L21.8358 18.1656C21.9216 18.2577 22.0251 18.3316 22.1401 18.3829C22.2551 18.4341 22.3793 18.4616 22.5052 18.4639C22.631 18.4661 22.7561 18.4429 22.8728 18.3958C22.9896 18.3486 23.0956 18.2784 23.1846 18.1894C23.2736 18.1004 23.3438 17.9944 23.391 17.8776C23.4381 17.7609 23.4613 17.6359 23.4591 17.51C23.4568 17.3841 23.4293 17.26 23.378 17.145C23.3268 17.03 23.2529 16.9265 23.1608 16.8406L17.6764 11.3563C19.2432 10.1245 21.2215 9.53805 23.2064 9.71698C25.1913 9.89591 27.0328 10.8267 28.3541 12.3188C29.6753 13.8109 30.3763 15.7515 30.3136 17.7435C30.251 19.7355 29.4294 21.6282 28.0171 23.0344V23.0328Z" fill="#AEAEAE"/>
</svg>
