<svg width="36" height="34" viewBox="0 0 36 34" fill="none" xmlns="http://www.w3.org/2000/svg">
<path d="M31.4435 28.2891C29.3145 24.6606 25.9723 22.1146 22.0887 21.0348C23.9768 20.0882 25.4867 18.542 26.3748 16.6455C27.2629 14.749 27.4775 12.6128 26.9841 10.5812C26.4906 8.54972 25.3178 6.74131 23.6547 5.44763C21.9917 4.15394 19.9353 3.45038 17.8172 3.45038C15.6991 3.45038 13.6428 4.15394 11.9797 5.44763C10.3167 6.74131 9.14387 8.54972 8.65039 10.5812C8.15692 12.6128 8.37155 14.749 9.25967 16.6455C10.1478 18.542 11.6577 20.0882 13.5458 21.0348C9.66219 22.1133 6.31991 24.6593 4.19093 28.2891C4.13247 28.3798 4.09322 28.4812 4.07553 28.5872C4.05785 28.6933 4.06209 28.8018 4.08802 28.9061C4.11394 29.0105 4.16101 29.1087 4.22639 29.1947C4.29176 29.2806 4.3741 29.3527 4.46844 29.4065C4.56278 29.4603 4.66718 29.4947 4.77536 29.5076C4.88353 29.5206 4.99324 29.5118 5.0979 29.4819C5.20255 29.4519 5.29998 29.4014 5.38433 29.3334C5.46868 29.2653 5.5382 29.1812 5.58871 29.0859C8.17553 24.6779 12.7459 22.0469 17.8172 22.0469C22.8885 22.0469 27.4589 24.6779 30.0458 29.0859C30.0963 29.1812 30.1658 29.2653 30.2501 29.3334C30.3345 29.4014 30.4319 29.4519 30.5366 29.4819C30.6412 29.5118 30.7509 29.5206 30.8591 29.5076C30.9673 29.4947 31.0717 29.4603 31.166 29.4065C31.2604 29.3527 31.3427 29.2806 31.4081 29.1947C31.4734 29.1087 31.5205 29.0105 31.5464 28.9061C31.5724 28.8018 31.5766 28.6933 31.5589 28.5872C31.5412 28.4812 31.502 28.3798 31.4435 28.2891ZM10.0069 12.75C10.0069 11.2265 10.465 9.73714 11.3232 8.47037C12.1814 7.2036 13.4012 6.21627 14.8284 5.63324C16.2555 5.05021 17.8259 4.89766 19.3409 5.19488C20.856 5.49211 22.2477 6.22576 23.34 7.30306C24.4322 8.38037 25.1761 9.75293 25.4775 11.2472C25.7788 12.7415 25.6242 14.2903 25.033 15.6979C24.4419 17.1054 23.4408 18.3085 22.1564 19.1549C20.872 20.0013 19.362 20.4531 17.8172 20.4531C15.7466 20.4507 13.7614 19.6383 12.2973 18.1942C10.8331 16.7501 10.0094 14.7922 10.0069 12.75Z" fill="#121212"/>
</svg>
