<svg width="36" height="34" viewBox="0 0 36 34" fill="none" xmlns="http://www.w3.org/2000/svg">
<path d="M31.4432 28.2891C29.3142 24.6607 25.9719 22.1147 22.0883 21.0349C23.9764 20.0883 25.4863 18.5421 26.3744 16.6456C27.2625 14.7491 27.4772 12.6128 26.9837 10.5813C26.4902 8.54978 25.3174 6.74137 23.6543 5.44769C21.9913 4.15401 19.9349 3.45044 17.8169 3.45044C15.6988 3.45044 13.6424 4.15401 11.9794 5.44769C10.3163 6.74137 9.1435 8.54978 8.65003 10.5813C8.15655 12.6128 8.37118 14.7491 9.25931 16.6456C10.1474 18.5421 11.6573 20.0883 13.5454 21.0349C9.66182 22.1133 6.31955 24.6594 4.19056 28.2891C4.1321 28.3798 4.09285 28.4812 4.07517 28.5873C4.05748 28.6933 4.06173 28.8018 4.08765 28.9062C4.11358 29.0106 4.16064 29.1087 4.22602 29.1947C4.2914 29.2807 4.37373 29.3527 4.46808 29.4065C4.56242 29.4603 4.66682 29.4947 4.77499 29.5077C4.88316 29.5206 4.99288 29.5119 5.09753 29.4819C5.20219 29.452 5.29962 29.4015 5.38396 29.3334C5.46831 29.2654 5.53783 29.1812 5.58834 29.086C8.17517 24.6779 12.7455 22.0469 17.8169 22.0469C22.8882 22.0469 27.4586 24.6779 30.0454 29.086C30.0959 29.1812 30.1654 29.2654 30.2498 29.3334C30.3341 29.4015 30.4315 29.452 30.5362 29.4819C30.6408 29.5119 30.7506 29.5206 30.8587 29.5077C30.9669 29.4947 31.0713 29.4603 31.1656 29.4065C31.26 29.3527 31.3423 29.2807 31.4077 29.1947C31.4731 29.1087 31.5201 29.0106 31.5461 28.9062C31.572 28.8018 31.5762 28.6933 31.5586 28.5873C31.5409 28.4812 31.5016 28.3798 31.4432 28.2891ZM10.0066 12.7501C10.0066 11.2265 10.4646 9.7372 11.3228 8.47043C12.181 7.20366 13.4008 6.21633 14.828 5.6333C16.2551 5.05027 17.8255 4.89772 19.3406 5.19495C20.8556 5.49217 22.2473 6.22582 23.3396 7.30313C24.4319 8.38043 25.1757 9.75299 25.4771 11.2473C25.7785 12.7415 25.6238 14.2904 25.0326 15.6979C24.4415 17.1055 23.4404 18.3085 22.156 19.155C20.8716 20.0014 19.3616 20.4532 17.8169 20.4532C15.7462 20.4507 13.7611 19.6384 12.2969 18.1943C10.8327 16.7502 10.009 14.7923 10.0066 12.7501Z" fill="#121212"/>
</svg>
