<svg width="36" height="34" viewBox="0 0 36 34" fill="none" xmlns="http://www.w3.org/2000/svg">
<path d="M31.4441 28.2891C29.3152 24.6607 25.9729 22.1147 22.0893 21.0349C23.9774 20.0883 25.4873 18.5421 26.3754 16.6456C27.2635 14.7491 27.4781 12.6128 26.9847 10.5813C26.4912 8.54978 25.3184 6.74137 23.6553 5.44769C21.9923 4.15401 19.9359 3.45044 17.8178 3.45044C15.6998 3.45044 13.6434 4.15401 11.9804 5.44769C10.3173 6.74137 9.14448 8.54978 8.651 10.5813C8.15753 12.6128 8.37216 14.7491 9.26028 16.6456C10.1484 18.5421 11.6583 20.0883 13.5464 21.0349C9.6628 22.1133 6.32052 24.6594 4.19154 28.2891C4.13308 28.3798 4.09383 28.4812 4.07614 28.5873C4.05846 28.6933 4.0627 28.8018 4.08863 28.9062C4.11455 29.0106 4.16162 29.1087 4.227 29.1947C4.29237 29.2807 4.37471 29.3527 4.46905 29.4065C4.56339 29.4603 4.66779 29.4947 4.77597 29.5077C4.88414 29.5206 4.99385 29.5119 5.09851 29.4819C5.20316 29.452 5.30059 29.4015 5.38494 29.3334C5.46929 29.2654 5.53881 29.1812 5.58932 29.086C8.17614 24.6779 12.7465 22.0469 17.8178 22.0469C22.8892 22.0469 27.4595 24.6779 30.0464 29.086C30.0969 29.1812 30.1664 29.2654 30.2507 29.3334C30.3351 29.4015 30.4325 29.452 30.5372 29.4819C30.6418 29.5119 30.7515 29.5206 30.8597 29.5077C30.9679 29.4947 31.0723 29.4603 31.1666 29.4065C31.261 29.3527 31.3433 29.2807 31.4087 29.1947C31.4741 29.1087 31.5211 29.0106 31.547 28.9062C31.573 28.8018 31.5772 28.6933 31.5595 28.5873C31.5419 28.4812 31.5026 28.3798 31.4441 28.2891ZM10.0075 12.7501C10.0075 11.2265 10.4656 9.7372 11.3238 8.47043C12.182 7.20366 13.4018 6.21633 14.829 5.6333C16.2561 5.05027 17.8265 4.89772 19.3416 5.19495C20.8566 5.49217 22.2483 6.22582 23.3406 7.30313C24.4329 8.38043 25.1767 9.75299 25.4781 11.2473C25.7794 12.7415 25.6248 14.2904 25.0336 15.6979C24.4425 17.1055 23.4414 18.3085 22.157 19.155C20.8726 20.0014 19.3626 20.4532 17.8178 20.4532C15.7472 20.4507 13.762 19.6384 12.2979 18.1943C10.8337 16.7502 10.01 14.7923 10.0075 12.7501Z" fill="#121212"/>
</svg>
