<svg width="36" height="34" viewBox="0 0 36 34" fill="none" xmlns="http://www.w3.org/2000/svg">
<path d="M31.4435 28.2891C29.3145 24.6607 25.9723 22.1147 22.0887 21.0349C23.9768 20.0883 25.4867 18.5421 26.3748 16.6456C27.2629 14.7491 27.4775 12.6128 26.9841 10.5813C26.4906 8.54978 25.3178 6.74137 23.6547 5.44769C21.9917 4.15401 19.9353 3.45044 17.8172 3.45044C15.6991 3.45044 13.6428 4.15401 11.9797 5.44769C10.3167 6.74137 9.14387 8.54978 8.65039 10.5813C8.15692 12.6128 8.37155 14.7491 9.25967 16.6456C10.1478 18.5421 11.6577 20.0883 13.5458 21.0349C9.66219 22.1133 6.31991 24.6594 4.19093 28.2891C4.13247 28.3798 4.09322 28.4812 4.07553 28.5873C4.05785 28.6933 4.06209 28.8018 4.08802 28.9062C4.11394 29.0106 4.16101 29.1087 4.22639 29.1947C4.29176 29.2807 4.3741 29.3527 4.46844 29.4065C4.56278 29.4603 4.66718 29.4947 4.77536 29.5077C4.88353 29.5206 4.99324 29.5119 5.0979 29.4819C5.20255 29.452 5.29998 29.4015 5.38433 29.3334C5.46868 29.2654 5.5382 29.1812 5.58871 29.086C8.17553 24.6779 12.7459 22.0469 17.8172 22.0469C22.8885 22.0469 27.4589 24.6779 30.0458 29.086C30.0963 29.1812 30.1658 29.2654 30.2501 29.3334C30.3345 29.4015 30.4319 29.452 30.5366 29.4819C30.6412 29.5119 30.7509 29.5206 30.8591 29.5077C30.9673 29.4947 31.0717 29.4603 31.166 29.4065C31.2604 29.3527 31.3427 29.2807 31.4081 29.1947C31.4734 29.1087 31.5205 29.0106 31.5464 28.9062C31.5724 28.8018 31.5766 28.6933 31.5589 28.5873C31.5412 28.4812 31.502 28.3798 31.4435 28.2891ZM10.0069 12.7501C10.0069 11.2265 10.465 9.7372 11.3232 8.47043C12.1814 7.20366 13.4012 6.21633 14.8284 5.6333C16.2555 5.05027 17.8259 4.89772 19.3409 5.19495C20.856 5.49217 22.2477 6.22582 23.34 7.30313C24.4322 8.38043 25.1761 9.75299 25.4775 11.2473C25.7788 12.7415 25.6242 14.2904 25.033 15.6979C24.4419 17.1055 23.4408 18.3085 22.1564 19.155C20.872 20.0014 19.362 20.4532 17.8172 20.4532C15.7466 20.4507 13.7614 19.6384 12.2973 18.1943C10.8331 16.7502 10.0094 14.7923 10.0069 12.7501Z" fill="#121212"/>
</svg>
