<svg width="20" height="20" viewBox="0 0 20 20" fill="none" xmlns="http://www.w3.org/2000/svg">
<path d="M6.15004 0.833333H13.85C16.7834 0.833333 19.1667 3.21667 19.1667 6.15V13.85C19.1667 15.2601 18.6066 16.6124 17.6095 17.6095C16.6124 18.6065 15.2601 19.1667 13.85 19.1667H6.15004C3.21671 19.1667 0.833374 16.7833 0.833374 13.85V6.15C0.833374 4.73993 1.39352 3.38762 2.39059 2.39055C3.38766 1.39348 4.73997 0.833333 6.15004 0.833333ZM5.96671 2.66667C5.09149 2.66667 4.25213 3.01434 3.63326 3.63321C3.01439 4.25208 2.66671 5.09145 2.66671 5.96667V14.0333C2.66671 15.8575 4.14254 17.3333 5.96671 17.3333H14.0334C14.9086 17.3333 15.748 16.9857 16.3668 16.3668C16.9857 15.7479 17.3334 14.9085 17.3334 14.0333V5.96667C17.3334 4.1425 15.8575 2.66667 14.0334 2.66667H5.96671ZM14.8125 4.04167C15.1164 4.04167 15.4079 4.16239 15.6228 4.37727C15.8377 4.59216 15.9584 4.88361 15.9584 5.1875C15.9584 5.49139 15.8377 5.78284 15.6228 5.99773C15.4079 6.21261 15.1164 6.33333 14.8125 6.33333C14.5086 6.33333 14.2172 6.21261 14.0023 5.99773C13.7874 5.78284 13.6667 5.49139 13.6667 5.1875C13.6667 4.88361 13.7874 4.59216 14.0023 4.37727C14.2172 4.16239 14.5086 4.04167 14.8125 4.04167ZM10 5.41667C11.2156 5.41667 12.3814 5.89955 13.2409 6.75909C14.1005 7.61864 14.5834 8.78442 14.5834 10C14.5834 11.2156 14.1005 12.3814 13.2409 13.2409C12.3814 14.1004 11.2156 14.5833 10 14.5833C8.78447 14.5833 7.61868 14.1004 6.75913 13.2409C5.89959 12.3814 5.41671 11.2156 5.41671 10C5.41671 8.78442 5.89959 7.61864 6.75913 6.75909C7.61868 5.89955 8.78447 5.41667 10 5.41667ZM10 7.25C9.2707 7.25 8.57122 7.53973 8.0555 8.05546C7.53977 8.57118 7.25004 9.27065 7.25004 10C7.25004 10.7293 7.53977 11.4288 8.0555 11.9445C8.57122 12.4603 9.2707 12.75 10 12.75C10.7294 12.75 11.4289 12.4603 11.9446 11.9445C12.4603 11.4288 12.75 10.7293 12.75 10C12.75 9.27065 12.4603 8.57118 11.9446 8.05546C11.4289 7.53973 10.7294 7.25 10 7.25Z" fill="#A8B324"/>
</svg>
