<svg width="20" height="20" viewBox="0 0 20 20" fill="none" xmlns="http://www.w3.org/2000/svg">
<path d="M6.14992 0.833334H13.8499C16.7833 0.833334 19.1666 3.21667 19.1666 6.15V13.85C19.1666 15.2601 18.6064 16.6124 17.6094 17.6095C16.6123 18.6065 15.26 19.1667 13.8499 19.1667H6.14992C3.21659 19.1667 0.833252 16.7833 0.833252 13.85V6.15C0.833252 4.73993 1.3934 3.38762 2.39047 2.39055C3.38754 1.39348 4.73985 0.833334 6.14992 0.833334ZM5.96659 2.66667C5.09137 2.66667 4.252 3.01435 3.63313 3.63322C3.01426 4.25209 2.66659 5.09145 2.66659 5.96667V14.0333C2.66659 15.8575 4.14242 17.3333 5.96659 17.3333H14.0333C14.9085 17.3333 15.7478 16.9857 16.3667 16.3668C16.9856 15.7479 17.3333 14.9085 17.3333 14.0333V5.96667C17.3333 4.1425 15.8574 2.66667 14.0333 2.66667H5.96659ZM14.8124 4.04167C15.1163 4.04167 15.4078 4.16239 15.6226 4.37727C15.8375 4.59216 15.9583 4.88361 15.9583 5.1875C15.9583 5.49139 15.8375 5.78284 15.6226 5.99773C15.4078 6.21261 15.1163 6.33333 14.8124 6.33333C14.5085 6.33333 14.2171 6.21261 14.0022 5.99773C13.7873 5.78284 13.6666 5.49139 13.6666 5.1875C13.6666 4.88361 13.7873 4.59216 14.0022 4.37727C14.2171 4.16239 14.5085 4.04167 14.8124 4.04167ZM9.99992 5.41667C11.2155 5.41667 12.3813 5.89955 13.2408 6.75909C14.1004 7.61864 14.5833 8.78443 14.5833 10C14.5833 11.2156 14.1004 12.3814 13.2408 13.2409C12.3813 14.1004 11.2155 14.5833 9.99992 14.5833C8.78434 14.5833 7.61855 14.1004 6.75901 13.2409C5.89947 12.3814 5.41659 11.2156 5.41659 10C5.41659 8.78443 5.89947 7.61864 6.75901 6.75909C7.61855 5.89955 8.78434 5.41667 9.99992 5.41667ZM9.99992 7.25C9.27057 7.25 8.5711 7.53973 8.05537 8.05546C7.53965 8.57118 7.24992 9.27066 7.24992 10C7.24992 10.7293 7.53965 11.4288 8.05537 11.9445C8.5711 12.4603 9.27057 12.75 9.99992 12.75C10.7293 12.75 11.4287 12.4603 11.9445 11.9445C12.4602 11.4288 12.7499 10.7293 12.7499 10C12.7499 9.27066 12.4602 8.57118 11.9445 8.05546C11.4287 7.53973 10.7293 7.25 9.99992 7.25Z" fill="#A8B324"/>
</svg>
