<svg width="20" height="20" viewBox="0 0 20 20" fill="none" xmlns="http://www.w3.org/2000/svg">
<path d="M6.15016 0.833328H13.8502C16.7835 0.833328 19.1668 3.21666 19.1668 6.15V13.85C19.1668 15.2601 18.6067 16.6124 17.6096 17.6094C16.6125 18.6065 15.2602 19.1667 13.8502 19.1667H6.15016C3.21683 19.1667 0.833496 16.7833 0.833496 13.85V6.15C0.833496 4.73993 1.39364 3.38761 2.39071 2.39054C3.38778 1.39348 4.7401 0.833328 6.15016 0.833328ZM5.96683 2.66666C5.09161 2.66666 4.25225 3.01434 3.63338 3.63321C3.01451 4.25208 2.66683 5.09145 2.66683 5.96666V14.0333C2.66683 15.8575 4.14266 17.3333 5.96683 17.3333H14.0335C14.9087 17.3333 15.7481 16.9857 16.3669 16.3668C16.9858 15.7479 17.3335 14.9085 17.3335 14.0333V5.96666C17.3335 4.14249 15.8577 2.66666 14.0335 2.66666H5.96683ZM14.8127 4.04166C15.1166 4.04166 15.408 4.16238 15.6229 4.37727C15.8378 4.59215 15.9585 4.8836 15.9585 5.1875C15.9585 5.49139 15.8378 5.78284 15.6229 5.99772C15.408 6.21261 15.1166 6.33333 14.8127 6.33333C14.5088 6.33333 14.2173 6.21261 14.0024 5.99772C13.7876 5.78284 13.6668 5.49139 13.6668 5.1875C13.6668 4.8836 13.7876 4.59215 14.0024 4.37727C14.2173 4.16238 14.5088 4.04166 14.8127 4.04166ZM10.0002 5.41666C11.2157 5.41666 12.3815 5.89955 13.2411 6.75909C14.1006 7.61863 14.5835 8.78442 14.5835 10C14.5835 11.2156 14.1006 12.3814 13.2411 13.2409C12.3815 14.1004 11.2157 14.5833 10.0002 14.5833C8.78459 14.5833 7.6188 14.1004 6.75926 13.2409C5.89972 12.3814 5.41683 11.2156 5.41683 10C5.41683 8.78442 5.89972 7.61863 6.75926 6.75909C7.6188 5.89955 8.78459 5.41666 10.0002 5.41666ZM10.0002 7.25C9.27082 7.25 8.57134 7.53973 8.05562 8.05545C7.53989 8.57118 7.25016 9.27065 7.25016 10C7.25016 10.7293 7.53989 11.4288 8.05562 11.9445C8.57134 12.4603 9.27082 12.75 10.0002 12.75C10.7295 12.75 11.429 12.4603 11.9447 11.9445C12.4604 11.4288 12.7502 10.7293 12.7502 10C12.7502 9.27065 12.4604 8.57118 11.9447 8.05545C11.429 7.53973 10.7295 7.25 10.0002 7.25Z" fill="#A8B324"/>
</svg>
