<svg width="15" height="20" viewBox="0 0 15 20" fill="none" xmlns="http://www.w3.org/2000/svg">
<path d="M14.9996 18.9999L14.9996 0.999914C14.999 0.817673 14.9488 0.639038 14.8542 0.483238C14.7597 0.327438 14.6245 0.200373 14.4631 0.115719C14.3017 0.031065 14.1203 -0.00797081 13.9383 0.00281143C13.7564 0.0135937 13.5809 0.0737877 13.4306 0.176914L0.430617 9.17691C-0.108383 9.54991 -0.108383 10.4479 0.430617 10.8219L13.4306 19.8219C13.5806 19.9261 13.7562 19.9872 13.9384 19.9985C14.1206 20.0099 14.3025 19.9711 14.4642 19.8864C14.626 19.8017 14.7614 19.6742 14.8558 19.518C14.9502 19.3617 14.9999 19.1825 14.9996 18.9999Z" fill="black"/>
</svg>
