<svg width="20" height="20" viewBox="0 0 20 20" fill="none" xmlns="http://www.w3.org/2000/svg">
<path d="M6.15016 0.833374H13.8502C16.7835 0.833374 19.1668 3.21671 19.1668 6.15004V13.85C19.1668 15.2601 18.6067 16.6124 17.6096 17.6095C16.6125 18.6066 15.2602 19.1667 13.8502 19.1667H6.15016C3.21683 19.1667 0.833496 16.7834 0.833496 13.85V6.15004C0.833496 4.73997 1.39364 3.38766 2.39071 2.39059C3.38778 1.39352 4.7401 0.833374 6.15016 0.833374ZM5.96683 2.66671C5.09161 2.66671 4.25225 3.01439 3.63338 3.63326C3.01451 4.25213 2.66683 5.09149 2.66683 5.96671V14.0334C2.66683 15.8575 4.14266 17.3334 5.96683 17.3334H14.0335C14.9087 17.3334 15.7481 16.9857 16.3669 16.3668C16.9858 15.748 17.3335 14.9086 17.3335 14.0334V5.96671C17.3335 4.14254 15.8577 2.66671 14.0335 2.66671H5.96683ZM14.8127 4.04171C15.1166 4.04171 15.408 4.16243 15.6229 4.37731C15.8378 4.5922 15.9585 4.88365 15.9585 5.18754C15.9585 5.49143 15.8378 5.78288 15.6229 5.99777C15.408 6.21265 15.1166 6.33337 14.8127 6.33337C14.5088 6.33337 14.2173 6.21265 14.0024 5.99777C13.7876 5.78288 13.6668 5.49143 13.6668 5.18754C13.6668 4.88365 13.7876 4.5922 14.0024 4.37731C14.2173 4.16243 14.5088 4.04171 14.8127 4.04171ZM10.0002 5.41671C11.2157 5.41671 12.3815 5.89959 13.2411 6.75913C14.1006 7.61868 14.5835 8.78447 14.5835 10C14.5835 11.2156 14.1006 12.3814 13.2411 13.2409C12.3815 14.1005 11.2157 14.5834 10.0002 14.5834C8.78459 14.5834 7.6188 14.1005 6.75926 13.2409C5.89972 12.3814 5.41683 11.2156 5.41683 10C5.41683 8.78447 5.89972 7.61868 6.75926 6.75913C7.6188 5.89959 8.78459 5.41671 10.0002 5.41671ZM10.0002 7.25004C9.27082 7.25004 8.57134 7.53977 8.05562 8.0555C7.53989 8.57122 7.25016 9.2707 7.25016 10C7.25016 10.7294 7.53989 11.4289 8.05562 11.9446C8.57134 12.4603 9.27082 12.75 10.0002 12.75C10.7295 12.75 11.429 12.4603 11.9447 11.9446C12.4604 11.4289 12.7502 10.7294 12.7502 10C12.7502 9.2707 12.4604 8.57122 11.9447 8.0555C11.429 7.53977 10.7295 7.25004 10.0002 7.25004Z" fill="#A8B324"/>
</svg>
