<svg width="20" height="20" viewBox="0 0 20 20" fill="none" xmlns="http://www.w3.org/2000/svg">
<path d="M6.14998 0.833374H13.85C16.7833 0.833374 19.1666 3.21671 19.1666 6.15004V13.85C19.1666 15.2601 18.6065 16.6124 17.6094 17.6095C16.6124 18.6066 15.26 19.1667 13.85 19.1667H6.14998C3.21665 19.1667 0.833313 16.7834 0.833313 13.85V6.15004C0.833313 4.73997 1.39346 3.38766 2.39053 2.39059C3.3876 1.39352 4.73991 0.833374 6.14998 0.833374ZM5.96665 2.66671C5.09143 2.66671 4.25206 3.01439 3.63319 3.63326C3.01432 4.25213 2.66665 5.09149 2.66665 5.96671V14.0334C2.66665 15.8575 4.14248 17.3334 5.96665 17.3334H14.0333C14.9085 17.3334 15.7479 16.9857 16.3668 16.3668C16.9856 15.748 17.3333 14.9086 17.3333 14.0334V5.96671C17.3333 4.14254 15.8575 2.66671 14.0333 2.66671H5.96665ZM14.8125 4.04171C15.1164 4.04171 15.4078 4.16243 15.6227 4.37731C15.8376 4.5922 15.9583 4.88365 15.9583 5.18754C15.9583 5.49143 15.8376 5.78288 15.6227 5.99777C15.4078 6.21265 15.1164 6.33337 14.8125 6.33337C14.5086 6.33337 14.2171 6.21265 14.0023 5.99777C13.7874 5.78288 13.6666 5.49143 13.6666 5.18754C13.6666 4.88365 13.7874 4.5922 14.0023 4.37731C14.2171 4.16243 14.5086 4.04171 14.8125 4.04171ZM9.99998 5.41671C11.2156 5.41671 12.3813 5.89959 13.2409 6.75913C14.1004 7.61868 14.5833 8.78447 14.5833 10C14.5833 11.2156 14.1004 12.3814 13.2409 13.2409C12.3813 14.1005 11.2156 14.5834 9.99998 14.5834C8.7844 14.5834 7.61862 14.1005 6.75907 13.2409C5.89953 12.3814 5.41665 11.2156 5.41665 10C5.41665 8.78447 5.89953 7.61868 6.75907 6.75913C7.61862 5.89959 8.7844 5.41671 9.99998 5.41671ZM9.99998 7.25004C9.27063 7.25004 8.57116 7.53977 8.05544 8.0555C7.53971 8.57122 7.24998 9.2707 7.24998 10C7.24998 10.7294 7.53971 11.4289 8.05544 11.9446C8.57116 12.4603 9.27063 12.75 9.99998 12.75C10.7293 12.75 11.4288 12.4603 11.9445 11.9446C12.4602 11.4289 12.75 10.7294 12.75 10C12.75 9.2707 12.4602 8.57122 11.9445 8.0555C11.4288 7.53977 10.7293 7.25004 9.99998 7.25004Z" fill="#A8B324"/>
</svg>
