<svg width="28" height="28" viewBox="0 0 28 28" fill="none" xmlns="http://www.w3.org/2000/svg">
<path d="M25.8809 13.8085L15.3153 3.24832L14.607 2.54012C14.4457 2.37982 14.2275 2.28986 14 2.28986C13.7726 2.28986 13.5543 2.37982 13.393 2.54012L2.11916 13.8085C1.95381 13.9732 1.82314 14.1693 1.73485 14.3854C1.64655 14.6014 1.60244 14.8329 1.60509 15.0663C1.61603 16.0288 2.4172 16.7971 3.3797 16.7971H4.54181V25.703H23.4582V16.7971H24.6449C25.1125 16.7971 25.5528 16.6139 25.8836 16.2831C26.0465 16.1207 26.1756 15.9276 26.2634 15.715C26.3511 15.5024 26.3959 15.2744 26.3949 15.0444C26.3949 14.5796 26.2117 14.1393 25.8809 13.8085ZM15.5313 23.7343H12.4688V18.1561H15.5313V23.7343ZM21.4895 14.8284V23.7343H17.2813V17.4999C17.2813 16.8956 16.7918 16.4061 16.1875 16.4061H11.8125C11.2082 16.4061 10.7188 16.8956 10.7188 17.4999V23.7343H6.51056V14.8284H3.88556L14.0028 4.71942L14.6344 5.35106L24.1172 14.8284H21.4895Z" fill="black"/>
</svg>
