<svg width="31" height="30" viewBox="0 0 31 30" fill="none" xmlns="http://www.w3.org/2000/svg">
<g clip-path="url(#clip0_204_2118)">
<path d="M10.1673 2.33055C10.2969 2.11722 10.5071 1.96339 10.7516 1.90291C10.9962 1.84243 11.2551 1.88025 11.4714 2.00805C11.6877 2.13585 11.8437 2.34317 11.905 2.58439C11.9663 2.8256 11.928 3.08097 11.7984 3.2943L6.95824 11.2499H24.5129L19.6708 3.2943C19.5413 3.08097 19.5029 2.8256 19.5642 2.58439C19.6256 2.34317 19.7815 2.13585 19.9978 2.00805C20.2141 1.88025 20.473 1.84243 20.7176 1.90291C20.9622 1.96339 21.1724 2.11722 21.302 2.33055L26.7296 11.2499H29.9938C30.2459 11.2499 30.4876 11.3487 30.6659 11.5245C30.8442 11.7003 30.9443 11.9388 30.9443 12.1874V15.9374C30.9443 16.1861 30.8442 16.4245 30.6659 16.6003C30.4876 16.7762 30.2459 16.8749 29.9938 16.8749H29.0432V26.2499C29.0432 27.2445 28.6426 28.1983 27.9296 28.9016C27.2165 29.6048 26.2494 29.9999 25.241 29.9999H6.23013C5.22172 29.9999 4.25463 29.6048 3.54158 28.9016C2.82853 28.1983 2.42795 27.2445 2.42795 26.2499V16.8749H1.4774C1.2253 16.8749 0.983525 16.7762 0.805264 16.6003C0.627002 16.4245 0.526855 16.1861 0.526855 15.9374V12.1874C0.526855 11.9388 0.627002 11.7003 0.805264 11.5245C0.983525 11.3487 1.2253 11.2499 1.4774 11.2499H4.74157L10.1673 2.33055ZM7.18067 19.6874C7.18067 19.4388 7.08052 19.2003 6.90226 19.0245C6.724 18.8487 6.48223 18.7499 6.23013 18.7499C5.97803 18.7499 5.73625 18.8487 5.55799 19.0245C5.37973 19.2003 5.27958 19.4388 5.27958 19.6874V25.3124C5.27958 25.5611 5.37973 25.7995 5.55799 25.9753C5.73625 26.1512 5.97803 26.2499 6.23013 26.2499C6.48223 26.2499 6.724 26.1512 6.90226 25.9753C7.08052 25.7995 7.18067 25.5611 7.18067 25.3124V19.6874ZM11.9334 19.6874C11.9334 19.4388 11.8333 19.2003 11.655 19.0245C11.4767 18.8487 11.235 18.7499 10.9829 18.7499C10.7308 18.7499 10.489 18.8487 10.3107 19.0245C10.1325 19.2003 10.0323 19.4388 10.0323 19.6874V25.3124C10.0323 25.5611 10.1325 25.7995 10.3107 25.9753C10.489 26.1512 10.7308 26.2499 10.9829 26.2499C11.235 26.2499 11.4767 26.1512 11.655 25.9753C11.8333 25.7995 11.9334 25.5611 11.9334 25.3124V19.6874ZM16.6861 19.6874C16.6861 19.4388 16.586 19.2003 16.4077 19.0245C16.2295 18.8487 15.9877 18.7499 15.7356 18.7499C15.4835 18.7499 15.2417 18.8487 15.0634 19.0245C14.8852 19.2003 14.785 19.4388 14.785 19.6874V25.3124C14.785 25.5611 14.8852 25.7995 15.0634 25.9753C15.2417 26.1512 15.4835 26.2499 15.7356 26.2499C15.9877 26.2499 16.2295 26.1512 16.4077 25.9753C16.586 25.7995 16.6861 25.5611 16.6861 25.3124V19.6874ZM21.4388 19.6874C21.4388 19.4388 21.3387 19.2003 21.1604 19.0245C20.9822 18.8487 20.7404 18.7499 20.4883 18.7499C20.2362 18.7499 19.9944 18.8487 19.8162 19.0245C19.6379 19.2003 19.5378 19.4388 19.5378 19.6874V25.3124C19.5378 25.5611 19.6379 25.7995 19.8162 25.9753C19.9944 26.1512 20.2362 26.2499 20.4883 26.2499C20.7404 26.2499 20.9822 26.1512 21.1604 25.9753C21.3387 25.7995 21.4388 25.5611 21.4388 25.3124V19.6874ZM26.1916 19.6874C26.1916 19.4388 26.0914 19.2003 25.9132 19.0245C25.7349 18.8487 25.4931 18.7499 25.241 18.7499C24.9889 18.7499 24.7472 18.8487 24.5689 19.0245C24.3906 19.2003 24.2905 19.4388 24.2905 19.6874V25.3124C24.2905 25.5611 24.3906 25.7995 24.5689 25.9753C24.7472 26.1512 24.9889 26.2499 25.241 26.2499C25.4931 26.2499 25.7349 26.1512 25.9132 25.9753C26.0914 25.7995 26.1916 25.5611 26.1916 25.3124V19.6874Z" fill="black"/>
</g>
<defs>
<clipPath id="clip0_204_2118">
<rect width="30.4174" height="30" fill="white" transform="translate(0.526855)"/>
</clipPath>
</defs>
</svg>
