<svg width="31" height="30" viewBox="0 0 31 30" fill="none" xmlns="http://www.w3.org/2000/svg">
<g clip-path="url(#clip0_50_729)">
<path d="M10.1678 2.33055C10.2974 2.11722 10.5075 1.96339 10.7521 1.90291C10.9967 1.84243 11.2556 1.88025 11.4719 2.00805C11.6882 2.13585 11.8442 2.34317 11.9055 2.58439C11.9668 2.8256 11.9285 3.08097 11.7989 3.2943L6.95873 11.2499H24.5134L19.6713 3.2943C19.5417 3.08097 19.5034 2.8256 19.5647 2.58439C19.626 2.34317 19.782 2.13585 19.9983 2.00805C20.2146 1.88025 20.4735 1.84243 20.7181 1.90291C20.9627 1.96339 21.1729 2.11722 21.3025 2.33055L26.7301 11.2499H29.9942C30.2463 11.2499 30.4881 11.3487 30.6664 11.5245C30.8446 11.7003 30.9448 11.9388 30.9448 12.1874V15.9374C30.9448 16.1861 30.8446 16.4245 30.6664 16.6003C30.4881 16.7762 30.2463 16.8749 29.9942 16.8749H29.0437V26.2499C29.0437 27.2445 28.6431 28.1983 27.9301 28.9016C27.217 29.6048 26.2499 29.9999 25.2415 29.9999H6.23061C5.22221 29.9999 4.25511 29.6048 3.54207 28.9016C2.82902 28.1983 2.42843 27.2445 2.42843 26.2499V16.8749H1.47789C1.22579 16.8749 0.984014 16.7762 0.805752 16.6003C0.62749 16.4245 0.527344 16.1861 0.527344 15.9374V12.1874C0.527344 11.9388 0.62749 11.7003 0.805752 11.5245C0.984014 11.3487 1.22579 11.2499 1.47789 11.2499H4.74206L10.1678 2.33055ZM7.18116 19.6874C7.18116 19.4388 7.08101 19.2003 6.90275 19.0245C6.72449 18.8487 6.48271 18.7499 6.23061 18.7499C5.97851 18.7499 5.73674 18.8487 5.55848 19.0245C5.38022 19.2003 5.28007 19.4388 5.28007 19.6874V25.3124C5.28007 25.5611 5.38022 25.7995 5.55848 25.9753C5.73674 26.1512 5.97851 26.2499 6.23061 26.2499C6.48271 26.2499 6.72449 26.1512 6.90275 25.9753C7.08101 25.7995 7.18116 25.5611 7.18116 25.3124V19.6874ZM11.9339 19.6874C11.9339 19.4388 11.8337 19.2003 11.6555 19.0245C11.4772 18.8487 11.2354 18.7499 10.9833 18.7499C10.7312 18.7499 10.4895 18.8487 10.3112 19.0245C10.1329 19.2003 10.0328 19.4388 10.0328 19.6874V25.3124C10.0328 25.5611 10.1329 25.7995 10.3112 25.9753C10.4895 26.1512 10.7312 26.2499 10.9833 26.2499C11.2354 26.2499 11.4772 26.1512 11.6555 25.9753C11.8337 25.7995 11.9339 25.5611 11.9339 25.3124V19.6874ZM16.6866 19.6874C16.6866 19.4388 16.5865 19.2003 16.4082 19.0245C16.2299 18.8487 15.9882 18.7499 15.7361 18.7499C15.484 18.7499 15.2422 18.8487 15.0639 19.0245C14.8857 19.2003 14.7855 19.4388 14.7855 19.6874V25.3124C14.7855 25.5611 14.8857 25.7995 15.0639 25.9753C15.2422 26.1512 15.484 26.2499 15.7361 26.2499C15.9882 26.2499 16.2299 26.1512 16.4082 25.9753C16.5865 25.7995 16.6866 25.5611 16.6866 25.3124V19.6874ZM21.4393 19.6874C21.4393 19.4388 21.3392 19.2003 21.1609 19.0245C20.9827 18.8487 20.7409 18.7499 20.4888 18.7499C20.2367 18.7499 19.9949 18.8487 19.8167 19.0245C19.6384 19.2003 19.5382 19.4388 19.5382 19.6874V25.3124C19.5382 25.5611 19.6384 25.7995 19.8167 25.9753C19.9949 26.1512 20.2367 26.2499 20.4888 26.2499C20.7409 26.2499 20.9827 26.1512 21.1609 25.9753C21.3392 25.7995 21.4393 25.5611 21.4393 25.3124V19.6874ZM26.1921 19.6874C26.1921 19.4388 26.0919 19.2003 25.9137 19.0245C25.7354 18.8487 25.4936 18.7499 25.2415 18.7499C24.9894 18.7499 24.7476 18.8487 24.5694 19.0245C24.3911 19.2003 24.291 19.4388 24.291 19.6874V25.3124C24.291 25.5611 24.3911 25.7995 24.5694 25.9753C24.7476 26.1512 24.9894 26.2499 25.2415 26.2499C25.4936 26.2499 25.7354 26.1512 25.9137 25.9753C26.0919 25.7995 26.1921 25.5611 26.1921 25.3124V19.6874Z" fill="black"/>
</g>
<defs>
<clipPath id="clip0_50_729">
<rect width="30.4174" height="30" fill="white" transform="translate(0.527344)"/>
</clipPath>
</defs>
</svg>
