<svg width="20" height="20" viewBox="0 0 20 20" fill="none" xmlns="http://www.w3.org/2000/svg">
<g clip-path="url(#clip0_50_2209)">
<path fill-rule="evenodd" clip-rule="evenodd" d="M19.41 3.71625C19.584 3.7857 19.7332 3.9057 19.8384 4.06078C19.9436 4.21585 19.9999 4.39888 20 4.58625V15.4137C19.9999 15.6011 19.9436 15.7841 19.8384 15.9392C19.7332 16.0943 19.584 16.2143 19.41 16.2838L10.3475 19.9087C10.124 19.9981 9.87473 19.9981 9.65125 19.9087L0.58875 16.2838C0.414961 16.2141 0.266007 16.094 0.161076 15.939C0.0561445 15.7839 4.35749e-05 15.601 0 15.4137L0 4.58625C4.35749e-05 4.39902 0.0561445 4.2161 0.161076 4.06104C0.266007 3.90599 0.414961 3.7859 0.58875 3.71625L9.30375 0.23L9.30875 0.22875L9.65125 0.0912496C9.8751 0.00154047 10.1249 0.00154047 10.3488 0.0912496L10.6913 0.22875L10.6962 0.23L19.41 3.71625ZM17.6925 4.375L10 7.4525L2.3075 4.375L1.25 4.79875V5.29875L9.375 8.54875V18.4512L10 18.7013L10.625 18.4512V8.55L18.75 5.3V4.8L17.6925 4.375Z" fill="white"/>
</g>
<defs>
<clipPath id="clip0_50_2209">
<rect width="20" height="20" fill="white"/>
</clipPath>
</defs>
</svg>
