<svg width="26" height="27" viewBox="0 0 26 27" fill="none" xmlns="http://www.w3.org/2000/svg">
<path d="M13.0004 20.1499L8.05228 13.1624C7.24236 12.2061 6.72079 11.0395 6.5483 9.79824C6.37582 8.55701 6.55952 7.29232 7.07802 6.15147C7.59651 5.01061 8.42846 4.04053 9.47696 3.35422C10.5255 2.66791 11.7474 2.2936 13.0004 2.2749C14.7373 2.29207 16.3966 2.99688 17.6149 4.23499C18.8333 5.47309 19.5112 7.14356 19.5004 8.88053C19.5011 10.3958 18.9852 11.866 18.0379 13.0487L13.0004 20.1499ZM13.0004 3.8999C11.6938 3.91491 10.4465 4.44783 9.5325 5.38166C8.61847 6.31549 8.1124 7.57389 8.1254 8.88053C8.13084 10.0731 8.55991 11.225 9.33603 12.1305L13.0004 17.3224L16.7623 12.0249C17.4774 11.1323 17.8696 10.0242 17.8754 8.88053C17.8884 7.57389 17.3823 6.31549 16.4683 5.38166C15.5543 4.44783 14.307 3.91491 13.0004 3.8999Z" fill="black"/>
<path d="M13 9.5874C13.8975 9.5874 14.625 8.85987 14.625 7.9624C14.625 7.06494 13.8975 6.3374 13 6.3374C12.1025 6.3374 11.375 7.06494 11.375 7.9624C11.375 8.85987 12.1025 9.5874 13 9.5874Z" fill="black"/>
<path d="M22.75 10.3999H21.125V12.0249H22.75V23.3999H3.25V12.0249H4.875V10.3999H3.25C2.81902 10.3999 2.4057 10.5711 2.10095 10.8759C1.7962 11.1806 1.625 11.5939 1.625 12.0249V23.3999C1.625 23.8309 1.7962 24.2442 2.10095 24.549C2.4057 24.8537 2.81902 25.0249 3.25 25.0249H22.75C23.181 25.0249 23.5943 24.8537 23.899 24.549C24.2038 24.2442 24.375 23.8309 24.375 23.3999V12.0249C24.375 11.5939 24.2038 11.1806 23.899 10.8759C23.5943 10.5711 23.181 10.3999 22.75 10.3999Z" fill="black"/>
</svg>
