<svg width="26" height="27" viewBox="0 0 26 27" fill="none" xmlns="http://www.w3.org/2000/svg">
<path d="M13 20.147L8.05191 13.1595C7.242 12.2032 6.72042 11.0365 6.54794 9.79531C6.37545 8.55408 6.55915 7.28939 7.07765 6.14854C7.59614 5.00768 8.42809 4.0376 9.4766 3.35129C10.5251 2.66498 11.747 2.29067 13 2.27197C14.737 2.28914 16.3963 2.99396 17.6146 4.23206C18.8329 5.47016 19.5109 7.14063 19.5 8.8776C19.5007 10.3929 18.9848 11.8631 18.0375 13.0457L13 20.147ZM13 3.89697C11.6934 3.91198 10.4462 4.4449 9.53213 5.37873C8.61811 6.31256 8.11204 7.57096 8.12504 8.8776C8.13048 10.0702 8.55955 11.2221 9.33566 12.1276L13 17.3195L16.7619 12.022C17.477 11.1294 17.8693 10.0213 17.875 8.8776C17.888 7.57096 17.382 6.31256 16.4679 5.37873C15.5539 4.4449 14.3067 3.91198 13 3.89697Z" fill="#B9B9B9"/>
<path d="M13 9.58447C13.8975 9.58447 14.625 8.85694 14.625 7.95947C14.625 7.06201 13.8975 6.33447 13 6.33447C12.1025 6.33447 11.375 7.06201 11.375 7.95947C11.375 8.85694 12.1025 9.58447 13 9.58447Z" fill="#B9B9B9"/>
<path d="M22.75 10.397H21.125V12.022H22.75V23.397H3.25V12.022H4.875V10.397H3.25C2.81902 10.397 2.4057 10.5682 2.10095 10.8729C1.7962 11.1777 1.625 11.591 1.625 12.022V23.397C1.625 23.8279 1.7962 24.2413 2.10095 24.546C2.4057 24.8508 2.81902 25.022 3.25 25.022H22.75C23.181 25.022 23.5943 24.8508 23.899 24.546C24.2038 24.2413 24.375 23.8279 24.375 23.397V12.022C24.375 11.591 24.2038 11.1777 23.899 10.8729C23.5943 10.5682 23.181 10.397 22.75 10.397Z" fill="#B9B9B9"/>
</svg>
