<svg width="30" height="31" viewBox="0 0 30 31" fill="none" xmlns="http://www.w3.org/2000/svg">
<g clip-path="url(#clip0_204_1769)">
<path d="M23.3333 25.6468H13.3333V18.9802H11.6667V25.6468H6.66667V18.9802H5V25.6468C5 26.0889 5.17559 26.5128 5.48816 26.8253C5.80072 27.1379 6.22464 27.3135 6.66667 27.3135H23.3333C23.7754 27.3135 24.1993 27.1379 24.5118 26.8253C24.8244 26.5128 25 26.0889 25 25.6468V18.9802H23.3333V25.6468Z" fill="#B9B9B9"/>
<path d="M28.1584 11.7052L24.7584 4.90516C24.6204 4.62749 24.4077 4.39381 24.1442 4.2304C23.8807 4.06699 23.5768 3.98033 23.2668 3.98016H6.73343C6.42336 3.98033 6.11948 4.06699 5.85596 4.2304C5.59245 4.39381 5.37974 4.62749 5.24176 4.90516L1.84176 11.7052C1.72567 11.9381 1.66574 12.1949 1.66676 12.4552V15.0218C1.666 15.4112 1.80163 15.7886 2.05009 16.0885C2.41731 16.5094 2.87084 16.8464 3.37987 17.0765C3.8889 17.3065 4.44149 17.4243 5.00009 17.4218C5.91157 17.4232 6.79525 17.1081 7.50009 16.5302C8.20493 17.1084 9.08842 17.4244 10.0001 17.4244C10.9118 17.4244 11.7953 17.1084 12.5001 16.5302C13.2049 17.1084 14.0884 17.4244 15.0001 17.4244C15.9118 17.4244 16.7953 17.1084 17.5001 16.5302C18.2049 17.1084 19.0884 17.4244 20.0001 17.4244C20.9118 17.4244 21.7953 17.1084 22.5001 16.5302C23.2869 17.1762 24.2935 17.492 25.3083 17.4112C26.3232 17.3304 27.2671 16.8592 27.9418 16.0968C28.1932 15.7981 28.3319 15.4206 28.3334 15.0302V12.4552C28.3344 12.1949 28.2745 11.9381 28.1584 11.7052ZM25.0001 15.7552C24.6442 15.7543 24.2936 15.6684 23.9776 15.5046C23.6616 15.3408 23.3893 15.1039 23.1834 14.8135L22.5001 13.8802L21.8251 14.8135C21.6153 15.0994 21.3412 15.3319 21.0248 15.4922C20.7085 15.6524 20.3589 15.7359 20.0043 15.7359C19.6496 15.7359 19.3 15.6524 18.9837 15.4922C18.6673 15.3319 18.3932 15.0994 18.1834 14.8135L17.5001 13.8802L16.8251 14.8135C16.6153 15.0994 16.3412 15.3319 16.0248 15.4922C15.7085 15.6524 15.3589 15.7359 15.0043 15.7359C14.6496 15.7359 14.3 15.6524 13.9837 15.4922C13.6673 15.3319 13.3932 15.0994 13.1834 14.8135L12.5001 13.8802L11.8251 14.8135C11.6153 15.0994 11.3412 15.3319 11.0248 15.4922C10.7085 15.6524 10.3589 15.7359 10.0043 15.7359C9.64965 15.7359 9.30002 15.6524 8.98368 15.4922C8.66735 15.3319 8.3932 15.0994 8.18343 14.8135L7.50009 13.8802L6.81676 14.8135C6.6109 15.1039 6.33862 15.3408 6.02262 15.5046C5.70661 15.6684 5.35603 15.7543 5.00009 15.7552C4.68604 15.759 4.37481 15.6955 4.08733 15.569C3.79985 15.4425 3.54279 15.2559 3.33343 15.0218V12.4552L6.73343 5.64683H23.2668L26.6668 12.4468V14.9968C26.4587 15.2342 26.2024 15.4246 25.9151 15.5554C25.6277 15.6861 25.3158 15.7542 25.0001 15.7552Z" fill="#B9B9B9"/>
</g>
<defs>
<clipPath id="clip0_204_1769">
<rect width="30" height="30" fill="white" transform="translate(0 0.646851)"/>
</clipPath>
</defs>
</svg>
