<svg width="30" height="31" viewBox="0 0 30 31" fill="none" xmlns="http://www.w3.org/2000/svg">
<g clip-path="url(#clip0_113_797)">
<path d="M23.3333 25.6498H13.3333V18.9832H11.6667V25.6498H6.66667V18.9832H5V25.6498C5 26.0918 5.17559 26.5158 5.48816 26.8283C5.80072 27.1409 6.22464 27.3165 6.66667 27.3165H23.3333C23.7754 27.3165 24.1993 27.1409 24.5118 26.8283C24.8244 26.5158 25 26.0918 25 25.6498V18.9832H23.3333V25.6498Z" fill="white"/>
<path d="M28.1582 11.7082L24.7582 4.90815C24.6202 4.63048 24.4075 4.3968 24.144 4.23339C23.8805 4.06998 23.5766 3.98332 23.2665 3.98315H6.73318C6.42311 3.98332 6.11924 4.06998 5.85572 4.23339C5.5922 4.3968 5.3795 4.63048 5.24152 4.90815L1.84152 11.7082C1.72543 11.9411 1.6655 12.1979 1.66652 12.4582V15.0248C1.66576 15.4142 1.80138 15.7916 2.04985 16.0915C2.41707 16.5124 2.8706 16.8494 3.37963 17.0795C3.88866 17.3095 4.44125 17.4273 4.99985 17.4248C5.91132 17.4262 6.795 17.1111 7.49985 16.5332C8.20469 17.1114 9.08818 17.4274 9.99985 17.4274C10.9115 17.4274 11.795 17.1114 12.4998 16.5332C13.2047 17.1114 14.0882 17.4274 14.9998 17.4274C15.9115 17.4274 16.795 17.1114 17.4998 16.5332C18.2047 17.1114 19.0882 17.4274 19.9998 17.4274C20.9115 17.4274 21.795 17.1114 22.4998 16.5332C23.2866 17.1792 24.2933 17.495 25.3081 17.4142C26.3229 17.3334 27.2669 16.8622 27.9415 16.0998C28.193 15.8011 28.3316 15.4236 28.3332 15.0332V12.4582C28.3342 12.1979 28.2743 11.9411 28.1582 11.7082ZM24.9998 15.7582C24.6439 15.7573 24.2933 15.6714 23.9773 15.5076C23.6613 15.3438 23.389 15.1069 23.1832 14.8165L22.4998 13.8832L21.8249 14.8165C21.6151 15.1024 21.3409 15.3349 21.0246 15.4952C20.7083 15.6554 20.3586 15.7389 20.004 15.7389C19.6494 15.7389 19.2998 15.6554 18.9834 15.4952C18.6671 15.3349 18.393 15.1024 18.1832 14.8165L17.4998 13.8832L16.8249 14.8165C16.6151 15.1024 16.3409 15.3349 16.0246 15.4952C15.7083 15.6554 15.3586 15.7389 15.004 15.7389C14.6494 15.7389 14.2998 15.6554 13.9834 15.4952C13.6671 15.3349 13.393 15.1024 13.1832 14.8165L12.4998 13.8832L11.8248 14.8165C11.6151 15.1024 11.3409 15.3349 11.0246 15.4952C10.7083 15.6554 10.3586 15.7389 10.004 15.7389C9.6494 15.7389 9.29977 15.6554 8.98344 15.4952C8.6671 15.3349 8.39295 15.1024 8.18318 14.8165L7.49985 13.8832L6.81652 14.8165C6.61066 15.1069 6.33838 15.3438 6.02237 15.5076C5.70637 15.6714 5.35579 15.7573 4.99985 15.7582C4.6858 15.762 4.37457 15.6985 4.08709 15.572C3.79961 15.4455 3.54254 15.2589 3.33318 15.0248V12.4582L6.73318 5.64982H23.2665L26.6665 12.4498V14.9998C26.4584 15.2372 26.2022 15.4276 25.9148 15.5584C25.6274 15.6891 25.3156 15.7572 24.9998 15.7582Z" fill="white"/>
</g>
<defs>
<clipPath id="clip0_113_797">
<rect width="30" height="30" fill="white" transform="translate(0 0.649902)"/>
</clipPath>
</defs>
</svg>
