<svg width="30" height="31" viewBox="0 0 30 31" fill="none" xmlns="http://www.w3.org/2000/svg">
<g clip-path="url(#clip0_204_444)">
<path d="M23.3333 25.6468H13.3333V18.9802H11.6667V25.6468H6.66667V18.9802H5V25.6468C5 26.0889 5.17559 26.5128 5.48816 26.8253C5.80072 27.1379 6.22464 27.3135 6.66667 27.3135H23.3333C23.7754 27.3135 24.1993 27.1379 24.5118 26.8253C24.8244 26.5128 25 26.0889 25 25.6468V18.9802H23.3333V25.6468Z" fill="#B9B9B9"/>
<path d="M28.1583 11.7052L24.7583 4.90516C24.6203 4.62749 24.4076 4.39381 24.1441 4.2304C23.8806 4.06699 23.5767 3.98033 23.2666 3.98016H6.7333C6.42323 3.98033 6.11936 4.06699 5.85584 4.2304C5.59233 4.39381 5.37962 4.62749 5.24164 4.90516L1.84164 11.7052C1.72555 11.9381 1.66562 12.1949 1.66664 12.4552V15.0218C1.66588 15.4112 1.8015 15.7886 2.04997 16.0885C2.41719 16.5094 2.87072 16.8464 3.37975 17.0765C3.88878 17.3065 4.44137 17.4243 4.99997 17.4218C5.91145 17.4232 6.79512 17.1081 7.49997 16.5302C8.20481 17.1084 9.0883 17.4244 9.99997 17.4244C10.9116 17.4244 11.7951 17.1084 12.5 16.5302C13.2048 17.1084 14.0883 17.4244 15 17.4244C15.9116 17.4244 16.7951 17.1084 17.5 16.5302C18.2048 17.1084 19.0883 17.4244 20 17.4244C20.9116 17.4244 21.7951 17.1084 22.5 16.5302C23.2868 17.1762 24.2934 17.492 25.3082 17.4112C26.323 17.3304 27.267 16.8592 27.9416 16.0968C28.1931 15.7981 28.3317 15.4206 28.3333 15.0302V12.4552C28.3343 12.1949 28.2744 11.9381 28.1583 11.7052ZM25 15.7552C24.644 15.7543 24.2935 15.6684 23.9774 15.5046C23.6614 15.3408 23.3892 15.1039 23.1833 14.8135L22.5 13.8802L21.825 14.8135C21.6152 15.0994 21.3411 15.3319 21.0247 15.4922C20.7084 15.6524 20.3587 15.7359 20.0041 15.7359C19.6495 15.7359 19.2999 15.6524 18.9836 15.4922C18.6672 15.3319 18.3931 15.0994 18.1833 14.8135L17.5 13.8802L16.825 14.8135C16.6152 15.0994 16.3411 15.3319 16.0247 15.4922C15.7084 15.6524 15.3588 15.7359 15.0041 15.7359C14.6495 15.7359 14.2999 15.6524 13.9836 15.4922C13.6672 15.3319 13.3931 15.0994 13.1833 14.8135L12.5 13.8802L11.825 14.8135C11.6152 15.0994 11.3411 15.3319 11.0247 15.4922C10.7084 15.6524 10.3588 15.7359 10.0041 15.7359C9.64953 15.7359 9.2999 15.6524 8.98356 15.4922C8.66722 15.3319 8.39307 15.0994 8.1833 14.8135L7.49997 13.8802L6.81664 14.8135C6.61078 15.1039 6.3385 15.3408 6.0225 15.5046C5.70649 15.6684 5.35591 15.7543 4.99997 15.7552C4.68592 15.759 4.37469 15.6955 4.08721 15.569C3.79973 15.4425 3.54267 15.2559 3.33331 15.0218V12.4552L6.7333 5.64683H23.2666L26.6666 12.4468V14.9968C26.4585 15.2342 26.2023 15.4246 25.9149 15.5554C25.6276 15.6861 25.3157 15.7542 25 15.7552Z" fill="#B9B9B9"/>
</g>
<defs>
<clipPath id="clip0_204_444">
<rect width="30" height="30" fill="white" transform="translate(0 0.646851)"/>
</clipPath>
</defs>
</svg>
