<svg width="30" height="31" viewBox="0 0 30 31" fill="none" xmlns="http://www.w3.org/2000/svg">
<g clip-path="url(#clip0_84_461)">
<path d="M23.3333 25.6498H13.3333V18.9832H11.6667V25.6498H6.66667V18.9832H5V25.6498C5 26.0918 5.17559 26.5158 5.48816 26.8283C5.80072 27.1409 6.22464 27.3165 6.66667 27.3165H23.3333C23.7754 27.3165 24.1993 27.1409 24.5118 26.8283C24.8244 26.5158 25 26.0918 25 25.6498V18.9832H23.3333V25.6498Z" fill="black"/>
<path d="M28.1587 11.7082L24.7587 4.90815C24.6207 4.63048 24.408 4.3968 24.1445 4.23339C23.881 4.06998 23.5771 3.98332 23.267 3.98315H6.73367C6.4236 3.98332 6.11972 4.06998 5.85621 4.23339C5.59269 4.3968 5.37999 4.63048 5.242 4.90815L1.84201 11.7082C1.72592 11.9411 1.66599 12.1979 1.667 12.4582V15.0248C1.66624 15.4142 1.80187 15.7916 2.05034 16.0915C2.41755 16.5124 2.87109 16.8494 3.38012 17.0795C3.88914 17.3095 4.44174 17.4273 5.00034 17.4248C5.91181 17.4262 6.79549 17.1111 7.50034 16.5332C8.20518 17.1114 9.08866 17.4274 10.0003 17.4274C10.912 17.4274 11.7955 17.1114 12.5003 16.5332C13.2052 17.1114 14.0887 17.4274 15.0003 17.4274C15.912 17.4274 16.7955 17.1114 17.5003 16.5332C18.2052 17.1114 19.0887 17.4274 20.0003 17.4274C20.912 17.4274 21.7955 17.1114 22.5003 16.5332C23.2871 17.1792 24.2938 17.495 25.3086 17.4142C26.3234 17.3334 27.2674 16.8622 27.942 16.0998C28.1935 15.8011 28.3321 15.4236 28.3337 15.0332V12.4582C28.3347 12.1979 28.2748 11.9411 28.1587 11.7082ZM25.0003 15.7582C24.6444 15.7573 24.2938 15.6714 23.9778 15.5076C23.6618 15.3438 23.3895 15.1069 23.1837 14.8165L22.5003 13.8832L21.8253 14.8165C21.6156 15.1024 21.3414 15.3349 21.0251 15.4952C20.7087 15.6554 20.3591 15.7389 20.0045 15.7389C19.6499 15.7389 19.3003 15.6554 18.9839 15.4952C18.6676 15.3349 18.3934 15.1024 18.1837 14.8165L17.5003 13.8832L16.8253 14.8165C16.6156 15.1024 16.3414 15.3349 16.0251 15.4952C15.7087 15.6554 15.3591 15.7389 15.0045 15.7389C14.6499 15.7389 14.3003 15.6554 13.9839 15.4952C13.6676 15.3349 13.3934 15.1024 13.1837 14.8165L12.5003 13.8832L11.8253 14.8165C11.6156 15.1024 11.3414 15.3349 11.0251 15.4952C10.7087 15.6554 10.3591 15.7389 10.0045 15.7389C9.64989 15.7389 9.30026 15.6554 8.98393 15.4952C8.66759 15.3349 8.39344 15.1024 8.18367 14.8165L7.50034 13.8832L6.81701 14.8165C6.61115 15.1069 6.33887 15.3438 6.02286 15.5076C5.70685 15.6714 5.35627 15.7573 5.00034 15.7582C4.68628 15.762 4.37505 15.6985 4.08757 15.572C3.8001 15.4455 3.54303 15.2589 3.33367 15.0248V12.4582L6.73367 5.64982H23.267L26.667 12.4498V14.9998C26.4589 15.2372 26.2027 15.4276 25.9153 15.5584C25.6279 15.6891 25.316 15.7572 25.0003 15.7582Z" fill="black"/>
</g>
<defs>
<clipPath id="clip0_84_461">
<rect width="30" height="30" fill="white" transform="translate(0 0.649902)"/>
</clipPath>
</defs>
</svg>
