<svg width="34" height="34" viewBox="0 0 34 34" fill="none" xmlns="http://www.w3.org/2000/svg">
<path d="M32.1513 15.0349C32.1147 14.9536 32.0738 14.8797 32.035 14.8027C34.4835 12.4636 31.1744 8.51429 31.1744 8.51429C31.1744 8.51429 30.2617 11.1243 30.0609 12.9513C30.0253 12.9423 29.9897 12.929 29.9535 12.9221C28.2392 12.607 26.2656 12.4604 23.7427 12.4604C22.5803 12.4604 21.4647 12.4902 20.3857 12.5183C19.4539 12.5428 18.5736 12.5661 17.7831 12.5661C14.9431 12.5661 14.5037 12.2033 14.4368 12.0928C14.4384 10.7073 14.1643 9.39776 13.641 8.26354C14.5468 6.96782 14.5574 5.15254 14.262 4.37851C14.016 3.73304 13.5517 3.66292 13.3631 3.66292C13.2319 3.66292 13.1055 3.6932 12.9854 3.7527C12.8085 3.83982 12.5238 3.9822 12.1928 4.16389C13.4789 3.12795 15.197 3.04136 15.197 3.04136C12.2188 1.93954 10.548 3.20604 9.70867 4.59739C10.4264 2.13345 13.2282 1.06723 13.2282 1.06723C9.37079 0.933356 8.00017 3.18054 7.6251 5.09729C6.9536 5.33636 6.3076 5.74064 5.71314 6.30748C4.44664 7.51714 4.20545 8.44151 3.94992 9.41901C3.68217 10.4443 3.34907 11.7204 1.53379 14.068C0.928167 14.8521 1.03601 15.539 1.15501 15.879C1.43976 16.6966 2.32164 17.2789 3.70235 17.5625C3.7252 17.5673 3.75229 17.571 3.77673 17.5753C3.69864 19.6472 6.41598 20.5896 6.41598 20.5896C6.41598 20.5896 5.52295 19.0118 6.17267 16.8432L6.18011 16.839C6.4537 16.6892 6.81867 16.636 7.20595 16.5803C7.62776 16.5192 8.14307 16.4443 8.62332 16.1962C8.88045 18.4125 9.63695 21.761 11.8241 24.4672C11.9245 24.9767 12.2178 27.1787 11.0804 31.9297L10.8392 32.9374H14.083L14.27 32.4051L15.8499 27.9017L15.9115 27.7275L15.8935 27.5426C15.8292 26.8615 15.8388 26.0992 15.9068 25.6747C16.5703 25.8591 17.3842 25.9494 18.3787 25.9494C21.2193 25.9494 24.6857 25.1966 26.0271 24.8773C26.7193 25.9053 27.8673 26.7951 28.5457 27.2695C28.3247 28.1116 28.0092 29.7521 28.0527 32.1411L28.0676 32.9374H31.3109L31.406 32.2399C31.5802 30.958 32.468 26.4195 32.477 26.3739L32.5221 26.1438L32.4425 25.9244C31.8921 24.4061 31.8942 23.5981 31.9117 23.3606C33.379 20.5094 33.072 17.061 32.1513 15.0349ZM31.7152 26.2118C31.7152 26.2118 31.1303 29.1953 30.8099 31.0451H28.8374C28.916 28.3289 29.4685 26.9205 29.4685 26.9205C29.4685 26.9205 27.1034 25.4633 26.4005 23.9524C26.4005 23.9524 21.8515 25.1387 18.3787 25.1387C17.3746 25.1387 16.4614 25.0394 15.7734 24.7838C15.7282 24.7659 15.6802 24.7564 15.6316 24.7557C14.8448 24.7557 15.12 27.6228 15.12 27.6228L13.9188 31.0441H12.0791C13.1591 25.9605 12.5323 24.0826 12.5323 24.0826C9.03982 19.8984 9.27729 13.839 9.27729 13.839C8.84539 16.2716 7.06623 15.4359 5.81832 16.1202C4.84985 16.6514 4.51198 16.8082 4.18632 16.8082C4.07414 16.8057 3.96252 16.7916 3.85323 16.7662C2.25948 16.4389 1.32395 15.6309 2.13889 14.578C5.71686 9.9492 3.86704 9.16986 6.23801 6.90673C6.65345 6.51042 7.08217 6.21876 7.51354 6.01476C7.46892 6.91735 7.62723 7.60904 7.7781 7.7036C8.43154 8.1132 9.88823 7.82154 9.67042 6.87167C9.58055 6.48765 9.53809 6.09407 9.54398 5.69973C9.97244 5.76657 10.3855 5.90942 10.7637 6.12154C11.5919 5.34432 12.8032 4.74082 13.3185 4.48582C13.332 4.47847 13.3472 4.47463 13.3626 4.47467C13.7398 4.4752 13.9613 6.91204 12.7044 8.15198C13.2973 9.21714 13.6601 10.5633 13.6601 12.0827C13.6601 13.1574 15.3261 13.3774 17.7826 13.3774C19.4869 13.3774 21.5699 13.2716 23.7427 13.2716C25.77 13.2716 27.8764 13.3646 29.8191 13.7216C31.8119 14.0871 33.1586 19.3879 31.1643 23.096C31.1643 23.096 30.9162 24.013 31.7152 26.2118Z" fill="#AEAEAE"/>
<path d="M6.89047 11.1047C7.32617 11.1047 7.67938 10.7494 7.67938 10.311C7.67938 9.87268 7.32617 9.51733 6.89047 9.51733C6.45477 9.51733 6.10156 9.87268 6.10156 10.311C6.10156 10.7494 6.45477 11.1047 6.89047 11.1047Z" fill="#AEAEAE"/>
<path d="M2.72835 14.6812C2.65132 14.7933 2.595 15.0642 2.70072 15.1433C2.8075 15.2241 3.03807 15.0833 3.11457 14.9723C3.15188 14.9186 3.16712 14.8527 3.15713 14.7881C3.14714 14.7235 3.11269 14.6652 3.06091 14.6254C3.03575 14.6063 3.00695 14.5925 2.97628 14.585C2.94562 14.5774 2.91373 14.5762 2.88258 14.5815C2.85144 14.5867 2.82169 14.5982 2.79516 14.6154C2.76864 14.6325 2.7459 14.6549 2.72835 14.6812ZM5.55725 14.5908C5.46614 14.8907 5.33989 15.1787 5.18113 15.4488C4.86822 15.988 4.40391 16.4056 3.86682 16.7615C4.18214 16.6796 4.4782 16.5362 4.73807 16.3397C5.00539 16.1349 5.23129 15.881 5.40372 15.5917C5.74585 15.0063 5.8845 14.2933 5.75222 13.642C5.71716 13.9637 5.65189 14.2814 5.55725 14.5908ZM13.0968 5.38481C12.8232 5.50488 10.951 6.45741 10.6721 7.34247C10.483 7.94066 10.5691 7.9226 10.7704 7.71116C10.9744 7.49706 11.5211 7.35203 11.2963 7.49706C11.0722 7.64263 10.9484 7.81741 11.1991 7.73241C11.4472 7.65113 11.8595 7.62669 11.5131 7.76588C11.1678 7.90347 10.7168 8.24081 10.8198 8.40338C10.9245 8.56222 11.1295 8.52875 11.3171 8.44428C13.3974 7.52256 13.416 5.24509 13.0968 5.38481Z" fill="#AEAEAE"/>
</svg>
