<svg width="35" height="35" viewBox="0 0 35 35" fill="none" xmlns="http://www.w3.org/2000/svg">
<path d="M32.398 4.80543C32.2164 3.04449 31.9287 2.44621 31.7242 2.14762C31.442 1.73582 30.6879 1.12387 29.9693 1.12387C29.9157 1.12387 29.8648 1.12715 29.814 1.13316C29.4317 1.17855 29.0631 1.37762 28.6453 1.77355C27.5306 1.32127 26.3385 1.09038 25.1355 1.09379C22.3377 1.09379 19.5278 2.29527 17.4262 4.39035C15.9852 5.82754 15.348 7.2609 14.7853 8.52527C14.268 9.69011 13.8195 10.6969 12.8149 11.573C11.6205 12.6148 10.4546 12.8631 9.10219 13.1513C7.5682 13.4783 5.83023 13.8486 4.15078 15.5236C2.17984 17.4886 1.0943 20.1201 1.09375 22.9327C1.09375 25.8443 2.24437 28.595 4.33344 30.6781C6.42195 32.76 9.17875 33.9063 12.0963 33.9063C14.916 33.9063 17.5536 32.824 19.524 30.8591C21.2062 29.1824 21.6393 27.5117 22.021 26.0373C22.3448 24.7882 22.6499 23.6081 23.7043 22.3896C24.6045 21.3489 25.5823 20.836 26.7127 20.2421C27.8862 19.6263 29.2168 18.9285 30.607 17.5416C34.2054 13.9541 34.9491 8.53347 32.398 4.80543ZM29.8834 16.8153C27.2923 19.3999 24.961 19.3703 22.9288 21.7192C20.3973 24.6455 21.6442 27.2978 18.7999 30.1334C16.9608 31.9676 14.5398 32.8809 12.0963 32.8809C9.56703 32.8809 7.01367 31.9014 5.0575 29.9524C1.21242 26.1171 1.13039 19.9828 4.87539 16.2488C7.70055 13.4313 10.5935 14.8718 13.4898 12.3452C15.8441 10.2922 15.5444 7.71644 18.1502 5.1166C20.1409 3.13254 22.6959 2.11972 25.1349 2.11972C26.4567 2.11972 27.7446 2.41722 28.8903 3.01933C29.2239 2.61683 29.6434 2.18754 29.9343 2.15199C29.9457 2.15087 29.9572 2.15032 29.9688 2.15035C30.2504 2.15035 30.7284 2.51074 30.8782 2.72949C31.1768 3.16371 31.3305 4.37832 31.4027 5.17675C33.8319 8.47058 33.2571 13.4521 29.8834 16.8153Z" fill="#AEAEAE"/>
<path d="M30.635 3.12329C30.4687 2.6579 30.0755 2.37134 29.9727 2.37134C29.6769 2.37134 29.0966 3.16759 29.0966 3.16759L30.6656 4.48938C30.6656 4.48938 30.8297 3.66688 30.635 3.12329ZM23.7947 3.71993C24.4159 3.75438 26.2611 2.96087 26.108 2.80829C26.0374 2.73829 25.8979 2.67923 25.7131 2.63329C25.1651 2.91274 24.207 3.25892 23.7925 3.2354C23.6 3.22501 23.2106 3.04673 22.9312 2.88212C22.8181 2.9385 22.7139 3.01129 22.6222 3.09813C22.5379 3.18071 23.4627 3.70134 23.7947 3.71993ZM20.5293 6.52103C20.9553 6.37009 22.8251 4.48993 22.7977 4.25915C22.7906 4.20228 22.7217 4.13884 22.6167 4.07649C22.1447 4.67806 20.8662 5.91946 20.5227 6.04087C20.2154 6.15079 19.2802 5.64603 18.8947 5.3086C18.8088 5.40868 18.7497 5.4929 18.7328 5.54923C18.6672 5.76743 20.1301 6.66267 20.5293 6.52103ZM17.499 9.79954C17.8004 9.80829 19.651 7.57485 19.6412 7.32657C19.6384 7.27024 19.5815 7.20188 19.4924 7.1286C19.0571 7.7936 17.7386 9.33251 17.4887 9.32431C17.1884 9.31556 16.6421 9.05524 16.4326 8.76376C16.3796 8.92509 16.3539 9.04595 16.3703 9.09899C16.4715 9.44298 17.1512 9.7886 17.499 9.79954ZM15.597 12.8325C15.8021 12.8101 17.2223 11.1235 17.2836 10.8495C17.2994 10.7784 17.2491 10.6844 17.1594 10.5838C16.8116 11.1175 15.7578 12.3414 15.5822 12.3611C15.3154 12.3895 14.8533 12.1068 14.6586 11.8142C14.6286 11.87 14.6042 11.9286 14.5858 11.9892C14.5229 12.3447 15.2372 12.8713 15.597 12.8325ZM12.6007 15.2355C12.8872 15.2196 14.4174 14.0099 14.5273 13.8338C14.599 13.7195 14.5744 13.55 14.4978 13.3799C14.3277 13.5981 12.8626 14.752 12.5821 14.7679C12.313 14.7816 11.893 14.3616 11.6994 14.0094C11.6769 14.028 11.6562 14.0487 11.6376 14.0712C11.4692 14.3184 12.2009 15.2563 12.6007 15.2355ZM8.46412 16.968C8.80647 17.0084 10.8687 15.8934 11.035 15.7074C11.1509 15.5789 11.1493 15.3525 11.082 15.1206C11.0685 15.1652 11.0458 15.2064 11.0153 15.2415C10.849 15.428 8.78459 16.5452 8.4417 16.5037C8.11795 16.4654 7.7067 15.8731 7.55303 15.4154C7.35232 15.7124 7.99873 16.9106 8.46412 16.968ZM5.45467 19.5356C5.80795 19.5038 7.43545 17.7845 7.53115 17.5389C7.57162 17.4345 7.54428 17.2917 7.47428 17.1353C7.2249 17.5187 5.76092 19.0466 5.42787 19.0773C5.06092 19.1106 4.4424 18.5189 4.21217 18.0716C4.19084 18.1044 4.17443 18.1306 4.16514 18.1514C4.01092 18.4943 4.96084 19.5799 5.45467 19.5356ZM4.75412 20.8628C4.77162 20.7895 4.74264 20.6796 4.68576 20.5527C4.53756 21.0772 4.03662 22.7009 3.77467 22.6806C3.43232 22.6538 2.96037 22.1677 2.79959 21.8379C2.78217 21.9259 2.77175 22.0151 2.76842 22.1048C2.77279 22.3892 3.38912 23.1023 3.80475 23.1356C4.10334 23.1592 4.70764 21.0602 4.75412 20.8628ZM3.21303 25.8208C2.991 25.8027 2.75529 24.4645 2.66943 23.554C2.69896 24.3688 2.98225 26.2534 3.24639 26.2731C3.48975 26.2917 3.59803 24.3667 3.63576 24.2053C3.64998 24.1435 3.62373 24.0626 3.57725 23.9762C3.52365 24.522 3.41428 25.8356 3.21303 25.8208ZM5.21787 26.2523C5.06857 26.6488 4.566 27.7458 4.21107 27.392C4.05303 27.235 3.95842 26.9266 3.91193 26.5744C3.92342 27.1032 4.02076 27.6217 4.24443 27.8448C4.65131 28.2511 5.25342 26.7423 5.29115 26.5809C5.30701 26.517 5.27584 26.3967 5.21787 26.2523ZM4.43639 23.5999C4.40357 23.7826 4.39482 23.9215 4.41943 23.9751C4.49162 24.1288 5.5274 25.6168 5.69256 25.6551C6.02232 25.7322 7.09146 23.9696 7.04006 23.7038C7.02056 23.6263 6.99173 23.5513 6.9542 23.4807C6.73545 24.0358 5.9392 25.2646 5.66248 25.2006C5.51209 25.1662 4.65295 23.9472 4.43639 23.5999ZM10.4651 19.2873C10.2557 19.3283 9.37795 18.2898 9.05201 17.686C8.99514 17.7309 8.9574 17.7659 8.95303 17.7845C8.87646 18.1137 10.2223 19.8019 10.4887 19.7499C10.9234 19.6657 12.9589 18.3751 12.9851 17.9994C12.9912 17.9141 12.9578 17.7981 12.9009 17.6669C12.5597 18.147 10.8589 19.2102 10.4651 19.2873ZM12.8763 15.8709C12.8287 15.9125 12.7965 15.9475 12.7926 15.965C12.7161 16.2942 13.7163 17.6434 13.9821 17.592C14.4174 17.5077 16.3364 15.994 16.3626 15.6183C16.3697 15.5237 16.3358 15.4154 16.2762 15.3033C15.9312 15.8277 14.3534 17.0495 13.964 17.126C13.7601 17.1654 13.1295 16.3872 12.8763 15.8709ZM16.1215 13.3203C16.0739 13.3881 16.0444 13.4346 16.04 13.4554C15.964 13.7846 16.9631 14.9735 17.2283 14.9227C17.399 14.8899 17.7823 14.5967 18.187 14.2309C18.4495 13.9941 18.7197 13.7272 18.9477 13.4789C19.2654 13.1338 19.5012 12.8259 19.5099 12.6925C19.5165 12.611 19.4782 12.5131 19.4158 12.4098C19.0522 12.9971 17.5964 14.3763 17.2136 14.4513C17.0074 14.4923 16.3687 13.7934 16.1215 13.3203ZM19.9873 11.2996C19.7757 11.3406 18.8569 10.6204 18.5261 10.1572C18.4643 10.2513 18.4233 10.3191 18.4183 10.342C18.3418 10.6702 19.7325 11.8274 19.9983 11.7749C20.4336 11.6906 22.1683 9.69837 22.1956 9.32321C22.2005 9.24829 22.1622 9.1586 22.0999 9.06126C21.7373 9.69892 20.3669 11.2258 19.9873 11.2996ZM23.017 7.95603C22.8076 7.99704 21.8073 7.24563 21.4333 6.76548C21.3545 6.85188 21.3031 6.91532 21.2976 6.93884C21.2216 7.26696 22.7578 8.48813 23.0236 8.43618C23.4583 8.35142 25.4227 6.57517 25.4495 6.20001C25.4555 6.12126 25.4145 6.0261 25.3467 5.92493C24.9387 6.52212 23.3965 7.88274 23.017 7.95603ZM24.8824 4.11095C24.7911 4.17001 24.7309 4.21704 24.7249 4.24329C24.6483 4.57142 26.0062 5.73626 26.272 5.68431C26.7068 5.60009 28.4874 4.14649 28.5137 3.77079C28.5213 3.67618 28.4792 3.5854 28.4065 3.50063C28.0122 4.04313 26.645 5.12759 26.2709 5.20032C26.068 5.2397 25.2362 4.57634 24.8824 4.11095ZM7.56068 22.1327C7.17295 22.0583 6.26022 20.9219 5.97365 20.3641C5.93209 20.4516 5.90857 20.5265 5.91076 20.5806C5.92553 20.9181 7.12975 22.5034 7.58803 22.5909C7.91889 22.6549 9.68639 20.8842 9.66615 20.317C9.66396 20.2542 9.63662 20.1645 9.59342 20.0606C9.31943 20.76 7.85928 22.1901 7.56068 22.1327ZM32.5304 10.0806C32.4987 10.8058 32.3314 11.572 31.9699 11.9362C31.8972 12.01 31.4974 11.3281 31.3787 10.9288C31.3563 11.0347 31.3458 11.1427 31.3476 11.2509C31.3662 11.5813 31.8879 12.5044 31.9726 12.4202C32.4156 11.9734 32.5665 10.9206 32.5304 10.0806ZM29.5062 15.8195C29.3362 15.8704 28.7625 15.008 28.5776 14.4305C28.5623 14.4547 28.5493 14.4804 28.5388 14.507C28.3966 14.9052 29.2946 16.3637 29.5128 16.2981C29.865 16.1931 31.2376 14.5852 31.3552 13.824C31.3705 13.7239 31.3607 13.5806 31.3328 13.4209C31.1419 14.2084 29.8469 15.7162 29.5062 15.8195ZM25.9428 18.1788C25.6907 18.1055 25.4397 17.7259 25.3172 17.3902C25.2772 17.4487 25.2494 17.4979 25.251 17.528C25.2619 17.8747 25.6081 18.5523 25.9537 18.654C26.2403 18.7382 28.4201 17.6636 28.6176 17.3743C28.6597 17.3114 28.6389 17.1408 28.5809 16.927C28.278 17.2513 26.2206 18.2613 25.9428 18.1788ZM23.04 19.961C22.7819 20.0075 22.4368 19.6482 22.2793 19.3097C22.2377 19.3611 22.2109 19.4016 22.2087 19.4251C22.1699 19.7833 22.6976 20.4959 23.0542 20.4335C23.2653 20.3963 24.9497 19.3956 25.0541 19.1254C25.0935 19.0231 25.0694 18.87 25.0093 18.7032C24.7572 19.0286 23.2396 19.926 23.04 19.961ZM20.9476 22.9049C20.7508 23.0394 20.1153 22.6035 19.8747 22.2191C19.8298 22.3033 19.8008 22.3711 19.7981 22.4127C19.7779 22.8113 20.719 23.5409 20.9657 23.3724C21.1926 23.2171 22.2924 21.3085 22.2525 21.1133C22.2335 21.0401 22.199 20.9718 22.1513 20.9131C21.8921 21.4961 21.1325 22.778 20.9476 22.9049ZM20.6261 24.3765C20.4369 25.1252 19.8101 26.7806 19.6198 26.9665C19.3967 27.1847 18.4118 26.7089 18.1197 26.2681C18.0793 26.3879 18.0558 26.4847 18.0618 26.5366C18.1203 27.0124 19.3858 27.6807 19.6422 27.4308C19.8785 27.2006 20.7819 24.715 20.6944 24.4919C20.6767 24.4506 20.6537 24.4118 20.6261 24.3765ZM16.8483 30.3631C16.5694 30.4884 15.8032 29.8912 15.5445 29.3984C15.5159 29.4406 15.496 29.488 15.486 29.5379C15.4417 30.0295 16.5305 30.9762 16.8751 30.8225C17.1917 30.6825 19.0932 28.9298 19.0472 28.6766C19.0235 28.5824 18.9823 28.4936 18.9258 28.4146C18.5425 28.9495 17.119 30.2428 16.8483 30.3631ZM12.879 31.7604C12.6625 31.7566 12.1982 31.4017 11.9729 31.0489C11.9094 31.097 11.8717 31.143 11.875 31.1824C11.9083 31.5963 12.6242 32.2121 12.9097 32.2159C13.3116 32.222 15.7605 31.5991 15.6845 31.377C15.6544 31.2912 15.5795 31.1845 15.4783 31.0713C14.9194 31.3448 13.2094 31.7653 12.879 31.7604ZM9.21498 31.5417C8.93006 31.5952 8.72334 31.6592 8.72881 31.7396C8.75561 32.0787 11.8925 32.4517 11.8301 32.2712C11.7924 32.1613 11.6896 32.0103 11.5627 31.8632C11.0656 31.8654 9.89748 31.7232 9.21498 31.5417ZM9.94014 30.7104C9.94396 30.6295 9.87287 30.5239 9.76021 30.4134C9.2817 30.6667 7.75701 30.7372 7.20686 30.3577C7.08107 30.4906 7.03404 30.6256 7.15271 30.7432C7.6892 31.2786 9.92264 31.0959 9.94014 30.7104ZM11.0339 30.5693C11.2827 30.6858 13.3975 30.0799 13.3625 29.5882C13.3581 29.527 13.3072 29.44 13.229 29.3432C12.8074 29.7785 11.2176 30.2138 11.0038 30.1138C10.8802 30.0569 9.90021 29.3848 9.49443 29.0331C9.39162 29.1409 9.3342 29.2344 9.34896 29.2995C9.3867 29.4652 10.8802 30.4982 11.0339 30.5693ZM18.8706 23.4326C18.8963 23.3784 18.8438 23.2789 18.7459 23.1592C18.4069 23.7629 17.3623 25.5539 17.219 25.5867C16.9467 25.6496 15.7381 24.7396 15.3613 24.2753C15.3228 24.3531 15.2926 24.4346 15.2711 24.5187C15.2186 24.7834 16.9133 26.1254 17.242 26.0494C17.4083 26.0111 18.7984 23.5857 18.8706 23.4326ZM19.0658 22.2213C19.2321 22.1841 20.5982 20.0677 20.6704 19.9129C20.7015 19.8478 20.66 19.7237 20.5752 19.5799C20.2673 20.0808 19.1938 21.7209 19.0478 21.7548C18.7842 21.8155 17.8644 21.1888 17.5346 20.8005C17.4906 20.8737 17.4569 20.9526 17.4345 21.0351C17.3831 21.3003 18.7366 22.2973 19.0658 22.2213ZM23.758 17.1583C23.7876 17.0965 23.7438 16.9598 23.6541 16.7897C23.2587 17.1873 21.7165 18.4779 21.5689 18.5113C21.3091 18.5709 20.5167 17.9688 20.2154 17.5805C20.159 17.6702 20.1219 17.7456 20.112 17.7987C20.0601 18.0634 21.2544 19.0592 21.5831 18.9832C21.7499 18.9455 23.6858 17.312 23.758 17.1583ZM24.7069 16.612C24.8726 16.5731 27.1503 14.8811 27.2225 14.728C27.2504 14.6689 27.2066 14.5273 27.1197 14.349C26.68 14.746 24.8452 16.1023 24.6965 16.1367C24.4351 16.1969 23.653 15.3383 23.3659 14.8488C23.3145 14.9243 23.279 14.9894 23.2697 15.0375C23.2177 15.3017 24.3771 16.6874 24.7069 16.612ZM28.1194 13.7409C28.2862 13.702 30.25 11.5977 30.3222 11.4434C30.349 11.3855 30.309 11.2504 30.2276 11.0803C29.8316 11.5572 28.2615 13.2263 28.1139 13.2602C27.8481 13.322 27.0004 12.3392 26.7101 11.8164C26.6693 11.8795 26.6382 11.9482 26.6176 12.0204C26.5651 12.2851 27.7901 13.8169 28.1194 13.7409ZM29.4712 8.55868C29.422 8.65001 29.3892 8.72657 29.3777 8.78126C29.3263 9.04595 30.4939 10.3995 30.8237 10.324C30.9899 10.2852 31.9956 8.15563 32.0678 8.00196C32.1022 7.92649 32.0908 7.76134 32.0443 7.56665C31.872 7.93032 30.9779 9.80392 30.822 9.83946C30.5568 9.90071 29.749 9.03665 29.4712 8.55868ZM16.7624 26.8462C16.7586 26.7915 16.7187 26.7209 16.6574 26.64C16.2954 27.3132 14.8172 28.6405 14.4114 28.6235C14.1194 28.6115 12.8944 27.7157 12.5088 27.1765C12.447 27.2788 12.412 27.3619 12.4219 27.4117C12.5104 27.8688 14.0997 29.0681 14.4382 29.0834C14.9052 29.1031 16.7969 27.3367 16.7624 26.8462ZM7.69467 28.9757C7.68154 28.9074 7.6367 28.8171 7.57162 28.7154C7.28232 29.0588 6.39803 29.5926 6.12951 29.5313C5.98295 29.4969 5.26053 28.7548 5.04232 28.4731C4.99912 28.641 4.98654 28.7777 5.01607 28.8395C5.08826 28.9938 5.99717 29.9448 6.16342 29.9825C6.49264 30.0602 7.74607 29.2409 7.69467 28.9757ZM8.38045 28.5951C8.82178 28.6886 10.2972 27.538 10.2251 26.9539C10.2111 26.8816 10.1866 26.8118 10.1523 26.7467C9.90514 27.3564 8.73428 28.2216 8.34928 28.1395C8.14857 28.0974 6.76061 26.6788 6.42209 26.249C6.3674 26.4049 6.34771 26.5312 6.37889 26.599C6.4724 26.8046 8.15842 28.5475 8.38045 28.5951ZM15.871 21.1499C15.8514 21.1136 15.8286 21.0792 15.8026 21.0471C15.5576 21.7351 14.6383 23.0137 14.0237 23.0038C13.4959 22.9956 11.8569 21.442 11.5108 20.6506C11.4779 20.7381 11.4594 20.8218 11.467 20.894C11.5261 21.565 13.4647 23.4572 14.0466 23.4665C14.8062 23.4796 16.0312 21.5229 15.871 21.1499ZM18.5119 17.8643C18.5042 17.8359 18.4637 17.7768 18.4052 17.7002C18.0973 18.316 17.1135 19.552 16.5929 19.6389C16.1772 19.7078 15.1529 18.788 14.8779 18.1645C14.8522 18.2156 14.8348 18.2704 14.8265 18.327C14.7734 18.8848 16.1209 20.1874 16.6109 20.1054C17.2513 19.9993 18.5901 18.1563 18.5119 17.8643ZM19.5318 17.1933C20.2269 17.032 21.798 14.9577 21.7351 14.6509C21.7286 14.6192 21.687 14.5541 21.6236 14.4704C21.2736 15.1365 20.0951 16.5874 19.517 16.7213C19.0702 16.8247 18.0508 15.9273 17.7911 15.2787C17.7692 15.3274 17.7539 15.3727 17.7468 15.4132C17.6494 16.0164 19.0008 17.3158 19.5318 17.1933ZM24.884 11.9854C24.8939 11.8963 24.8704 11.7891 24.8244 11.6737C24.5089 12.383 22.8398 13.7863 22.4138 13.7967C22.2142 13.8005 21.1598 12.7171 20.8251 12.2741C20.7546 12.4163 20.7174 12.5279 20.7316 12.5842C20.7808 12.7866 22.1907 14.2774 22.4237 14.2719C22.8869 14.2609 24.8124 12.6105 24.884 11.9854ZM28.1002 8.71509C28.1029 8.61584 28.0848 8.51712 28.0472 8.42524C27.7551 9.20673 26.2086 10.8747 25.7645 10.8643C25.5534 10.8605 24.1485 9.41345 23.7269 8.87806C23.6415 9.01368 23.5962 9.12142 23.6131 9.18048C23.6749 9.39431 25.5261 11.3395 25.7694 11.3445C26.2551 11.3559 28.0548 9.36642 28.1002 8.71509ZM27.1038 6.18579C27.0103 6.3154 26.9583 6.41493 26.9682 6.4647C27.0004 6.62821 28.2976 8.00907 28.489 7.99321C28.868 7.96368 30.4408 6.25962 30.5278 5.74446C30.5442 5.64657 30.5223 5.53337 30.4731 5.41579C30.1789 6.05345 28.8352 7.48134 28.4879 7.50868C28.3321 7.52181 27.4478 6.61509 27.1038 6.18579ZM11.3287 25.9351C10.8518 25.9209 9.02631 24.0188 8.60467 23.3079C8.55764 23.4162 8.53248 23.5081 8.54232 23.5699C8.61068 24.0106 10.825 26.377 11.356 26.3934C11.8728 26.4092 13.421 24.9442 13.334 24.2606C13.3226 24.1955 13.3026 24.1322 13.2744 24.0724C13.0409 24.8113 11.7842 25.9488 11.3287 25.9351Z" fill="#AEAEAE"/>
</svg>
