<svg width="40" height="40" viewBox="0 0 40 40" fill="none" xmlns="http://www.w3.org/2000/svg">
<path d="M37.8852 9.0525C36.734 6.13875 33.4221 1.25 24.1684 1.25C19.1259 1.25 16.709 4.06125 14.1502 7.03687C12.7327 8.68625 11.2671 10.3912 9.26148 11.7056C2.32461 16.25 -0.124769 21.8125 1.98086 28.24C4.07273 34.6244 8.94586 38.75 14.3971 38.75C16.3521 38.75 18.344 38.2344 20.319 37.2156C25.8015 34.39 28.9659 30.1363 31.7584 26.3831C33.0977 24.5838 34.3615 22.8837 35.7084 21.6206C38.6796 18.8362 39.6159 13.4325 37.8852 9.0525ZM3.13523 27.8612C1.19523 21.9387 3.41648 16.9875 9.92711 12.7219C12.0759 11.3131 13.599 9.54187 15.0715 7.82938C17.5465 4.95125 19.6834 2.465 24.1684 2.465C32.7034 2.465 35.7177 6.87187 36.7559 9.49875C36.8202 9.65938 36.8734 9.825 36.9284 9.99C37.0727 12.4625 36.8384 15.5981 35.6434 17.3731C34.9677 18.3775 33.7996 19.8462 33.1496 20.6869C34.7877 16.9831 33.9896 14.8088 33.9896 14.8088C32.1252 23.4937 26.7059 24.0325 23.1802 30.6931C23.1802 30.6931 26.3552 28.8319 28.3977 26.655C28.3977 26.655 25.5609 33.6256 18.7502 34.5037C13.8621 35.1331 12.5296 36.4669 11.3834 37.0381C7.73461 35.8375 4.65523 32.5025 3.13523 27.8612Z" fill="#AEAEAE"/>
<path d="M14.7644 32.7426C13.2994 33.0007 11.8637 31.7932 12.0175 32.6638C12.17 33.5357 13.4812 34.0319 14.9462 33.7732C16.4087 33.5169 17.4706 32.5994 17.3175 31.7288C17.1625 30.8576 16.2262 32.4838 14.7644 32.7426ZM6.52 29.2476C5.70938 27.8694 6.11312 25.9201 5.45937 26.4326C4.80688 26.9451 4.93688 28.4763 5.7475 29.8551C6.55938 31.2326 7.74437 31.9344 8.3975 31.4226C9.05 30.9101 7.3325 30.6244 6.52 29.2476ZM5.9375 23.4726C6.735 23.4626 5.46625 22.1438 5.505 20.4982C5.5425 18.8501 6.87063 17.5013 6.07063 17.5113C5.27438 17.5188 4.59813 18.8601 4.55875 20.5088C4.52125 22.1544 5.13875 23.4819 5.9375 23.4726ZM20.6819 27.5388C19.1619 27.7307 17.7306 26.4138 17.8519 27.3232C17.9744 28.2238 19.3069 28.8007 20.8262 28.6094C22.345 28.4169 23.4775 27.5269 23.3537 26.6194C23.2312 25.7157 22.2 27.3451 20.6819 27.5388ZM28.4169 14.6644C29.2137 14.6994 30.015 13.4051 30.205 11.7707C30.3931 10.1401 29.8937 8.78882 29.0931 8.75319C28.2925 8.71882 29.4437 10.0982 29.255 11.7301C29.0687 13.3619 27.6137 14.6269 28.4169 14.6644ZM19.51 5.58506C20.4881 4.84631 21.9237 4.99444 21.5294 4.53256C21.1375 4.07631 20.0237 4.30256 19.0412 5.04069C18.0625 5.77944 17.5887 6.74881 17.9831 7.20819C18.3775 7.66632 18.53 6.32194 19.51 5.58506ZM14.5031 12.2569C16.1081 11.6407 17.9894 12.3982 17.6344 11.6219C17.2794 10.8526 15.69 10.7251 14.0787 11.3407C12.4737 11.9551 11.4619 13.0819 11.8187 13.8551C12.175 14.6282 12.8956 12.8719 14.5031 12.2569ZM14.8694 25.3438C16.5087 23.9969 17.2812 22.1276 16.5944 21.1757C15.9094 20.2194 15.6969 22.8663 14.0587 24.2138C12.4187 25.5626 9.97812 25.1038 10.6644 26.0607C11.3469 27.0119 13.23 26.6913 14.8694 25.3438ZM25.5787 7.90757C26.8469 6.43382 27.2531 4.62444 26.4844 3.87444C25.7175 3.12069 25.9387 5.54256 24.6719 7.01756C23.4025 8.49444 21.1287 8.46757 21.8981 9.22007C22.6612 9.97132 24.31 9.38382 25.5787 7.90757ZM25.5069 21.1776C24.1462 22.3782 22.0562 22.0644 22.6631 22.8544C23.2706 23.6463 24.865 23.3144 26.225 22.1163C27.5862 20.9176 28.1956 19.3032 27.5894 18.5126C26.9819 17.7213 26.8662 19.9794 25.5069 21.1776ZM11.6506 19.4613C13.1631 19.1601 14.2956 18.2269 14.1812 17.3819C14.0662 16.5357 13.0269 18.1563 11.515 18.4594C10.0025 18.7626 8.58875 17.6338 8.70375 18.4782C8.81937 19.3238 10.1387 19.7638 11.6506 19.4613ZM32.3106 13.5594C33.0931 13.9119 34.1637 13.0226 34.7012 11.5732C35.2387 10.1226 35.04 8.66194 34.2575 8.31069C33.4737 7.95819 34.3106 9.70444 33.7744 11.1544C33.2362 12.6051 31.5287 13.2082 32.3106 13.5594ZM20.9325 17.2844C22.7312 16.7126 24.0431 15.5194 23.8581 14.6232C23.6756 13.7276 22.5162 15.6501 20.7169 16.2263C18.9156 16.8001 17.1619 15.8101 17.3456 16.7063C17.5275 17.6001 19.1344 17.8594 20.9325 17.2844Z" fill="#AEAEAE"/>
</svg>
