<svg width="51" height="51" viewBox="0 0 51 51" fill="none" xmlns="http://www.w3.org/2000/svg">
<g clip-path="url(#clip0_50_443)">
<path d="M21.4559 9.5625H9.5625V27.2332L0.0199219 20.1709C0.179297 18.368 1.10566 16.6945 2.57988 15.6088L4.78125 13.9752V9.5625C4.78125 6.92285 6.92285 4.78125 9.5625 4.78125H17.1926L22.1631 1.10566C23.1293 0.388477 24.2947 0 25.5 0C26.7053 0 27.8707 0.388477 28.8369 1.0957L33.8074 4.78125H41.4375C44.0771 4.78125 46.2188 6.92285 46.2188 9.5625V13.9752L48.4201 15.6088C49.8943 16.6945 50.8207 18.368 50.9801 20.1709L41.4375 27.2332V9.5625H21.4559ZM0 44.625V24.1154L21.675 40.1725C22.7807 40.9893 24.1254 41.4375 25.5 41.4375C26.8746 41.4375 28.2193 40.9992 29.325 40.1725L51 24.1154V44.625C51 48.1412 48.1412 51 44.625 51H6.375C2.85879 51 0 48.1412 0 44.625ZM17.5312 15.9375H33.4688C34.3453 15.9375 35.0625 16.6547 35.0625 17.5312C35.0625 18.4078 34.3453 19.125 33.4688 19.125H17.5312C16.6547 19.125 15.9375 18.4078 15.9375 17.5312C15.9375 16.6547 16.6547 15.9375 17.5312 15.9375ZM17.5312 22.3125H33.4688C34.3453 22.3125 35.0625 23.0297 35.0625 23.9062C35.0625 24.7828 34.3453 25.5 33.4688 25.5H17.5312C16.6547 25.5 15.9375 24.7828 15.9375 23.9062C15.9375 23.0297 16.6547 22.3125 17.5312 22.3125Z" fill="#A8B324"/>
</g>
<defs>
<clipPath id="clip0_50_443">
<rect width="51" height="51" fill="white"/>
</clipPath>
</defs>
</svg>
