<svg width="27" height="22" viewBox="0 0 27 22" fill="none" xmlns="http://www.w3.org/2000/svg">
<g clip-path="url(#clip0_50_2205)">
<path d="M4.725 0C3.60703 0 2.7 0.919289 2.7 2.05237V4.10473H0.675C0.30375 4.10473 0 4.41259 0 4.78885C0 5.16512 0.30375 5.47297 0.675 5.47297H11.475C11.8463 5.47297 12.15 5.78083 12.15 6.1571C12.15 6.53336 11.8463 6.84122 11.475 6.84122H2.025C1.65375 6.84122 1.35 7.14907 1.35 7.52534C1.35 7.90161 1.65375 8.20946 2.025 8.20946H10.125C10.4963 8.20946 10.8 8.51732 10.8 8.89358C10.8 9.26985 10.4963 9.57771 10.125 9.57771H0.675C0.30375 9.57771 0 9.88556 0 10.2618C0 10.6381 0.30375 10.9459 0.675 10.9459H8.775C9.14625 10.9459 9.45 11.2538 9.45 11.6301C9.45 12.0063 9.14625 12.3142 8.775 12.3142H2.7V17.7872C2.7 20.0533 4.51406 21.8919 6.75 21.8919C8.98594 21.8919 10.8 20.0533 10.8 17.7872H16.2C16.2 20.0533 18.0141 21.8919 20.25 21.8919C22.4859 21.8919 24.3 20.0533 24.3 17.7872H25.65C26.3967 17.7872 27 17.1757 27 16.4189C27 15.6621 26.3967 15.0507 25.65 15.0507V10.1464C25.65 9.4195 25.3673 8.72255 24.8611 8.20946L21.6 4.9043C21.0938 4.39121 20.4061 4.10473 19.6889 4.10473H17.55V2.05237C17.55 0.919289 16.643 0 15.525 0H4.725ZM22.95 10.1464V10.9459H17.55V6.84122H19.6889L22.95 10.1464ZM6.75 15.7348C7.28706 15.7348 7.80213 15.951 8.18189 16.3359C8.56165 16.7208 8.775 17.2428 8.775 17.7872C8.775 18.3315 8.56165 18.8535 8.18189 19.2384C7.80213 19.6233 7.28706 19.8395 6.75 19.8395C6.21294 19.8395 5.69787 19.6233 5.31811 19.2384C4.93835 18.8535 4.725 18.3315 4.725 17.7872C4.725 17.2428 4.93835 16.7208 5.31811 16.3359C5.69787 15.951 6.21294 15.7348 6.75 15.7348ZM18.225 17.7872C18.225 17.2428 18.4383 16.7208 18.8181 16.3359C19.1979 15.951 19.7129 15.7348 20.25 15.7348C20.7871 15.7348 21.3021 15.951 21.6819 16.3359C22.0617 16.7208 22.275 17.2428 22.275 17.7872C22.275 18.3315 22.0617 18.8535 21.6819 19.2384C21.3021 19.6233 20.7871 19.8395 20.25 19.8395C19.7129 19.8395 19.1979 19.6233 18.8181 19.2384C18.4383 18.8535 18.225 18.3315 18.225 17.7872Z" fill="white"/>
</g>
<defs>
<clipPath id="clip0_50_2205">
<rect width="27" height="21.8919" fill="white"/>
</clipPath>
</defs>
</svg>
