<svg width="30" height="25" viewBox="0 0 30 25" fill="none" xmlns="http://www.w3.org/2000/svg">
<g clip-path="url(#clip0_204_451)">
<path d="M5.25 0.646851C4.00781 0.646851 3 1.65466 3 2.89685V5.14685H0.75C0.3375 5.14685 0 5.48435 0 5.89685C0 6.30935 0.3375 6.64685 0.75 6.64685H12.75C13.1625 6.64685 13.5 6.98435 13.5 7.39685C13.5 7.80935 13.1625 8.14685 12.75 8.14685H2.25C1.8375 8.14685 1.5 8.48435 1.5 8.89685C1.5 9.30935 1.8375 9.64685 2.25 9.64685H11.25C11.6625 9.64685 12 9.98435 12 10.3968C12 10.8094 11.6625 11.1468 11.25 11.1468H0.75C0.3375 11.1468 0 11.4843 0 11.8968C0 12.3094 0.3375 12.6468 0.75 12.6468H9.75C10.1625 12.6468 10.5 12.9843 10.5 13.3968C10.5 13.8094 10.1625 14.1468 9.75 14.1468H3V20.1468C3 22.6312 5.01562 24.6468 7.5 24.6468C9.98438 24.6468 12 22.6312 12 20.1468H18C18 22.6312 20.0156 24.6468 22.5 24.6468C24.9844 24.6468 27 22.6312 27 20.1468H28.5C29.3297 20.1468 30 19.4765 30 18.6468C30 17.8172 29.3297 17.1468 28.5 17.1468V11.7703C28.5 10.9734 28.1859 10.2093 27.6234 9.64685L24 6.02341C23.4375 5.46091 22.6734 5.14685 21.8766 5.14685H19.5V2.89685C19.5 1.65466 18.4922 0.646851 17.25 0.646851H5.25ZM25.5 11.7703V12.6468H19.5V8.14685H21.8766L25.5 11.7703ZM7.5 17.8968C8.09674 17.8968 8.66903 18.1339 9.09099 18.5559C9.51295 18.9778 9.75 19.5501 9.75 20.1468C9.75 20.7436 9.51295 21.3159 9.09099 21.7378C8.66903 22.1598 8.09674 22.3968 7.5 22.3968C6.90326 22.3968 6.33097 22.1598 5.90901 21.7378C5.48705 21.3159 5.25 20.7436 5.25 20.1468C5.25 19.5501 5.48705 18.9778 5.90901 18.5559C6.33097 18.1339 6.90326 17.8968 7.5 17.8968ZM20.25 20.1468C20.25 19.5501 20.4871 18.9778 20.909 18.5559C21.331 18.1339 21.9033 17.8968 22.5 17.8968C23.0967 17.8968 23.669 18.1339 24.091 18.5559C24.5129 18.9778 24.75 19.5501 24.75 20.1468C24.75 20.7436 24.5129 21.3159 24.091 21.7378C23.669 22.1598 23.0967 22.3968 22.5 22.3968C21.9033 22.3968 21.331 22.1598 20.909 21.7378C20.4871 21.3159 20.25 20.7436 20.25 20.1468Z" fill="#B9B9B9"/>
</g>
<defs>
<clipPath id="clip0_204_451">
<rect width="30" height="24" fill="white" transform="translate(0 0.646851)"/>
</clipPath>
</defs>
</svg>
