<svg width="30" height="25" viewBox="0 0 30 25" fill="none" xmlns="http://www.w3.org/2000/svg">
<g clip-path="url(#clip0_84_468)">
<path d="M5.25 0.649902C4.00781 0.649902 3 1.65771 3 2.8999V5.1499H0.75C0.3375 5.1499 0 5.4874 0 5.8999C0 6.3124 0.3375 6.6499 0.75 6.6499H12.75C13.1625 6.6499 13.5 6.9874 13.5 7.3999C13.5 7.8124 13.1625 8.1499 12.75 8.1499H2.25C1.8375 8.1499 1.5 8.4874 1.5 8.8999C1.5 9.3124 1.8375 9.6499 2.25 9.6499H11.25C11.6625 9.6499 12 9.9874 12 10.3999C12 10.8124 11.6625 11.1499 11.25 11.1499H0.75C0.3375 11.1499 0 11.4874 0 11.8999C0 12.3124 0.3375 12.6499 0.75 12.6499H9.75C10.1625 12.6499 10.5 12.9874 10.5 13.3999C10.5 13.8124 10.1625 14.1499 9.75 14.1499H3V20.1499C3 22.6343 5.01562 24.6499 7.5 24.6499C9.98438 24.6499 12 22.6343 12 20.1499H18C18 22.6343 20.0156 24.6499 22.5 24.6499C24.9844 24.6499 27 22.6343 27 20.1499H28.5C29.3297 20.1499 30 19.4796 30 18.6499C30 17.8202 29.3297 17.1499 28.5 17.1499V11.7733C28.5 10.9765 28.1859 10.2124 27.6234 9.6499L24 6.02646C23.4375 5.46396 22.6734 5.1499 21.8766 5.1499H19.5V2.8999C19.5 1.65771 18.4922 0.649902 17.25 0.649902H5.25ZM25.5 11.7733V12.6499H19.5V8.1499H21.8766L25.5 11.7733ZM7.5 17.8999C8.09674 17.8999 8.66903 18.137 9.09099 18.5589C9.51295 18.9809 9.75 19.5532 9.75 20.1499C9.75 20.7466 9.51295 21.3189 9.09099 21.7409C8.66903 22.1628 8.09674 22.3999 7.5 22.3999C6.90326 22.3999 6.33097 22.1628 5.90901 21.7409C5.48705 21.3189 5.25 20.7466 5.25 20.1499C5.25 19.5532 5.48705 18.9809 5.90901 18.5589C6.33097 18.137 6.90326 17.8999 7.5 17.8999ZM20.25 20.1499C20.25 19.5532 20.4871 18.9809 20.909 18.5589C21.331 18.137 21.9033 17.8999 22.5 17.8999C23.0967 17.8999 23.669 18.137 24.091 18.5589C24.5129 18.9809 24.75 19.5532 24.75 20.1499C24.75 20.7466 24.5129 21.3189 24.091 21.7409C23.669 22.1628 23.0967 22.3999 22.5 22.3999C21.9033 22.3999 21.331 22.1628 20.909 21.7409C20.4871 21.3189 20.25 20.7466 20.25 20.1499Z" fill="black"/>
</g>
<defs>
<clipPath id="clip0_84_468">
<rect width="30" height="24" fill="white" transform="translate(0 0.649902)"/>
</clipPath>
</defs>
</svg>
