<svg width="60" height="61" viewBox="0 0 60 61" fill="none" xmlns="http://www.w3.org/2000/svg">
<rect x="0.5" y="0.5" width="59" height="59" rx="9.5" fill="white" stroke="#EEEEEE"/>
<g clip-path="url(#clip0_113_873)">
<path d="M25.6401 25.6716C22.4538 28.3722 20.7924 32.8052 19.6834 35.2578C18.892 35.0298 18.0879 34.8488 17.2751 34.7157C13.7179 34.1266 10.4864 35.4599 10.4864 35.4599C10.4864 35.4599 13.1564 38.7352 16.3209 39.6783C15.1964 42.7835 16.2402 46.8782 16.2402 46.8782C16.2402 46.8782 19.2346 45.0743 20.8776 41.8647C21.251 41.1385 21.5813 40.3909 21.8666 39.6258C24.4948 40.1971 29.0642 41.4992 33.1356 40.546L34.0094 45.1273C36.5888 43.2294 38.3692 39.7461 39.0443 38.2635C48.0821 33.1936 48.5237 25.5284 47.6949 23.8836C46.9021 22.3104 40.4425 18.0331 31.0189 22.268C29.4539 21.9367 25.5634 21.2913 22.4779 22.2435L25.6401 25.6716Z" stroke="#AEAEAE" stroke-width="1.5" stroke-linejoin="round"/>
<path d="M41.9736 26.7658C42.6055 26.4473 42.8597 25.6769 42.5412 25.045C42.2228 24.4131 41.4524 24.1589 40.8205 24.4774C40.1885 24.7958 39.9344 25.5662 40.2528 26.1981C40.5713 26.8301 41.3417 27.0842 41.9736 26.7658Z" fill="#AEAEAE"/>
<path d="M42.8869 35.2738C40.5314 33.7367 38.6242 31.6043 37.3585 29.0926C36.0928 26.5809 35.5136 23.7792 35.6797 20.9715" stroke="#AEAEAE" stroke-width="1.5" stroke-miterlimit="20" stroke-linecap="round"/>
</g>
<defs>
<clipPath id="clip0_113_873">
<rect width="41" height="41" fill="white" transform="translate(3 23.4504) rotate(-26.7443)"/>
</clipPath>
</defs>
</svg>
