<svg width="35" height="35" viewBox="0 0 35 35" fill="none" xmlns="http://www.w3.org/2000/svg">
<path d="M11.0071 1.61043C8.71148 1.61159 6.82544 1.83929 4.94973 2.22026C3.78735 1.74591 2.64534 1.43447 2.12854 2.30092C1.59841 3.18959 2.10817 4.02713 2.96546 4.85175C1.1592 12.0598 1.59664 22.1465 2.54827 28.7272C1.84915 29.4325 1.39573 30.1621 1.85291 30.8596C2.45954 31.7851 3.5338 31.6153 4.74739 31.1327C7.99596 31.6978 11.6074 31.8182 15.2997 31.666C16.1832 28.4261 17.8098 25.1662 19.3569 22.7622C20.4584 21.2037 21.5063 19.7055 22.7773 18.5257C21.9591 13.3021 20.7634 8.35804 18.9436 4.36353C19.4727 3.71125 19.6974 3.04597 19.2818 2.34918C18.8268 1.5865 17.8871 1.73805 16.8758 2.10835C14.8836 1.76205 12.8994 1.6094 11.0071 1.61043ZM9.88904 6.43291C11.0105 7.69878 11.7112 8.95708 11.969 10.0107L11.0376 12.0603L9.30634 10.4748C9.16347 9.42329 9.35693 8.02684 9.88904 6.43291ZM13.9768 9.22402C14.122 10.3566 14.131 11.384 14.0262 12.2599L12.1392 14.8439L11.7334 12.838L12.9753 10.105C13.2789 9.81027 13.6124 9.51571 13.9768 9.22402ZM8.23153 10.8789L10.824 13.1599L11.2195 15.1151L8.50633 13.4987C8.04306 12.717 7.09909 11.0615 7.13101 10.542C8.17124 10.8387 8.05844 10.8141 8.23153 10.8789ZM15.3908 13.0487C15.4839 14.6122 15.2649 15.8462 14.8501 16.7185L12.8247 18.2339L12.3956 16.112L14.0961 13.7837C14.4886 13.5328 14.9205 13.2868 15.3908 13.0487V13.0487ZM7.72157 14.6185C8.05947 14.6435 8.38411 14.6785 8.69418 14.7224L11.4752 16.3793L11.892 18.4399L9.77125 17.9301C9.01014 17.3046 8.2789 16.2069 7.72157 14.6185ZM16.2011 17.4138C15.7312 20.0427 14.6616 21.5199 13.5516 21.8269L13.0343 19.2698L15.0814 17.738C15.45 17.6146 15.8236 17.5065 16.2011 17.4138ZM23.1358 19.8951C23.3726 19.8045 23.6807 19.7543 24.0005 19.7541C24.713 19.7541 25.2905 19.9972 25.2905 20.2972C25.2907 20.5972 24.7131 20.8405 24.0006 20.8405C23.3309 20.8403 22.7729 20.6244 22.716 20.3434C21.9419 21.205 21.1418 22.2764 20.3881 23.4339C20.0982 23.8788 19.8164 24.3377 19.544 24.8021C20.1711 24.8437 20.6333 25.0712 20.6336 25.3384C20.6336 25.6384 20.0559 25.8816 19.3434 25.8816C19.2116 25.8815 19.0799 25.8726 18.9493 25.855C17.8993 27.7878 17.0653 29.7318 16.6793 31.1821C17.7611 31.455 18.8695 31.669 19.9911 31.8301L19.991 31.8314C19.991 32.1314 20.5686 32.3745 21.281 32.3745C21.5382 32.3744 21.7893 32.3419 22.0022 32.2812C21.9969 32.3005 21.9942 32.3205 21.994 32.3406C21.994 32.6406 22.5716 32.8837 23.2839 32.8837C23.9964 32.8837 24.5739 32.6406 24.574 32.3406C24.5735 32.2918 24.5575 32.2434 24.5261 32.1964C25.4314 32.2154 26.3371 32.204 27.2416 32.1623C27.23 32.1908 27.2239 32.2212 27.2236 32.2519C27.2236 32.5519 27.8012 32.7951 28.5135 32.7951C29.226 32.7951 29.8036 32.5519 29.8036 32.252C29.8032 32.1571 29.7437 32.0639 29.6312 31.9817C30.1502 31.9273 30.6681 31.8626 31.1846 31.7879C31.4113 31.9612 31.8442 32.069 32.3143 32.069C33.027 32.069 33.6046 31.8258 33.6045 31.5258C33.6041 31.4308 33.5446 31.3377 33.432 31.2554C33.4355 30.4801 33.1978 29.3985 32.7459 28.2153C32.2767 26.987 31.6014 25.6457 30.8389 24.358C30.689 24.3815 30.5376 24.3933 30.386 24.3933C29.6735 24.3933 29.0959 24.15 29.096 23.8501C29.0967 23.5815 29.5633 23.3536 30.1939 23.3136C29.2788 21.8916 28.2906 20.5956 27.4221 19.6709C26.9626 19.1816 26.5345 18.7966 26.1919 18.558C25.8493 18.3194 25.5905 18.2695 25.0671 18.4434C24.5438 18.6173 23.7448 19.2707 23.1358 19.8951ZM9.63918 18.8806L12.1008 19.4722L12.6114 21.9963C11.4966 22.0173 10.031 21.0836 8.63341 19.0251C8.98088 18.9622 9.31612 18.9148 9.63918 18.8806ZM13.772 22.6914C13.9714 23.9183 14.2166 25.118 14.5244 26.2872L13.6058 26.5481C13.2865 25.3383 13.0336 24.1026 12.8292 22.8448L13.772 22.6914ZM22.7524 27.6278C23.4649 27.6278 24.0424 27.8711 24.0423 28.1711C24.0423 28.4711 23.4647 28.7142 22.7524 28.7142C22.6757 28.7141 22.5991 28.7111 22.5227 28.7051C22.6061 28.7781 22.6496 28.8581 22.65 28.9392C22.65 29.2392 22.0724 29.4823 21.3599 29.4823C20.6475 29.4823 20.0699 29.2392 20.0699 28.9392C20.0699 28.6392 20.6475 28.3961 21.3599 28.3961C21.4369 28.3962 21.5138 28.3992 21.5896 28.4051C21.5062 28.3321 21.4626 28.2521 21.4621 28.1711C21.462 27.871 22.0398 27.6278 22.7524 27.6278ZM29.1378 28.684C29.8503 28.684 30.4279 28.9273 30.4277 29.2273C30.4277 29.5273 29.8502 29.7705 29.1378 29.7705C28.4253 29.7705 27.8477 29.5273 27.8477 29.2273C27.8475 28.9272 28.4252 28.684 29.1378 28.684ZM14.8647 32.4084C14.1521 32.4084 13.5746 32.6517 13.5747 32.9517C13.5747 33.2517 14.1523 33.4948 14.8646 33.4948C14.9611 33.4947 15.0576 33.4899 15.1536 33.4805C15.2553 33.7432 15.7941 33.9361 16.4263 33.9362C17.1389 33.9362 17.7165 33.693 17.7165 33.393C17.7164 33.093 17.1388 32.8498 16.4263 32.8498C16.3299 32.85 16.2335 32.8548 16.1375 32.8642C16.0358 32.6015 15.497 32.4085 14.8646 32.4084H14.8647Z" fill="#AEAEAE"/>
</svg>
