<svg width="300" height="300" viewBox="0 0 300 300" fill="none" xmlns="http://www.w3.org/2000/svg">
<circle cx="150" cy="150" r="150" fill="#C4C4C4"/>
<path d="M150 45C163.924 45 177.277 50.5312 187.123 60.3769C196.969 70.2226 202.5 83.5761 202.5 97.5C202.5 111.424 196.969 124.777 187.123 134.623C177.277 144.469 163.924 150 150 150C136.076 150 122.723 144.469 112.877 134.623C103.031 124.777 97.5 111.424 97.5 97.5C97.5 83.5761 103.031 70.2226 112.877 60.3769C122.723 50.5312 136.076 45 150 45ZM150 255C150 255 255 255 255 228.75C255 197.25 203.812 163.125 150 163.125C96.1875 163.125 45 197.25 45 228.75C45 255 150 255 150 255Z" fill="black"/>
</svg>
