<svg width="50" height="50" viewBox="0 0 50 50" fill="none" xmlns="http://www.w3.org/2000/svg">
<circle cx="25" cy="25" r="25" fill="white"/>
<path d="M37 31.4321V18.2046C37 16.9847 36.0153 16 34.7954 16H14.2046C12.9847 16 12 16.9847 12 18.2046V31.4321C12 32.652 12.9847 33.6367 14.2046 33.6367H34.7954C36.0153 33.6367 37 32.652 37 31.4321ZM35.0747 18.0429C35.5597 18.5279 35.2951 19.0276 35.0306 19.2775L29.0635 24.7449L34.7954 30.7119C34.9718 30.9177 35.0894 31.241 34.8836 31.4615C34.6925 31.6966 34.2516 31.682 34.0606 31.535L27.6379 26.0529L24.4927 28.9189L21.3621 26.0529L14.9394 31.535C14.7484 31.682 14.3075 31.6966 14.1164 31.4615C13.9106 31.241 14.0282 30.9177 14.2046 30.7119L19.9365 24.7449L13.9694 19.2775C13.7049 19.0276 13.4403 18.5279 13.9253 18.0429C14.4103 17.5579 14.9101 17.7931 15.3216 18.1458L24.4927 25.5532L33.6784 18.1458C34.0899 17.7931 34.5897 17.5579 35.0747 18.0429Z" fill="#F99145"/>
</svg>
