<svg width="70" height="18" viewBox="0 0 70 18" fill="none" xmlns="http://www.w3.org/2000/svg">
<path d="M3.99707 15.098L5.11226 10.277L1.37207 7.03432L6.31324 6.6054L8.23481 2.05884L10.1564 6.6054L15.0975 7.03432L11.3574 10.277L12.4725 15.098L8.23481 12.5417L3.99707 15.098Z" fill="#F9C645"/>
<path d="M17.0361 15.098L18.1513 10.277L14.4111 7.03432L19.3523 6.6054L21.2739 2.05884L23.1954 6.6054L28.1366 7.03432L24.3964 10.277L25.5116 15.098L21.2739 12.5417L17.0361 15.098Z" fill="#F9C645"/>
<path d="M30.0752 15.098L31.1904 10.277L27.4502 7.03432L32.3914 6.6054L34.3129 2.05884L36.2345 6.6054L41.1757 7.03432L37.4355 10.277L38.5507 15.098L34.3129 12.5417L30.0752 15.098Z" fill="#F9C645"/>
<path d="M43.1143 15.098L44.2294 10.277L40.4893 7.03432L45.4304 6.6054L47.352 2.05884L49.2736 6.6054L54.2147 7.03432L50.4745 10.277L51.5897 15.098L47.352 12.5417L43.1143 15.098Z" fill="#F9C645"/>
<path d="M68.5698 7.02746L63.4299 6.60197L61.4212 2.05884L59.4124 6.60883L54.2725 7.02746L58.1756 10.2735L57.0033 15.098L61.4212 12.5382L65.839 15.098L64.6738 10.2735L68.5698 7.02746ZM61.4212 11.2549V4.87256L62.6436 7.64511L65.7747 7.90589L63.4013 9.88236L64.1162 12.8196L61.4212 11.2549Z" fill="#F9C645"/>
</svg>
