<svg width="44" height="44" viewBox="0 0 44 44" fill="none" xmlns="http://www.w3.org/2000/svg">
<path d="M12.8332 12.8333C13.0763 12.8333 13.3094 12.7368 13.4814 12.5648C13.6533 12.3929 13.7498 12.1598 13.7498 11.9167C13.7498 11.6736 13.6533 11.4404 13.4814 11.2685C13.3094 11.0966 13.0763 11 12.8332 11C12.5901 11 12.3569 11.0966 12.185 11.2685C12.0131 11.4404 11.9165 11.6736 11.9165 11.9167C11.9165 12.1598 12.0131 12.3929 12.185 12.5648C12.3569 12.7368 12.5901 12.8333 12.8332 12.8333Z" fill="#AEAEAE"/>
<path fill-rule="evenodd" clip-rule="evenodd" d="M13.8287 5.49999C14.9837 4.34499 16.9582 5.16266 16.9582 6.79616V8.24999H18.4121C20.0456 8.24999 20.8632 10.2245 19.7082 11.3795L18.0647 13.0231C18.0536 13.0343 18.0423 13.0453 18.0307 13.0561L21.1987 18.4158C21.5736 19.0502 22.131 19.5569 22.7981 19.8699C23.4653 20.1829 24.2112 20.2876 24.9387 20.1703L36.4704 18.3122C37.9646 18.0712 38.9821 19.7872 38.0544 20.9834C37.1652 22.1302 36.717 23.5959 36.3934 25.2001C35.1852 31.185 30.1161 35.7977 23.8332 36.5567V38.5H26.1249V40.3333H17.4166V38.5H21.9999V36.6667C17.0371 36.6667 12.6407 34.2769 9.98516 30.6093C7.85482 27.6668 8.20132 23.8856 9.06299 20.7396L9.51674 19.085C9.74755 18.243 9.80401 17.3627 9.68266 16.4982L9.62491 16.5H7.25441C5.62091 16.5 4.80324 14.5255 5.95824 13.3705L13.8287 5.49999ZM18.4121 10.0833L17.0682 11.4272L16.3991 10.2969C16.3137 10.1523 16.2198 10.0131 16.1177 9.87982C16.3697 10.01 16.6548 10.0833 16.9582 10.0833H18.4121ZM15.1249 8.24999C15.1249 8.55616 15.2001 8.84582 15.333 9.09882C14.8216 8.71036 14.2275 8.44527 13.5968 8.32424L15.1249 6.79616V8.24999ZM7.25441 14.6667L8.71649 13.2046C8.75316 13.3962 8.80449 13.5868 8.87049 13.7775L9.17666 14.6667H7.25441ZM10.6039 13.1798C10.4168 12.6332 10.439 12.0366 10.6661 11.5053C10.8932 10.9741 11.3092 10.5458 11.8336 10.3034C12.3581 10.0609 12.9538 10.0215 13.5056 10.1926C14.0575 10.3638 14.5263 10.7334 14.8215 11.2301L19.6212 19.349C20.1836 20.3003 21.0195 21.06 22.02 21.5293C23.0205 21.9986 24.1392 22.1556 25.2302 21.9798L36.3659 20.1859C35.3741 21.6132 34.9093 23.287 34.5967 24.838C34.3482 26.0644 33.9093 27.2443 33.296 28.3351C33.2097 28.3898 33.1332 28.4586 33.0696 28.5386C31.3343 30.7202 28.7631 32.0833 25.9086 32.0833C20.7661 32.0833 16.4999 27.6247 16.4999 22C16.4999 21.7569 16.4033 21.5237 16.2314 21.3518C16.0595 21.1799 15.8264 21.0833 15.5832 21.0833C15.3401 21.0833 15.107 21.1799 14.9351 21.3518C14.7632 21.5237 14.6666 21.7569 14.6666 22C14.6666 28.5267 19.6459 33.9167 25.9086 33.9167C26.2752 33.9167 26.6364 33.8983 26.9939 33.8617C25.408 34.5063 23.7118 34.8363 21.9999 34.8333C17.6338 34.8333 13.7866 32.7332 11.4702 29.535C9.85132 27.2992 10.0035 24.2431 10.8312 21.2245L11.285 19.569C11.724 17.9674 11.6694 16.2706 11.1282 14.7006L10.6039 13.1798Z" fill="#AEAEAE"/>
</svg>
