<svg width="38" height="39" viewBox="0 0 38 39" fill="none" xmlns="http://www.w3.org/2000/svg">
<path fill-rule="evenodd" clip-rule="evenodd" d="M14.9467 6.6366C15.1567 6.6366 15.358 6.72 15.5065 6.86847C15.655 7.01694 15.7384 7.2183 15.7384 7.42826V12.6533C15.7384 12.8632 15.655 13.0646 15.5065 13.2131C15.358 13.3615 15.1567 13.4449 14.9467 13.4449C14.7367 13.4449 14.5354 13.3615 14.3869 13.2131C14.2384 13.0646 14.155 12.8632 14.155 12.6533V7.42826C14.155 7.2183 14.2384 7.01694 14.3869 6.86847C14.5354 6.72 14.7367 6.6366 14.9467 6.6366Z" fill="#B9B9B9"/>
<path fill-rule="evenodd" clip-rule="evenodd" d="M9.32584 11.6549C10.2204 11.4412 11.1332 11.6034 12.0808 12.0927C12.8527 12.4925 13.4006 12.6754 13.8273 12.7632C14.2532 12.8519 14.592 12.8535 15.0013 12.8535V14.4368H14.9855C14.577 14.4368 14.0988 14.4368 13.5066 14.3141C12.9073 14.1898 12.2226 13.9484 11.3533 13.4987C10.6582 13.1401 10.1341 13.0894 9.69397 13.1947C9.23163 13.3055 8.74318 13.6143 8.1803 14.1954C6.8883 15.5317 6.48693 16.9076 6.3468 17.9653C6.26763 19.2668 6.50276 21.8365 7.6673 24.3485C8.06314 25.2035 8.62522 26.3831 9.3108 27.3069C9.6528 27.7677 9.99638 28.1224 10.3265 28.3409C10.6471 28.5522 10.9131 28.61 11.1546 28.5689C13.627 28.1429 14.0917 28.1327 14.5738 28.1327H15.3948V29.716H14.5508C14.2168 29.716 13.8225 29.716 11.4238 30.1292C10.6796 30.2575 10.0091 30.0287 9.45409 29.6622C8.90864 29.3019 8.43759 28.7866 8.03938 28.2506C7.24376 27.1795 6.62151 25.8566 6.23122 25.0143C4.93447 22.2181 4.67005 19.3642 4.76822 17.8386L4.77059 17.8133L4.77376 17.7879C4.94159 16.4864 5.44193 14.7487 7.04268 13.0949C7.71163 12.403 8.45422 11.8631 9.32663 11.6541L9.32584 11.6549Z" fill="#B9B9B9"/>
<path fill-rule="evenodd" clip-rule="evenodd" d="M11.59 9.67973C12.7744 10.8126 13.4164 12.1861 13.4164 13.2501C13.4164 13.4601 13.4998 13.6615 13.6483 13.8099C13.7968 13.9584 13.9981 14.0418 14.2081 14.0418C14.418 14.0418 14.6194 13.9584 14.7679 13.8099C14.9163 13.6615 14.9997 13.4601 14.9997 13.2501C14.9997 11.6272 14.0751 9.86577 12.6841 8.53498C11.2765 7.18914 9.29658 6.18848 7.0427 6.18848C6.83274 6.18848 6.63138 6.27188 6.48291 6.42035C6.33445 6.56882 6.25104 6.77018 6.25104 6.98014C6.25104 7.19011 6.33445 7.39147 6.48291 7.53994C6.63138 7.6884 6.83274 7.77181 7.0427 7.77181C8.8192 7.77181 10.4215 8.56268 11.5892 9.67973H11.59Z" fill="#B9B9B9"/>
<path fill-rule="evenodd" clip-rule="evenodd" d="M6.78774 6.19554C6.99601 6.16957 7.20607 6.22736 7.37175 6.35622C7.53742 6.48508 7.64515 6.67445 7.67124 6.88271C8.06074 9.99396 10.7944 11.6327 13.0023 12.5154C13.1973 12.5934 13.3533 12.7457 13.4359 12.9387C13.5186 13.1317 13.5213 13.3496 13.4433 13.5446C13.3653 13.7395 13.213 13.8955 13.02 13.9782C12.827 14.0609 12.6091 14.0635 12.4141 13.9855C10.1428 13.0775 6.60724 11.1324 6.10057 7.07904C6.0746 6.87077 6.13239 6.66071 6.26125 6.49503C6.39011 6.32936 6.57948 6.22163 6.78774 6.19554ZM20.3949 11.6533C19.4829 11.4443 18.5472 11.601 17.5687 12.0871C16.7612 12.4877 16.1856 12.673 15.7344 12.7624C15.2831 12.8519 14.9253 12.8535 14.4994 12.8535C14.2894 12.8535 14.088 12.9369 13.9396 13.0853C13.7911 13.2338 13.7077 13.4352 13.7077 13.6451C13.7077 13.8551 13.7911 14.0565 13.9396 14.2049C14.088 14.3534 14.2894 14.4368 14.4994 14.4368H14.5144C14.9395 14.4368 15.4327 14.4368 16.0423 14.3157C16.6606 14.193 17.3692 13.9531 18.2717 13.505C19.0032 13.1424 19.5637 13.087 20.0418 13.1963C20.5374 13.3103 21.0528 13.6253 21.6386 14.2072C22.9971 15.5554 23.408 16.94 23.5497 17.9945C23.5805 18.2001 23.6909 18.3854 23.8571 18.5103C24.0233 18.6351 24.2319 18.6896 24.4379 18.662C24.644 18.6343 24.8309 18.5267 24.9583 18.3625C25.0856 18.1982 25.1433 17.9904 25.1188 17.784C24.943 16.4753 24.4189 14.736 22.7541 13.083C22.0566 12.3911 21.2895 11.8575 20.3949 11.6533ZM21.143 27.7851C21.0681 27.713 20.9798 27.6563 20.883 27.6184C20.7862 27.5804 20.6828 27.5619 20.5789 27.5639C20.4749 27.5659 20.3724 27.5883 20.2771 27.63C20.1819 27.6716 20.0957 27.7315 20.0236 27.8065C19.4243 28.4287 18.9208 28.6377 18.4949 28.568C15.9204 28.1421 15.4391 28.1326 14.9443 28.1326C14.7343 28.1326 14.533 28.216 14.3845 28.3645C14.236 28.513 14.1526 28.7143 14.1526 28.9243C14.1526 29.1343 14.236 29.3356 14.3845 29.4841C14.533 29.6325 14.7343 29.716 14.9443 29.716H14.9664C15.3203 29.716 15.732 29.716 18.236 30.13C19.4409 30.3295 20.4408 29.6558 21.1644 28.9045C21.2366 28.8296 21.2934 28.7412 21.3314 28.6443C21.3694 28.5474 21.3879 28.444 21.386 28.34C21.384 28.2359 21.3615 28.1333 21.3198 28.0379C21.2781 27.9426 21.2181 27.8572 21.143 27.7851Z" fill="#B9B9B9"/>
<path fill-rule="evenodd" clip-rule="evenodd" d="M25.8479 13.3951C25.0539 14.828 24.848 16.3313 25.1639 17.3471C25.1948 17.4463 25.2058 17.5507 25.1963 17.6543C25.1869 17.7578 25.1571 17.8585 25.1087 17.9505C25.0604 18.0426 24.9943 18.1242 24.9144 18.1907C24.8345 18.2572 24.7423 18.3073 24.643 18.3382C24.5437 18.3691 24.4393 18.3801 24.3358 18.3707C24.2322 18.3612 24.1316 18.3314 24.0395 18.283C23.9475 18.2347 23.8659 18.1686 23.7994 18.0887C23.7328 18.0088 23.6827 17.9166 23.6518 17.8173C23.1697 16.2664 23.5307 14.3102 24.4633 12.6271C25.4077 10.9235 27.0014 9.38052 29.1539 8.71077C29.2532 8.67989 29.3576 8.66887 29.4611 8.67834C29.5647 8.68781 29.6653 8.71758 29.7574 8.76595C29.8494 8.81432 29.931 8.88035 29.9976 8.96026C30.0641 9.04017 30.1142 9.1324 30.1451 9.23168C30.176 9.33097 30.187 9.43536 30.1775 9.53891C30.168 9.64245 30.1383 9.74311 30.0899 9.83515C30.0415 9.92719 29.9755 10.0088 29.8956 10.0753C29.8157 10.1418 29.7235 10.192 29.6242 10.2228C27.9276 10.7501 26.6317 11.9819 25.8479 13.3951Z" fill="#B9B9B9"/>
<path fill-rule="evenodd" clip-rule="evenodd" d="M27.4859 14.4052C26.5612 15.759 25.3104 16.6163 24.2614 16.7905C24.1576 16.806 24.0578 16.842 23.968 16.8964C23.8782 16.9508 23.8001 17.0225 23.7382 17.1074C23.6764 17.1923 23.6321 17.2886 23.6079 17.3908C23.5836 17.493 23.58 17.599 23.5971 17.7026C23.6142 17.8062 23.6518 17.9053 23.7076 17.9943C23.7634 18.0832 23.8363 18.1602 23.9222 18.2207C24.008 18.2812 24.1051 18.324 24.2076 18.3466C24.3102 18.3692 24.4162 18.3712 24.5195 18.3525C26.1211 18.0872 27.7076 16.8871 28.7929 15.2982C29.8918 13.6895 30.556 11.5726 30.1878 9.34883C30.1709 9.24622 30.1339 9.14795 30.079 9.05963C30.0241 8.97132 29.9523 8.89468 29.8677 8.83411C29.7832 8.77354 29.6876 8.73021 29.5863 8.70659C29.485 8.68298 29.38 8.67955 29.2774 8.6965C29.1748 8.71344 29.0766 8.75043 28.9882 8.80536C28.8999 8.86028 28.8233 8.93206 28.7627 9.0166C28.7021 9.10114 28.6588 9.19679 28.6352 9.29807C28.6116 9.39936 28.6082 9.5043 28.6251 9.60691C28.9156 11.3597 28.3971 13.0705 27.4851 14.4044L27.4859 14.4052Z" fill="#B9B9B9"/>
<path fill-rule="evenodd" clip-rule="evenodd" d="M25.1592 18.8552C24.6343 18.8552 24.1309 19.0637 23.7597 19.4349C23.3885 19.806 23.18 20.3094 23.18 20.8344C23.18 21.3593 23.3885 21.8627 23.7597 22.2338C24.1309 22.605 24.6343 22.8135 25.1592 22.8135C25.6841 22.8135 26.1875 22.605 26.5587 22.2338C26.9298 21.8627 27.1383 21.3593 27.1383 20.8344C27.1383 20.3094 26.9298 19.806 26.5587 19.4349C26.1875 19.0637 25.6841 18.8552 25.1592 18.8552ZM21.5967 20.8344C21.5967 20.3665 21.6888 19.9033 21.8679 19.471C22.0469 19.0388 22.3093 18.6461 22.6401 18.3153C22.9709 17.9845 23.3636 17.7221 23.7959 17.543C24.2281 17.364 24.6913 17.2719 25.1592 17.2719C25.627 17.2719 26.0903 17.364 26.5225 17.543C26.9547 17.7221 27.3474 17.9845 27.6782 18.3153C28.0091 18.6461 28.2715 19.0388 28.4505 19.471C28.6295 19.9033 28.7217 20.3665 28.7217 20.8344C28.7217 21.7792 28.3463 22.6853 27.6782 23.3534C27.0101 24.0215 26.104 24.3969 25.1592 24.3969C24.2143 24.3969 23.3082 24.0215 22.6401 23.3534C21.972 22.6853 21.5967 21.7792 21.5967 20.8344Z" fill="#B9B9B9"/>
<path fill-rule="evenodd" clip-rule="evenodd" d="M29.9606 14.9681C30.8499 15.2872 31.576 15.9464 31.9793 16.8008C32.3825 17.6552 32.4298 18.6348 32.1108 19.5241C32.0757 19.622 32.0217 19.712 31.9518 19.789C31.8819 19.866 31.7976 19.9285 31.7036 19.9729C31.6095 20.0173 31.5077 20.0428 31.4038 20.0478C31.3 20.0529 31.1961 20.0374 31.0983 20.0023C31.0004 19.9672 30.9104 19.9132 30.8334 19.8433C30.7564 19.7734 30.6939 19.6891 30.6495 19.5951C30.6051 19.501 30.5796 19.3992 30.5746 19.2953C30.5695 19.1915 30.585 19.0876 30.6201 18.9898C30.7975 18.4957 30.7714 17.9514 30.5475 17.4766C30.3236 17.0018 29.9203 16.6354 29.4263 16.458C28.9322 16.2806 28.3879 16.3067 27.9131 16.5306C27.4383 16.7545 27.0719 17.1578 26.8945 17.6518C26.82 17.8445 26.6731 18.0004 26.4852 18.0862C26.2973 18.1721 26.0833 18.1811 25.8889 18.1114C25.6945 18.0417 25.535 17.8987 25.4445 17.713C25.354 17.5273 25.3397 17.3136 25.4046 17.1175C25.7238 16.2283 26.3831 15.5024 27.2375 15.0993C28.0919 14.6963 29.0714 14.6491 29.9606 14.9681Z" fill="#B9B9B9"/>
<path fill-rule="evenodd" clip-rule="evenodd" d="M28.7003 18.9944C29.5108 18.762 30.3774 18.8244 31.1462 19.1707C31.915 19.517 32.536 20.1247 32.899 20.8857C33.2619 21.6468 33.3433 22.5119 33.1285 23.3272C32.9137 24.1426 32.4168 24.8554 31.726 25.3389C31.6409 25.4009 31.5442 25.4453 31.4417 25.4694C31.3392 25.4936 31.2329 25.4971 31.1291 25.4797C31.0252 25.4623 30.9258 25.4243 30.8368 25.368C30.7478 25.3117 30.6709 25.2382 30.6107 25.1519C30.5504 25.0655 30.508 24.9679 30.4859 24.865C30.4638 24.762 30.4625 24.6556 30.482 24.5521C30.5015 24.4486 30.5415 24.3501 30.5996 24.2622C30.6577 24.1744 30.7328 24.099 30.8204 24.0405C31.0382 23.8882 31.2232 23.6935 31.3641 23.4681C31.5051 23.2427 31.5992 22.9912 31.6408 22.7286C31.6825 22.466 31.6708 22.1978 31.6065 21.9398C31.5421 21.6818 31.4265 21.4395 31.2665 21.2272C31.1064 21.0149 30.9053 20.8371 30.675 20.7042C30.4447 20.5714 30.19 20.4863 29.9261 20.4541C29.6622 20.4218 29.3945 20.4431 29.139 20.5166C28.8835 20.5901 28.6455 20.7143 28.439 20.8818C28.3584 20.9474 28.2656 20.9964 28.1659 21.0262C28.0663 21.0559 27.9618 21.0657 27.8583 21.0551C27.7549 21.0444 27.6546 21.0135 27.5631 20.964C27.4716 20.9146 27.3908 20.8477 27.3252 20.767C27.2596 20.6863 27.2105 20.5935 27.1808 20.4939C27.151 20.3942 27.1412 20.2897 27.1519 20.1863C27.1625 20.0828 27.1935 19.9825 27.2429 19.891C27.2923 19.7996 27.3593 19.7187 27.4399 19.6531C27.8115 19.3511 28.2402 19.1271 28.7003 18.9944ZM21.9925 23.6051C21.4676 23.6051 20.9642 23.8136 20.593 24.1848C20.2218 24.556 20.0133 25.0594 20.0133 25.5843C20.0133 26.1092 20.2218 26.6126 20.593 26.9838C20.9642 27.3549 21.4676 27.5634 21.9925 27.5634C22.5174 27.5634 23.0208 27.3549 23.392 26.9838C23.7631 26.6126 23.9717 26.1092 23.9717 25.5843C23.9717 25.0594 23.7631 24.556 23.392 24.1848C23.0208 23.8136 22.5174 23.6051 21.9925 23.6051ZM18.43 25.5843C18.43 24.6394 18.8053 23.7333 19.4734 23.0652C20.1415 22.3971 21.0477 22.0218 21.9925 22.0218C22.9373 22.0218 23.8435 22.3971 24.5116 23.0652C25.1797 23.7333 25.555 24.6394 25.555 25.5843C25.555 26.5291 25.1797 27.4352 24.5116 28.1033C23.8435 28.7714 22.9373 29.1468 21.9925 29.1468C21.0477 29.1468 20.1415 28.7714 19.4734 28.1033C18.8053 27.4352 18.43 26.5291 18.43 25.5843Z" fill="#B9B9B9"/>
<path fill-rule="evenodd" clip-rule="evenodd" d="M28.3259 23.6052C27.801 23.6052 27.2976 23.8137 26.9264 24.1849C26.5552 24.556 26.3467 25.0594 26.3467 25.5844C26.3467 26.1093 26.5552 26.6127 26.9264 26.9838C27.2976 27.355 27.801 27.5635 28.3259 27.5635C28.8508 27.5635 29.3542 27.355 29.7253 26.9838C30.0965 26.6127 30.305 26.1093 30.305 25.5844C30.305 25.0594 30.0965 24.556 29.7253 24.1849C29.3542 23.8137 28.8508 23.6052 28.3259 23.6052ZM24.7634 25.5844C24.7634 24.6395 25.1387 23.7334 25.8068 23.0653C26.4749 22.3972 27.381 22.0219 28.3259 22.0219C29.2707 22.0219 30.1768 22.3972 30.8449 23.0653C31.513 23.7334 31.8884 24.6395 31.8884 25.5844C31.8884 26.5292 31.513 27.4353 30.8449 28.1034C30.1768 28.7715 29.2707 29.1469 28.3259 29.1469C27.381 29.1469 26.4749 28.7715 25.8068 28.1034C25.1387 27.4353 24.7634 26.5292 24.7634 25.5844Z" fill="#B9B9B9"/>
<path fill-rule="evenodd" clip-rule="evenodd" d="M25.1592 28.3552C24.6343 28.3552 24.1309 28.5637 23.7597 28.9349C23.3885 29.306 23.18 29.8094 23.18 30.3344C23.18 30.8593 23.3885 31.3627 23.7597 31.7338C24.1309 32.105 24.6343 32.3135 25.1592 32.3135C25.6841 32.3135 26.1875 32.105 26.5587 31.7338C26.9298 31.3627 27.1383 30.8593 27.1383 30.3344C27.1383 29.8094 26.9298 29.306 26.5587 28.9349C26.1875 28.5637 25.6841 28.3552 25.1592 28.3552ZM21.5967 30.3344C21.5967 29.8665 21.6888 29.4033 21.8679 28.971C22.0469 28.5388 22.3093 28.1461 22.6401 27.8153C22.9709 27.4845 23.3636 27.2221 23.7959 27.043C24.2281 26.864 24.6913 26.7719 25.1592 26.7719C25.627 26.7719 26.0903 26.864 26.5225 27.043C26.9547 27.2221 27.3474 27.4845 27.6782 27.8153C28.0091 28.1461 28.2715 28.5388 28.4505 28.971C28.6295 29.4033 28.7217 29.8665 28.7217 30.3344C28.7217 31.2792 28.3463 32.1853 27.6782 32.8534C27.0101 33.5215 26.104 33.8969 25.1592 33.8969C24.2143 33.8969 23.3082 33.5215 22.6401 32.8534C21.972 32.1853 21.5967 31.2792 21.5967 30.3344Z" fill="#B9B9B9"/>
<path fill-rule="evenodd" clip-rule="evenodd" d="M29.9519 27.5365C29.9868 27.4386 30.0407 27.3485 30.1105 27.2714C30.1802 27.1943 30.2645 27.1316 30.3584 27.0871C30.4524 27.0425 30.5542 27.0169 30.658 27.0117C30.7619 27.0065 30.8657 27.0218 30.9637 27.0568C31.4659 27.2361 31.9215 27.5259 32.2968 27.9048C32.6721 28.2837 32.9575 28.742 33.132 29.2459C33.3066 29.7498 33.3657 30.2865 33.3052 30.8164C33.2446 31.3462 33.0659 31.8557 32.7821 32.3072C32.4984 32.7588 32.1169 33.1409 31.6658 33.4253C31.2147 33.7097 30.7055 33.8893 30.1758 33.9507C29.646 34.012 29.1092 33.9537 28.6051 33.78C28.1009 33.6062 27.6421 33.3215 27.2626 32.9468C27.1867 32.8742 27.126 32.7872 27.084 32.691C27.042 32.5947 27.0196 32.491 27.0181 32.386C27.0166 32.2809 27.036 32.1767 27.0752 32.0792C27.1143 31.9817 27.1725 31.8931 27.2463 31.8183C27.3201 31.7436 27.4081 31.6842 27.505 31.6438C27.602 31.6034 27.706 31.5827 27.811 31.5829C27.9161 31.583 28.02 31.6041 28.1168 31.6449C28.2137 31.6856 28.3014 31.7452 28.3749 31.8202C28.5857 32.0284 28.8406 32.1866 29.1206 32.2831C29.4007 32.3797 29.6989 32.4121 29.9932 32.378C30.2875 32.344 30.5704 32.2443 30.821 32.0863C31.0716 31.9283 31.2835 31.7161 31.4412 31.4653C31.5989 31.2145 31.6982 30.9315 31.7319 30.6371C31.7656 30.3428 31.7328 30.0447 31.6359 29.7647C31.539 29.4848 31.3805 29.2301 31.1721 29.0196C30.9637 28.809 30.7106 28.648 30.4317 28.5483C30.3337 28.5134 30.2436 28.4595 30.1665 28.3897C30.0894 28.32 30.0268 28.2357 29.9822 28.1418C29.9377 28.0478 29.9121 27.946 29.9069 27.8422C29.9017 27.7383 29.917 27.6345 29.9519 27.5365Z" fill="#B9B9B9"/>
</svg>
