<svg width="38" height="39" viewBox="0 0 38 39" fill="none" xmlns="http://www.w3.org/2000/svg">
<path fill-rule="evenodd" clip-rule="evenodd" d="M14.9469 6.63965C15.1569 6.63965 15.3583 6.72306 15.5067 6.87152C15.6552 7.01999 15.7386 7.22135 15.7386 7.43132V12.6563C15.7386 12.8663 15.6552 13.0676 15.5067 13.2161C15.3583 13.3646 15.1569 13.448 14.9469 13.448C14.737 13.448 14.5356 13.3646 14.3871 13.2161C14.2387 13.0676 14.1553 12.8663 14.1553 12.6563V7.43132C14.1553 7.22135 14.2387 7.01999 14.3871 6.87152C14.5356 6.72306 14.737 6.63965 14.9469 6.63965Z" fill="#B9B9B9"/>
<path fill-rule="evenodd" clip-rule="evenodd" d="M9.32615 11.658C10.2207 11.4442 11.1335 11.6065 12.0811 12.0958C12.853 12.4955 13.4009 12.6784 13.8276 12.7663C14.2535 12.855 14.5923 12.8565 15.0016 12.8565V14.4399H14.9858C14.5773 14.4399 14.0991 14.4399 13.5069 14.3172C12.9076 14.1929 12.2229 13.9514 11.3536 13.5017C10.6585 13.1431 10.1344 13.0925 9.69427 13.1978C9.23194 13.3086 8.74348 13.6173 8.18061 14.1984C6.88861 15.5348 6.48723 16.9107 6.34711 17.9683C6.26794 19.2698 6.50307 21.8396 7.66761 24.3515C8.06344 25.2065 8.62552 26.3861 9.31111 27.31C9.65311 27.7707 9.99669 28.1254 10.3268 28.3439C10.6474 28.5553 10.9134 28.6131 11.1549 28.5719C13.6273 28.146 14.092 28.1357 14.5741 28.1357H15.3951V29.719H14.5511C14.2171 29.719 13.8228 29.719 11.4241 30.1323C10.6799 30.2605 10.0094 30.0317 9.4544 29.6652C8.90894 29.305 8.4379 28.7896 8.03969 28.2537C7.24406 27.1825 6.62181 25.8597 6.23152 25.0173C4.93477 22.2212 4.67036 19.3672 4.76852 17.8417L4.7709 17.8163L4.77406 17.791C4.9419 16.4895 5.44223 14.7518 7.04298 13.098C7.71194 12.4061 8.45452 11.8662 9.32694 11.6572L9.32615 11.658Z" fill="#B9B9B9"/>
<path fill-rule="evenodd" clip-rule="evenodd" d="M11.59 9.68278C12.7743 10.8157 13.4164 12.1892 13.4164 13.2532C13.4164 13.4632 13.4998 13.6645 13.6482 13.813C13.7967 13.9615 13.9981 14.0449 14.208 14.0449C14.418 14.0449 14.6193 13.9615 14.7678 13.813C14.9163 13.6645 14.9997 13.4632 14.9997 13.2532C14.9997 11.6303 14.075 9.86882 12.6841 8.53803C11.2765 7.19219 9.29652 6.19153 7.04264 6.19153C6.83268 6.19153 6.63132 6.27494 6.48285 6.4234C6.33438 6.57187 6.25098 6.77323 6.25098 6.98319C6.25098 7.19316 6.33438 7.39452 6.48285 7.54299C6.63132 7.69145 6.83268 7.77486 7.04264 7.77486C8.81914 7.77486 10.4215 8.56574 11.5892 9.68278H11.59Z" fill="#B9B9B9"/>
<path fill-rule="evenodd" clip-rule="evenodd" d="M6.78798 6.19859C6.99626 6.17262 7.20632 6.23041 7.37199 6.35927C7.53767 6.48813 7.64539 6.6775 7.67148 6.88576C8.06098 9.99701 10.7946 11.6358 13.0026 12.5185C13.1975 12.5965 13.3535 12.7487 13.4362 12.9417C13.5189 13.1347 13.5215 13.3527 13.4435 13.5476C13.3655 13.7426 13.2133 13.8986 13.0203 13.9813C12.8273 14.064 12.6093 14.0666 12.4144 13.9886C10.1431 13.0806 6.60748 11.1354 6.10082 7.08209C6.07484 6.87382 6.13263 6.66376 6.26149 6.49808C6.39035 6.33241 6.57972 6.22469 6.78798 6.19859ZM20.3951 11.6563C19.4831 11.4473 18.5474 11.6041 17.5689 12.0902C16.7614 12.4908 16.1859 12.676 15.7346 12.7655C15.2834 12.8549 14.9255 12.8565 14.4996 12.8565C14.2896 12.8565 14.0883 12.9399 13.9398 13.0884C13.7913 13.2369 13.7079 13.4382 13.7079 13.6482C13.7079 13.8581 13.7913 14.0595 13.9398 14.208C14.0883 14.3564 14.2896 14.4398 14.4996 14.4398H14.5146C14.9398 14.4398 15.433 14.4398 16.0426 14.3187C16.6609 14.196 17.3694 13.9561 18.2719 13.5081C19.0034 13.1455 19.5639 13.0901 20.0421 13.1993C20.5376 13.3133 21.053 13.6284 21.6389 14.2103C22.9974 15.5585 23.4082 16.9431 23.5499 17.9976C23.5807 18.2032 23.6911 18.3884 23.8573 18.5133C24.0235 18.6382 24.2322 18.6927 24.4382 18.665C24.6442 18.6374 24.8311 18.5298 24.9585 18.3655C25.0859 18.2012 25.1435 17.9934 25.119 17.787C24.9433 16.4784 24.4192 14.7391 22.7543 13.0861C22.0569 12.3942 21.2897 11.8606 20.3951 11.6563ZM21.1433 27.7881C21.0684 27.716 20.98 27.6594 20.8832 27.6214C20.7864 27.5835 20.6831 27.565 20.5791 27.567C20.4752 27.569 20.3727 27.5914 20.2774 27.633C20.1821 27.6746 20.096 27.7346 20.0239 27.8095C19.4246 28.4318 18.9211 28.6408 18.4951 28.5711C15.9206 28.1452 15.4393 28.1357 14.9445 28.1357C14.7346 28.1357 14.5332 28.2191 14.3847 28.3675C14.2363 28.516 14.1529 28.7174 14.1529 28.9273C14.1529 29.1373 14.2363 29.3387 14.3847 29.4871C14.5332 29.6356 14.7346 29.719 14.9445 29.719H14.9667C15.3206 29.719 15.7322 29.719 18.2363 30.1331C19.4412 30.3326 20.4411 29.6588 21.1646 28.9076C21.2369 28.8326 21.2936 28.7442 21.3316 28.6473C21.3696 28.5505 21.3882 28.4471 21.3862 28.343C21.3842 28.239 21.3617 28.1363 21.3201 28.041C21.2784 27.9456 21.2183 27.8602 21.1433 27.7881Z" fill="#B9B9B9"/>
<path fill-rule="evenodd" clip-rule="evenodd" d="M25.8482 13.3981C25.0541 14.831 24.8483 16.3344 25.1642 17.3501C25.195 17.4494 25.2061 17.5538 25.1966 17.6573C25.1871 17.7609 25.1574 17.8615 25.109 17.9536C25.0606 18.0456 24.9946 18.1272 24.9147 18.1937C24.8348 18.2603 24.7425 18.3104 24.6432 18.3413C24.544 18.3722 24.4396 18.3832 24.336 18.3737C24.2325 18.3642 24.1318 18.3345 24.0398 18.2861C23.9477 18.2377 23.8661 18.1717 23.7996 18.0918C23.7331 18.0119 23.683 17.9196 23.6521 17.8204C23.17 16.2695 23.531 14.3133 24.4635 12.6302C25.408 10.9265 27.0016 9.38357 29.1542 8.71382C29.2534 8.68294 29.3578 8.67192 29.4614 8.68139C29.5649 8.69086 29.6656 8.72063 29.7576 8.769C29.8497 8.81737 29.9313 8.8834 29.9978 8.96331C30.0643 9.04322 30.1145 9.13545 30.1453 9.23474C30.1762 9.33402 30.1872 9.43841 30.1778 9.54196C30.1683 9.6455 30.1385 9.74617 30.0901 9.8382C30.0418 9.93024 29.9757 10.0119 29.8958 10.0784C29.8159 10.1449 29.7237 10.195 29.6244 10.2259C27.9279 10.7532 26.6319 11.985 25.8482 13.3981Z" fill="#B9B9B9"/>
<path fill-rule="evenodd" clip-rule="evenodd" d="M27.4863 14.4083C26.5617 15.762 25.3108 16.6194 24.2619 16.7935C24.158 16.809 24.0582 16.845 23.9684 16.8994C23.8786 16.9538 23.8005 17.0256 23.7387 17.1105C23.6768 17.1953 23.6325 17.2917 23.6083 17.3939C23.5841 17.496 23.5804 17.602 23.5975 17.7056C23.6146 17.8092 23.6522 17.9084 23.708 17.9973C23.7638 18.0863 23.8368 18.1633 23.9226 18.2237C24.0085 18.2842 24.1055 18.327 24.208 18.3496C24.3106 18.3723 24.4166 18.3743 24.5199 18.3555C26.1215 18.0903 27.708 16.8901 28.7934 15.3013C29.8922 13.6926 30.5564 11.5757 30.1883 9.35188C30.1713 9.24927 30.1343 9.151 30.0794 9.06269C30.0245 8.97437 29.9527 8.89774 29.8682 8.83716C29.7836 8.77659 29.688 8.73326 29.5867 8.70965C29.4854 8.68603 29.3805 8.6826 29.2779 8.69955C29.1752 8.71649 29.077 8.75349 28.9887 8.80841C28.9003 8.86333 28.8237 8.93511 28.7631 9.01965C28.7026 9.10419 28.6592 9.19984 28.6356 9.30112C28.612 9.40241 28.6086 9.50735 28.6255 9.60996C28.9161 11.3627 28.3975 13.0735 27.4855 14.4075L27.4863 14.4083Z" fill="#B9B9B9"/>
<path fill-rule="evenodd" clip-rule="evenodd" d="M25.1592 18.8582C24.6343 18.8582 24.1309 19.0668 23.7597 19.4379C23.3885 19.8091 23.18 20.3125 23.18 20.8374C23.18 21.3623 23.3885 21.8657 23.7597 22.2369C24.1309 22.6081 24.6343 22.8166 25.1592 22.8166C25.6841 22.8166 26.1875 22.6081 26.5587 22.2369C26.9298 21.8657 27.1383 21.3623 27.1383 20.8374C27.1383 20.3125 26.9298 19.8091 26.5587 19.4379C26.1875 19.0668 25.6841 18.8582 25.1592 18.8582ZM21.5967 20.8374C21.5967 20.3696 21.6888 19.9063 21.8679 19.4741C22.0469 19.0419 22.3093 18.6491 22.6401 18.3183C22.9709 17.9875 23.3636 17.7251 23.7959 17.5461C24.2281 17.367 24.6913 17.2749 25.1592 17.2749C25.627 17.2749 26.0903 17.367 26.5225 17.5461C26.9547 17.7251 27.3474 17.9875 27.6782 18.3183C28.0091 18.6491 28.2715 19.0419 28.4505 19.4741C28.6295 19.9063 28.7217 20.3696 28.7217 20.8374C28.7217 21.7822 28.3463 22.6884 27.6782 23.3565C27.0101 24.0246 26.104 24.3999 25.1592 24.3999C24.2143 24.3999 23.3082 24.0246 22.6401 23.3565C21.972 22.6884 21.5967 21.7822 21.5967 20.8374Z" fill="#B9B9B9"/>
<path fill-rule="evenodd" clip-rule="evenodd" d="M29.9614 14.9711C30.8506 15.2902 31.5768 15.9495 31.98 16.8039C32.3832 17.6583 32.4305 18.6379 32.1115 19.5272C32.0764 19.6251 32.0224 19.7151 31.9526 19.7921C31.8827 19.8691 31.7983 19.9316 31.7043 19.976C31.6103 20.0204 31.5084 20.0458 31.4046 20.0509C31.3007 20.0559 31.1969 20.0404 31.099 20.0053C31.0011 19.9703 30.9111 19.9162 30.8341 19.8464C30.7571 19.7765 30.6946 19.6921 30.6502 19.5981C30.6058 19.5041 30.5804 19.4022 30.5753 19.2984C30.5703 19.1945 30.5857 19.0907 30.6208 18.9928C30.7982 18.4988 30.7721 17.9545 30.5483 17.4797C30.3244 17.0049 29.921 16.6385 29.427 16.4611C28.9329 16.2836 28.3887 16.3097 27.9139 16.5336C27.4391 16.7575 27.0727 17.1608 26.8952 17.6549C26.8207 17.8475 26.6738 18.0034 26.486 18.0893C26.2981 18.1752 26.0841 18.1842 25.8896 18.1144C25.6952 18.0447 25.5357 17.9017 25.4452 17.716C25.3547 17.5303 25.3404 17.3166 25.4053 17.1205C25.7246 16.2314 26.3839 15.5055 27.2383 15.1024C28.0927 14.6993 29.0722 14.6521 29.9614 14.9711Z" fill="#B9B9B9"/>
<path fill-rule="evenodd" clip-rule="evenodd" d="M28.701 18.9975C29.5114 18.765 30.3781 18.8275 31.1469 19.1738C31.9156 19.5201 32.5367 20.1277 32.8996 20.8888C33.2626 21.6498 33.3439 22.5149 33.1292 23.3303C32.9144 24.1456 32.4175 24.8584 31.7267 25.3419C31.6416 25.4039 31.5449 25.4483 31.4424 25.4725C31.3399 25.4967 31.2336 25.5002 31.1297 25.4827C31.0259 25.4653 30.9265 25.4274 30.8375 25.3711C30.7485 25.3148 30.6716 25.2413 30.6113 25.1549C30.5511 25.0685 30.5087 24.971 30.4866 24.868C30.4645 24.765 30.4632 24.6587 30.4827 24.5552C30.5022 24.4517 30.5422 24.3531 30.6003 24.2653C30.6584 24.1774 30.7334 24.1021 30.821 24.0436C31.0389 23.8912 31.2238 23.6965 31.3648 23.4711C31.5058 23.2457 31.5999 22.9942 31.6415 22.7316C31.6831 22.4691 31.6715 22.2008 31.6071 21.9429C31.5428 21.6849 31.4272 21.4425 31.2672 21.2303C31.1071 21.018 30.9059 20.8401 30.6757 20.7073C30.4454 20.5744 30.1907 20.4894 29.9268 20.4571C29.6629 20.4249 29.3952 20.4461 29.1397 20.5196C28.8842 20.5931 28.6461 20.7173 28.4397 20.8848C28.359 20.9504 28.2662 20.9995 28.1666 21.0292C28.0669 21.059 27.9624 21.0688 27.859 21.0581C27.7556 21.0475 27.6552 21.0165 27.5638 20.9671C27.4723 20.9177 27.3914 20.8507 27.3258 20.77C27.2602 20.6894 27.2112 20.5965 27.1814 20.4969C27.1517 20.3973 27.1419 20.2928 27.1525 20.1893C27.1632 20.0859 27.1941 19.9856 27.2436 19.8941C27.293 19.8026 27.3599 19.7218 27.4406 19.6562C27.8122 19.3541 28.2409 19.1301 28.701 18.9975ZM21.9932 23.6082C21.4683 23.6082 20.9648 23.8167 20.5937 24.1878C20.2225 24.559 20.014 25.0624 20.014 25.5873C20.014 26.1122 20.2225 26.6156 20.5937 26.9868C20.9648 27.358 21.4683 27.5665 21.9932 27.5665C22.5181 27.5665 23.0215 27.358 23.3926 26.9868C23.7638 26.6156 23.9723 26.1122 23.9723 25.5873C23.9723 25.0624 23.7638 24.559 23.3926 24.1878C23.0215 23.8167 22.5181 23.6082 21.9932 23.6082ZM18.4307 25.5873C18.4307 24.6425 18.806 23.7364 19.4741 23.0683C20.1422 22.4002 21.0483 22.0248 21.9932 22.0248C22.938 22.0248 23.8441 22.4002 24.5122 23.0683C25.1803 23.7364 25.5557 24.6425 25.5557 25.5873C25.5557 26.5322 25.1803 27.4383 24.5122 28.1064C23.8441 28.7745 22.938 29.1498 21.9932 29.1498C21.0483 29.1498 20.1422 28.7745 19.4741 28.1064C18.806 27.4383 18.4307 26.5322 18.4307 25.5873Z" fill="#B9B9B9"/>
<path fill-rule="evenodd" clip-rule="evenodd" d="M28.3262 23.6082C27.8013 23.6082 27.2979 23.8168 26.9267 24.1879C26.5555 24.5591 26.347 25.0625 26.347 25.5874C26.347 26.1123 26.5555 26.6157 26.9267 26.9869C27.2979 27.3581 27.8013 27.5666 28.3262 27.5666C28.8511 27.5666 29.3545 27.3581 29.7257 26.9869C30.0968 26.6157 30.3053 26.1123 30.3053 25.5874C30.3053 25.0625 30.0968 24.5591 29.7257 24.1879C29.3545 23.8168 28.8511 23.6082 28.3262 23.6082ZM24.7637 25.5874C24.7637 24.6426 25.139 23.7364 25.8071 23.0683C26.4752 22.4002 27.3813 22.0249 28.3262 22.0249C29.271 22.0249 30.1771 22.4002 30.8452 23.0683C31.5133 23.7364 31.8887 24.6426 31.8887 25.5874C31.8887 26.5322 31.5133 27.4384 30.8452 28.1065C30.1771 28.7746 29.271 29.1499 28.3262 29.1499C27.3813 29.1499 26.4752 28.7746 25.8071 28.1065C25.139 27.4384 24.7637 26.5322 24.7637 25.5874Z" fill="#B9B9B9"/>
<path fill-rule="evenodd" clip-rule="evenodd" d="M25.1592 28.3582C24.6343 28.3582 24.1309 28.5668 23.7597 28.9379C23.3885 29.3091 23.18 29.8125 23.18 30.3374C23.18 30.8623 23.3885 31.3657 23.7597 31.7369C24.1309 32.1081 24.6343 32.3166 25.1592 32.3166C25.6841 32.3166 26.1875 32.1081 26.5587 31.7369C26.9298 31.3657 27.1383 30.8623 27.1383 30.3374C27.1383 29.8125 26.9298 29.3091 26.5587 28.9379C26.1875 28.5668 25.6841 28.3582 25.1592 28.3582ZM21.5967 30.3374C21.5967 29.8696 21.6888 29.4063 21.8679 28.9741C22.0469 28.5419 22.3093 28.1491 22.6401 27.8183C22.9709 27.4875 23.3636 27.2251 23.7959 27.0461C24.2281 26.867 24.6913 26.7749 25.1592 26.7749C25.627 26.7749 26.0903 26.867 26.5225 27.0461C26.9547 27.2251 27.3474 27.4875 27.6782 27.8183C28.0091 28.1491 28.2715 28.5419 28.4505 28.9741C28.6295 29.4063 28.7217 29.8696 28.7217 30.3374C28.7217 31.2822 28.3463 32.1884 27.6782 32.8565C27.0101 33.5246 26.104 33.8999 25.1592 33.8999C24.2143 33.8999 23.3082 33.5246 22.6401 32.8565C21.972 32.1884 21.5967 31.2822 21.5967 30.3374Z" fill="#B9B9B9"/>
<path fill-rule="evenodd" clip-rule="evenodd" d="M29.9525 27.5396C29.9874 27.4416 30.0413 27.3515 30.111 27.2744C30.1808 27.1973 30.265 27.1347 30.359 27.0901C30.4529 27.0456 30.5547 27.02 30.6586 27.0148C30.7624 27.0096 30.8663 27.0249 30.9642 27.0598C31.4665 27.2392 31.922 27.529 32.2973 27.9079C32.6726 28.2867 32.958 28.7451 33.1326 29.249C33.3071 29.7529 33.3663 30.2896 33.3057 30.8194C33.2452 31.3493 33.0664 31.8587 32.7827 32.3103C32.499 32.7618 32.1175 33.1439 31.6664 33.4283C31.2153 33.7128 30.7061 33.8923 30.1763 33.9537C29.6466 34.0151 29.1098 33.9568 28.6056 33.783C28.1014 33.6093 27.6427 33.3245 27.2632 32.9498C27.1873 32.8773 27.1265 32.7903 27.0845 32.694C27.0426 32.5977 27.0202 32.494 27.0186 32.389C27.0171 32.284 27.0365 32.1797 27.0757 32.0822C27.1149 31.9848 27.1731 31.8961 27.2469 31.8214C27.3207 31.7466 27.4086 31.6873 27.5056 31.6469C27.6025 31.6065 27.7065 31.5857 27.8116 31.5859C27.9166 31.5861 28.0206 31.6072 28.1174 31.6479C28.2142 31.6887 28.3019 31.7483 28.3755 31.8233C28.5863 32.0315 28.8411 32.1896 29.1212 32.2862C29.4013 32.3827 29.6994 32.4152 29.9937 32.3811C30.288 32.347 30.5709 32.2473 30.8215 32.0894C31.0721 31.9314 31.2841 31.7192 31.4418 31.4683C31.5994 31.2175 31.6988 30.9345 31.7325 30.6402C31.7662 30.3459 31.7334 30.0477 31.6365 29.7678C31.5396 29.4878 31.3811 29.2332 31.1726 29.0226C30.9642 28.8121 30.7112 28.651 30.4322 28.5513C30.3343 28.5164 30.2442 28.4625 30.1671 28.3928C30.0899 28.3231 30.0273 28.2388 29.9828 28.1448C29.9382 28.0509 29.9126 27.9491 29.9074 27.8452C29.9022 27.7414 29.9175 27.6375 29.9525 27.5396Z" fill="#B9B9B9"/>
</svg>
