<svg width="38" height="39" viewBox="0 0 38 39" fill="none" xmlns="http://www.w3.org/2000/svg">
<path fill-rule="evenodd" clip-rule="evenodd" d="M14.9465 6.63965C15.1564 6.63965 15.3578 6.72306 15.5062 6.87152C15.6547 7.01999 15.7381 7.22135 15.7381 7.43132V12.6563C15.7381 12.8663 15.6547 13.0676 15.5062 13.2161C15.3578 13.3646 15.1564 13.448 14.9465 13.448C14.7365 13.448 14.5351 13.3646 14.3867 13.2161C14.2382 13.0676 14.1548 12.8663 14.1548 12.6563V7.43132C14.1548 7.22135 14.2382 7.01999 14.3867 6.87152C14.5351 6.72306 14.7365 6.63965 14.9465 6.63965Z" fill="#B9B9B9"/>
<path fill-rule="evenodd" clip-rule="evenodd" d="M9.32566 11.658C10.2202 11.4442 11.133 11.6065 12.0807 12.0958C12.8525 12.4955 13.4004 12.6784 13.8271 12.7663C14.253 12.855 14.5918 12.8565 15.0011 12.8565V14.4399H14.9853C14.5768 14.4399 14.0986 14.4399 13.5065 14.3172C12.9072 14.1929 12.2224 13.9514 11.3531 13.5017C10.658 13.1431 10.134 13.0925 9.69378 13.1978C9.23145 13.3086 8.74299 13.6173 8.18012 14.1984C6.88812 15.5348 6.48674 16.9107 6.34662 17.9683C6.26745 19.2698 6.50258 21.8396 7.66712 24.3515C8.06295 25.2065 8.62503 26.3861 9.31062 27.31C9.65262 27.7707 9.9962 28.1254 10.3263 28.3439C10.647 28.5553 10.913 28.6131 11.1544 28.5719C13.6268 28.146 14.0915 28.1357 14.5736 28.1357H15.3946V29.719H14.5507C14.2166 29.719 13.8223 29.719 11.4236 30.1323C10.6794 30.2605 10.0089 30.0317 9.45391 29.6652C8.90845 29.305 8.43741 28.7896 8.0392 28.2537C7.24358 27.1825 6.62133 25.8597 6.23103 25.0173C4.93428 22.2212 4.66987 19.3672 4.76803 17.8417L4.77041 17.8163L4.77358 17.791C4.94141 16.4895 5.44174 14.7518 7.04249 13.098C7.71145 12.4061 8.45404 11.8662 9.32645 11.6572L9.32566 11.658Z" fill="#B9B9B9"/>
<path fill-rule="evenodd" clip-rule="evenodd" d="M11.59 9.68278C12.7743 10.8157 13.4164 12.1892 13.4164 13.2532C13.4164 13.4632 13.4998 13.6645 13.6482 13.813C13.7967 13.9615 13.9981 14.0449 14.208 14.0449C14.418 14.0449 14.6193 13.9615 14.7678 13.813C14.9163 13.6645 14.9997 13.4632 14.9997 13.2532C14.9997 11.6303 14.075 9.86882 12.6841 8.53803C11.2765 7.19219 9.29652 6.19153 7.04264 6.19153C6.83268 6.19153 6.63132 6.27494 6.48285 6.4234C6.33438 6.57187 6.25098 6.77323 6.25098 6.98319C6.25098 7.19316 6.33438 7.39452 6.48285 7.54299C6.63132 7.69145 6.83268 7.77486 7.04264 7.77486C8.81914 7.77486 10.4215 8.56574 11.5892 9.68278H11.59Z" fill="#B9B9B9"/>
<path fill-rule="evenodd" clip-rule="evenodd" d="M6.78749 6.19859C6.99577 6.17262 7.20583 6.23041 7.3715 6.35927C7.53718 6.48813 7.6449 6.6775 7.67099 6.88576C8.06049 9.99701 10.7941 11.6358 13.0021 12.5185C13.197 12.5965 13.353 12.7487 13.4357 12.9417C13.5184 13.1347 13.521 13.3527 13.443 13.5476C13.365 13.7426 13.2128 13.8986 13.0198 13.9813C12.8268 14.064 12.6088 14.0666 12.4139 13.9886C10.1426 13.0806 6.60699 11.1354 6.10033 7.08209C6.07435 6.87382 6.13215 6.66376 6.261 6.49808C6.38986 6.33241 6.57924 6.22469 6.78749 6.19859ZM20.3947 11.6563C19.4827 11.4473 18.5469 11.6041 17.5684 12.0902C16.7609 12.4908 16.1854 12.676 15.7341 12.7655C15.2829 12.8549 14.925 12.8565 14.4991 12.8565C14.2892 12.8565 14.0878 12.9399 13.9393 13.0884C13.7909 13.2369 13.7075 13.4382 13.7075 13.6482C13.7075 13.8581 13.7909 14.0595 13.9393 14.208C14.0878 14.3564 14.2892 14.4398 14.4991 14.4398H14.5142C14.9393 14.4398 15.4325 14.4398 16.0421 14.3187C16.6604 14.196 17.3689 13.9561 18.2714 13.5081C19.0029 13.1455 19.5634 13.0901 20.0416 13.1993C20.5372 13.3133 21.0525 13.6284 21.6384 14.2103C22.9969 15.5585 23.4077 16.9431 23.5495 17.9976C23.5802 18.2032 23.6906 18.3884 23.8568 18.5133C24.023 18.6382 24.2317 18.6927 24.4377 18.665C24.6437 18.6374 24.8306 18.5298 24.958 18.3655C25.0854 18.2012 25.1431 17.9934 25.1185 17.787C24.9428 16.4784 24.4187 14.7391 22.7538 13.0861C22.0564 12.3942 21.2892 11.8606 20.3947 11.6563ZM21.1428 27.7881C21.0679 27.716 20.9795 27.6594 20.8827 27.6214C20.7859 27.5835 20.6826 27.565 20.5786 27.567C20.4747 27.569 20.3722 27.5914 20.2769 27.633C20.1816 27.6746 20.0955 27.7346 20.0234 27.8095C19.4241 28.4318 18.9206 28.6408 18.4947 28.5711C15.9202 28.1452 15.4388 28.1357 14.944 28.1357C14.7341 28.1357 14.5327 28.2191 14.3842 28.3675C14.2358 28.516 14.1524 28.7174 14.1524 28.9273C14.1524 29.1373 14.2358 29.3387 14.3842 29.4871C14.5327 29.6356 14.7341 29.719 14.944 29.719H14.9662C15.3201 29.719 15.7317 29.719 18.2358 30.1331C19.4407 30.3326 20.4406 29.6588 21.1642 28.9076C21.2364 28.8326 21.2931 28.7442 21.3311 28.6473C21.3692 28.5505 21.3877 28.4471 21.3857 28.343C21.3837 28.239 21.3613 28.1363 21.3196 28.041C21.2779 27.9456 21.2178 27.8602 21.1428 27.7881Z" fill="#B9B9B9"/>
<path fill-rule="evenodd" clip-rule="evenodd" d="M25.8477 13.3981C25.0536 14.831 24.8478 16.3344 25.1637 17.3501C25.1945 17.4494 25.2056 17.5538 25.1961 17.6573C25.1866 17.7609 25.1569 17.8615 25.1085 17.9536C25.0601 18.0456 24.9941 18.1272 24.9142 18.1937C24.8343 18.2603 24.742 18.3104 24.6428 18.3413C24.5435 18.3722 24.4391 18.3832 24.3355 18.3737C24.232 18.3642 24.1313 18.3345 24.0393 18.2861C23.9472 18.2377 23.8656 18.1717 23.7991 18.0918C23.7326 18.0119 23.6825 17.9196 23.6516 17.8204C23.1695 16.2695 23.5305 14.3133 24.463 12.6302C25.4075 10.9265 27.0011 9.38357 29.1537 8.71382C29.253 8.68294 29.3574 8.67192 29.4609 8.68139C29.5644 8.69086 29.6651 8.72063 29.7571 8.769C29.8492 8.81737 29.9308 8.8834 29.9973 8.96331C30.0638 9.04322 30.114 9.13545 30.1448 9.23474C30.1757 9.33402 30.1867 9.43841 30.1773 9.54196C30.1678 9.6455 30.138 9.74617 30.0897 9.8382C30.0413 9.93024 29.9753 10.0119 29.8954 10.0784C29.8154 10.1449 29.7232 10.195 29.6239 10.2259C27.9274 10.7532 26.6314 11.985 25.8477 13.3981Z" fill="#B9B9B9"/>
<path fill-rule="evenodd" clip-rule="evenodd" d="M27.4858 14.4083C26.5612 15.762 25.3103 16.6194 24.2614 16.7935C24.1575 16.809 24.0578 16.845 23.9679 16.8994C23.8781 16.9538 23.8 17.0256 23.7382 17.1105C23.6764 17.1953 23.632 17.2917 23.6078 17.3939C23.5836 17.496 23.5799 17.602 23.597 17.7056C23.6141 17.8092 23.6517 17.9084 23.7075 17.9973C23.7633 18.0863 23.8363 18.1633 23.9221 18.2237C24.008 18.2842 24.105 18.327 24.2076 18.3496C24.3101 18.3723 24.4161 18.3743 24.5195 18.3555C26.121 18.0903 27.7075 16.8901 28.7929 15.3013C29.8917 13.6926 30.5559 11.5757 30.1878 9.35188C30.1708 9.24927 30.1338 9.151 30.0789 9.06269C30.024 8.97437 29.9522 8.89774 29.8677 8.83716C29.7831 8.77659 29.6875 8.73326 29.5862 8.70965C29.4849 8.68603 29.38 8.6826 29.2774 8.69955C29.1748 8.71649 29.0765 8.75349 28.9882 8.80841C28.8999 8.86333 28.8232 8.93511 28.7627 9.01965C28.7021 9.10419 28.6587 9.19984 28.6351 9.30112C28.6115 9.40241 28.6081 9.50735 28.625 9.60996C28.9156 11.3627 28.397 13.0735 27.485 14.4075L27.4858 14.4083Z" fill="#B9B9B9"/>
<path fill-rule="evenodd" clip-rule="evenodd" d="M25.1592 18.8582C24.6343 18.8582 24.1309 19.0668 23.7597 19.4379C23.3885 19.8091 23.18 20.3125 23.18 20.8374C23.18 21.3623 23.3885 21.8657 23.7597 22.2369C24.1309 22.6081 24.6343 22.8166 25.1592 22.8166C25.6841 22.8166 26.1875 22.6081 26.5587 22.2369C26.9298 21.8657 27.1383 21.3623 27.1383 20.8374C27.1383 20.3125 26.9298 19.8091 26.5587 19.4379C26.1875 19.0668 25.6841 18.8582 25.1592 18.8582ZM21.5967 20.8374C21.5967 20.3696 21.6888 19.9063 21.8679 19.4741C22.0469 19.0419 22.3093 18.6491 22.6401 18.3183C22.9709 17.9875 23.3636 17.7251 23.7959 17.5461C24.2281 17.367 24.6913 17.2749 25.1592 17.2749C25.627 17.2749 26.0903 17.367 26.5225 17.5461C26.9547 17.7251 27.3474 17.9875 27.6782 18.3183C28.0091 18.6491 28.2715 19.0419 28.4505 19.4741C28.6295 19.9063 28.7217 20.3696 28.7217 20.8374C28.7217 21.7822 28.3463 22.6884 27.6782 23.3565C27.0101 24.0246 26.104 24.3999 25.1592 24.3999C24.2143 24.3999 23.3082 24.0246 22.6401 23.3565C21.972 22.6884 21.5967 21.7822 21.5967 20.8374Z" fill="#B9B9B9"/>
<path fill-rule="evenodd" clip-rule="evenodd" d="M29.9604 14.9711C30.8497 15.2902 31.5758 15.9495 31.979 16.8039C32.3822 17.6583 32.4296 18.6379 32.1106 19.5272C32.0755 19.6251 32.0214 19.7151 31.9516 19.7921C31.8817 19.8691 31.7973 19.9316 31.7033 19.976C31.6093 20.0204 31.5074 20.0458 31.4036 20.0509C31.2997 20.0559 31.1959 20.0404 31.098 20.0053C31.0001 19.9703 30.9101 19.9162 30.8331 19.8464C30.7561 19.7765 30.6936 19.6921 30.6492 19.5981C30.6048 19.5041 30.5794 19.4022 30.5743 19.2984C30.5693 19.1945 30.5848 19.0907 30.6199 18.9928C30.7973 18.4988 30.7712 17.9545 30.5473 17.4797C30.3234 17.0049 29.9201 16.6385 29.426 16.4611C28.932 16.2836 28.3877 16.3097 27.9129 16.5336C27.4381 16.7575 27.0717 17.1608 26.8943 17.6549C26.8197 17.8475 26.6729 18.0034 26.485 18.0893C26.2971 18.1752 26.0831 18.1842 25.8887 18.1144C25.6942 18.0447 25.5347 17.9017 25.4442 17.716C25.3538 17.5303 25.3394 17.3166 25.4044 17.1205C25.7236 16.2314 26.3829 15.5055 27.2373 15.1024C28.0917 14.6993 29.0712 14.6521 29.9604 14.9711Z" fill="#B9B9B9"/>
<path fill-rule="evenodd" clip-rule="evenodd" d="M28.7 18.9975C29.5105 18.765 30.3771 18.8275 31.1459 19.1738C31.9147 19.5201 32.5357 20.1277 32.8987 20.8888C33.2616 21.6498 33.343 22.5149 33.1282 23.3303C32.9134 24.1456 32.4165 24.8584 31.7257 25.3419C31.6406 25.4039 31.5439 25.4483 31.4414 25.4725C31.3389 25.4967 31.2326 25.5002 31.1288 25.4827C31.0249 25.4653 30.9255 25.4274 30.8365 25.3711C30.7475 25.3148 30.6706 25.2413 30.6103 25.1549C30.5501 25.0685 30.5077 24.971 30.4856 24.868C30.4635 24.765 30.4622 24.6587 30.4817 24.5552C30.5012 24.4517 30.5412 24.3531 30.5993 24.2653C30.6574 24.1774 30.7325 24.1021 30.8201 24.0436C31.0379 23.8912 31.2229 23.6965 31.3638 23.4711C31.5048 23.2457 31.5989 22.9942 31.6405 22.7316C31.6822 22.4691 31.6705 22.2008 31.6062 21.9429C31.5418 21.6849 31.4262 21.4425 31.2662 21.2303C31.1061 21.018 30.905 20.8401 30.6747 20.7073C30.4444 20.5744 30.1897 20.4894 29.9258 20.4571C29.6619 20.4249 29.3942 20.4461 29.1387 20.5196C28.8832 20.5931 28.6452 20.7173 28.4387 20.8848C28.3581 20.9504 28.2652 20.9995 28.1656 21.0292C28.066 21.059 27.9614 21.0688 27.858 21.0581C27.7546 21.0475 27.6543 21.0165 27.5628 20.9671C27.4713 20.9177 27.3905 20.8507 27.3249 20.77C27.2593 20.6894 27.2102 20.5965 27.1805 20.4969C27.1507 20.3973 27.1409 20.2928 27.1516 20.1893C27.1622 20.0859 27.1931 19.9856 27.2426 19.8941C27.292 19.8026 27.359 19.7218 27.4396 19.6562C27.8112 19.3541 28.2399 19.1301 28.7 18.9975ZM21.9922 23.6082C21.4673 23.6082 20.9639 23.8167 20.5927 24.1878C20.2215 24.559 20.013 25.0624 20.013 25.5873C20.013 26.1122 20.2215 26.6156 20.5927 26.9868C20.9639 27.358 21.4673 27.5665 21.9922 27.5665C22.5171 27.5665 23.0205 27.358 23.3917 26.9868C23.7628 26.6156 23.9714 26.1122 23.9714 25.5873C23.9714 25.0624 23.7628 24.559 23.3917 24.1878C23.0205 23.8167 22.5171 23.6082 21.9922 23.6082ZM18.4297 25.5873C18.4297 24.6425 18.805 23.7364 19.4731 23.0683C20.1412 22.4002 21.0474 22.0248 21.9922 22.0248C22.937 22.0248 23.8432 22.4002 24.5113 23.0683C25.1794 23.7364 25.5547 24.6425 25.5547 25.5873C25.5547 26.5322 25.1794 27.4383 24.5113 28.1064C23.8432 28.7745 22.937 29.1498 21.9922 29.1498C21.0474 29.1498 20.1412 28.7745 19.4731 28.1064C18.805 27.4383 18.4297 26.5322 18.4297 25.5873Z" fill="#B9B9B9"/>
<path fill-rule="evenodd" clip-rule="evenodd" d="M28.3257 23.6082C27.8008 23.6082 27.2974 23.8168 26.9262 24.1879C26.555 24.5591 26.3465 25.0625 26.3465 25.5874C26.3465 26.1123 26.555 26.6157 26.9262 26.9869C27.2974 27.3581 27.8008 27.5666 28.3257 27.5666C28.8506 27.5666 29.354 27.3581 29.7252 26.9869C30.0963 26.6157 30.3048 26.1123 30.3048 25.5874C30.3048 25.0625 30.0963 24.5591 29.7252 24.1879C29.354 23.8168 28.8506 23.6082 28.3257 23.6082ZM24.7632 25.5874C24.7632 24.6426 25.1385 23.7364 25.8066 23.0683C26.4747 22.4002 27.3808 22.0249 28.3257 22.0249C29.2705 22.0249 30.1767 22.4002 30.8447 23.0683C31.5128 23.7364 31.8882 24.6426 31.8882 25.5874C31.8882 26.5322 31.5128 27.4384 30.8447 28.1065C30.1767 28.7746 29.2705 29.1499 28.3257 29.1499C27.3808 29.1499 26.4747 28.7746 25.8066 28.1065C25.1385 27.4384 24.7632 26.5322 24.7632 25.5874Z" fill="#B9B9B9"/>
<path fill-rule="evenodd" clip-rule="evenodd" d="M25.1592 28.3582C24.6343 28.3582 24.1309 28.5668 23.7597 28.9379C23.3885 29.3091 23.18 29.8125 23.18 30.3374C23.18 30.8623 23.3885 31.3657 23.7597 31.7369C24.1309 32.1081 24.6343 32.3166 25.1592 32.3166C25.6841 32.3166 26.1875 32.1081 26.5587 31.7369C26.9298 31.3657 27.1383 30.8623 27.1383 30.3374C27.1383 29.8125 26.9298 29.3091 26.5587 28.9379C26.1875 28.5668 25.6841 28.3582 25.1592 28.3582ZM21.5967 30.3374C21.5967 29.8696 21.6888 29.4063 21.8679 28.9741C22.0469 28.5419 22.3093 28.1491 22.6401 27.8183C22.9709 27.4875 23.3636 27.2251 23.7959 27.0461C24.2281 26.867 24.6913 26.7749 25.1592 26.7749C25.627 26.7749 26.0903 26.867 26.5225 27.0461C26.9547 27.2251 27.3474 27.4875 27.6782 27.8183C28.0091 28.1491 28.2715 28.5419 28.4505 28.9741C28.6295 29.4063 28.7217 29.8696 28.7217 30.3374C28.7217 31.2822 28.3463 32.1884 27.6782 32.8565C27.0101 33.5246 26.104 33.8999 25.1592 33.8999C24.2143 33.8999 23.3082 33.5246 22.6401 32.8565C21.972 32.1884 21.5967 31.2822 21.5967 30.3374Z" fill="#B9B9B9"/>
<path fill-rule="evenodd" clip-rule="evenodd" d="M29.9515 27.5396C29.9864 27.4416 30.0403 27.3515 30.11 27.2744C30.1798 27.1973 30.264 27.1347 30.358 27.0901C30.452 27.0456 30.5538 27.02 30.6576 27.0148C30.7615 27.0096 30.8653 27.0249 30.9632 27.0598C31.4655 27.2392 31.921 27.529 32.2963 27.9079C32.6716 28.2867 32.9571 28.7451 33.1316 29.249C33.3061 29.7529 33.3653 30.2896 33.3047 30.8194C33.2442 31.3493 33.0654 31.8587 32.7817 32.3103C32.498 32.7618 32.1165 33.1439 31.6654 33.4283C31.2143 33.7128 30.7051 33.8923 30.1753 33.9537C29.6456 34.0151 29.1088 33.9568 28.6046 33.783C28.1004 33.6093 27.6417 33.3245 27.2622 32.9498C27.1863 32.8773 27.1256 32.7903 27.0836 32.694C27.0416 32.5977 27.0192 32.494 27.0177 32.389C27.0161 32.284 27.0355 32.1797 27.0747 32.0822C27.1139 31.9848 27.1721 31.8961 27.2459 31.8214C27.3197 31.7466 27.4076 31.6873 27.5046 31.6469C27.6015 31.6065 27.7056 31.5857 27.8106 31.5859C27.9156 31.5861 28.0196 31.6072 28.1164 31.6479C28.2132 31.6887 28.301 31.7483 28.3745 31.8233C28.5853 32.0315 28.8401 32.1896 29.1202 32.2862C29.4003 32.3827 29.6985 32.4152 29.9928 32.3811C30.287 32.347 30.5699 32.2473 30.8205 32.0894C31.0712 31.9314 31.2831 31.7192 31.4408 31.4683C31.5984 31.2175 31.6978 30.9345 31.7315 30.6402C31.7652 30.3459 31.7324 30.0477 31.6355 29.7678C31.5386 29.4878 31.3801 29.2332 31.1717 29.0226C30.9632 28.8121 30.7102 28.651 30.4312 28.5513C30.3333 28.5164 30.2432 28.4625 30.1661 28.3928C30.089 28.3231 30.0263 28.2388 29.9818 28.1448C29.9372 28.0509 29.9116 27.9491 29.9064 27.8452C29.9012 27.7414 29.9166 27.6375 29.9515 27.5396Z" fill="#B9B9B9"/>
</svg>
