<svg width="38" height="39" viewBox="0 0 38 39" fill="none" xmlns="http://www.w3.org/2000/svg">
<path fill-rule="evenodd" clip-rule="evenodd" d="M14.9467 6.63672C15.1567 6.63672 15.358 6.72013 15.5065 6.86859C15.655 7.01706 15.7384 7.21842 15.7384 7.42839V12.6534C15.7384 12.8633 15.655 13.0647 15.5065 13.2132C15.358 13.3616 15.1567 13.4451 14.9467 13.4451C14.7367 13.4451 14.5354 13.3616 14.3869 13.2132C14.2384 13.0647 14.155 12.8633 14.155 12.6534V7.42839C14.155 7.21842 14.2384 7.01706 14.3869 6.86859C14.5354 6.72013 14.7367 6.63672 14.9467 6.63672Z" fill="#B9B9B9"/>
<path fill-rule="evenodd" clip-rule="evenodd" d="M9.32584 11.655C10.2204 11.4413 11.1332 11.6036 12.0808 12.0928C12.8527 12.4926 13.4006 12.6755 13.8273 12.7634C14.2532 12.852 14.592 12.8536 15.0013 12.8536V14.4369H14.9855C14.577 14.4369 14.0988 14.4369 13.5066 14.3142C12.9073 14.1899 12.2226 13.9485 11.3533 13.4988C10.6582 13.1402 10.1341 13.0895 9.69397 13.1948C9.23163 13.3057 8.74318 13.6144 8.1803 14.1955C6.8883 15.5318 6.48693 16.9077 6.3468 17.9654C6.26763 19.2669 6.50276 21.8367 7.6673 24.3486C8.06314 25.2036 8.62522 26.3832 9.3108 27.3071C9.6528 27.7678 9.99638 28.1225 10.3265 28.341C10.6471 28.5524 10.9131 28.6102 11.1546 28.569C13.627 28.1431 14.0917 28.1328 14.5738 28.1328H15.3948V29.7161H14.5508C14.2168 29.7161 13.8225 29.7161 11.4238 30.1294C10.6796 30.2576 10.0091 30.0288 9.45409 29.6623C8.90864 29.3021 8.43759 28.7867 8.03938 28.2507C7.24376 27.1796 6.62151 25.8567 6.23122 25.0144C4.93447 22.2182 4.67005 19.3643 4.76822 17.8387L4.77059 17.8134L4.77376 17.7881C4.94159 16.4866 5.44193 14.7489 7.04268 13.0951C7.71163 12.4032 8.45422 11.8632 9.32663 11.6542L9.32584 11.655Z" fill="#B9B9B9"/>
<path fill-rule="evenodd" clip-rule="evenodd" d="M11.59 9.67985C12.7744 10.8127 13.4164 12.1863 13.4164 13.2503C13.4164 13.4602 13.4998 13.6616 13.6483 13.8101C13.7968 13.9585 13.9981 14.0419 14.2081 14.0419C14.418 14.0419 14.6194 13.9585 14.7679 13.8101C14.9163 13.6616 14.9997 13.4602 14.9997 13.2503C14.9997 11.6273 14.0751 9.86589 12.6841 8.5351C11.2765 7.18927 9.29658 6.1886 7.0427 6.1886C6.83274 6.1886 6.63138 6.27201 6.48291 6.42047C6.33445 6.56894 6.25104 6.7703 6.25104 6.98027C6.25104 7.19023 6.33445 7.39159 6.48291 7.54006C6.63138 7.68852 6.83274 7.77193 7.0427 7.77193C8.8192 7.77193 10.4215 8.56281 11.5892 9.67985H11.59Z" fill="#B9B9B9"/>
<path fill-rule="evenodd" clip-rule="evenodd" d="M6.78774 6.19566C6.99601 6.16969 7.20607 6.22748 7.37175 6.35634C7.53742 6.4852 7.64515 6.67457 7.67124 6.88283C8.06074 9.99408 10.7944 11.6328 13.0023 12.5155C13.1973 12.5935 13.3533 12.7458 13.4359 12.9388C13.5186 13.1318 13.5213 13.3498 13.4433 13.5447C13.3653 13.7397 13.213 13.8956 13.02 13.9783C12.827 14.061 12.6091 14.0637 12.4141 13.9857C10.1428 13.0776 6.60724 11.1325 6.10057 7.07916C6.0746 6.87089 6.13239 6.66083 6.26125 6.49515C6.39011 6.32948 6.57948 6.22176 6.78774 6.19566ZM20.3949 11.6534C19.4829 11.4444 18.5472 11.6012 17.5687 12.0872C16.7612 12.4878 16.1856 12.6731 15.7344 12.7625C15.2831 12.852 14.9253 12.8536 14.4994 12.8536C14.2894 12.8536 14.088 12.937 13.9396 13.0855C13.7911 13.2339 13.7077 13.4353 13.7077 13.6452C13.7077 13.8552 13.7911 14.0566 13.9396 14.205C14.088 14.3535 14.2894 14.4369 14.4994 14.4369H14.5144C14.9395 14.4369 15.4327 14.4369 16.0423 14.3158C16.6606 14.1931 17.3692 13.9532 18.2717 13.5051C19.0032 13.1425 19.5637 13.0871 20.0418 13.1964C20.5374 13.3104 21.0528 13.6255 21.6386 14.2073C22.9971 15.5555 23.408 16.9402 23.5497 17.9947C23.5805 18.2003 23.6909 18.3855 23.8571 18.5104C24.0233 18.6353 24.2319 18.6898 24.4379 18.6621C24.644 18.6345 24.8309 18.5269 24.9583 18.3626C25.0856 18.1983 25.1433 17.9905 25.1188 17.7841C24.943 16.4755 24.4189 14.7362 22.7541 13.0832C22.0566 12.3912 21.2895 11.8577 20.3949 11.6534ZM21.143 27.7852C21.0681 27.7131 20.9798 27.6565 20.883 27.6185C20.7862 27.5806 20.6828 27.5621 20.5789 27.564C20.4749 27.566 20.3724 27.5885 20.2771 27.6301C20.1819 27.6717 20.0957 27.7317 20.0236 27.8066C19.4243 28.4288 18.9208 28.6378 18.4949 28.5682C15.9204 28.1422 15.4391 28.1327 14.9443 28.1327C14.7343 28.1327 14.533 28.2162 14.3845 28.3646C14.236 28.5131 14.1526 28.7145 14.1526 28.9244C14.1526 29.1344 14.236 29.3357 14.3845 29.4842C14.533 29.6327 14.7343 29.7161 14.9443 29.7161H14.9664C15.3203 29.7161 15.732 29.7161 18.236 30.1301C19.4409 30.3296 20.4408 29.6559 21.1644 28.9046C21.2366 28.8297 21.2934 28.7413 21.3314 28.6444C21.3694 28.5475 21.3879 28.4441 21.386 28.3401C21.384 28.236 21.3615 28.1334 21.3198 28.0381C21.2781 27.9427 21.2181 27.8573 21.143 27.7852Z" fill="#B9B9B9"/>
<path fill-rule="evenodd" clip-rule="evenodd" d="M25.8479 13.3952C25.0539 14.8281 24.848 16.3315 25.1639 17.3472C25.1948 17.4465 25.2058 17.5509 25.1963 17.6544C25.1869 17.7579 25.1571 17.8586 25.1087 17.9507C25.0604 18.0427 24.9943 18.1243 24.9144 18.1908C24.8345 18.2573 24.7423 18.3075 24.643 18.3383C24.5437 18.3692 24.4393 18.3802 24.3358 18.3708C24.2322 18.3613 24.1316 18.3315 24.0395 18.2832C23.9475 18.2348 23.8659 18.1688 23.7994 18.0889C23.7328 18.0089 23.6827 17.9167 23.6518 17.8174C23.1697 16.2666 23.5307 14.3103 24.4633 12.6273C25.4077 10.9236 27.0014 9.38064 29.1539 8.71089C29.2532 8.68001 29.3576 8.66899 29.4611 8.67846C29.5647 8.68793 29.6653 8.7177 29.7574 8.76607C29.8494 8.81444 29.931 8.88047 29.9976 8.96038C30.0641 9.04029 30.1142 9.13252 30.1451 9.23181C30.176 9.33109 30.187 9.43549 30.1775 9.53903C30.168 9.64257 30.1383 9.74324 30.0899 9.83527C30.0415 9.92731 29.9755 10.0089 29.8956 10.0754C29.8157 10.142 29.7235 10.1921 29.6242 10.223C27.9276 10.7502 26.6317 11.9821 25.8479 13.3952Z" fill="#B9B9B9"/>
<path fill-rule="evenodd" clip-rule="evenodd" d="M27.4859 14.4053C26.5612 15.7591 25.3104 16.6165 24.2614 16.7906C24.1576 16.8061 24.0578 16.8421 23.968 16.8965C23.8782 16.9509 23.8001 17.0226 23.7382 17.1075C23.6764 17.1924 23.6321 17.2887 23.6079 17.3909C23.5836 17.4931 23.58 17.5991 23.5971 17.7027C23.6142 17.8063 23.6518 17.9055 23.7076 17.9944C23.7634 18.0834 23.8363 18.1603 23.9222 18.2208C24.008 18.2813 24.1051 18.3241 24.2076 18.3467C24.3102 18.3693 24.4162 18.3713 24.5195 18.3526C26.1211 18.0874 27.7076 16.8872 28.7929 15.2983C29.8918 13.6897 30.556 11.5727 30.1878 9.34895C30.1709 9.24634 30.1339 9.14807 30.079 9.05976C30.0241 8.97144 29.9523 8.89481 29.8677 8.83423C29.7832 8.77366 29.6876 8.73033 29.5863 8.70672C29.485 8.6831 29.38 8.67967 29.2774 8.69662C29.1748 8.71356 29.0766 8.75056 28.9882 8.80548C28.8999 8.8604 28.8233 8.93218 28.7627 9.01672C28.7021 9.10126 28.6588 9.19691 28.6352 9.29819C28.6116 9.39948 28.6082 9.50442 28.6251 9.60704C28.9156 11.3598 28.3971 13.0706 27.4851 14.4045L27.4859 14.4053Z" fill="#B9B9B9"/>
<path fill-rule="evenodd" clip-rule="evenodd" d="M25.1592 18.8553C24.6343 18.8553 24.1309 19.0638 23.7597 19.435C23.3885 19.8062 23.18 20.3096 23.18 20.8345C23.18 21.3594 23.3885 21.8628 23.7597 22.234C24.1309 22.6051 24.6343 22.8136 25.1592 22.8136C25.6841 22.8136 26.1875 22.6051 26.5587 22.234C26.9298 21.8628 27.1383 21.3594 27.1383 20.8345C27.1383 20.3096 26.9298 19.8062 26.5587 19.435C26.1875 19.0638 25.6841 18.8553 25.1592 18.8553ZM21.5967 20.8345C21.5967 20.3666 21.6888 19.9034 21.8679 19.4712C22.0469 19.0389 22.3093 18.6462 22.6401 18.3154C22.9709 17.9846 23.3636 17.7222 23.7959 17.5432C24.2281 17.3641 24.6913 17.272 25.1592 17.272C25.627 17.272 26.0903 17.3641 26.5225 17.5432C26.9547 17.7222 27.3474 17.9846 27.6782 18.3154C28.0091 18.6462 28.2715 19.0389 28.4505 19.4712C28.6295 19.9034 28.7217 20.3666 28.7217 20.8345C28.7217 21.7793 28.3463 22.6854 27.6782 23.3535C27.0101 24.0216 26.104 24.397 25.1592 24.397C24.2143 24.397 23.3082 24.0216 22.6401 23.3535C21.972 22.6854 21.5967 21.7793 21.5967 20.8345Z" fill="#B9B9B9"/>
<path fill-rule="evenodd" clip-rule="evenodd" d="M29.9606 14.9682C30.8499 15.2873 31.576 15.9465 31.9793 16.8009C32.3825 17.6554 32.4298 18.635 32.1108 19.5243C32.0757 19.6221 32.0217 19.7121 31.9518 19.7891C31.8819 19.8662 31.7976 19.9286 31.7036 19.973C31.6095 20.0174 31.5077 20.0429 31.4038 20.0479C31.3 20.053 31.1961 20.0375 31.0983 20.0024C31.0004 19.9673 30.9104 19.9133 30.8334 19.8434C30.7564 19.7736 30.6939 19.6892 30.6495 19.5952C30.6051 19.5012 30.5796 19.3993 30.5746 19.2955C30.5695 19.1916 30.585 19.0878 30.6201 18.9899C30.7975 18.4958 30.7714 17.9515 30.5475 17.4768C30.3236 17.002 29.9203 16.6355 29.4263 16.4581C28.9322 16.2807 28.3879 16.3068 27.9131 16.5307C27.4383 16.7546 27.0719 17.1579 26.8945 17.652C26.82 17.8446 26.6731 18.0005 26.4852 18.0864C26.2973 18.1722 26.0833 18.1813 25.8889 18.1115C25.6945 18.0418 25.535 17.8988 25.4445 17.7131C25.354 17.5274 25.3397 17.3137 25.4046 17.1176C25.7238 16.2285 26.3831 15.5025 27.2375 15.0995C28.0919 14.6964 29.0714 14.6492 29.9606 14.9682Z" fill="#B9B9B9"/>
<path fill-rule="evenodd" clip-rule="evenodd" d="M28.7003 18.9946C29.5108 18.7621 30.3774 18.8246 31.1462 19.1708C31.915 19.5171 32.536 20.1248 32.899 20.8859C33.2619 21.6469 33.3433 22.512 33.1285 23.3273C32.9137 24.1427 32.4168 24.8555 31.726 25.339C31.6409 25.401 31.5442 25.4454 31.4417 25.4696C31.3392 25.4937 31.2329 25.4972 31.1291 25.4798C31.0252 25.4624 30.9258 25.4244 30.8368 25.3681C30.7478 25.3118 30.6709 25.2384 30.6107 25.152C30.5504 25.0656 30.508 24.9681 30.4859 24.8651C30.4638 24.7621 30.4625 24.6557 30.482 24.5522C30.5015 24.4488 30.5415 24.3502 30.5996 24.2623C30.6577 24.1745 30.7328 24.0991 30.8204 24.0406C31.0382 23.8883 31.2232 23.6936 31.3641 23.4682C31.5051 23.2428 31.5992 22.9913 31.6408 22.7287C31.6825 22.4661 31.6708 22.1979 31.6065 21.9399C31.5421 21.682 31.4265 21.4396 31.2665 21.2273C31.1064 21.015 30.9053 20.8372 30.675 20.7043C30.4447 20.5715 30.19 20.4864 29.9261 20.4542C29.6622 20.422 29.3945 20.4432 29.139 20.5167C28.8835 20.5902 28.6455 20.7144 28.439 20.8819C28.3584 20.9475 28.2656 20.9966 28.1659 21.0263C28.0663 21.056 27.9618 21.0658 27.8583 21.0552C27.7549 21.0445 27.6546 21.0136 27.5631 20.9642C27.4716 20.9147 27.3908 20.8478 27.3252 20.7671C27.2596 20.6864 27.2105 20.5936 27.1808 20.494C27.151 20.3943 27.1412 20.2898 27.1519 20.1864C27.1625 20.083 27.1935 19.9826 27.2429 19.8912C27.2923 19.7997 27.3593 19.7188 27.4399 19.6532C27.8115 19.3512 28.2402 19.1272 28.7003 18.9946ZM21.9925 23.6052C21.4676 23.6052 20.9642 23.8137 20.593 24.1849C20.2218 24.5561 20.0133 25.0595 20.0133 25.5844C20.0133 26.1093 20.2218 26.6127 20.593 26.9839C20.9642 27.355 21.4676 27.5636 21.9925 27.5636C22.5174 27.5636 23.0208 27.355 23.392 26.9839C23.7631 26.6127 23.9717 26.1093 23.9717 25.5844C23.9717 25.0595 23.7631 24.5561 23.392 24.1849C23.0208 23.8137 22.5174 23.6052 21.9925 23.6052ZM18.43 25.5844C18.43 24.6396 18.8053 23.7334 19.4734 23.0653C20.1415 22.3972 21.0477 22.0219 21.9925 22.0219C22.9373 22.0219 23.8435 22.3972 24.5116 23.0653C25.1797 23.7334 25.555 24.6396 25.555 25.5844C25.555 26.5292 25.1797 27.4354 24.5116 28.1035C23.8435 28.7716 22.9373 29.1469 21.9925 29.1469C21.0477 29.1469 20.1415 28.7716 19.4734 28.1035C18.8053 27.4354 18.43 26.5292 18.43 25.5844Z" fill="#B9B9B9"/>
<path fill-rule="evenodd" clip-rule="evenodd" d="M28.3259 23.6053C27.801 23.6053 27.2976 23.8138 26.9264 24.185C26.5552 24.5562 26.3467 25.0596 26.3467 25.5845C26.3467 26.1094 26.5552 26.6128 26.9264 26.984C27.2976 27.3551 27.801 27.5636 28.3259 27.5636C28.8508 27.5636 29.3542 27.3551 29.7253 26.984C30.0965 26.6128 30.305 26.1094 30.305 25.5845C30.305 25.0596 30.0965 24.5562 29.7253 24.185C29.3542 23.8138 28.8508 23.6053 28.3259 23.6053ZM24.7634 25.5845C24.7634 24.6396 25.1387 23.7335 25.8068 23.0654C26.4749 22.3973 27.381 22.022 28.3259 22.022C29.2707 22.022 30.1768 22.3973 30.8449 23.0654C31.513 23.7335 31.8884 24.6396 31.8884 25.5845C31.8884 26.5293 31.513 27.4354 30.8449 28.1035C30.1768 28.7716 29.2707 29.147 28.3259 29.147C27.381 29.147 26.4749 28.7716 25.8068 28.1035C25.1387 27.4354 24.7634 26.5293 24.7634 25.5845Z" fill="#B9B9B9"/>
<path fill-rule="evenodd" clip-rule="evenodd" d="M25.1592 28.3553C24.6343 28.3553 24.1309 28.5638 23.7597 28.935C23.3885 29.3062 23.18 29.8096 23.18 30.3345C23.18 30.8594 23.3885 31.3628 23.7597 31.734C24.1309 32.1051 24.6343 32.3136 25.1592 32.3136C25.6841 32.3136 26.1875 32.1051 26.5587 31.734C26.9298 31.3628 27.1383 30.8594 27.1383 30.3345C27.1383 29.8096 26.9298 29.3062 26.5587 28.935C26.1875 28.5638 25.6841 28.3553 25.1592 28.3553ZM21.5967 30.3345C21.5967 29.8666 21.6888 29.4034 21.8679 28.9712C22.0469 28.5389 22.3093 28.1462 22.6401 27.8154C22.9709 27.4846 23.3636 27.2222 23.7959 27.0432C24.2281 26.8641 24.6913 26.772 25.1592 26.772C25.627 26.772 26.0903 26.8641 26.5225 27.0432C26.9547 27.2222 27.3474 27.4846 27.6782 27.8154C28.0091 28.1462 28.2715 28.5389 28.4505 28.9712C28.6295 29.4034 28.7217 29.8666 28.7217 30.3345C28.7217 31.2793 28.3463 32.1854 27.6782 32.8535C27.0101 33.5216 26.104 33.897 25.1592 33.897C24.2143 33.897 23.3082 33.5216 22.6401 32.8535C21.972 32.1854 21.5967 31.2793 21.5967 30.3345Z" fill="#B9B9B9"/>
<path fill-rule="evenodd" clip-rule="evenodd" d="M29.9519 27.5367C29.9868 27.4387 30.0407 27.3486 30.1105 27.2715C30.1802 27.1944 30.2645 27.1318 30.3584 27.0872C30.4524 27.0427 30.5542 27.0171 30.658 27.0119C30.7619 27.0067 30.8657 27.022 30.9637 27.0569C31.4659 27.2362 31.9215 27.526 32.2968 27.9049C32.6721 28.2838 32.9575 28.7421 33.132 29.246C33.3066 29.75 33.3657 30.2866 33.3052 30.8165C33.2446 31.3463 33.0659 31.8558 32.7821 32.3074C32.4984 32.7589 32.1169 33.141 31.6658 33.4254C31.2147 33.7099 30.7055 33.8894 30.1758 33.9508C29.646 34.0122 29.1092 33.9538 28.6051 33.7801C28.1009 33.6063 27.6421 33.3216 27.2626 32.9469C27.1867 32.8743 27.126 32.7874 27.084 32.6911C27.042 32.5948 27.0196 32.4911 27.0181 32.3861C27.0166 32.2811 27.036 32.1768 27.0752 32.0793C27.1143 31.9819 27.1725 31.8932 27.2463 31.8184C27.3201 31.7437 27.4081 31.6844 27.505 31.6439C27.602 31.6035 27.706 31.5828 27.811 31.583C27.9161 31.5832 28.02 31.6042 28.1168 31.645C28.2137 31.6858 28.3014 31.7454 28.3749 31.8204C28.5857 32.0285 28.8406 32.1867 29.1206 32.2833C29.4007 32.3798 29.6989 32.4122 29.9932 32.3782C30.2875 32.3441 30.5704 32.2444 30.821 32.0864C31.0716 31.9285 31.2835 31.7162 31.4412 31.4654C31.5989 31.2146 31.6982 30.9316 31.7319 30.6373C31.7656 30.3429 31.7328 30.0448 31.6359 29.7648C31.539 29.4849 31.3805 29.2302 31.1721 29.0197C30.9637 28.8092 30.7106 28.6481 30.4317 28.5484C30.3337 28.5135 30.2436 28.4596 30.1665 28.3899C30.0894 28.3201 30.0268 28.2359 29.9822 28.1419C29.9377 28.048 29.9121 27.9462 29.9069 27.8423C29.9017 27.7384 29.917 27.6346 29.9519 27.5367Z" fill="#B9B9B9"/>
</svg>
