<svg width="30" height="31" viewBox="0 0 30 31" fill="none" xmlns="http://www.w3.org/2000/svg">
<path d="M10.625 3.14697C12.624 3.14697 14.5529 3.88393 16.0427 5.21689C17.5325 6.54984 18.4786 8.38523 18.7 10.372L27.5 15.647V18.147L25 16.647V28.147H22.5V15.147L18.75 12.897V28.147H16.25V11.897H5V28.147H2.5V11.272C2.5 9.11709 3.35602 7.05046 4.87976 5.52673C6.40349 4.003 8.47012 3.14697 10.625 3.14697ZM10.625 5.64697C8.175 5.64697 6.0875 7.20947 5.325 9.39697H15.925C15.1625 7.20947 13.075 5.64697 10.625 5.64697ZM7.5 14.397H13.75V16.897H7.5V14.397ZM7.5 19.397H13.75V21.897H7.5V19.397ZM7.5 24.397H13.75V26.897H7.5V24.397Z" fill="white"/>
</svg>
