<svg width="30" height="31" viewBox="0 0 30 31" fill="none" xmlns="http://www.w3.org/2000/svg">
<path d="M10.625 3.1499C12.624 3.1499 14.5529 3.88686 16.0427 5.21982C17.5325 6.55277 18.4786 8.38816 18.7 10.3749L27.5 15.6499V18.1499L25 16.6499V28.1499H22.5V15.1499L18.75 12.8999V28.1499H16.25V11.8999H5V28.1499H2.5V11.2749C2.5 9.12002 3.35602 7.05339 4.87976 5.52966C6.40349 4.00593 8.47012 3.1499 10.625 3.1499ZM10.625 5.6499C8.175 5.6499 6.0875 7.2124 5.325 9.3999H15.925C15.1625 7.2124 13.075 5.6499 10.625 5.6499ZM7.5 14.3999H13.75V16.8999H7.5V14.3999ZM7.5 19.3999H13.75V21.8999H7.5V19.3999ZM7.5 24.3999H13.75V26.8999H7.5V24.3999Z" fill="#B9B9B9"/>
</svg>
