<svg width="40" height="40" viewBox="0 0 40 40" fill="none" xmlns="http://www.w3.org/2000/svg">
<path d="M27.8125 5.625C24.4625 5.625 21.575 7.21719 20 9.85469C18.425 7.21719 15.5375 5.625 12.1875 5.625C9.78486 5.62789 7.48146 6.58362 5.78254 8.28254C4.08362 9.98146 3.12789 12.2849 3.125 14.6875C3.125 19.1547 5.9375 23.8234 11.4688 28.5609C14.0227 30.7342 16.7802 32.6561 19.7031 34.3C19.7943 34.3492 19.8964 34.375 20 34.375C20.1036 34.375 20.2057 34.3492 20.2969 34.3C23.2198 32.6561 25.9773 30.7342 28.5312 28.5609C34.0625 23.8234 36.875 19.1547 36.875 14.6875C36.8721 12.2849 35.9164 9.98146 34.2175 8.28254C32.5185 6.58362 30.2151 5.62789 27.8125 5.625ZM20 33.0344C17.8125 31.7906 4.375 23.7609 4.375 14.6875C4.37748 12.6163 5.20138 10.6306 6.66597 9.16597C8.13056 7.70138 10.1163 6.87748 12.1875 6.875C15.4859 6.875 18.2578 8.64219 19.4219 11.4859C19.469 11.6006 19.5491 11.6986 19.652 11.7676C19.7549 11.8366 19.8761 11.8735 20 11.8735C20.1239 11.8735 20.2451 11.8366 20.348 11.7676C20.4509 11.6986 20.531 11.6006 20.5781 11.4859C21.7422 8.64219 24.5141 6.875 27.8125 6.875C29.8837 6.87748 31.8694 7.70138 33.334 9.16597C34.7986 10.6306 35.6225 12.6163 35.625 14.6875C35.625 23.75 22.1875 31.7906 20 33.0344Z" fill="#FF485E"/>
<path d="M37.5 14.6875C37.5 25.625 21.2828 34.4781 20.5922 34.8438C20.4102 34.9417 20.2067 34.9929 20 34.9929C19.7933 34.9929 19.5898 34.9417 19.4078 34.8438C18.7172 34.4781 2.5 25.625 2.5 14.6875C2.50289 12.1191 3.52447 9.65673 5.3406 7.8406C7.15673 6.02447 9.6191 5.00289 12.1875 5C15.4141 5 18.2391 6.3875 20 8.73281C21.7609 6.3875 24.5859 5 27.8125 5C30.3809 5.00289 32.8433 6.02447 34.6594 7.8406C36.4755 9.65673 37.4971 12.1191 37.5 14.6875Z" fill="#FF485E"/>
</svg>
