<svg width="36" height="34" viewBox="0 0 36 34" fill="none" xmlns="http://www.w3.org/2000/svg">
<path d="M31.4436 28.2891C29.3147 24.6607 25.9724 22.1147 22.0888 21.0349C23.9769 20.0883 25.4868 18.5421 26.3749 16.6456C27.263 14.7491 27.4777 12.6128 26.9842 10.5813C26.4907 8.54978 25.3179 6.74137 23.6548 5.44769C21.9918 4.15401 19.9354 3.45044 17.8174 3.45044C15.6993 3.45044 13.6429 4.15401 11.9799 5.44769C10.3168 6.74137 9.14399 8.54978 8.65052 10.5813C8.15704 12.6128 8.37167 14.7491 9.2598 16.6456C10.1479 18.5421 11.6578 20.0883 13.5459 21.0349C9.66231 22.1133 6.32003 24.6594 4.19105 28.2891C4.13259 28.3798 4.09334 28.4812 4.07565 28.5873C4.05797 28.6933 4.06222 28.8018 4.08814 28.9062C4.11407 29.0106 4.16113 29.1087 4.22651 29.1947C4.29189 29.2807 4.37422 29.3527 4.46856 29.4065C4.56291 29.4603 4.6673 29.4947 4.77548 29.5077C4.88365 29.5206 4.99337 29.5119 5.09802 29.4819C5.20267 29.452 5.30011 29.4015 5.38445 29.3334C5.4688 29.2654 5.53832 29.1812 5.58883 29.086C8.17566 24.6779 12.746 22.0469 17.8174 22.0469C22.8887 22.0469 27.459 24.6779 30.0459 29.086C30.0964 29.1812 30.1659 29.2654 30.2502 29.3334C30.3346 29.4015 30.432 29.452 30.5367 29.4819C30.6413 29.5119 30.7511 29.5206 30.8592 29.5077C30.9674 29.4947 31.0718 29.4603 31.1661 29.4065C31.2605 29.3527 31.3428 29.2807 31.4082 29.1947C31.4736 29.1087 31.5206 29.0106 31.5466 28.9062C31.5725 28.8018 31.5767 28.6933 31.559 28.5873C31.5414 28.4812 31.5021 28.3798 31.4436 28.2891ZM10.007 12.7501C10.007 11.2265 10.4651 9.7372 11.3233 8.47043C12.1815 7.20366 13.4013 6.21633 14.8285 5.6333C16.2556 5.05027 17.826 4.89772 19.3411 5.19495C20.8561 5.49217 22.2478 6.22582 23.3401 7.30313C24.4324 8.38043 25.1762 9.75299 25.4776 11.2473C25.779 12.7415 25.6243 14.2904 25.0331 15.6979C24.442 17.1055 23.4409 18.3085 22.1565 19.155C20.8721 20.0014 19.3621 20.4532 17.8174 20.4532C15.7467 20.4507 13.7616 19.6384 12.2974 18.1943C10.8332 16.7502 10.0095 14.7923 10.007 12.7501Z" fill="#121212"/>
</svg>
