<svg width="36" height="34" viewBox="0 0 36 34" fill="none" xmlns="http://www.w3.org/2000/svg">
<path d="M31.4436 28.2891C29.3147 24.6606 25.9724 22.1146 22.0888 21.0348C23.9769 20.0882 25.4868 18.542 26.3749 16.6455C27.263 14.749 27.4777 12.6128 26.9842 10.5812C26.4907 8.54972 25.3179 6.74131 23.6548 5.44763C21.9918 4.15394 19.9354 3.45038 17.8174 3.45038C15.6993 3.45038 13.6429 4.15394 11.9799 5.44763C10.3168 6.74131 9.14399 8.54972 8.65052 10.5812C8.15704 12.6128 8.37167 14.749 9.2598 16.6455C10.1479 18.542 11.6578 20.0882 13.5459 21.0348C9.66231 22.1133 6.32003 24.6593 4.19105 28.2891C4.13259 28.3798 4.09334 28.4812 4.07565 28.5872C4.05797 28.6933 4.06222 28.8018 4.08814 28.9061C4.11407 29.0105 4.16113 29.1087 4.22651 29.1947C4.29189 29.2806 4.37422 29.3527 4.46856 29.4065C4.56291 29.4603 4.6673 29.4947 4.77548 29.5076C4.88365 29.5206 4.99337 29.5118 5.09802 29.4819C5.20267 29.4519 5.30011 29.4014 5.38445 29.3334C5.4688 29.2653 5.53832 29.1812 5.58883 29.0859C8.17566 24.6779 12.746 22.0469 17.8174 22.0469C22.8887 22.0469 27.459 24.6779 30.0459 29.0859C30.0964 29.1812 30.1659 29.2653 30.2502 29.3334C30.3346 29.4014 30.432 29.4519 30.5367 29.4819C30.6413 29.5118 30.7511 29.5206 30.8592 29.5076C30.9674 29.4947 31.0718 29.4603 31.1661 29.4065C31.2605 29.3527 31.3428 29.2806 31.4082 29.1947C31.4736 29.1087 31.5206 29.0105 31.5466 28.9061C31.5725 28.8018 31.5767 28.6933 31.559 28.5872C31.5414 28.4812 31.5021 28.3798 31.4436 28.2891ZM10.007 12.75C10.007 11.2265 10.4651 9.73714 11.3233 8.47037C12.1815 7.2036 13.4013 6.21627 14.8285 5.63324C16.2556 5.05021 17.826 4.89766 19.3411 5.19488C20.8561 5.49211 22.2478 6.22576 23.3401 7.30306C24.4324 8.38037 25.1762 9.75293 25.4776 11.2472C25.779 12.7415 25.6243 14.2903 25.0331 15.6979C24.442 17.1054 23.4409 18.3085 22.1565 19.1549C20.8721 20.0013 19.3621 20.4531 17.8174 20.4531C15.7467 20.4507 13.7616 19.6383 12.2974 18.1942C10.8332 16.7501 10.0095 14.7922 10.007 12.75Z" fill="#121212"/>
</svg>
