<svg width="20" height="20" viewBox="0 0 20 20" fill="none" xmlns="http://www.w3.org/2000/svg">
<path d="M6.14992 0.833252H13.8499C16.7833 0.833252 19.1666 3.21659 19.1666 6.14992V13.8499C19.1666 15.26 18.6064 16.6123 17.6094 17.6094C16.6123 18.6064 15.26 19.1666 13.8499 19.1666H6.14992C3.21659 19.1666 0.833252 16.7833 0.833252 13.8499V6.14992C0.833252 4.73985 1.3934 3.38754 2.39047 2.39047C3.38754 1.3934 4.73985 0.833252 6.14992 0.833252ZM5.96659 2.66659C5.09137 2.66659 4.252 3.01426 3.63313 3.63313C3.01426 4.252 2.66659 5.09137 2.66659 5.96659V14.0333C2.66659 15.8574 4.14242 17.3333 5.96659 17.3333H14.0333C14.9085 17.3333 15.7478 16.9856 16.3667 16.3667C16.9856 15.7478 17.3333 14.9085 17.3333 14.0333V5.96659C17.3333 4.14242 15.8574 2.66659 14.0333 2.66659H5.96659ZM14.8124 4.04159C15.1163 4.04159 15.4078 4.16231 15.6226 4.37719C15.8375 4.59208 15.9583 4.88352 15.9583 5.18742C15.9583 5.49131 15.8375 5.78276 15.6226 5.99765C15.4078 6.21253 15.1163 6.33325 14.8124 6.33325C14.5085 6.33325 14.2171 6.21253 14.0022 5.99765C13.7873 5.78276 13.6666 5.49131 13.6666 5.18742C13.6666 4.88352 13.7873 4.59208 14.0022 4.37719C14.2171 4.16231 14.5085 4.04159 14.8124 4.04159ZM9.99992 5.41659C11.2155 5.41659 12.3813 5.89947 13.2408 6.75901C14.1004 7.61855 14.5833 8.78434 14.5833 9.99992C14.5833 11.2155 14.1004 12.3813 13.2408 13.2408C12.3813 14.1004 11.2155 14.5833 9.99992 14.5833C8.78434 14.5833 7.61855 14.1004 6.75901 13.2408C5.89947 12.3813 5.41659 11.2155 5.41659 9.99992C5.41659 8.78434 5.89947 7.61855 6.75901 6.75901C7.61855 5.89947 8.78434 5.41659 9.99992 5.41659ZM9.99992 7.24992C9.27057 7.24992 8.5711 7.53965 8.05537 8.05537C7.53965 8.5711 7.24992 9.27057 7.24992 9.99992C7.24992 10.7293 7.53965 11.4287 8.05537 11.9445C8.5711 12.4602 9.27057 12.7499 9.99992 12.7499C10.7293 12.7499 11.4287 12.4602 11.9445 11.9445C12.4602 11.4287 12.7499 10.7293 12.7499 9.99992C12.7499 9.27057 12.4602 8.5711 11.9445 8.05537C11.4287 7.53965 10.7293 7.24992 9.99992 7.24992Z" fill="#A8B324"/>
</svg>
