<svg width="20" height="20" viewBox="0 0 20 20" fill="none" xmlns="http://www.w3.org/2000/svg">
<path d="M6.14998 0.833252H13.85C16.7833 0.833252 19.1666 3.21659 19.1666 6.14992V13.8499C19.1666 15.26 18.6065 16.6123 17.6094 17.6094C16.6124 18.6064 15.26 19.1666 13.85 19.1666H6.14998C3.21665 19.1666 0.833313 16.7833 0.833313 13.8499V6.14992C0.833313 4.73985 1.39346 3.38754 2.39053 2.39047C3.3876 1.3934 4.73991 0.833252 6.14998 0.833252ZM5.96665 2.66659C5.09143 2.66659 4.25206 3.01426 3.63319 3.63313C3.01432 4.252 2.66665 5.09137 2.66665 5.96659V14.0333C2.66665 15.8574 4.14248 17.3333 5.96665 17.3333H14.0333C14.9085 17.3333 15.7479 16.9856 16.3668 16.3667C16.9856 15.7478 17.3333 14.9085 17.3333 14.0333V5.96659C17.3333 4.14242 15.8575 2.66659 14.0333 2.66659H5.96665ZM14.8125 4.04159C15.1164 4.04159 15.4078 4.16231 15.6227 4.37719C15.8376 4.59208 15.9583 4.88352 15.9583 5.18742C15.9583 5.49131 15.8376 5.78276 15.6227 5.99765C15.4078 6.21253 15.1164 6.33325 14.8125 6.33325C14.5086 6.33325 14.2171 6.21253 14.0023 5.99765C13.7874 5.78276 13.6666 5.49131 13.6666 5.18742C13.6666 4.88352 13.7874 4.59208 14.0023 4.37719C14.2171 4.16231 14.5086 4.04159 14.8125 4.04159ZM9.99998 5.41659C11.2156 5.41659 12.3813 5.89947 13.2409 6.75901C14.1004 7.61855 14.5833 8.78434 14.5833 9.99992C14.5833 11.2155 14.1004 12.3813 13.2409 13.2408C12.3813 14.1004 11.2156 14.5833 9.99998 14.5833C8.7844 14.5833 7.61862 14.1004 6.75907 13.2408C5.89953 12.3813 5.41665 11.2155 5.41665 9.99992C5.41665 8.78434 5.89953 7.61855 6.75907 6.75901C7.61862 5.89947 8.7844 5.41659 9.99998 5.41659ZM9.99998 7.24992C9.27063 7.24992 8.57116 7.53965 8.05544 8.05537C7.53971 8.5711 7.24998 9.27057 7.24998 9.99992C7.24998 10.7293 7.53971 11.4287 8.05544 11.9445C8.57116 12.4602 9.27063 12.7499 9.99998 12.7499C10.7293 12.7499 11.4288 12.4602 11.9445 11.9445C12.4602 11.4287 12.75 10.7293 12.75 9.99992C12.75 9.27057 12.4602 8.5711 11.9445 8.05537C11.4288 7.53965 10.7293 7.24992 9.99998 7.24992Z" fill="#A8B324"/>
</svg>
