<svg width="20" height="20" viewBox="0 0 20 20" fill="none" xmlns="http://www.w3.org/2000/svg">
<path d="M6.15001 0.833374H13.85C16.7833 0.833374 19.1667 3.21671 19.1667 6.15004V13.85C19.1667 15.2601 18.6065 16.6124 17.6095 17.6095C16.6124 18.6066 15.2601 19.1667 13.85 19.1667H6.15001C3.21668 19.1667 0.833344 16.7834 0.833344 13.85V6.15004C0.833344 4.73997 1.39349 3.38766 2.39056 2.39059C3.38763 1.39352 4.73994 0.833374 6.15001 0.833374ZM5.96668 2.66671C5.09146 2.66671 4.25209 3.01439 3.63322 3.63326C3.01435 4.25213 2.66668 5.09149 2.66668 5.96671V14.0334C2.66668 15.8575 4.14251 17.3334 5.96668 17.3334H14.0333C14.9086 17.3334 15.7479 16.9857 16.3668 16.3668C16.9857 15.748 17.3333 14.9086 17.3333 14.0334V5.96671C17.3333 4.14254 15.8575 2.66671 14.0333 2.66671H5.96668ZM14.8125 4.04171C15.1164 4.04171 15.4079 4.16243 15.6227 4.37731C15.8376 4.5922 15.9583 4.88365 15.9583 5.18754C15.9583 5.49143 15.8376 5.78288 15.6227 5.99777C15.4079 6.21265 15.1164 6.33337 14.8125 6.33337C14.5086 6.33337 14.2172 6.21265 14.0023 5.99777C13.7874 5.78288 13.6667 5.49143 13.6667 5.18754C13.6667 4.88365 13.7874 4.5922 14.0023 4.37731C14.2172 4.16243 14.5086 4.04171 14.8125 4.04171ZM10 5.41671C11.2156 5.41671 12.3814 5.89959 13.2409 6.75913C14.1005 7.61868 14.5833 8.78447 14.5833 10C14.5833 11.2156 14.1005 12.3814 13.2409 13.2409C12.3814 14.1005 11.2156 14.5834 10 14.5834C8.78443 14.5834 7.61865 14.1005 6.7591 13.2409C5.89956 12.3814 5.41668 11.2156 5.41668 10C5.41668 8.78447 5.89956 7.61868 6.7591 6.75913C7.61865 5.89959 8.78443 5.41671 10 5.41671ZM10 7.25004C9.27067 7.25004 8.57119 7.53977 8.05547 8.0555C7.53974 8.57122 7.25001 9.2707 7.25001 10C7.25001 10.7294 7.53974 11.4289 8.05547 11.9446C8.57119 12.4603 9.27067 12.75 10 12.75C10.7294 12.75 11.4288 12.4603 11.9446 11.9446C12.4603 11.4289 12.75 10.7294 12.75 10C12.75 9.2707 12.4603 8.57122 11.9446 8.0555C11.4288 7.53977 10.7294 7.25004 10 7.25004Z" fill="#A8B324"/>
</svg>
