<svg width="32" height="32" viewBox="0 0 32 32" fill="none" xmlns="http://www.w3.org/2000/svg">
<path d="M21.6625 11.6625L17.325 16L21.6625 20.3375C21.7546 20.4233 21.8285 20.5268 21.8797 20.6418C21.931 20.7568 21.9585 20.881 21.9607 21.0068C21.963 21.1327 21.9398 21.2578 21.8927 21.3745C21.8455 21.4912 21.7753 21.5973 21.6863 21.6863C21.5973 21.7753 21.4912 21.8455 21.3745 21.8927C21.2578 21.9398 21.1327 21.963 21.0069 21.9607C20.881 21.9585 20.7568 21.931 20.6418 21.8797C20.5268 21.8285 20.4233 21.7546 20.3375 21.6625L16 17.325L11.6625 21.6625C11.4848 21.8281 11.2497 21.9183 11.0069 21.914C10.764 21.9097 10.5322 21.8113 10.3605 21.6395C10.1887 21.4678 10.0903 21.236 10.086 20.9932C10.0818 20.7503 10.1719 20.5152 10.3375 20.3375L14.675 16L10.3375 11.6625C10.1719 11.4848 10.0818 11.2497 10.086 11.0068C10.0903 10.764 10.1887 10.5322 10.3605 10.3605C10.5322 10.1887 10.764 10.0903 11.0069 10.086C11.2497 10.0817 11.4848 10.1719 11.6625 10.3375L16 14.675L20.3375 10.3375C20.5152 10.1719 20.7503 10.0817 20.9932 10.086C21.236 10.0903 21.4678 10.1887 21.6395 10.3605C21.8113 10.5322 21.9097 10.764 21.914 11.0068C21.9183 11.2497 21.8281 11.4848 21.6625 11.6625ZM31.9375 16C31.9375 19.1521 31.0028 22.2335 29.2516 24.8544C27.5003 27.4753 25.0112 29.5181 22.099 30.7243C19.1868 31.9306 15.9823 32.2462 12.8908 31.6313C9.79918 31.0163 6.95939 29.4984 4.73049 27.2695C2.50159 25.0406 0.983694 22.2008 0.368742 19.1093C-0.24621 16.0177 0.0694052 12.8132 1.27568 9.90098C2.48195 6.98879 4.5247 4.49969 7.14561 2.74845C9.76651 0.997218 12.8479 0.0625 16 0.0625C20.2254 0.0674623 24.2763 1.74818 27.264 4.73597C30.2518 7.72375 31.9325 11.7746 31.9375 16ZM30.0625 16C30.0625 13.2187 29.2378 10.4999 27.6925 8.18729C26.1473 5.87473 23.9511 4.0723 21.3815 3.00794C18.8119 1.94359 15.9844 1.6651 13.2565 2.20771C10.5287 2.75031 8.02299 4.08963 6.05632 6.05631C4.08964 8.02299 2.75032 10.5287 2.20771 13.2565C1.66511 15.9844 1.94359 18.8119 3.00795 21.3815C4.07231 23.9511 5.87473 26.1473 8.1873 27.6925C10.4999 29.2377 13.2187 30.0625 16 30.0625C19.7283 30.0584 23.3028 28.5755 25.9391 25.9391C28.5755 23.3028 30.0584 19.7283 30.0625 16Z" fill="#333333"/>
</svg>
