<svg width="20" height="20" viewBox="0 0 20 20" fill="none" xmlns="http://www.w3.org/2000/svg">
<path d="M6.14992 0.833374H13.8499C16.7833 0.833374 19.1666 3.21671 19.1666 6.15004V13.85C19.1666 15.2601 18.6064 16.6124 17.6094 17.6095C16.6123 18.6066 15.26 19.1667 13.8499 19.1667H6.14992C3.21659 19.1667 0.833252 16.7834 0.833252 13.85V6.15004C0.833252 4.73997 1.3934 3.38766 2.39047 2.39059C3.38754 1.39352 4.73985 0.833374 6.14992 0.833374ZM5.96659 2.66671C5.09137 2.66671 4.252 3.01439 3.63313 3.63326C3.01426 4.25213 2.66659 5.09149 2.66659 5.96671V14.0334C2.66659 15.8575 4.14242 17.3334 5.96659 17.3334H14.0333C14.9085 17.3334 15.7478 16.9857 16.3667 16.3668C16.9856 15.748 17.3333 14.9086 17.3333 14.0334V5.96671C17.3333 4.14254 15.8574 2.66671 14.0333 2.66671H5.96659ZM14.8124 4.04171C15.1163 4.04171 15.4078 4.16243 15.6226 4.37731C15.8375 4.5922 15.9583 4.88365 15.9583 5.18754C15.9583 5.49143 15.8375 5.78288 15.6226 5.99777C15.4078 6.21265 15.1163 6.33337 14.8124 6.33337C14.5085 6.33337 14.2171 6.21265 14.0022 5.99777C13.7873 5.78288 13.6666 5.49143 13.6666 5.18754C13.6666 4.88365 13.7873 4.5922 14.0022 4.37731C14.2171 4.16243 14.5085 4.04171 14.8124 4.04171ZM9.99992 5.41671C11.2155 5.41671 12.3813 5.89959 13.2408 6.75913C14.1004 7.61868 14.5833 8.78447 14.5833 10C14.5833 11.2156 14.1004 12.3814 13.2408 13.2409C12.3813 14.1005 11.2155 14.5834 9.99992 14.5834C8.78434 14.5834 7.61855 14.1005 6.75901 13.2409C5.89947 12.3814 5.41659 11.2156 5.41659 10C5.41659 8.78447 5.89947 7.61868 6.75901 6.75913C7.61855 5.89959 8.78434 5.41671 9.99992 5.41671ZM9.99992 7.25004C9.27057 7.25004 8.5711 7.53977 8.05537 8.0555C7.53965 8.57122 7.24992 9.2707 7.24992 10C7.24992 10.7294 7.53965 11.4289 8.05537 11.9446C8.5711 12.4603 9.27057 12.75 9.99992 12.75C10.7293 12.75 11.4287 12.4603 11.9445 11.9446C12.4602 11.4289 12.7499 10.7294 12.7499 10C12.7499 9.2707 12.4602 8.57122 11.9445 8.0555C11.4287 7.53977 10.7293 7.25004 9.99992 7.25004Z" fill="#A8B324"/>
</svg>
