<svg width="20" height="20" viewBox="0 0 20 20" fill="none" xmlns="http://www.w3.org/2000/svg">
<path d="M6.15004 0.833252H13.85C16.7834 0.833252 19.1667 3.21659 19.1667 6.14992V13.8499C19.1667 15.26 18.6066 16.6123 17.6095 17.6094C16.6124 18.6064 15.2601 19.1666 13.85 19.1666H6.15004C3.21671 19.1666 0.833374 16.7833 0.833374 13.8499V6.14992C0.833374 4.73985 1.39352 3.38754 2.39059 2.39047C3.38766 1.3934 4.73997 0.833252 6.15004 0.833252ZM5.96671 2.66659C5.09149 2.66659 4.25213 3.01426 3.63326 3.63313C3.01439 4.252 2.66671 5.09137 2.66671 5.96659V14.0333C2.66671 15.8574 4.14254 17.3333 5.96671 17.3333H14.0334C14.9086 17.3333 15.748 16.9856 16.3668 16.3667C16.9857 15.7478 17.3334 14.9085 17.3334 14.0333V5.96659C17.3334 4.14242 15.8575 2.66659 14.0334 2.66659H5.96671ZM14.8125 4.04159C15.1164 4.04159 15.4079 4.16231 15.6228 4.37719C15.8377 4.59208 15.9584 4.88352 15.9584 5.18742C15.9584 5.49131 15.8377 5.78276 15.6228 5.99765C15.4079 6.21253 15.1164 6.33325 14.8125 6.33325C14.5086 6.33325 14.2172 6.21253 14.0023 5.99765C13.7874 5.78276 13.6667 5.49131 13.6667 5.18742C13.6667 4.88352 13.7874 4.59208 14.0023 4.37719C14.2172 4.16231 14.5086 4.04159 14.8125 4.04159ZM10 5.41659C11.2156 5.41659 12.3814 5.89947 13.2409 6.75901C14.1005 7.61855 14.5834 8.78434 14.5834 9.99992C14.5834 11.2155 14.1005 12.3813 13.2409 13.2408C12.3814 14.1004 11.2156 14.5833 10 14.5833C8.78447 14.5833 7.61868 14.1004 6.75913 13.2408C5.89959 12.3813 5.41671 11.2155 5.41671 9.99992C5.41671 8.78434 5.89959 7.61855 6.75913 6.75901C7.61868 5.89947 8.78447 5.41659 10 5.41659ZM10 7.24992C9.2707 7.24992 8.57122 7.53965 8.0555 8.05537C7.53977 8.5711 7.25004 9.27057 7.25004 9.99992C7.25004 10.7293 7.53977 11.4287 8.0555 11.9445C8.57122 12.4602 9.2707 12.7499 10 12.7499C10.7294 12.7499 11.4289 12.4602 11.9446 11.9445C12.4603 11.4287 12.75 10.7293 12.75 9.99992C12.75 9.27057 12.4603 8.5711 11.9446 8.05537C11.4289 7.53965 10.7294 7.24992 10 7.24992Z" fill="#A8B324"/>
</svg>
