<svg width="18" height="18" viewBox="0 0 18 18" fill="none" xmlns="http://www.w3.org/2000/svg">
<path d="M12.2043 6.61437L9.81261 9L12.2043 11.3856C12.2551 11.4328 12.2959 11.4898 12.3241 11.553C12.3524 11.6163 12.3676 11.6845 12.3688 11.7538C12.37 11.823 12.3572 11.8918 12.3312 11.956C12.3052 12.0202 12.2665 12.0785 12.2175 12.1275C12.1684 12.1764 12.1099 12.215 12.0455 12.241C11.9812 12.2669 11.9122 12.2796 11.8428 12.2784C11.7734 12.2772 11.7049 12.262 11.6415 12.2338C11.5781 12.2057 11.521 12.165 11.4737 12.1144L9.08199 9.72875L6.69027 12.1144C6.59227 12.2055 6.46266 12.255 6.32874 12.2527C6.19481 12.2503 6.06703 12.1962 5.97232 12.1017C5.87761 12.0073 5.82335 11.8798 5.82099 11.7462C5.81863 11.6127 5.86834 11.4834 5.95965 11.3856L8.35138 9L5.95965 6.61437C5.86834 6.51663 5.81863 6.38735 5.82099 6.25377C5.82335 6.12018 5.87761 5.99273 5.97232 5.89826C6.06703 5.80379 6.19481 5.74967 6.32874 5.74732C6.46266 5.74496 6.59227 5.79455 6.69027 5.88563L9.08199 8.27125L11.4737 5.88563C11.5717 5.79455 11.7013 5.74496 11.8353 5.74732C11.9692 5.74967 12.097 5.80379 12.1917 5.89826C12.2864 5.99273 12.3406 6.12018 12.343 6.25377C12.3454 6.38735 12.2956 6.51663 12.2043 6.61437ZM17.87 9C17.87 10.7337 17.3546 12.4284 16.389 13.8699C15.4233 15.3114 14.0508 16.4349 12.445 17.0984C10.8392 17.7618 9.07224 17.9354 7.36753 17.5972C5.66282 17.259 4.09694 16.4241 2.86791 15.1982C1.63888 13.9723 0.801898 12.4105 0.462809 10.7101C0.12372 9.00972 0.297753 7.24725 0.962899 5.64554C1.62805 4.04383 2.75443 2.67483 4.19962 1.71165C5.6448 0.74847 7.34388 0.234375 9.08199 0.234375C11.4119 0.237104 13.6456 1.1615 15.2931 2.80478C16.9405 4.44806 17.8673 6.67605 17.87 9ZM16.8361 9C16.8361 7.47029 16.3814 5.97492 15.5293 4.70301C14.6773 3.4311 13.4663 2.43977 12.0494 1.85437C10.6325 1.26897 9.07339 1.11581 7.56923 1.41424C6.06507 1.71267 4.68341 2.4493 3.59898 3.53097C2.51454 4.61264 1.77603 5.99078 1.47683 7.4911C1.17763 8.99142 1.33119 10.5465 1.91809 11.9598C2.50498 13.3731 3.49885 14.581 4.77401 15.4309C6.04918 16.2808 7.54837 16.7344 9.08199 16.7344C11.1378 16.7321 13.1088 15.9165 14.5625 14.4665C16.0162 13.0165 16.8339 11.0506 16.8361 9Z" fill="white"/>
</svg>