<svg width="20" height="20" viewBox="0 0 20 20" fill="none" xmlns="http://www.w3.org/2000/svg">
<path d="M6.14967 0.833374H13.8497C16.783 0.833374 19.1663 3.21671 19.1663 6.15004V13.85C19.1663 15.2601 18.6062 16.6124 17.6091 17.6095C16.6121 18.6066 15.2597 19.1667 13.8497 19.1667H6.14967C3.21634 19.1667 0.833008 16.7834 0.833008 13.85V6.15004C0.833008 4.73997 1.39316 3.38766 2.39022 2.39059C3.38729 1.39352 4.73961 0.833374 6.14967 0.833374ZM5.96634 2.66671C5.09113 2.66671 4.25176 3.01439 3.63289 3.63326C3.01402 4.25213 2.66634 5.09149 2.66634 5.96671V14.0334C2.66634 15.8575 4.14217 17.3334 5.96634 17.3334H14.033C14.9082 17.3334 15.7476 16.9857 16.3665 16.3668C16.9853 15.748 17.333 14.9086 17.333 14.0334V5.96671C17.333 4.14254 15.8572 2.66671 14.033 2.66671H5.96634ZM14.8122 4.04171C15.1161 4.04171 15.4075 4.16243 15.6224 4.37731C15.8373 4.5922 15.958 4.88365 15.958 5.18754C15.958 5.49143 15.8373 5.78288 15.6224 5.99777C15.4075 6.21265 15.1161 6.33337 14.8122 6.33337C14.5083 6.33337 14.2168 6.21265 14.0019 5.99777C13.7871 5.78288 13.6663 5.49143 13.6663 5.18754C13.6663 4.88365 13.7871 4.5922 14.0019 4.37731C14.2168 4.16243 14.5083 4.04171 14.8122 4.04171ZM9.99967 5.41671C11.2153 5.41671 12.381 5.89959 13.2406 6.75913C14.1001 7.61868 14.583 8.78447 14.583 10C14.583 11.2156 14.1001 12.3814 13.2406 13.2409C12.381 14.1005 11.2153 14.5834 9.99967 14.5834C8.7841 14.5834 7.61831 14.1005 6.75877 13.2409C5.89923 12.3814 5.41634 11.2156 5.41634 10C5.41634 8.78447 5.89923 7.61868 6.75877 6.75913C7.61831 5.89959 8.7841 5.41671 9.99967 5.41671ZM9.99967 7.25004C9.27033 7.25004 8.57086 7.53977 8.05513 8.0555C7.53941 8.57122 7.24967 9.2707 7.24967 10C7.24967 10.7294 7.53941 11.4289 8.05513 11.9446C8.57086 12.4603 9.27033 12.75 9.99967 12.75C10.729 12.75 11.4285 12.4603 11.9442 11.9446C12.4599 11.4289 12.7497 10.7294 12.7497 10C12.7497 9.2707 12.4599 8.57122 11.9442 8.0555C11.4285 7.53977 10.729 7.25004 9.99967 7.25004Z" fill="#A8B324"/>
</svg>
