<svg width="20" height="20" viewBox="0 0 20 20" fill="none" xmlns="http://www.w3.org/2000/svg">
<path d="M6.15001 0.833328H13.85C16.7833 0.833328 19.1667 3.21666 19.1667 6.15V13.85C19.1667 15.2601 18.6065 16.6124 17.6095 17.6094C16.6124 18.6065 15.2601 19.1667 13.85 19.1667H6.15001C3.21668 19.1667 0.833344 16.7833 0.833344 13.85V6.15C0.833344 4.73993 1.39349 3.38761 2.39056 2.39054C3.38763 1.39348 4.73994 0.833328 6.15001 0.833328ZM5.96668 2.66666C5.09146 2.66666 4.25209 3.01434 3.63322 3.63321C3.01435 4.25208 2.66668 5.09145 2.66668 5.96666V14.0333C2.66668 15.8575 4.14251 17.3333 5.96668 17.3333H14.0333C14.9086 17.3333 15.7479 16.9857 16.3668 16.3668C16.9857 15.7479 17.3333 14.9085 17.3333 14.0333V5.96666C17.3333 4.14249 15.8575 2.66666 14.0333 2.66666H5.96668ZM14.8125 4.04166C15.1164 4.04166 15.4079 4.16238 15.6227 4.37727C15.8376 4.59215 15.9583 4.8836 15.9583 5.1875C15.9583 5.49139 15.8376 5.78284 15.6227 5.99772C15.4079 6.21261 15.1164 6.33333 14.8125 6.33333C14.5086 6.33333 14.2172 6.21261 14.0023 5.99772C13.7874 5.78284 13.6667 5.49139 13.6667 5.1875C13.6667 4.8836 13.7874 4.59215 14.0023 4.37727C14.2172 4.16238 14.5086 4.04166 14.8125 4.04166ZM10 5.41666C11.2156 5.41666 12.3814 5.89955 13.2409 6.75909C14.1005 7.61863 14.5833 8.78442 14.5833 10C14.5833 11.2156 14.1005 12.3814 13.2409 13.2409C12.3814 14.1004 11.2156 14.5833 10 14.5833C8.78443 14.5833 7.61865 14.1004 6.7591 13.2409C5.89956 12.3814 5.41668 11.2156 5.41668 10C5.41668 8.78442 5.89956 7.61863 6.7591 6.75909C7.61865 5.89955 8.78443 5.41666 10 5.41666ZM10 7.25C9.27067 7.25 8.57119 7.53973 8.05547 8.05545C7.53974 8.57118 7.25001 9.27065 7.25001 10C7.25001 10.7293 7.53974 11.4288 8.05547 11.9445C8.57119 12.4603 9.27067 12.75 10 12.75C10.7294 12.75 11.4288 12.4603 11.9446 11.9445C12.4603 11.4288 12.75 10.7293 12.75 10C12.75 9.27065 12.4603 8.57118 11.9446 8.05545C11.4288 7.53973 10.7294 7.25 10 7.25Z" fill="#A8B324"/>
</svg>
